<svg xmlns="http://www.w3.org/2000/svg" viewBox="0 0 265 294">
  <rect width="265" height="294" rx="20" fill="#254f9f"/>
  <path fill="#ffffff" fill-rule="evenodd" d="m225.45 226.68-6.91-.02-16.91.02h-5.53l-2.32.03-2.86-.24-3.8-1.1-3.18-1.84-2.55-2.28-1.97-2.47-1.47-2.39-.97-2.02-.55-1.42-.18-.52-26.73-54.75-1.05-1.96-2.63-4.31-2.6-3.65-2.57-3.07-2.54-2.47-2.45-1.99-2.33-1.55-2.18-1.16-2.05-.81-1.84-.53-1.65-.31-1.39-.13h-1.13l-.84.07-1.81.35-3.44 1.26-2.79 1.81-2.18 2.23-1.65 2.55-1.18 2.78-.79 2.83-.47 2.87-.21 2.7-.03 2.47.11 2.13.15 1.65.16 1.08.05.36.06.5.23 3.13.13 2.41.16 2.84.19 3.2.15 3.49.19 3.7.18 3.78.21 3.84.16 3.78.18 3.65.16 3.44.13 3.12.13 2.73.11 2.29.13 2.83.13 3.83-.31 2.97-.71 2.52-1.08 2.08-1.39 1.68-3.68 2.23-2.23.6-2.44.29-2.65-.03-2.84-.28-2.96-.53-3.1-.73-3.18-.98-3.23-1.13-3.28-1.28-3.31-1.45-3.25-1.52-3.23-1.63-3.18-1.68-2.15-1.36-2.18-1.92-1.76-2.12-1.34-2.34-1-2.5-.65-2.59-.35-2.68-.1-2.71.1-2.73.29-2.68.45-2.62.55-2.5.63-2.33.66-2.15 1.28-3.6 1-2.39.4-.87 29.22-66.03.89-2.2 1.23-3.97.63-3.59.16-3.26-.29-2.94-.6-2.63-.89-2.31-1.08-2.02-1.21-1.7-1.21-1.42-1.18-1.16-1.05-.89-1.39-.97-2.02-.97-3.41-1.16-3.15-.55h-2.97l-2.71.42-2.49.82-2.26 1.1-2.02 1.31-1.78 1.44-1.58 1.53-1.31 1.49-1.08 1.4-.84 1.23-.97 1.6-.13.24-51.72 92.7-1 1.94-1.29 3.37-.76 3.25L0 195.7l.05 3.02.37 2.84.6 2.6.74 2.36.84 2.1.84 1.76.79 1.44.65 1.08.61.89 49.7 72.17 7.56 5.65 5.56 1.02h141.31l7.93-1.62 6.74-5.36 28.72-49.36.85-4.44-.79-2.18-7.67-2.99-1.39-.02-.55.05-4.15-.03h-13.86zM212.45 143.01l.45-2.84.21-2.73.02-2.47-.1-2.1-.16-1.65-.13-1.08-.08-.39-.05-.47-.21-3.15-.16-2.39-.16-2.86-.15-3.21-.19-3.49-.18-3.67-.18-3.81-.19-3.83-.18-3.79-.16-3.62-.18-3.44-.13-3.12-.14-2.76-.1-2.28-.13-2.81-.11-3.84.32-2.96.71-2.52 1.05-2.1 1.39-1.68 3.67-2.21 2.24-.6 2.46-.29 2.66.02 2.8.29 3 .53 3.07.76 3.18.95 3.25 1.12 3.28 1.29 3.29 1.44 3.28 1.53 3.23 1.63 3.15 1.68 2.15 1.36 2.2 1.89 1.74 2.15 1.36 2.31.97 2.5.66 2.6.37 2.68.1 2.73-.1 2.7-.32 2.7-.44 2.6-.55 2.5-.63 2.36-.66 2.15-1.29 3.6-.97 2.36-.39.87-29.25 66.06-.89 2.2-1.21 3.94-.66 3.6-.13 3.28.26 2.94.63 2.6.9 2.34 1.07 1.99 1.19 1.71 1.23 1.44 1.15 1.16 1.05.86 1.42 1 2 .95 3.41 1.15 3.18.55 2.94.03 2.7-.45 2.5-.79 2.25-1.1 2.03-1.31 1.81-1.47 1.55-1.5 1.31-1.49 1.1-1.42.84-1.21.97-1.63.11-.21 51.72-92.73 1.02-1.97 1.29-3.36.79-3.25.31-3.15-.05-3.02-.37-2.81-.6-2.6-.74-2.37-.84-2.07-.84-1.78-.78-1.45-.66-1.05-.6-.89-49.7-72.15-7.59-5.7L252.57 0H111.24l-7.9 1.65-6.75 5.33-28.72 49.41-.84 4.36.76 2.21 7.67 3.02h1.41l.53-.03h4.15l4.7.03h35.89l2.65-.03h2.28l2.89.21 3.81 1.13 3.15 1.84 2.54 2.28 2 2.47 1.44 2.36 1 2.05.55 1.42.16.52 26.73 54.74 1.05 1.97 2.62 4.31 2.63 3.65 2.57 3.04 2.52 2.5 2.44 1.99 2.34 1.55 2.21 1.16 2.04.81 1.84.53 1.63.29 1.42.13h1.13l.84-.06 1.81-.36 3.44-1.26 2.75-1.79 2.18-2.26 1.66-2.54 1.18-2.76.81-2.86z"/>
</svg>
