<svg width="900" height="312" viewBox="0 0 900 312" fill="none" xmlns="http://www.w3.org/2000/svg">
<rect width="900" height="312" fill="white"/>
<path fill-rule="evenodd" clip-rule="evenodd" d="M745.283 115.704L366.93 149.665L366.929 150.426L719.144 133.951L745.283 115.704ZM826.735 61.7207L412.858 126.855L412.859 127.618L789.689 87.8231L826.735 61.7207ZM672.71 48.0349L238.275 135.725L238.531 136.487L638.956 71.6051L672.71 48.0349Z" fill="#E42237"/>
<path fill-rule="evenodd" clip-rule="evenodd" d="M227.871 170.955C251.978 170.955 269.231 187.18 269.231 213.533C269.233 239.895 251.976 256.369 227.872 256.369C203.514 256.369 186.256 239.895 186.256 213.533C186.256 187.178 203.509 170.955 227.871 170.955ZM204.527 213.533C204.527 231.531 213.915 241.412 227.872 241.412C241.829 241.412 251.216 231.521 251.216 213.533C251.216 195.795 241.832 185.904 227.874 185.904C213.915 185.904 204.526 195.793 204.527 213.533ZM409.306 254.593H383.678L383.68 172.729H413.117C440.266 172.729 458.029 184.638 458.029 213.282C458.029 242.678 436.967 254.593 409.306 254.593ZM411.592 186.669H400.68V240.146H411.084C427.831 240.146 439.755 232.287 439.755 213.783C439.755 195.536 430.37 186.669 411.592 186.669ZM542.021 254.593L515.634 219.365C529.081 217.082 537.454 208.208 537.454 194.776C537.454 181.095 527.051 172.729 506.75 172.729H475.027L475.031 254.593H492.283V213.282L520.959 254.593H542.021ZM492.283 209.474V186.161H504.469C514.108 186.161 519.947 188.695 519.947 196.551C519.947 204.408 514.362 209.474 504.464 209.474H492.283ZM555.727 172.729H572.724V254.593H555.724L555.727 172.729ZM726.5 254.593L726.503 219.864H687.932V254.593H670.678L670.675 172.729H687.932V205.425H726.5V172.729H743.507V254.593H726.5ZM325.06 170.955C349.168 170.955 366.422 187.18 366.422 213.533C366.422 239.895 349.168 256.369 325.06 256.369C300.702 256.369 283.444 239.895 283.444 213.533C283.444 187.178 300.702 170.955 325.06 170.955ZM301.715 213.533C301.715 231.531 311.105 241.412 325.06 241.412C338.763 241.412 348.407 231.529 348.407 213.533C348.407 195.795 338.763 185.912 325.06 185.904C311.108 185.904 301.715 195.793 301.715 213.533ZM651.39 237.103C646.313 239.386 639.973 240.904 634.139 240.904C617.642 240.904 608.252 232.287 608.252 213.783C608.252 197.568 616.882 186.161 633.12 186.161C639.209 186.161 644.032 186.919 651.141 189.961L652.656 174.247C646.823 172.473 639.973 171.204 634.388 171.204C603.683 171.204 589.981 190.727 589.981 214.291C589.981 238.37 603.683 256.11 630.583 256.11C637.433 256.11 645.303 254.593 652.657 252.051L651.39 237.103ZM167.478 169.43C158.851 166.14 148.446 163.604 137.282 163.857C117.233 163.857 99.2172 176.529 99.2172 202.127C99.2172 224.938 112.413 239.386 135.25 239.386C141.34 239.386 147.18 238.37 151.999 236.855V200.102H170.779V249.778C160.12 253.827 145.658 256.369 133.475 256.369C100.488 256.369 78.9158 233.806 78.9207 202.893C78.919 168.423 103.787 146.875 138.803 146.875C148.954 146.875 160.12 149.159 169 152.454L167.478 169.43Z" fill="#360054"/>
</svg>
