<svg width="900" height="312" viewBox="0 0 900 312" fill="none" xmlns="http://www.w3.org/2000/svg">
<rect width="900" height="312" fill="none"/>
<path d="M509.742 215.025C509.232 213.912 508.23 213.589 507.078 213.589L460.904 213.619L447.567 241.834L439.744 241.722L482.061 151.232L488.451 151.211L529.352 241.731L522.012 241.899L509.737 215.021L509.742 215.025ZM506.205 206.976L485.459 161.654L463.767 207.041L506.205 206.976Z" fill="#AFC672"/>
<path d="M629.013 234.494C646.024 240.799 668.383 237.6 679.826 222.373C682.056 223.828 683.683 224.794 685.875 225.899C678.789 235.507 668.296 241.62 656.517 243.35C646.111 244.88 634.227 243.997 624.499 240.047C601.811 230.841 594.979 206.674 600.014 184.302C603.347 169.494 614.015 157.784 628.51 153.148C641.094 149.124 654.478 149.107 667.023 153.205C675.224 155.884 681.776 160.935 686.977 167.913L680.989 171.732C674.988 163.141 665.785 158.449 655.607 157.4C646.325 156.447 637.219 156.941 628.567 160.41C608.46 168.472 602.446 189.41 607.008 209.374C609.685 221.088 617.65 230.277 629.004 234.489L629.013 234.494Z" fill="#B0C673"/>
<path d="M584.105 100.835L584.233 126.819L627.428 126.879C627.628 128.645 627.654 130.226 627.492 131.777L579.194 131.752L579.045 104.341L579.015 77.5672V68.0796L627.065 68.1268L627.163 72.5398L584.118 72.6171L584.127 96.319L622.269 96.3792C622.41 97.969 622.431 99.1292 622.367 100.848H584.109L584.105 100.835Z" fill="#5DABE7"/>
<path d="M708.525 127.88C720.123 128.554 728.61 126.207 735.754 117.414L740.098 120.256C730.694 133.252 711.228 135.443 697.317 130.253C686.965 126.394 680.304 117.27 678.798 106.674C676.885 93.2347 680.839 79.2653 692.981 72.0894C704.979 65.0003 724.866 65.0177 735.736 74.0366C737.614 75.5969 738.97 77.1529 740.958 79.1349C739.593 80.2737 738.404 81.1386 736.702 82.1991C729.588 72.7761 718.1 70.6246 706.927 72.2545C698.936 73.4194 691.665 77.5745 687.509 84.4723C683.683 90.8224 682.923 98.081 683.823 105.283C685.403 117.914 695.505 127.124 708.525 127.88Z" fill="#61B0E7"/>
<path d="M411.055 67.8472L416.076 67.8375L416.2 132.293L411.179 132.302L411.055 67.8472Z" fill="#56A5E5"/>
<path d="M818.321 131.655C816.745 131.845 815.085 131.802 813.642 131.608L813.531 119.461L813.445 72.6435L789.61 72.48C789.516 70.9229 789.516 69.5851 789.623 68.0796H842.443L842.348 72.5531L818.351 72.5918L818.321 131.655Z" fill="#5DACE6"/>
<path d="M770.743 200.139C770.656 202.568 768.678 201.475 768.909 204.098C768.961 204.699 770.352 205.533 771.056 205.317C772.191 204.967 773.187 204.085 774.113 203.545C777.791 201.388 780.839 198.852 784.274 196.298L787.965 193.549C788.621 193.061 790.682 192.443 791.387 192.845C792.595 193.514 794.247 194.945 795.2 195.952C798.143 199.063 800.921 201.907 803.999 204.897L817.164 217.681C819.286 219.742 821.638 221.281 823.621 223.364C825.747 225.594 827.86 227.862 830.186 229.816C832.473 231.734 834.538 233.424 836.629 235.576C838.112 237.102 842.625 242.137 844.834 239.933C845.451 239.319 844.412 238.079 843.751 237.599C841.868 236.238 840.19 234.794 838.595 233.221L830.712 225.442L827.616 222.508L822.395 217.676L815.086 210.736L808.53 204.703L802.669 199.288C801.282 198.009 800.06 196.803 798.752 195.351C797.443 193.899 794.656 192.555 794.26 190.537C793.834 188.359 796.539 187.909 797.613 187.006L797.66 188.342L795.495 190.286L802.782 196.993L811.225 205.04L818.66 211.976L827.773 220.658L836.486 228.783L843.116 235.153C845.164 237.123 847.29 238.856 848.921 240.952L848.851 241.882L840.573 241.873L810.46 213.666L790.078 194.392L770.617 208.804L770.583 241.419L769.743 241.899H764.596L763.652 241.493L763.643 222.106C764.391 221.043 764.396 219.154 763.639 218.096V216.484C763.748 216.311 764.074 215.684 764.2 215.382C764.296 215.157 763.77 214.703 763.635 214.638V210.861L764.135 210.321V204.876C764.135 204.617 763.622 203.683 763.63 203.834C763.652 203.199 763.739 201.963 763.63 201.349C763.648 201.54 764.126 200.589 764.126 200.247V182.408C764.126 182.149 763.639 181.181 763.643 181.349L763.691 151.211L770.496 151.258L770.743 200.131V200.139Z" fill="#ACC56C"/>
<path d="M842.006 151.287L843.547 152.273C839.922 156.582 832.46 160.857 828.834 163.772L823.75 167.854L813.457 175.372L806.552 180.624C801.631 184.368 802.417 183.482 797.54 187.651C796.47 188.568 793.785 189.024 794.213 191.233C794.605 193.28 797.346 194.609 798.671 196.117C799.996 197.625 801.183 198.813 802.559 200.111L808.377 205.604L814.886 211.724L822.14 218.764L827.324 223.666L830.397 226.642L838.221 234.533C839.805 236.129 841.471 237.593 843.34 238.974C843.996 239.461 845.027 240.719 844.415 241.342C842.222 243.577 837.742 238.466 836.271 236.923C834.19 234.739 832.145 233.025 829.874 231.079C827.565 229.102 825.468 226.796 823.358 224.534C821.389 222.42 819.055 220.86 816.948 218.769L803.88 205.801C800.824 202.767 798.067 199.883 795.145 196.726C794.2 195.705 792.56 194.254 791.36 193.574C790.661 193.166 788.615 193.793 787.963 194.289L784.299 197.077C780.89 199.668 777.864 202.246 774.213 204.429C773.294 204.981 772.305 205.871 771.179 206.226C770.484 206.445 769.103 205.599 769.047 204.99C768.818 202.329 770.782 203.434 770.868 200.974L772.361 200.483C772.335 200.733 772.828 201.25 773.125 201.198C773.423 201.145 774.377 200.865 774.731 200.575C778.296 197.638 783.177 193.986 787.251 190.939L794.575 185.468C795.443 184.819 803.764 179.269 800.553 178.941L802.352 177.231L836.236 151.655C837.958 150.853 840.314 151.405 842.011 151.291L842.006 151.287Z" fill="#B0C774"/>
<path d="M797.147 188.997L797.099 187.646C802.113 183.482 801.31 184.365 806.363 180.634L813.463 175.394L824.046 167.892L829.273 163.82C833.004 160.915 840.672 156.646 844.399 152.346L842.815 151.362C844.789 151.235 846.64 151.03 848.92 151.528L824.063 169.616C814.985 176.225 806.35 183.014 797.143 188.997H797.147Z" fill="#AEC669"/>
<path d="M772.272 200.176C779.623 194.138 794.236 185.17 800.678 179.281C803.914 179.6 795.528 184.983 794.654 185.612L787.273 190.919C783.167 193.875 778.248 197.417 774.656 200.266C774.303 200.546 773.333 200.819 773.038 200.87C772.742 200.921 772.246 200.419 772.268 200.176H772.272Z" fill="#AEC46B"/>
<path d="M764.065 202.145C763.183 197.314 764.069 187.772 764.078 182.539C764.074 182.374 764.577 183.323 764.577 183.577V201.068C764.577 201.403 764.087 202.335 764.065 202.149V202.145ZM764.069 211.467C763.526 209.318 763.446 206.704 764.065 204.577C764.056 204.429 764.581 205.344 764.581 205.598V210.937L764.069 211.467ZM764.078 222.488C764.078 221.335 763.116 219.708 764.074 218.556C764.849 219.59 764.844 221.445 764.078 222.488ZM764.069 216.975C763.615 216.513 764.069 215.67 764.069 215.166C764.207 215.229 764.746 215.674 764.648 215.895C764.515 216.187 764.185 216.801 764.069 216.975ZM765.054 241.899C764.764 241.899 764.087 241.772 764.087 241.496L765.054 241.899ZM771.188 241.424C771.152 241.645 771.165 241.89 771.018 241.895H770.328L771.188 241.424Z" fill="#B0C774"/>
<path d="M52.1592 158.768C52.145 159.126 52.0243 159.952 51.797 159.836L51.0796 159.464L51.0973 158.898C51.385 158.86 51.8929 158.773 52.1592 158.773V158.768Z" fill="#5BAADE"/>
<path d="M146.086 69.1593L146.013 80.7316C145.961 88.653 145.801 96.6999 145.77 104.695L145.584 148.728L145.156 150.04C144.844 150.066 144.26 150.131 143.961 150.131L50 150.079V149.213C50.6405 149.061 51.1729 148.528 51.6403 147.714L87.3032 105.059L109.164 104.998L85.3426 133.188L127.143 133.288C127.337 129.056 127.415 125.375 126.931 121.114L118.508 131.335L109.753 131.187L94.293 130.637L145.654 69.2329L146.086 69.1593Z" fill="#5BAADF"/>
<path d="M191.201 105.366L212.928 105.271L250.81 149.877L239.651 150.122L154.16 150.131L154.112 133.021L153.902 118.2L153.714 90.4366L153.644 69.1593L205.956 130.871L181.547 131.357L172.847 121.146L172.409 133.469L215.234 133.413L191.201 105.366Z" fill="#ADC670"/>
<path d="M136.365 158.833L136.096 159.616C136.04 159.777 135.302 159.85 135.076 159.85L130.103 159.915L119.877 160.392L116.283 160.56C113.198 160.703 110.125 160.413 107.013 160.617L104.63 160.773C101.961 160.946 99.5346 160.915 96.7569 160.599C87.6121 159.573 88.5669 161.201 84.6998 161.24C82.6035 161.262 80.0168 161.773 78.1592 161.028C76.2364 160.257 75.4552 160.738 73.5325 161.089C70.1168 161.708 62.3218 161.24 62.3565 161.214C61.5753 161.725 60.1821 163.453 60.2168 164.375C60.2472 165.146 60.6769 166.986 61.1239 167.653C64.3964 172.519 66.1151 174.598 70.0647 179.031L74.1618 183.634C78.7364 188.778 85.7067 199.996 92.3038 199.659L98.953 199.321C106.001 198.962 101.835 200.594 105.177 199.481C105.845 199.78 106.783 200.503 107.23 201.144L109.061 203.763L95.1293 204.097C92.408 204.162 89.7258 204.019 87.1607 203.638L69.9388 183.041L50.855 159.707L51.7317 160.041C52.0095 160.145 52.1527 159.409 52.1744 159.084L136.37 158.828L136.365 158.833ZM50.868 159.201L50.8463 159.707L50 159.634V158.768L50.868 159.201Z" fill="#62B0E3"/>
<path d="M140.192 158.811C139.747 159.122 142.738 161.891 143.614 161.11C144.151 160.631 144.512 159.432 144.456 158.798C144.595 158.798 144.857 158.776 145.009 158.768L145.476 159.587L145.764 160.523L145.877 201.825L145.812 203.624C145.52 204.392 145.371 205.388 145.315 206.415L145.075 210.879C145.005 212.212 144.975 213.791 146.086 214.395V230.023C143.732 229.458 140.096 229.052 138.418 227.029L122.845 208.257L117.295 201.683L112.539 196.455C110.777 194.518 105.899 186.922 105.607 186.625C103.898 184.865 103.706 183.424 105.114 181.039L112.234 181.578C113.35 181.664 114.941 181.634 115.782 181.962C119.728 183.502 119.052 181.086 120.87 180.741L127.113 187.427C127.357 183.156 127.305 179.559 127.109 175.418L85.1645 175.491L104.879 199.332C101.522 200.441 105.707 198.815 98.6271 199.173L91.9481 199.509C85.3214 199.841 78.3198 188.665 73.7248 183.545L69.6093 178.959C65.6463 174.542 63.9155 172.472 60.6284 167.623C60.1793 166.963 59.7477 165.126 59.7172 164.358C59.6823 163.439 61.0818 161.718 61.8665 161.209C61.8273 161.235 69.6616 161.701 73.0926 161.084C75.0239 160.735 75.8087 160.256 77.74 161.024C79.6059 161.766 82.2043 161.257 84.31 161.235C88.1945 161.201 87.2353 159.574 96.4211 160.597C99.2113 160.907 101.653 160.942 104.33 160.769L106.723 160.614C109.849 160.411 112.94 160.7 116.035 160.558L119.645 160.39L129.916 159.915L134.913 159.851C135.139 159.851 135.88 159.773 135.937 159.618L136.207 158.837L140.183 158.824L140.192 158.811Z" fill="#5BAADE"/>
<path d="M121.267 180.559C119.433 180.9 120.115 183.319 116.135 181.78C115.286 181.452 113.676 181.482 112.555 181.396L105.373 180.857C103.953 183.242 104.146 184.687 105.87 186.442C106.165 186.74 111.086 194.335 112.863 196.272L117.661 201.499L123.259 208.073L138.968 226.843C140.661 228.862 144.329 229.272 146.704 229.837L146.893 237.048C146.893 237.195 147.087 237.441 147.166 237.514C147.126 238.019 146.972 238.894 146.735 239.74L98.3808 182.94C96.802 181.085 95.5574 179.675 94.2644 177.794L118.738 177.121C119.798 178.088 120.7 179.451 121.271 180.559H121.267ZM146.862 203.445L146.7 214.214C145.578 213.611 145.605 212.032 145.679 210.699L145.921 206.235C145.978 205.213 146.128 204.212 146.423 203.445H146.862Z" fill="#62B0E3"/>
<path d="M143.923 158.768C143.965 159.33 143.697 160.383 143.291 160.805C142.636 161.493 140.391 159.053 140.721 158.779L143.919 158.768H143.923Z" fill="#62B0E3"/>
<path d="M155.522 158.768C156.689 162.906 154.905 159.078 156.706 163.898C158.027 167.419 156.842 168.135 158.595 168.868C159.242 169.14 159.845 169.373 159.815 169.697L159.64 171.388L162.919 169.265C163.479 169.852 164.314 170.508 164.943 170.478C165.957 170.43 166.272 169.481 166.779 168.394C167.518 166.81 170.806 169.39 171.33 170.603C171.501 170.995 170.364 171.966 170.211 171.647C169.752 170.797 168.55 170.098 168.205 170.724C168.747 172.186 169.21 173.476 168.423 174.676C167.562 175.992 167.964 177.226 167.955 178.624C167.947 180.807 167.623 182.955 168.611 185.156C171.44 185.1 170.141 178.326 170.259 176.207C170.495 172.078 174.684 172.497 177.202 172.203C179.506 171.936 181.692 171.431 184.319 170.957C182.317 169.99 181.215 169.61 180.389 167.859C179.248 166.254 175.772 170.305 176.66 167.652C177.167 166.141 179.405 165.287 181.045 165.861C182.973 166.534 184.337 165.805 186.186 165.481C188.626 165.054 191.415 165.304 193.946 165.11C196.526 164.916 198.882 164.817 201.409 164.981C209.961 165.542 204.548 164.623 211.242 166.664C212.413 167.022 214.586 165.71 216.274 166.59C217.367 167.164 218.735 166.607 219.964 166.357C226.08 165.115 223.107 166.668 228.336 166.517C230.718 166.448 233.14 166.211 235.646 165.939C237.149 167.401 236.323 170.124 234.964 172.268L238.304 170.672C239.274 168.765 240.428 167.186 242.173 166.521C240.564 169.084 238.461 171.375 236.341 173.783L234.076 176.358L230.194 180.721L219.662 193.582L217.113 196.672C215.504 198.622 214.061 201.081 211.639 201.884C210.962 200.779 210.118 199.774 208.855 199.778C204.832 199.778 205.182 197.927 203.98 194.825C207.832 191.33 211.067 187.49 213.935 183.577C215.211 181.834 215.863 180.272 216.199 178.024L216.505 175.987C216.575 175.539 215.46 175.34 215.023 175.206C214.608 175.081 214.027 175.06 212.426 175.077L172.97 175.487C172.808 175.487 172.524 175.552 172.367 175.595C172.209 175.638 172.087 176.242 172.087 176.475L172.1 182.809C172.1 183.072 172.598 184.021 172.594 183.862C172.406 184.932 172.611 186.567 172.808 187.779L181.779 177.338L196.91 177.567L206.004 177.963L193.855 192.31L179.646 208.783C179.244 207.238 175.16 212.152 174.745 212.674L171.414 216.86C170.176 218.417 163.732 225.079 166.434 224.367L165.979 224.781C163.693 224.704 163.011 227.12 161.616 228.742L158.704 232.125C158.621 232.224 158.56 233.13 158.573 233.126C158.586 233.121 158.871 233.238 158.997 233.29C158.844 233.454 158.495 233.691 158.293 233.825C157.533 231.823 156.291 236.577 153.834 236.5C153.685 229.333 153.388 222.05 154.096 214.914C155.032 205.465 154.472 195.364 154.634 185.613C154.634 185.367 154.21 184.448 154.197 184.578L154.333 165.244V159.544C154.328 159.165 155.181 158.789 155.522 158.776V158.768Z" fill="#ACC56F"/>
<path d="M239.462 158.161C238.68 159.64 245.727 159.318 246.403 159.046L246.491 160.457C245.604 161.935 244.642 163.561 243.104 164.356C238.324 164.463 240.002 162.677 236.004 163.128L230.289 163.771C224.81 164.392 214.275 163.231 211.793 163.369C201.565 163.932 203.766 162.288 195.665 162.887L191.597 163.186L181.751 163.758C176.268 164.075 170.856 164.619 165.267 164.968L161.357 165.213C157.135 165.477 158.559 164.048 155.914 163.512C154.1 158.523 155.896 162.489 154.723 158.202C181.611 157.344 212.368 157.724 239.462 158.166V158.161Z" fill="#B0C876"/>
<path d="M215.055 174.601C215.496 174.736 216.605 174.931 216.535 175.387L216.229 177.437C215.893 179.7 215.242 181.272 213.967 183.027C211.103 186.966 207.871 190.832 204.024 194.35C205.225 197.473 204.876 199.341 208.893 199.336C210.155 199.336 210.998 200.344 211.675 201.456C214.094 200.652 215.535 198.172 217.142 196.209L219.688 193.099L230.207 180.152L234.085 175.761L236.347 173.168C238.46 170.744 240.565 168.438 242.172 165.858C242.714 165.65 243.281 164.624 243.469 164.042C244.997 163.269 245.949 161.684 246.836 160.251C247.325 159.452 247.949 158.87 247.81 157.688C248.766 157.697 249.836 157.779 250.81 157.892L213.155 203.032L191.43 202.919L206.059 185.62C209.199 181.907 212.343 178.371 215.059 174.605L215.055 174.601Z" fill="#B1C873"/>
<path d="M179.555 208.954C175.964 213.122 170.126 221.122 166.339 224.572C163.636 225.281 170.082 218.605 171.32 217.048L174.652 212.854C175.068 212.331 179.157 207.41 179.555 208.954ZM153.998 215.094L153.644 214.588C153.644 204.418 154.029 194.494 154.099 184.691C154.107 184.562 154.54 185.487 154.536 185.729C154.374 195.497 154.934 205.624 153.998 215.094Z" fill="#B0C876"/>
<path d="M246.491 157.746L246.455 159.51C245.836 159.906 239.35 160.367 240.069 158.244C240.012 158.225 240.772 157.688 241.007 157.688L246.491 157.746Z" fill="#B1C873"/>
<path d="M159.042 233.792L155.205 238.463C155.205 238.463 154.332 238.616 154.088 238.658C153.961 238.681 154.226 238.857 154.438 238.983L153.718 239.74L153.644 236.67C156.618 236.754 158.121 231.637 159.042 233.792Z" fill="#B0C876"/>
<path d="M173.045 176.046C173.096 178.579 173.158 181.143 172.596 183.583C172.606 183.727 172.018 182.868 172.013 182.635L171.997 176.932C171.997 176.726 172.142 176.178 172.328 176.139C172.513 176.1 172.849 176.046 173.04 176.042L173.045 176.046Z" fill="#C1D592"/>
<path d="M166.599 224.627C164.994 227.145 161.377 231.204 159.477 233.262C159.348 233.209 159.058 233.091 159.045 233.095C159.027 233.1 159.089 232.18 159.179 232.079L162.149 228.646C163.576 226.996 164.267 224.548 166.599 224.627Z" fill="#B0C876"/>
<path d="M247.551 157.697C247.69 158.881 247.074 159.465 246.585 160.266L246.498 158.89L246.537 157.688L247.547 157.697H247.551ZM155.665 238.172L155.037 238.66C154.863 238.538 154.646 238.373 154.751 238.355C154.95 238.316 155.682 238.168 155.665 238.172Z" fill="#ACC56F"/>
<path d="M243.252 164.609C243.065 165.177 242.504 166.177 241.96 166.38C240.223 167.033 239.079 168.579 238.108 170.456L234.783 172.024C236.137 169.918 236.955 167.245 235.462 165.808C232.969 166.071 230.562 166.308 228.186 166.376C222.981 166.52 225.94 164.999 219.852 166.219C218.624 166.465 217.267 167.012 216.179 166.448C214.499 165.58 212.336 166.872 211.169 166.52C204.506 164.52 209.894 165.423 201.382 164.868C198.866 164.707 196.521 164.8 193.953 164.995C191.433 165.186 188.652 164.936 186.228 165.359C184.387 165.677 183.029 166.393 181.11 165.732C179.478 165.169 177.25 166.007 176.745 167.49C175.862 170.096 179.321 166.118 180.457 167.694C181.284 169.414 182.377 169.787 184.37 170.736C181.754 171.202 179.578 171.697 177.285 171.96C174.778 172.248 170.609 171.837 170.374 175.892C170.252 177.968 171.549 184.62 168.733 184.679C167.754 182.518 168.072 180.408 168.08 178.264C168.085 176.892 167.684 175.68 168.546 174.388C169.329 173.21 168.868 171.943 168.328 170.507C168.672 169.893 169.869 170.575 170.326 171.414C170.478 171.727 171.61 170.774 171.44 170.388C170.918 169.198 167.645 166.668 166.91 168.219C166.405 169.287 166.091 170.219 165.082 170.265C164.459 170.295 163.624 169.647 163.067 169.075L159.803 171.159L159.977 169.499C160.012 169.181 159.407 168.952 158.763 168.685C157.017 167.965 158.197 167.266 156.883 163.804C159.502 164.313 158.092 165.669 162.275 165.419L166.148 165.186C171.684 164.855 177.045 164.338 182.477 164.037L192.23 163.495L196.259 163.211C204.285 162.648 202.104 164.207 212.236 163.669C214.695 163.537 225.131 164.639 230.558 164.05L236.22 163.44C240.18 163.012 238.517 164.711 243.252 164.605V164.609ZM173.625 168.795C174.256 168.677 174.943 168.499 175.204 168.228C175.466 167.956 175.383 167.219 175.313 166.575C174.425 167.012 173.886 167.651 173.625 168.795Z" fill="#ADC670"/>
<path d="M173.077 168.484C173.398 167.372 174.061 166.75 175.152 166.325C175.238 166.952 175.334 167.664 175.019 167.932C174.703 168.2 173.852 168.369 173.077 168.484Z" fill="#ACC56F"/>
<path d="M475.837 111.865C475.828 109.721 475.051 107.039 475.321 104.633L472.878 104.823C472.655 101.865 472.603 99.1622 473.277 96.515C474.609 97.7461 475.042 98.4563 475.858 98.452L503.076 98.3358C507.654 98.3143 512.271 96.756 515.594 93.5492C520.074 89.2232 520.323 81.2513 515.869 76.8435C513.082 74.0843 508.857 72.7198 504.966 72.7069L476.219 72.595L475.807 78.2468C475.781 77.4892 475.296 76.2538 474.948 74.8936L473.067 79.9815C471.748 77.7044 473.015 75.5392 471.413 75.2164C471.499 73.1158 470.881 70.7742 471.1 68.1011L504.987 68.0796C510.162 68.0796 515.431 69.6981 519.313 72.9092C522.925 75.8965 523.823 80.6788 523.947 85.1124C524.136 91.9738 520.55 97.6212 513.997 100.652C518.837 103.256 522.582 106.958 522.68 112.36L523.028 131.777L518.18 131.743L518.025 115.661C517.991 112.127 516.857 108.852 513.868 106.652C511.352 104.801 507.847 103.648 504.485 103.635L476.288 103.51C475.261 105.279 477.078 110.84 475.841 111.873L475.837 111.865Z" fill="#63B1E6"/>
<path d="M476.297 77.9294C476.482 83.0134 476.501 92.7696 476.349 98.2741C475.448 98.2741 474.969 97.5633 473.499 96.3237C472.76 98.9892 472.812 101.711 473.059 104.689L475.757 104.498C475.458 106.921 476.321 109.621 476.326 111.779L476.392 129.055C476.392 129.801 476.235 131.019 476.155 131.777C474.87 131.535 473.936 131.318 473.903 131.756L472.902 131.673L474.381 129.818C475.363 128.587 474.827 126.147 473.371 124.821L472.627 128.076C472.556 128.384 472.271 129.086 472.124 129.346C472.015 129.541 471.385 129.424 471.186 129.411L471.053 83.5941L471.442 74.8824C473.21 75.2075 471.811 77.3876 473.267 79.6804L475.344 74.5574C475.728 75.927 476.264 77.1709 476.292 77.9337L476.297 77.9294Z" fill="#56A9E2"/>
<path d="M472.717 131.418C472.501 131.402 472.064 131.437 471.848 131.437L471.393 131.019C471.241 130.609 471.057 129.823 471.053 129.398C471.246 129.409 471.857 129.514 471.963 129.34C472.105 129.107 472.381 128.481 472.45 128.206L473.172 125.3C474.583 126.484 475.098 128.662 474.151 129.761L472.717 131.418ZM473.687 131.491C473.719 131.1 474.625 131.298 475.87 131.511C475.948 130.833 476.1 129.75 476.1 129.08C476.528 129.483 476.601 130.984 476.114 131.526C475.742 131.94 474.073 131.781 473.687 131.487V131.491Z" fill="#63B1E6"/>
<path d="M372.392 182.148C371.601 182.223 371.249 182.811 370.857 183.711L368.37 189.447C368.218 189.796 367.23 190.803 367.552 190.913L368.687 191.311C366.826 194.327 364.321 195.766 361.882 197.554C361.842 197.422 361.738 197.1 361.703 196.936C361.568 196.265 351.223 201.674 345.87 201.749L331.667 201.952C330.562 201.97 328.627 201.475 327.688 201.237C327.435 201.175 327.344 200.107 327.596 200.036C330.766 199.162 335.254 200.085 338.451 198.195C328.923 197.298 319.76 198.658 310.788 197.435C310.636 197.448 311.589 197.011 311.915 197.016L330.823 197.17C341.46 197.259 350.592 198.018 359.224 191.483C364.073 187.809 366.061 182.294 365.713 176.28C365.326 169.595 362.129 163.987 356.085 161.095C352.375 159.32 348.327 158.291 344.034 158.278L304.448 158.141C304.231 159.103 303.939 160.234 303.943 160.834C302.891 159.947 302.087 166.998 300.765 168.208L298.721 159.562C298.629 159.174 297.494 159.342 297.381 159.54L297.233 151.636L322.417 151.424C336.885 151.301 360.125 149 368.748 162.958C372.271 168.663 373.553 175.715 372.388 182.148H372.392Z" fill="#B0C775"/>
<path d="M303.953 160.246L304.293 196.04C304.293 196.223 304.454 196.699 304.507 196.904C304.537 197.022 304.881 196.397 304.855 196.446C306.712 196.524 308.987 196.192 310.808 196.437C319.799 197.65 328.981 196.301 338.53 197.188C335.327 199.06 330.829 198.144 327.652 199.008C327.399 199.078 327.491 200.134 327.744 200.196C328.689 200.427 330.624 200.916 331.731 200.903L345.964 200.702C351.329 200.628 361.693 195.28 361.832 195.943C361.863 196.101 361.967 196.419 362.011 196.555C356.023 200.89 348.863 201.942 341.898 202.627C342.068 202.636 341.075 202.151 340.813 202.151H328.467C328.166 202.151 327.186 202.627 327.369 202.636L309.218 202.623C308.751 202.016 307.339 202.016 306.886 202.636H305.278C304.873 202.365 304.376 202.068 304.367 202.308L304.332 203.064L303.901 240.537C303.635 240.69 303.182 240.961 302.837 241.184C299.469 243.393 299.495 239.778 297.364 239.791L297.285 223.154C297.394 223.246 297.8 222.538 297.8 222.124L297.813 167.847L297.263 167.24C297.346 164.507 297.085 161.691 297.372 158.976C297.486 158.78 298.623 158.618 298.715 158.998L300.763 167.546C302.088 166.349 302.894 159.373 303.949 160.255L303.953 160.246Z" fill="#ABC569"/>
<path d="M297.491 222.572C297.411 204.253 296.966 185.728 297.471 167.405L297.975 168.004L297.963 221.556C297.963 221.965 297.587 222.663 297.491 222.572ZM303.571 239.724C303.567 240.241 303.675 241.248 303.711 241.899L297.367 241.821C297.431 240.779 297.567 239.629 297.563 238.983C299.522 238.97 299.497 242.536 302.594 240.357C302.906 240.137 303.327 239.87 303.571 239.719V239.724Z" fill="#B0C775"/>
<path d="M342.557 202.696C337.512 203.445 332.531 202.709 327.486 202.709C327.296 202.702 328.313 201.953 328.625 201.953H341.431C341.702 201.953 342.737 202.716 342.557 202.696Z" fill="#B0C876"/>
<path d="M372.807 181.44C372.089 184.816 370.624 187.446 368.729 190.077L367.479 189.702C367.125 189.594 368.212 188.649 368.379 188.32L371.117 182.913C371.548 182.064 371.936 181.511 372.807 181.44Z" fill="#ABC569"/>
<path d="M310.189 202.629C309.367 202.629 308.168 203.262 307.633 202.641C308.13 202.068 309.678 202.068 310.189 202.629ZM305.875 202.645L304.834 203.032L304.872 202.335C304.886 202.117 305.426 202.391 305.87 202.641L305.875 202.645ZM305.407 196.93C305.436 196.885 305.058 197.462 305.025 197.353C304.968 197.164 304.791 196.728 304.791 196.555L305.407 196.93Z" fill="#B0C775"/>
<path d="M299.831 131.09H301.018L300.926 128.831C300.834 126.504 300.852 124.227 301.872 121.797C302.994 123.441 302.976 124.747 304.251 125.086L305.141 126.916L327.264 126.671C333.744 126.598 339.785 124.094 344.622 120.062C353.655 112.529 354.106 97.7598 350.61 87.4442C347.303 77.6825 337.227 72.718 327.444 72.7137L304.558 72.6965L304.676 89.789C304.676 90.0424 304.326 90.8756 304.313 90.7424L304.107 75.969C301.855 76.3212 302.867 80.7832 301.675 83.025C300.313 81.3244 300.957 79.8298 299.914 78.9022C299.7 78.4083 299.388 77.2617 299.393 76.6432L299.463 68.17L326.555 68.0798C334.668 68.0541 342.619 70.1885 348.661 75.5224C357.147 83.0121 358.855 97.0769 357.037 107.418C355.232 117.678 348.45 125.516 338.51 129.016C332.675 131.069 326.73 131.76 320.386 131.764L300.742 131.777C300.554 131.777 300.028 131.674 299.962 131.558C299.901 131.451 299.835 131.232 299.827 131.094L299.831 131.09Z" fill="#62B0E7"/>
<path d="M304.717 90.6803V110.802L304.722 115.177C304.727 118.672 304.912 122.197 304.654 125.666C303.234 125.321 303.254 123.991 302.014 122.316C300.881 124.787 300.861 127.11 300.963 129.481L301.066 131.777H299.748L299.631 129.616C299.592 128.886 299.548 128.002 299.393 127.429L299.417 84.6044C299.417 82.4041 299.548 80.5231 299.84 78.6246C300.998 79.5695 300.278 81.0918 301.795 82.824C303.118 80.5406 301.989 75.9957 304.494 75.637L304.722 90.6847L304.717 90.6803ZM302.223 119.988C302.223 119.722 301.98 119.503 301.683 119.503C301.387 119.503 301.143 119.722 301.143 119.988C301.143 120.255 301.387 120.474 301.683 120.474C301.98 120.474 302.223 120.255 302.223 119.988Z" fill="#55A7E3"/>
<path d="M299.617 129.618C299.434 129.035 299.393 128.118 299.393 127.358C299.539 127.95 299.58 128.863 299.617 129.618ZM304.413 114.704L304.404 110.185C304.921 111.5 304.916 113.38 304.413 114.704Z" fill="#62B0E7"/>
<path d="M302.092 120.981C302.39 120.981 302.632 120.739 302.632 120.441C302.632 120.143 302.39 119.901 302.092 119.901C301.794 119.901 301.552 120.143 301.552 120.441C301.552 120.739 301.794 120.981 302.092 120.981Z" fill="#62B0E7"/>
</svg>
