<svg xmlns="http://www.w3.org/2000/svg" width="900" height="312" fill="none"><path fill="#231f20" fill-rule="evenodd" d="M61.55 156.219c0 8.598 1.735 18.888 14.988 18.888h32.415v-23.033H83.568v9.525h15.596v4.448H78.673c-7.693 0-6.573-7.473-6.573-9.671 0-5.475 1.02-8.446 6.116-8.446h30.735v-9.903H78.37c-12.076 0-16.82 7.138-16.82 18.192m56.61 18.888h41.281v-9.062h-30.96v-4.447h30.96v-8.985h-30.96v-3.917h30.96v-10.669H118.16zm85.344-9.753-20.792-27.327h-14.069v37.08h9.633v-27.333l20.792 27.333h14.069v-37.08h-9.633zm20.066 9.753h41.281v-9.062h-30.96v-4.447h30.96v-8.985h-30.96v-3.917h30.96v-10.669H223.57zm96.665-23.877c0-5.145-.102-13.205-12.383-13.205H274.06v37.082H284v-10.826h15.441l8.641 10.826h12.842l-9.249-11.901c6.774-1.007 8.56-5.826 8.56-11.976m-15.215 3.976h-21.028v-6.987h21.179c2.83 0 4.817.843 4.817 3.15 0 2.301-.46 3.837-4.968 3.837m86.122-17.179h-10.318v37.08h37.152v-9.062h-26.834zm-48.406 0-20.793 37.081h11.315l4.08-7.294h24.204l4.052 7.294h11.315l-20.795-37.081zm-.29 20.635 6.979-12.474 6.996 12.474zm137.31-20.635h-30.577v37.081h32.415c12.436 0 14.981-7.834 14.981-18.888 0-11.053-4.74-18.193-16.819-18.193m-.307 28.018H458.96v-18.117h20.947c5.709 0 6.115 3.587 6.115 8.447.002 4.45.104 9.67-6.573 9.67m106.142-.691-20.793-27.327H550.73v37.08h9.636v-27.333l20.792 27.333h14.067v-37.08h-9.634zm34.905-27.327L599.7 175.108h11.316l4.079-7.294h24.207l4.049 7.294h11.316l-20.797-37.081zm-.294 20.635 6.979-12.474 6.996 12.474zm-98.493-4.669-13.201-15.966H495.05l21.256 24.262v12.818h10.551v-12.818l21.251-24.262h-13.456zm164.908 9.864-12.23-25.83h-15.9v37.08h9.633v-28.292l14.064 28.292h8.869l14.069-28.292v28.292h9.627v-37.08h-15.898zm39.274-25.83v37.08h10.4l-.077-37.08zm17.652 18.192c0 11.053 2.545 18.888 14.987 18.888h29.199v-9.021s-22.629-.041-27.062-.041c-6.675 0-6.573-5.22-6.573-9.67 0-4.863.406-8.447 6.113-8.447h27.522v-9.901h-27.368c-12.078 0-16.818 7.138-16.818 18.192m85.107-3.683h-22.325c-1.603 0-3.402-.46-3.402-2.226 0-1.765 1.799-2.226 3.402-2.226 4.436 0 32.032-.037 32.032-.037v-9.021h-34.481c-8.787 0-10.926 4.53-10.926 11.284s2.139 11.288 10.926 11.288h22.325c1.609 0 3.402.454 3.402 2.226 0 1.767-1.793 2.22-3.402 2.22-4.43 0-32.032.04-32.032.04v9.021h34.481c8.79 0 10.929-4.531 10.929-11.281 0-6.758-2.139-11.288-10.929-11.288" clip-rule="evenodd"/></svg>