<svg xmlns="http://www.w3.org/2000/svg" width="900" height="312" fill="none"><g clip-path="url(#a)"><path fill="#4c4f54" d="M813.671 292.436h4.353v-32.348l25.573 32.348h3.568V252.99h-4.353v31.609l-24.949-31.609h-4.192zm-41.477-3.44c-9.054 0-15.615-7.321-15.615-16.285v-.114c0-8.96 6.456-16.167 15.505-16.167 9.054 0 15.624 7.321 15.624 16.281v.109c0 8.96-6.456 16.176-15.514 16.176m-.11 4.113c12.051 0 20.254-9.519 20.254-20.398.062-.052.062-.052 0-.114 0-10.874-8.084-20.28-20.144-20.28-12.047 0-20.249 9.519-20.249 20.394v.109c0 10.879 8.088 20.289 20.139 20.289m-46.335-.673h4.468V252.99h-4.468zm-38.48 0h4.53v-35.333h13.297v-4.113h-31.115v4.113h13.288zm-49.213-3.44c-9.054 0-15.615-7.321-15.615-16.285v-.114c0-8.96 6.447-16.167 15.501-16.167 9.058 0 15.61 7.321 15.61 16.281v.109c0 8.96-6.438 16.176-15.496 16.176m-.114 4.113c12.055 0 20.258-9.519 20.258-20.398.062-.052.062-.052 0-.114 0-10.874-8.093-20.28-20.144-20.28s-20.258 9.519-20.258 20.394v.109c0 10.879 8.097 20.289 20.144 20.289m-77.113-.673h4.353v-31.893l14.43 21.071h.224l14.425-21.133v31.955h4.468V252.99h-4.52l-14.43 21.521-14.425-21.521h-4.525zm-66.712.673c6.675 0 12.223-2.758 15.9-6.027v-15.726h-16.352v4.008h12.051v9.804c-2.716 2.198-6.908 3.937-11.428 3.937-9.62 0-15.676-6.984-15.676-16.394v-.114c0-8.785 6.285-16.167 15.053-16.167 5.605 0 8.997 1.853 12.051 4.511l2.893-3.388c-3.968-3.321-8.098-5.236-14.777-5.236-11.88 0-19.859 9.581-19.859 20.394v.109c0 11.277 7.703 20.289 20.144 20.289m-74.962-.673h4.353v-32.348l25.573 32.348h3.559V252.99h-4.354v31.609l-24.949-31.609h-4.182zm-27.951 0h4.467V252.99h-4.467zm-35.93.673c7.184 0 11.713-2.758 15.843-6.932l-2.945-2.872c-3.787 3.602-7.356 5.691-12.784 5.691-8.716 0-15.334-7.159-15.334-16.285v-.114c0-9.069 6.566-16.167 15.334-16.167 5.376 0 9.106 2.251 12.451 5.406l3.045-3.269c-3.954-3.715-8.26-6.25-15.444-6.25-11.651 0-20.025 9.235-20.025 20.394v.109c0 11.329 8.431 20.289 19.859 20.289m-74.681-.673h4.353v-32.348l25.572 32.348h3.569V252.99h-4.358v31.609l-24.95-31.609h-4.186zm-48.947-14.433 9.053-20.114 9.002 20.114zm-11.033 14.433h4.591l4.691-10.424h21.557l4.639 10.424h4.814l-18.05-39.73h-4.187zm-31.62.275h3.963l17.028-39.721h-4.81l-14.145 33.978-14.087-33.978h-4.977zm-62.749-4.388v-31.22h9.273c10.024 0 16.414 6.87 16.414 15.608v.109c0 8.742-6.39 15.503-16.414 15.503zm-4.467 4.113h13.74c12.451 0 21.052-8.624 21.052-19.725v-.114c0-11.097-8.601-19.607-21.052-19.607h-13.74zM72.83 278.003l9.054-20.114 8.996 20.114zM61.8 292.436h4.582l4.7-10.424h21.548l4.639 10.424h4.815l-18.051-39.73h-4.182z"/><path fill="#e72625" d="m307.549 147.351-18.583.545c-17.751.55-25.672 6.534-25.672 17.408 0 10.6 7.379 17.953 21.038 17.953 11.466 0 18.85-4.354 23.217-8.154zm7.375 59.024-4.644-11.419c-8.468 7.615-20.21 14.139-37.419 14.139-23.764 0-42.338-16.039-42.338-41.346 0-26.648 21.038-41.071 54.085-42.161l22.941-.81v-3.265c0-15.508-10.928-21.767-24.578-21.767-14.206 0-35.687 8.05-43.88 12.945l-.104-23.82c17.208-11.428 33.322-14.138 50.526-14.138 31.967 0 51.354 13.058 51.354 46.78v50.87c0 18.498.548 28.017 2.46 33.992zM610.946 99.21c-15.843 0-25.396 14.153-25.396 28.288h50.246c-.547-13.855-8.193-28.288-24.85-28.288m-24.578 51.41c.543 19.043 16.386 32.386 36.33 32.386 12.289 0 30.302-6.164 41.501-12.149l.01 24.104c-14.478 10.073-31.672 14.148-46.973 14.148-45.074 0-64.186-32.646-64.186-67.188 0-36.722 21.848-67.184 58.72-67.184 34.964 0 57.472 26.383 57.472 66.369v9.514zM451.564 77.083c-3.444-1.18-7.098-1.953-10.652-1.953-12.284 0-22.394 4.488-35.778 16.186l-2.74-13.598H374v128.657h32.771l-.252-89.491c8.735-7.889 17.356-12.831 24.859-14.333 6.751-1.37 13.687-2.128 20.186-.199z"/><mask id="b" width="801" height="269" x="49" y="25" maskUnits="userSpaceOnUse" style="mask-type:luminance"><path fill="#fff" d="M49.921 293.099h799.956V25.483H49.921z"/></mask><g fill="#e72625" mask="url(#b)"><path d="M547.907 77.083c-3.444-1.18-7.089-1.953-10.652-1.953-12.285 0-22.395 4.488-35.768 16.186l-2.741-13.598h-28.403v128.657h32.78l-.252-89.491c8.726-7.889 17.346-12.831 24.854-14.333 6.756-1.37 13.683-2.128 20.182-.199zM849.924 103.048V78.571h-25.001V41.977l-32.771-.54V78.57h-52.439V41.977l-32.78-.54V78.57h-24.788v24.477h24.788v68.506c0 25.269 24.725 38.46 55.983 38.46v-28.202c-13.597 0-23.203-6.42-23.203-16.475v-62.289h52.439v68.506c0 25.269 24.293 38.46 55.555 38.46v-28.202c-13.602 0-22.784-6.42-22.784-16.475v-62.289zM204.689 134.889v-24.695h-63.91l32.509 29.021v38.92c-8.217 2.796-16.366 3.763-23.351 3.763-39.331 0-63.957-28.297-63.957-65.834 0-34.546 21.072-63.369 68.315-63.369 18.855 0 36.734 5.615 50.384 12.684V35.021c-13.103-4.634-30.706-9.533-53.657-9.533-60.09 0-101.1 39.981-101.1 93.291 0 50.87 35.558 90.316 91.808 90.316 25.235 0 46.94-5.999 62.949-13.471v-.185h.01z"/></g></g><defs><clipPath id="a"><path fill="#fff" d="M50 20h800v273H50z"/></clipPath></defs></svg>