<svg width="900" height="312" viewBox="0 0 900 312" fill="none" xmlns="http://www.w3.org/2000/svg">
<g clip-path="url(#clip0_8_327)">
<path d="M57.6675 219.384C62.185 227.249 69.0566 230.903 77.7176 231.872C108.783 235.413 201.383 233.476 201.531 233.476C223.486 233.476 241.147 223.447 245.927 202.682C247.159 197.388 248.092 179.494 247.01 160.479C245.852 140.759 236.854 127.711 209.97 125.885C174.275 123.461 123.793 124.617 103.369 126.705C92.467 127.823 86.119 135.279 86.2686 145.419C86.6045 169.613 86.8656 173.305 87.1267 174.646C97.9554 176.213 97.8425 176.287 98.1798 175.691C100.084 172.186 103.63 169.837 107.626 169.391C112.218 168.795 108.746 168.981 204.593 167.526C208.328 167.526 210.567 169.203 211.241 172.895C212.024 177.666 212.172 182.513 211.688 187.323C211.389 191.423 207.99 197.947 201.793 198.06C201.644 198.06 133.166 198.394 100.456 196.866C90.5631 196.418 79.771 186.689 79.771 168.607C79.771 160.928 79.771 136.212 80.4061 128.533C80.7519 123.993 82.6083 119.7 85.6799 116.335C88.7515 112.971 92.8619 110.728 97.3571 109.965C109.567 107.767 223.187 109.108 230.394 110.749C250.893 115.408 252.611 139.976 252.686 140.461C254.59 154.553 254.776 170.435 254.626 184.788C254.217 217.183 242.08 224.304 238.048 229.002C236.816 230.418 238.385 231.052 240.811 232.804C251.005 230.903 265.567 219.756 268.441 196.158C269.525 187.024 270.383 166.185 268.629 128.719C267.397 104.449 257.128 83.5335 223.225 79.6571C193.803 76.3021 128.984 78.9864 99.8974 79.6571C49.0799 80.8126 50.0508 109.779 50.0508 121.561C49.825 196.232 49.9012 205.887 57.6675 219.384ZM408.721 122.492C410.272 122.423 411.8 122.884 413.054 123.797C414.217 124.701 415.118 125.897 415.666 127.263L441.057 189.559H420.932C420.335 189.446 419.998 188.85 419.736 187.844L416.34 177.107C416.19 175.951 415.555 175.691 414.137 175.691H394.273C392.853 175.691 392.181 175.951 392.07 177.108L388.671 187.882C388.41 188.888 388.111 189.484 387.476 189.597H367.314L392.778 127.301C393.227 126.245 393.874 125.283 394.683 124.469C396.068 123.207 397.887 122.525 399.761 122.567L408.723 122.492H408.721ZM397.297 161.524H411.074L404.204 141.543L397.297 161.524ZM342.521 173.64C344.313 173.64 344.724 173.119 344.649 171.442V161.114C344.649 158.579 343.417 157.163 341.214 155.97C340.617 155.672 338.115 153.882 339.721 153.882H360.182C361.861 153.882 362.423 154.291 362.385 156.044V180.015C362.385 184.862 359.063 189.559 353.611 189.559H318.848C315.338 189.559 300.59 187.361 300.59 170.061V142.101C300.59 124.766 315.338 122.492 318.848 122.529H360.257C362.049 122.529 362.46 123.088 362.423 124.766V135.391C362.423 137.068 362.049 137.59 360.257 137.59H329.452C322.657 137.59 319.297 141.169 319.297 145.569V165.7C319.297 170.099 322.657 173.677 329.452 173.677C330.124 173.64 328.706 173.604 342.521 173.64ZM694.66 173.64C687.863 173.64 684.503 170.061 684.503 165.662V145.531C684.503 141.133 687.862 137.554 694.659 137.554H703.284C710.08 137.554 713.44 141.133 713.44 145.531V165.662C713.44 170.061 710.08 173.64 703.284 173.64H694.66ZM713.924 189.559C717.435 189.559 732.183 187.361 732.183 170.061V142.101C732.183 124.766 717.435 122.492 713.926 122.529H684.091C680.583 122.529 665.833 124.766 665.833 142.101V170.099C665.833 187.434 680.544 189.634 684.092 189.597L713.924 189.559ZM491.351 189.074L514.651 149.558V187.472C514.651 188.515 514.651 189.597 516.593 189.597H531.677C533.096 189.597 533.619 189.149 533.619 187.509C533.619 155.112 533.805 165.104 533.619 132.11C533.619 127.263 530.295 122.529 524.845 122.529H517.675C515.733 122.306 513.83 123.201 512.709 124.803C490.231 159.325 491.725 157.498 490.493 157.759C489.261 157.498 490.792 159.325 468.276 124.803C467.157 123.201 465.252 122.306 463.311 122.529H456.067C450.577 122.529 447.292 127.263 447.292 132.11V187.509C447.292 189.149 447.777 189.597 449.234 189.597H464.319C465.737 189.597 466.261 189.149 466.261 187.509V149.52L489.56 189.037C489.671 189.272 489.87 189.454 490.115 189.545C490.359 189.636 490.628 189.627 490.867 189.522C490.974 189.485 491.073 189.426 491.156 189.349C491.24 189.272 491.306 189.178 491.352 189.074H491.351ZM657.209 175.02C656.717 174.653 656.1 174.492 655.491 174.572H634.171C633.628 174.567 633.108 174.349 632.724 173.966C632.34 173.583 632.122 173.064 632.118 172.522V124.692C632.118 123.649 632.118 122.492 630.176 122.492H615.054C613.634 122.492 613.112 122.977 613.112 124.617V180.015C613.112 184.862 616.436 189.559 621.886 189.559H664.229C660.942 185.228 658.555 180.285 657.209 175.02ZM849.836 135.279C846.439 124.245 835.461 122.492 832.475 122.529H751.301C745.85 122.529 742.565 127.263 742.527 132.11V187.509C742.527 189.149 743.012 189.597 744.469 189.597H758.581C760.001 189.597 760.523 189.149 760.523 187.509V165.215C760.523 164.097 761.458 163.165 762.577 163.165H778.782C780.575 163.165 780.947 162.68 780.947 160.966V151.234C780.947 149.52 780.575 149.036 778.782 149.036H762.539C761.419 149.036 760.487 148.14 760.487 147.021V139.715C760.487 138.596 761.419 137.665 762.54 137.665H802.341V187.583C802.341 189.223 802.827 189.672 804.283 189.672H819.405C820.823 189.672 821.347 189.223 821.347 187.583V137.59H847.707C849.462 137.59 850.395 137.144 849.835 135.279H849.836ZM598.213 160.928C598.213 162.642 597.84 163.165 596.048 163.127H564.61C563.491 163.127 562.557 164.06 562.557 165.177V172.485C562.557 173.604 563.491 174.535 564.61 174.535H599.895C601.688 174.535 602.062 175.095 602.062 176.735V187.397C602.062 189.074 601.688 189.595 599.933 189.559H553.372C547.921 189.559 544.635 184.899 544.597 180.015V132.11C544.597 127.263 547.921 122.529 553.372 122.529H599.933C601.688 122.529 602.135 123.088 602.098 124.766V135.391C602.098 137.031 601.726 137.59 599.97 137.59H564.648C564.379 137.589 564.111 137.642 563.862 137.744C563.612 137.847 563.385 137.998 563.194 138.189C563.004 138.379 562.852 138.606 562.749 138.855C562.647 139.104 562.594 139.371 562.595 139.641V146.948C562.595 148.067 563.528 148.998 564.648 148.998H596.088C597.88 148.998 598.253 149.483 598.253 151.196L598.216 160.928H598.213Z" fill="#333333"/>
</g>
<defs>
<clipPath id="clip0_8_327">
<rect width="800" height="156" fill="white" transform="translate(50 78)"/>
</clipPath>
</defs>
</svg>
