<svg width="900" height="312" viewBox="0 0 900 312" fill="none" xmlns="http://www.w3.org/2000/svg">
<g clip-path="url(#clip0_7_71)">
<path d="M64.8838 49.9227C81.321 49.8855 97.7582 49.9227 114.195 49.8948C137.935 49.6438 162.037 54.9151 182.679 66.8802C201.749 77.804 217.256 95.0311 225.377 115.512C234.261 137.955 235.033 163.41 228.047 186.475C224.271 176.444 217.687 167.71 209.079 161.318C196.819 152.114 182.121 146.982 167.526 142.817C154.214 138.996 140.493 136.867 127.191 133.046C112.865 129.03 98.3629 124.465 85.935 116.061C79.7303 111.849 74.3163 106.318 70.9024 99.5959C66.5024 91.1636 65.4047 81.5227 64.8838 72.1608V49.9227ZM297.326 50.0156C297.279 80.1933 297.33 110.366 297.209 140.544C309.684 144.263 322.916 146.75 335.93 144.844C354.098 141.543 371.842 129.495 377.674 111.375C381.991 98.0433 380 82.657 371.861 71.166C362.344 57.4345 345.451 50.2481 329.07 50.0156C318.456 49.9877 307.94 50.0063 297.326 50.0156ZM310 61.4043C320.437 61.7111 331.14 60.3073 341.279 63.4961C349.344 65.904 356.721 70.9987 361.279 78.1387C367.205 87.2589 368 99.1217 364.419 109.283C360.847 119.361 352.549 127.538 342.558 131.247C332.168 135.273 320.554 134.478 309.884 132.061C310.023 108.502 310 84.9626 310 61.4043ZM552.958 53.4183C557.191 53.409 561.423 53.409 565.665 53.4183C565.74 60.3445 565.628 67.2613 565.73 74.1782C569.879 74.1689 574.037 74.1689 578.195 74.1689V84.8696H565.693C565.693 98.2757 565.665 111.673 565.702 125.079C565.712 128.286 566.261 132.302 569.581 133.762C572.326 134.524 575.302 134.152 577.888 132.981C579.265 136.263 580.558 139.572 581.814 142.91C575.014 145.634 566.586 146.666 560.186 142.408C554.837 138.875 552.986 132.107 552.967 126.027C552.921 101.818 552.949 77.6181 552.958 53.4183ZM741.07 54.1713L741.861 53.4741C745.823 53.2695 749.795 53.4927 753.768 53.3997C753.87 83.6238 753.768 113.857 753.814 144.081C749.544 144.081 745.274 144.1 741.014 144.054C741.06 114.09 740.949 84.1259 741.07 54.1713ZM423.605 72.793C420.209 72.872 416.786 73.3136 413.488 74.0713C405.972 75.8098 399.084 80.3513 395 86.9707C391.093 93.023 389.665 100.33 389.302 107.424C388.949 117.576 392.326 128.137 400 135.082C409.405 143.951 423.312 146.922 435.814 144.495C444.447 142.97 451.865 137.862 457.791 131.596C455.037 129.29 452.298 126.901 449.535 124.623C440.977 134.087 426.061 137.806 414.535 131.828C407.921 128.574 403.791 121.704 402.442 114.629C421.53 114.508 440.563 114.661 459.651 114.513C459.986 107.428 459.926 100.219 457.442 93.4785C454.698 85.3716 448.279 78.5059 440.233 75.4658C434.93 73.467 429.27 72.6628 423.605 72.793ZM423.14 83.4844C427.865 83.2081 432.585 84.1274 436.861 86.1572C443.419 89.4948 446.168 97.0113 446.744 103.938C432.009 103.947 417.293 103.91 402.558 103.938C402.688 96.0816 406.888 87.668 414.768 85.1113C417.478 84.2178 420.291 83.6712 423.14 83.4844ZM596.242 82.5082C600.605 76.3723 608.205 73.4902 615.498 72.9417C626.14 72.3467 637.079 75.2195 645.981 81.1137C643.879 84.1073 641.935 87.2124 639.926 90.2618C633.274 85.8923 625.358 83.2427 617.377 83.2241C612.549 83.4937 606.549 85.3902 605.33 90.7174C604.195 94.3431 607.265 97.4111 610.27 98.8428C620.298 103.826 632.54 103.965 641.367 111.412C647.758 116.516 648.474 126.148 644.968 133.12C641.516 139.861 634.149 143.644 626.912 144.825C613.535 146.74 599.637 142.631 588.912 134.561C591.154 131.754 593.34 128.89 595.433 125.962C604.074 131.633 614.354 136.179 624.912 134.617C629.656 133.864 635.033 130.517 634.902 125.153C635.172 120.932 631.209 118.236 627.74 116.879C617.963 112.9 606.502 112.407 598.158 105.36C591.47 99.8469 591.461 89.2391 596.242 82.5082ZM471.563 80.3978C483.349 74.8197 496.521 72.3746 509.526 72.6256C517.144 72.7651 525.005 75.5541 530.084 81.4112C534.651 86.4315 536.661 93.3577 536.772 100.033C536.754 114.713 536.754 129.402 536.763 144.081H524.13C524.121 130.341 524.195 116.609 524.093 102.878C524.019 97.1694 522.14 91.0799 517.451 87.4913C512.893 83.8841 506.791 83.3635 501.191 83.7726C495.33 84.0887 489.535 85.4088 484.158 87.7795C484.168 106.55 484.158 125.33 484.158 144.1C479.954 144.072 475.758 144.081 471.554 144.081C471.591 122.857 471.581 101.623 471.563 80.3978ZM693.256 72.5606C681.34 72.4397 669.479 75.2799 658.721 80.3467C658.73 108.535 658.749 136.751 658.721 164.948C662.935 164.939 667.056 164.985 671.279 164.948C671.214 156.944 671.27 148.897 671.279 140.893C678.507 143.328 686.009 145.485 693.721 145.309C701.265 145.718 709.074 144.453 715.465 140.195C723.772 134.896 728.4 125.348 729.535 115.791C730.726 105.211 729.358 93.7109 722.558 85.1113C716.791 77.6552 707.572 73.6576 698.372 72.793C696.67 72.6545 694.964 72.5769 693.256 72.5606ZM691.047 83.4844C695.104 83.4562 699.142 84.044 703.023 85.2275C710.661 87.6075 715.591 95.0683 716.512 102.775C717.358 111.366 717.214 120.965 711.512 127.993C707.921 132.502 702.084 134.422 696.512 134.617C687.73 134.645 678.963 132.521 671.279 128.226C671.456 114.773 671.116 101.344 671.395 87.9004C677.535 85.1904 684.293 83.5169 691.047 83.4844ZM826.26 74.1689C830.763 74.1596 835.265 74.141 839.768 74.2526V75.8888L839.758 74.6616C829.098 98.6104 818.958 122.792 808.419 146.796C805.423 153.406 801.247 160.119 794.474 163.372C785.758 167.203 775.6 165.576 767.219 161.634C768.688 158.371 770.158 155.117 771.656 151.872C776.428 154.252 781.954 155.442 787.237 154.206C792.437 152.569 795.042 147.363 797.405 142.882C786.102 120.049 775.163 97.0299 763.926 74.1689C768.568 74.1782 773.219 74.2061 777.87 74.0945C786.623 92.4466 795.042 110.957 803.619 129.392C811.172 110.985 818.716 92.5767 826.26 74.1689ZM64.8838 150.264C75.628 156.688 86.9303 162.266 98.7722 166.385C121.377 174.491 145.461 177.243 168.149 185.053C177.712 188.409 187.721 192.193 194.688 199.872C201.163 206.975 202.084 217.359 200.819 226.47C198.716 239.346 188.828 249.564 177.554 255.346C160.419 264.188 140.605 266.224 121.581 265.266C108.409 263.974 95.5629 260.274 83.2466 255.532C76.9303 252.939 70.5768 250.27 64.8838 246.468V150.264ZM306.754 175.356C315.461 168.913 326.893 167.723 337.377 168.913C347.498 169.852 357.265 173.934 365.191 180.274L365.256 181.009C363.061 184.197 360.363 187.014 358.047 190.12C350.577 184.216 341.479 180.125 331.861 179.744C325.274 179.456 317.944 180.609 313.107 185.471C307.777 190.482 308.512 200.625 315.144 204.223C326.791 211.168 341.126 210.443 353.191 216.402C359.256 219.144 364.995 223.737 367.033 230.31C369.888 239.188 367.554 249.731 360.586 256.09C352.949 263.212 342.056 265.601 331.87 265.136C317.256 265.248 303.181 259.102 292.186 249.694C294.921 246.691 297.712 243.725 300.316 240.602C307.907 247.165 317.005 252.418 327.126 253.608C335.256 254.538 344.688 254.352 351.051 248.457C355.126 244.897 355.935 238.789 354.214 233.871C351.554 228.255 345.061 226.247 339.554 224.564C328.168 221.506 315.758 220.399 305.823 213.483C300.065 209.55 296.512 202.782 296.688 195.791C296.121 187.786 300.27 179.939 306.754 175.356ZM383.6 175.003C387.833 175.003 392.074 175.003 396.316 174.994C396.307 178.963 396.307 182.933 396.316 186.912C392.074 186.912 387.833 186.912 383.6 186.903V175.003ZM671.512 192.49C669.902 192.458 668.349 192.537 666.744 192.606C657.954 193.025 649.009 196.13 642.674 202.368C636.935 207.956 633.716 215.858 632.907 223.751C632.079 232.481 633.14 241.624 637.326 249.434C639.347 253.275 642.184 256.629 645.639 259.258C649.094 261.888 653.083 263.731 657.326 264.657C668.954 266.805 680.949 263.909 691.395 258.73C691.386 260.469 691.386 262.221 691.395 263.96C695.647 263.96 699.916 263.988 704.186 263.96C704.177 242.772 704.079 221.58 704.07 200.393C693.921 195.535 682.768 192.732 671.512 192.49ZM673.256 203.414C679.488 203.66 685.74 205.232 691.395 207.83C691.442 220.604 691.349 233.396 691.395 246.18C683.377 250.875 674.409 254.896 664.884 254.198C658.493 254.263 652.135 250.735 649.186 245.018C645.102 237.413 644.823 228.2 646.628 219.916C648.274 212.32 654.484 206.096 662.093 204.46C665.754 203.634 669.505 203.283 673.256 203.414ZM415.144 199.249C424.586 193.215 436.288 191.644 447.275 192.853C452.884 193.559 458.149 195.772 463.098 198.44C461.256 201.778 459.34 205.069 457.488 208.406C448.847 202.717 436.93 201.015 427.87 206.752C427.972 225.82 427.879 244.887 427.926 263.955C423.665 263.974 419.414 263.965 415.163 263.965C415.163 242.396 415.2 220.818 415.144 199.249ZM499.767 192.49C497.447 192.537 495.191 192.653 492.907 192.955C484.768 194.21 476.772 197.841 471.163 203.995C460.8 215.337 459.451 233.099 466.047 246.645C471.126 257.141 482.228 263.723 493.605 265.006C502.107 265.852 511.037 265.489 518.954 261.984C525.335 259.214 530.977 254.603 534.419 248.504C540.037 238.872 540.754 226.856 537.442 216.313C534.707 207.686 528.293 200.29 520.116 196.441C513.795 193.452 506.726 192.355 499.767 192.49ZM499.419 203.414C504.712 203.228 510.079 203.884 514.768 206.436C520.898 209.699 524.935 216.132 525.93 222.938C527.54 231.751 525.879 241.764 519.302 248.271C512.856 254.24 503.293 255.7 494.884 254.314C488.214 253.338 481.744 249.55 478.488 243.507C474.237 235.763 474.07 226.196 476.861 217.94C479.437 210.438 486.447 205.027 494.186 203.763C495.907 203.544 497.656 203.479 499.419 203.414ZM553.079 200.402C564.679 194.805 577.702 192.36 590.54 192.509C597.786 192.49 605.265 194.889 610.54 199.993C616.177 205.376 618.447 213.325 618.493 220.939C618.549 235.274 618.493 249.61 618.512 263.946C614.261 263.974 610 263.965 605.749 263.974C605.768 250.242 605.758 236.52 605.758 222.789C605.749 217.341 603.963 211.577 599.768 207.895C596.205 204.836 591.414 203.544 586.791 203.572C579.584 203.42 572.427 204.802 565.795 207.626C565.814 226.405 565.768 245.185 565.814 263.965C561.563 263.965 557.312 263.974 553.061 263.946C553.088 242.768 553.051 221.58 553.079 200.402ZM383.6 194.089C387.833 194.108 392.074 194.108 396.307 194.099C396.316 217.387 396.298 240.676 396.316 263.965H383.591C383.619 240.676 383.6 217.387 383.6 194.089Z" fill="#5D5D5F"/>
</g>
<defs>
<clipPath id="clip0_7_71">
<rect width="800" height="238" fill="white" transform="translate(50 37)"/>
</clipPath>
</defs>
</svg>
