<svg width="900" height="312" viewBox="0 0 900 312" fill="none" xmlns="http://www.w3.org/2000/svg">
<rect width="900" height="312" fill="white"/>
<path d="M792.035 133.179L792.215 174.668C792.215 175.677 791.246 178.313 790.607 179.421H760.621C759.472 179.421 758.234 176.555 758.234 175.407L758.184 107.347C758.184 106.658 757.595 104.97 757.535 104.411C757.455 103.672 759.472 102.703 760.441 102.703L786.872 102.793C787.931 102.793 790.337 103.332 790.517 104.121C790.697 104.91 790.936 106.298 791.176 107.736L791.645 110.632C791.855 111.91 799.544 103.392 809.24 102.334C821.122 101.036 833.115 100.616 841.962 108.874C845.557 112.229 849.75 118.55 849.77 123.623L850 176.735C850 177.754 848.203 179.511 847.164 179.501L817.338 179.271L817.118 132.749C817.118 131.282 815.97 127.916 815.62 126.459C814.372 121.346 809.569 120.467 805.255 120.487C797.297 120.517 792.005 124.851 792.035 133.179Z" fill="#3986B7"/>
<path d="M408.585 178.902C394.416 182.686 377.99 182.097 368.374 169.616C363.681 163.524 363.192 155.796 365.938 148.237C369.163 139.38 379.069 134.367 387.686 132.21C390.082 131.611 392.699 130.792 395.215 130.672L420.089 129.484C422.545 126.808 420.957 120.328 417.972 117.911C415.296 115.754 411.581 115.275 408.466 116.244C399.279 119.109 403.782 127.627 398.36 127.417L387.087 126.978L370.291 126.449C370.431 106.458 388.924 102.613 404.861 101.495C414.856 100.796 430.533 101.655 439.47 105.669C442.496 107.027 446.68 110.312 448.387 113.148C450.864 117.252 452.861 122.734 452.881 127.747L453.05 174.189C453.05 175.277 453.869 179.321 452.631 179.321L422.874 179.401L421.536 170.844C416.833 174.658 413.468 177.594 408.585 178.902ZM420.308 156.305C421.986 152.031 422.215 148.247 422.106 143.574L409.883 143.863C407.647 143.913 403.513 145.73 401.186 146.829C397.352 148.636 395.654 152.211 396.084 156.145C396.433 159.43 399.289 162.476 402.984 163.704C409.784 165.981 417.442 163.624 420.308 156.305Z" fill="#3986B7"/>
<path d="M704.832 179.351C681.017 184.054 650.582 181.628 639.538 157.793C634.745 147.438 635.604 131.252 641.215 121.426C646.827 111.6 656.892 105.859 667.796 103.153C676.304 101.046 693.139 101.345 701.966 102.634C708.737 103.622 714.698 106.039 720.429 109.753C732.342 117.482 738.084 133.349 735.807 147.108C734.209 156.794 729.756 166.46 721.578 171.822C716.545 175.128 711.183 178.103 704.842 179.361L704.832 179.351ZM701.517 148.766L701.377 131.961C701.377 130.782 700.209 128.166 699.909 127.018C698.312 121.017 692.221 116.274 685.371 117.851C667.417 116.134 669.274 144.402 672.46 155.616C674.437 162.556 681.506 165.482 688.197 164.613C697.723 163.365 701.557 154.488 701.517 148.766Z" fill="#3986B7"/>
<path d="M306.474 153.809H335.312C335.392 158.931 333.555 163.634 330.09 167.618C314.353 185.732 270.727 185.672 255.519 168.587C244.675 156.405 244.305 132.889 251.944 119.928C259.174 107.666 271.486 103.123 285.305 101.645C289.699 99.7577 304.318 102.134 308.881 103.332C329.341 108.715 338.298 126.818 336.011 147.558C332.506 147.867 329.681 148.287 326.405 148.267L292.415 148.137C287.233 148.117 282.959 147.957 277.487 148.586C277.327 152.65 277.946 156.525 280.552 159.59C286.224 166.24 296.769 166.39 303.409 160.559L306.484 153.809H306.474ZM306.474 131.701C306.195 121.047 298.017 115.545 289.14 117.392C282.12 118.85 276.948 124.172 277.627 131.741L306.474 131.701Z" fill="#3986B7"/>
<path d="M104.24 160.838C108.105 156.974 105.139 148.896 110.741 148.886L136.962 148.836C137.562 148.836 139.249 149.145 139.808 149.315C142.325 150.074 142.025 180.41 94.904 181.298C90.9797 181.368 86.4563 180.35 82.6918 179.801C73.2656 178.423 65.7566 174.129 59.2361 167.289C55.5415 163.425 53.2848 158.472 51.5873 153.17C51.2677 152.171 50.2392 149.595 50.2193 148.506C50.1394 143.394 49.5902 136.174 50.6087 131.252C53.6642 116.483 64.8179 106.917 78.7076 103.432C85.0583 101.835 95.6928 100.756 102.123 101.475C113.257 102.723 118.529 102.793 127.986 108.725C135.594 113.498 140.797 121.176 139.629 130.642L108.654 130.872C104.909 126.878 108.055 117.691 96.8311 118.34C93.3462 118.54 89.4719 118.79 87.5048 122.415C85.8272 125.51 84.0898 130.003 84.0199 133.558C83.8501 142.665 82.3124 158.472 90.8399 162.746C94.864 164.763 100.985 164.104 104.25 160.848L104.24 160.838Z" fill="#3986B7"/>
<path d="M541.88 176.605C541.91 177.594 539.953 179.421 538.855 179.501L528.8 180.25C518.654 180.999 513.811 180.919 504.795 178.712C493.97 176.056 489.587 166.85 490.156 156.634C490.775 145.471 490.286 135.006 490.306 122.944L474.149 122.494L474.179 103.033L490.186 102.703L490.166 91.6994L521.57 80.4958L521.83 102.803L539.414 102.713C540.133 102.713 541.781 104.441 541.771 105.17L541.491 122.534L521.78 122.894L521.72 131.711L521.75 153.829C521.77 164.613 535.929 160.139 541.411 160.988L541.86 176.625L541.88 176.605Z" fill="#3986B7"/>
<path d="M231.644 125.55C231.674 128.725 224.495 127.118 216.966 127.986C209.437 128.855 202.976 134.946 202.597 142.875C202.057 154.258 202.297 164.982 202.357 176.775C202.357 177.724 200.789 179.531 199.921 179.531L169.894 179.281L169.715 112.699C169.715 109.304 168.347 106.048 169.435 102.763H197.464C198.572 102.773 200.919 103.263 201.079 104.041C201.239 104.82 201.448 106.418 201.548 107.646L202.117 114.576L205.762 110.782C212.352 104.161 222.038 102.024 231.395 103.133L231.644 125.55Z" fill="#3986B7"/>
<path d="M606.656 102.713H573.774V179.431H606.656V102.713Z" fill="#3986B7"/>
<path d="M376.832 256.888L362.153 257.188L357.111 245.794L349.981 229.907C348.943 227.601 348.933 225.424 346.386 222.988L346.107 257.088L337.08 257.188L336.85 243.448L336.95 209.907L351.209 209.577L356.541 220.911L362.583 234.91C363.511 237.057 364.47 238.685 366.287 240.642L366.527 209.957C369.552 209.727 373.027 209.737 376.802 210.007L376.832 256.908V256.888Z" fill="#3986B7"/>
<path d="M646.787 239.973C643.522 239.593 643.352 231.605 646.807 231.066C651.58 230.317 665.29 228.25 664.641 235.25C664.082 241.271 665.38 247.641 663.732 252.884C662.244 257.637 647.736 258.006 643.292 257.757C632.558 257.158 624.38 250.357 622.303 239.663C621.654 236.328 621.354 232.374 622.273 229.059C624.729 220.252 626.986 214.16 635.324 210.376C640.906 207.84 650.332 207.51 655.574 210.406C661.096 213.451 664.601 217.895 664.441 224.605L656.313 225.464C652.149 225.903 653.967 217.026 647.476 216.457C640.077 215.808 635.224 220.391 634.195 227.261C633.267 233.402 632.608 240.722 637.301 245.744C640.906 249.599 647.037 249.858 652.299 249.219L652.858 240.682L646.787 239.973Z" fill="#3986B7"/>
<path d="M301.372 257.038L291.536 257.197V240.442C291.536 239.623 291.267 237.826 290.648 237.656C290.029 237.486 288.321 237.217 287.652 237.217L276.229 237.147L276.029 256.998L265.015 256.918L264.935 209.957C268.89 209.737 272.045 209.747 276.039 209.937L276.289 227.611L288.461 227.88C289.28 227.9 291.546 227.002 291.546 226.153L291.526 209.777H301.312L301.372 257.038Z" fill="#3986B7"/>
<path d="M589.91 239.693C587.853 246.513 586.106 252.894 578.447 255.889C572.106 258.376 566.654 258.745 560.184 256.618C548.421 252.764 545.096 236.997 547.732 225.274C550.029 215.019 557.957 208.139 568.841 208.369C578.926 208.589 587.075 214.29 589.401 224.815C590.49 229.748 591.398 234.76 589.91 239.693ZM575.132 247.582C580.394 241.77 579.276 227.631 577.888 223.647C576.021 218.274 571.368 215.698 566.505 216.627C557.568 218.324 557.078 231.106 558.257 238.715C558.906 242.908 560.493 247.632 564.847 249.119C567.703 250.088 573.015 249.918 575.132 247.582Z" fill="#3986B7"/>
<path d="M452.411 240.122C450.874 251.526 440.519 258.925 431.322 258.126C422.026 257.327 415.535 253.912 412.03 244.706C409.774 238.774 410.023 232.304 410.832 225.953C411.911 217.376 420.558 208.738 428.996 208.459C443.045 207.989 448.148 213.831 453.09 225.454C452.951 230.517 453.04 235.389 452.411 240.122ZM437.952 247.771C443.934 241.011 443.125 226.033 439.38 220.182C437.224 216.807 432.78 215.838 428.886 216.627C418.79 218.664 417.043 246.283 429.205 249.858C431.332 250.487 436.345 249.599 437.952 247.771Z" fill="#3986B7"/>
<path d="M833.724 256.718C826.055 258.426 824.507 258.556 817.228 256.818C811.137 255.37 805.934 247.731 807.941 241.85C808.81 239.483 816.179 239.673 817.368 241.89C818.196 243.448 819.105 247.242 820.343 248.291C822.52 250.138 827.633 249.998 830.468 248.63C832.615 247.592 832.815 241.051 830.558 240.122L816.758 234.451C812.115 232.544 807.881 228.01 808.261 222.408C808.97 211.874 817.387 208.519 827.023 208.319C835.441 208.139 842.481 214.75 841.452 222.928C839.755 224.405 834.003 224.755 832.825 222.928C831.647 221.1 830.379 218.474 829.24 217.376C827.313 215.528 819.564 216.167 818.656 220.97C818.396 222.358 820.263 225.414 821.621 225.903L835.721 230.966C840.064 232.524 844.857 239.364 843.789 245.365C842.89 250.367 838.567 255.63 833.724 256.708V256.718Z" fill="#3986B7"/>
<path d="M158.221 237.037L141.586 237.386L140.717 247.691L160.139 248.241C162.305 249.099 162.385 255.59 160.438 257.108L132.699 257.377C131.64 257.387 130.023 255.54 130.023 254.581L129.983 212.283C129.983 211.355 131.66 209.567 132.639 209.577L159.929 209.677C161.177 211.514 161.197 216.477 159.739 218.224L142.994 218.454C142.075 218.484 141.516 221.4 141.436 222.309L140.947 227.79L158.251 228.28C160.568 228.35 160.438 236.408 158.221 237.037Z" fill="#3986B7"/>
<path d="M772.503 236.707C767.221 237.227 762.228 237.257 756.876 237.327L755.089 244.965C754.799 246.184 756.637 248.37 757.995 248.39L774.77 248.59C776.568 250.188 776.847 255.68 775.02 257.207L744.584 257.168L744.614 209.707L774.021 209.667C775.379 211.774 775.439 216.367 774.141 218.274L756.457 218.484L755.329 227.611L759.343 227.771C763.606 227.94 769.048 228.1 773.063 228.559C774.92 229.588 774.61 236.508 772.523 236.717L772.503 236.707Z" fill="#3986B7"/>
<path d="M204.983 241.62C205.992 247.592 211.963 251.296 217.315 249.099C220.051 247.971 221.239 244.935 222.597 241.94C224.644 241.57 229.018 241.83 232.053 242.15C232.703 250.937 226.172 256.868 217.784 257.687C210.415 258.396 201.738 257.627 197.584 250.467C191.033 239.174 190.724 224.495 199.201 213.851C200.829 211.804 206.022 209.447 208.678 208.888C211.713 208.249 215.548 208.379 218.623 208.828C224.784 209.747 234.769 217.236 230.835 223.677C229.178 224.795 224.125 224.565 222.697 223.866C221.609 221.36 220.391 218.804 218.064 217.945C215.088 216.847 212.063 217.086 209.277 218.434C203.345 221.31 203.835 234.81 204.983 241.61V241.62Z" fill="#3986B7"/>
<path d="M586.465 89.3029C576.38 87.196 570.908 77.5102 572.965 67.7544C573.664 64.4593 576.06 60.3353 578.726 57.819C580.734 55.9217 585.746 54.1244 588.572 54.0145C597.479 53.6451 604.069 60.3752 605.837 68.4235C607.065 74.0153 605.427 79.3575 602.162 83.132C598.537 87.3158 592.716 90.5911 586.475 89.2929L586.465 89.3029Z" fill="#3986B7"/>
<path d="M85.9768 256.249C83.0211 257.637 79.1069 257.387 75.2325 256.698L75.1027 218.454L62.1616 218.244L62.3214 209.627L97.1405 209.647C98.159 211.494 98.5085 215.918 97.6597 218.075L86.0467 218.634L85.9668 256.249H85.9768Z" fill="#3986B7"/>
<path d="M512.004 247.602C513.063 247.612 515.839 248.141 516.568 248.83C518.155 250.318 517.996 255.929 515.959 257.237L487.051 257.207L487.001 209.737L497.735 209.777L497.825 247.462L512.004 247.602Z" fill="#3986B7"/>
<path d="M700.029 256.938C698.801 256.758 698.322 252.704 698.322 251.426L698.362 210.266C702.036 209.687 705.192 209.647 709.236 209.877L709.216 256.928C706.759 257.138 702.246 257.267 700.039 256.938H700.029Z" fill="#3986B7"/>
</svg>
