<svg xmlns="http://www.w3.org/2000/svg" width="900" height="312" fill="none"><g clip-path="url(#a)"><path fill="#5d5d5f" d="M64.884 49.923c16.437-.038 32.874 0 49.311-.028 23.74-.251 47.842 5.02 68.484 16.985 19.07 10.924 34.577 28.151 42.698 48.632 8.884 22.443 9.656 47.898 2.67 70.963a55.84 55.84 0 0 0-18.968-25.157c-12.26-9.204-26.958-14.336-41.553-18.501-13.312-3.821-27.033-5.95-40.335-9.771-14.326-4.016-28.828-8.581-41.256-16.985-6.205-4.212-11.619-9.743-15.033-16.465-4.4-8.432-5.497-18.073-6.018-27.435zm232.442.093c-.047 30.177.004 60.35-.117 90.528 12.475 3.719 25.707 6.206 38.721 4.3 18.168-3.301 35.912-15.349 41.744-33.469 4.317-13.332 2.326-28.718-5.813-40.209-9.517-13.731-26.41-20.918-42.791-21.15-10.614-.028-21.13-.01-31.744 0M310 61.404c10.437.307 21.14-1.097 31.279 2.092 8.065 2.408 15.442 7.503 20 14.643 5.926 9.12 6.721 20.983 3.14 31.144-3.572 10.078-11.87 18.255-21.861 21.964-10.39 4.026-22.004 3.231-32.674.814.139-23.559.116-47.098.116-70.657m242.958-7.986c4.233-.009 8.465-.009 12.707 0 .075 6.926-.037 13.843.065 20.76 4.149-.01 8.307-.01 12.465-.01V84.87h-12.502c0 13.406-.028 26.803.009 40.209.01 3.207.559 7.223 3.879 8.683 2.745.762 5.721.39 8.307-.781a286 286 0 0 1 3.926 9.929c-6.8 2.724-15.228 3.756-21.628-.502-5.349-3.533-7.2-10.301-7.219-16.381-.046-24.209-.018-48.409-.009-72.609m188.112.753.791-.697c3.962-.204 7.934.019 11.907-.074.102 30.224 0 60.457.046 90.681-4.27 0-8.54.019-12.8-.027.046-29.964-.065-59.928.056-89.883M423.605 72.793c-3.396.079-6.819.52-10.117 1.278-7.516 1.739-14.404 6.28-18.488 12.9-3.907 6.052-5.335 13.359-5.698 20.453-.353 10.152 3.024 20.713 10.698 27.658 9.405 8.869 23.312 11.84 35.814 9.413 8.633-1.525 16.051-6.633 21.977-12.899-2.754-2.306-5.493-4.695-8.256-6.973-8.558 9.464-23.474 13.183-35 7.205-6.614-3.254-10.744-10.124-12.093-17.199 19.088-.121 38.121.032 57.209-.116.335-7.085.275-14.294-2.209-21.035-2.744-8.106-9.163-14.972-17.209-18.012-5.303-1.999-10.963-2.803-16.628-2.673m-.465 10.691a28.17 28.17 0 0 1 13.721 2.673c6.558 3.338 9.307 10.854 9.883 17.781-14.735.009-29.451-.028-44.186 0 .13-7.856 4.33-16.27 12.21-18.827a33.8 33.8 0 0 1 8.372-1.627m173.102-.976c4.363-6.136 11.963-9.018 19.256-9.566 10.642-.595 21.581 2.278 30.483 8.172-2.102 2.993-4.046 6.098-6.055 9.148-6.652-4.37-14.568-7.02-22.549-7.038-4.828.27-10.828 2.166-12.047 7.493-1.135 3.626 1.935 6.694 4.94 8.126 10.028 4.983 22.27 5.122 31.097 12.569 6.391 5.104 7.107 14.736 3.601 21.708-3.452 6.741-10.819 10.524-18.056 11.705-13.377 1.915-27.275-2.194-38-10.264a202 202 0 0 0 6.521-8.599c8.641 5.671 18.921 10.217 29.479 8.655 4.744-.753 10.121-4.1 9.99-9.464.27-4.221-3.693-6.917-7.162-8.274-9.777-3.979-21.238-4.472-29.582-11.519-6.688-5.513-6.697-16.12-1.916-22.852m-124.679-2.11c11.786-5.578 24.958-8.023 37.963-7.772 7.618.14 15.479 2.928 20.558 8.785 4.567 5.02 6.577 11.947 6.688 18.622-.018 14.68-.018 29.369-.009 44.048H524.13c-.009-13.74.065-27.472-.037-41.203-.074-5.709-1.953-11.798-6.642-15.387-4.558-3.607-10.66-4.127-16.26-3.718-5.861.316-11.656 1.636-17.033 4.007.01 18.77 0 37.55 0 56.32-4.204-.028-8.4-.019-12.604-.019.037-21.224.027-42.458.009-63.683m221.693-7.837c-11.916-.121-23.777 2.719-34.535 7.786.009 28.188.028 56.404 0 84.601 4.214-.009 8.335.037 12.558 0-.065-8.004-.009-16.051 0-24.055 7.228 2.435 14.73 4.592 22.442 4.416 7.544.409 15.353-.856 21.744-5.114 8.307-5.299 12.935-14.847 14.07-24.404 1.191-10.58-.177-22.08-6.977-30.68-5.767-7.456-14.986-11.453-24.186-12.318a72 72 0 0 0-5.116-.232m-2.209 10.923c4.057-.028 8.095.56 11.976 1.744 7.638 2.38 12.568 9.84 13.489 17.547.846 8.591.702 18.19-5 25.218-3.591 4.509-9.428 6.429-15 6.624-8.782.028-17.549-2.096-25.233-6.391.177-13.453-.163-26.882.116-40.326 6.14-2.71 12.898-4.383 19.652-4.416M826.26 74.17c4.503-.01 9.005-.028 13.508.084v1.636l-.01-1.227c-10.66 23.948-20.8 48.13-31.339 72.134-2.996 6.61-7.172 13.323-13.945 16.576-8.716 3.831-18.874 2.204-27.255-1.738 1.469-3.263 2.939-6.517 4.437-9.762 4.772 2.38 10.298 3.57 15.581 2.334 5.2-1.637 7.805-6.843 10.168-11.324-11.303-22.833-22.242-45.852-33.479-68.713 4.642.01 9.293.037 13.944-.075 8.753 18.353 17.172 36.863 25.749 55.298 7.553-18.407 15.097-36.815 22.641-55.223M64.884 150.264c10.744 6.424 22.046 12.002 33.888 16.121 22.605 8.106 46.689 10.858 69.377 18.668 9.563 3.356 19.572 7.14 26.539 14.819 6.475 7.103 7.396 17.487 6.131 26.598-2.103 12.876-11.991 23.094-23.265 28.876-17.135 8.842-36.949 10.878-55.973 9.92-13.172-1.292-26.018-4.992-38.334-9.734-6.317-2.593-12.67-5.262-18.363-9.064zm241.87 25.092c8.707-6.443 20.139-7.633 30.623-6.443 10.121.939 19.888 5.021 27.814 11.361l.065.735c-2.195 3.188-4.893 6.005-7.209 9.111-7.47-5.904-16.568-9.995-26.186-10.376-6.587-.288-13.917.865-18.754 5.727-5.33 5.011-4.595 15.154 2.037 18.752 11.647 6.945 25.982 6.22 38.047 12.179 6.065 2.742 11.804 7.335 13.842 13.908 2.855 8.878.521 19.421-6.447 25.78-7.637 7.122-18.53 9.511-28.716 9.046-14.614.112-28.689-6.034-39.684-15.442 2.735-3.003 5.526-5.969 8.13-9.092 7.591 6.563 16.689 11.816 26.81 13.006 8.13.93 17.562.744 23.925-5.151 4.075-3.56 4.884-9.668 3.163-14.586-2.66-5.616-9.153-7.624-14.66-9.307-11.386-3.058-23.796-4.165-33.731-11.081-5.758-3.933-9.311-10.701-9.135-17.692-.567-8.005 3.582-15.852 10.066-20.435m76.846-.353c4.233 0 8.474 0 12.716-.009a2630 2630 0 0 0 0 11.918c-4.242 0-8.483 0-12.716-.009zm287.912 17.487c-1.61-.032-3.163.047-4.768.116-8.79.419-17.735 3.524-24.07 9.762-5.739 5.588-8.958 13.49-9.767 21.383-.828 8.73.233 17.873 4.419 25.683a29.779 29.779 0 0 0 20 15.223c11.628 2.148 23.623-.748 34.069-5.927a507 507 0 0 0 0 5.23c4.252 0 8.521.028 12.791 0-.009-21.188-.107-42.38-.116-63.567-10.149-4.858-21.302-7.661-32.558-7.903m1.744 10.924c6.232.246 12.484 1.818 18.139 4.416.047 12.774-.046 25.566 0 38.35-8.018 4.695-16.986 8.716-26.511 8.018-6.391.065-12.749-3.463-15.698-9.18-4.084-7.605-4.363-16.818-2.558-25.102 1.646-7.596 7.856-13.82 15.465-15.456a43.8 43.8 0 0 1 11.163-1.046m-258.112-4.165c9.442-6.034 21.144-7.605 32.131-6.396 5.609.706 10.874 2.919 15.823 5.587-1.842 3.338-3.758 6.629-5.61 9.966-8.641-5.689-20.558-7.391-29.618-1.654.102 19.068.009 38.135.056 57.203-4.261.019-8.512.01-12.763.01 0-21.569.037-43.147-.019-64.716m84.623-6.759c-2.32.047-4.576.163-6.86.465-8.139 1.255-16.135 4.886-21.744 11.04-10.363 11.342-11.712 29.104-5.116 42.65 5.079 10.496 16.181 17.078 27.558 18.361 8.502.846 17.432.483 25.349-3.022 6.381-2.77 12.023-7.381 15.465-13.48 5.618-9.632 6.335-21.648 3.023-32.191-2.735-8.627-9.149-16.023-17.326-19.872-6.321-2.989-13.39-4.086-20.349-3.951m-.348 10.924c5.293-.186 10.66.47 15.349 3.022 6.13 3.263 10.167 9.696 11.162 16.502 1.61 8.813-.051 18.826-6.628 25.333-6.446 5.969-16.009 7.429-24.418 6.043-6.67-.976-13.14-4.764-16.396-10.807-4.251-7.744-4.418-17.311-1.627-25.567 2.576-7.502 9.586-12.913 17.325-14.177 1.721-.219 3.47-.284 5.233-.349m53.66-3.012c11.6-5.597 24.623-8.042 37.461-7.893 7.246-.019 14.725 2.38 20 7.484 5.637 5.383 7.907 13.332 7.953 20.946.056 14.335 0 28.671.019 43.007-4.251.028-8.512.019-12.763.028.019-13.732.009-27.454.009-41.185-.009-5.448-1.795-11.212-5.99-14.894-3.563-3.059-8.354-4.351-12.977-4.323a50.86 50.86 0 0 0-20.996 4.054c.019 18.779-.027 37.559.019 56.339-4.251 0-8.502.009-12.753-.019.027-21.178-.01-42.366.018-63.544M383.6 194.089c4.233.019 8.474.019 12.707.01.009 23.288-.009 46.577.009 69.866h-12.725c.028-23.289.009-46.578.009-69.876"/></g><defs><clipPath id="a"><path fill="#fff" d="M50 37h800v238H50z"/></clipPath></defs></svg>