<svg width="900" height="312" viewBox="0 0 900 312" fill="none" xmlns="http://www.w3.org/2000/svg">
<rect width="900" height="312" fill="white"/>
<path fill-rule="evenodd" clip-rule="evenodd" d="M61.5505 156.219C61.5505 164.817 63.2854 175.107 76.5378 175.107H108.953V152.074H83.5685V161.599H99.164V166.047H78.6726C70.9797 166.047 72.1003 158.574 72.1003 156.376C72.1003 150.901 73.1191 147.93 78.2157 147.93H108.951V138.027H78.37C66.2936 138.027 61.5505 145.165 61.5505 156.219ZM118.16 175.107H159.441V166.045H128.481V161.598H159.441V152.613H128.481V148.696H159.441V138.027H118.16V175.107ZM203.504 165.354L182.712 138.027H168.643V175.107H178.276V147.774L199.068 175.107H213.137V138.027H203.504V165.354ZM223.57 175.107H264.851V166.045H233.891V161.598H264.851V152.613H233.891V148.696H264.851V138.027H223.57V175.107ZM320.235 151.23C320.235 146.085 320.133 138.025 307.852 138.025H274.06V175.107H284V164.281H299.441L308.082 175.107H320.924L311.675 163.206C318.449 162.199 320.235 157.38 320.235 151.23ZM305.02 155.206H283.992V148.219H305.171C308.001 148.219 309.988 149.062 309.988 151.369C309.988 153.67 309.528 155.206 305.02 155.206ZM391.142 138.027H380.824V175.107H417.976V166.045H391.142V138.027ZM342.736 138.027L321.943 175.108H333.258L337.338 167.814H361.542L365.594 175.108H376.909L356.114 138.027H342.736ZM342.446 158.662L349.425 146.188L356.421 158.662H342.446ZM479.756 138.027H449.179V175.108H481.594C494.03 175.108 496.575 167.274 496.575 156.22C496.575 145.167 491.835 138.027 479.756 138.027ZM479.449 166.045H458.96V147.928H479.907C485.616 147.928 486.022 151.515 486.022 156.375C486.024 160.825 486.126 166.045 479.449 166.045ZM585.591 165.354L564.798 138.027H550.73V175.107H560.366V147.774L581.158 175.107H595.225V138.027H585.591V165.354ZM620.496 138.027L599.7 175.108H611.016L615.095 167.814H639.302L643.351 175.108H654.667L633.87 138.027H620.496ZM620.202 158.662L627.181 146.188L634.177 158.662H620.202ZM521.709 153.993L508.508 138.027H495.05L516.306 162.289V175.107H526.857V162.289L548.108 138.027H534.652L521.709 153.993ZM686.617 163.857L674.387 138.027H658.487V175.107H668.12V146.815L682.184 175.107H691.053L705.122 146.815V175.107H714.749V138.027H698.851L686.617 163.857ZM725.891 138.027V175.107H736.291L736.214 138.027H725.891ZM743.543 156.219C743.543 167.272 746.088 175.107 758.53 175.107H787.729V166.086C787.729 166.086 765.1 166.045 760.667 166.045C753.992 166.045 754.094 160.825 754.094 156.375C754.094 151.512 754.5 147.928 760.207 147.928H787.729V138.027H760.361C748.283 138.027 743.543 145.165 743.543 156.219ZM828.65 152.536H806.325C804.722 152.536 802.923 152.076 802.923 150.31C802.923 148.545 804.722 148.084 806.325 148.084C810.761 148.084 838.357 148.047 838.357 148.047V139.026H803.876C795.089 139.026 792.95 143.556 792.95 150.31C792.95 157.065 795.089 161.598 803.876 161.598H826.201C827.81 161.598 829.603 162.052 829.603 163.824C829.603 165.591 827.81 166.044 826.201 166.044C821.771 166.044 794.169 166.084 794.169 166.084V175.105H828.65C837.44 175.105 839.579 170.574 839.579 163.824C839.579 157.066 837.44 152.536 828.65 152.536Z" fill="#231F20"/>
</svg>
