<svg xmlns="http://www.w3.org/2000/svg" width="900" height="312" fill="none"><path fill="#184493" fill-rule="evenodd" d="M849.185 107.861c0 2.997-2.447 5.435-5.455 5.435-3.004 0-5.446-2.438-5.446-5.435s2.442-5.435 5.446-5.435c3.008 0 5.455 2.438 5.455 5.435m.815 0c0-3.447-2.809-6.253-6.27-6.253-3.453 0-6.266 2.806-6.266 6.253s2.813 6.252 6.266 6.252c3.461 0 6.27-2.805 6.27-6.252m-7.472-2.897c.157-.043.486-.087.949-.087 1.006.011 1.697.427 1.697 1.38 0 .843-.643 1.402-1.669 1.402h-.977zm-.954 6.615h.954v-3.197h.901c.868.033 1.264.415 1.483 1.434.21.919.372 1.555.496 1.763h.987c-.152-.285-.329-.997-.572-2.026-.177-.767-.515-1.293-1.087-1.489v-.033c.782-.263 1.397-.909 1.397-1.883 0-.57-.21-1.073-.582-1.402-.462-.416-1.12-.603-2.141-.603-.658 0-1.354.056-1.836.154zm-37.389 114.815q-2.361-4.08-6.561-4.081-3.111.001-5.207 1.852-2.094 1.837-2.093 4.566.001 4.048 4.987 6.148l2.347.974c.61.263 1.13.537 1.573.825a5 5 0 0 1 1.078.925q.414.496.615 1.083.194.59.195 1.295.002 1.759-1.135 2.903c-.753.765-1.707 1.146-2.846 1.146q-2.175-.001-3.305-1.57-.63-.815-.882-2.949l-3.71.816c.329 2.259 1.178 4.01 2.528 5.256q2.066 1.867 5.226 1.867c2.227 0 4.086-.732 5.588-2.196q2.232-2.18 2.232-5.525c0-1.663-.453-3.066-1.369-4.211-.91-1.148-2.355-2.117-4.325-2.911l-2.422-.989q-2.646-1.083-2.646-2.856-.002-1.287 1.006-2.134 1.007-.863 2.537-.863c.824 0 1.502.168 2.026.502q.758.438 1.593 1.883zm-47.459 20.616v-16.961l17.719 18.437v-25.702h-3.667v16.837l-17.719-18.484v25.873zm-40.16-12.176q.001-3.83 2.614-6.433 2.611-2.635 6.403-2.636c2.542 0 4.669.88 6.39 2.636q2.598 2.62 2.599 6.497-.001 3.828-2.627 6.496-2.633 2.635-6.452 2.636-3.527 0-6.218-2.59c-1.803-1.724-2.709-3.926-2.709-6.606m-3.695-.046q-.002 5.82 4.125 9.415c2.493 2.162 5.312 3.248 8.449 3.248 3.548 0 6.571-1.219 9.079-3.657q3.742-3.64 3.743-8.866c0-3.462-1.239-6.43-3.729-8.895q-3.712-3.705-8.907-3.705c-3.5 0-6.504 1.224-8.998 3.673q-3.762 3.67-3.762 8.787m-18.473 12.22h3.667v-24.227h-3.667zm-13.456-20.788v-3.436h-14.82v3.436h5.584v20.792h3.666V226.22zm-46.263-3.436v15.597q-.001 3.83 2.394 6.307 2.669 2.763 6.59 2.762 3.92.001 6.604-2.762 2.397-2.478 2.398-6.307v-15.597h-3.671v14.593q.001 3.169-1.021 4.566c-1.015 1.392-2.455 2.087-4.31 2.087q-2.767 0-4.297-2.087-1.023-1.444-1.025-4.566v-14.593zm-23.732 0v24.226h10.81v-3.435h-7.143v-20.791zm-36.488 12.05q-.001-3.83 2.609-6.433 2.611-2.635 6.403-2.636c2.542 0 4.669.88 6.39 2.636q2.595 2.62 2.594 6.497.002 3.828-2.627 6.496-2.625 2.635-6.452 2.636c-2.346 0-4.42-.864-6.213-2.59q-2.704-2.586-2.704-6.606m-3.7-.046q-.001 5.82 4.125 9.415c2.493 2.162 5.312 3.248 8.449 3.248q5.316 0 9.079-3.657 3.742-3.64 3.743-8.866c0-3.462-1.244-6.43-3.733-8.895-2.47-2.47-5.441-3.705-8.903-3.705q-5.257 0-8.998 3.673-3.762 3.67-3.762 8.787m-14.024-8.394q-2.358-4.08-6.556-4.081-3.118.001-5.212 1.852c-1.393 1.224-2.094 2.747-2.094 4.566q.002 4.048 4.988 6.148l2.346.974q.916.394 1.574.825.664.433 1.077.925c.282.331.482.691.616 1.083q.194.59.195 1.295 0 1.759-1.13 2.903-1.136 1.147-2.852 1.146c-1.449 0-2.546-.525-3.304-1.57-.42-.543-.711-1.527-.882-2.949l-3.715.816q.507 3.388 2.537 5.256 2.059 1.867 5.226 1.867 3.332 0 5.584-2.196 2.232-2.18 2.232-5.525c0-1.663-.453-3.066-1.369-4.211-.911-1.148-2.356-2.117-4.325-2.911l-2.422-.989q-2.647-1.083-2.647-2.856.002-1.287 1.011-2.134 1.002-.863 2.532-.863c.83 0 1.502.168 2.032.502q.75.438 1.587 1.883zm-63.777-.173h1.653q4.688 0 7.095 2.211 2.677 2.48 2.676 6.466c0 2.634-.903 4.776-2.707 6.415a8.3 8.3 0 0 1-2.958 1.743q-1.636.52-4.106.519h-1.653zm1.37 20.789q3.695.001 5.711-.674 2.155-.673 4.122-2.401 3.918-3.451 3.919-9.037-.001-5.57-3.764-8.992-1.854-1.695-4.136-2.401-2.122-.722-5.791-.724h-5.097v24.229zm-20.032-24.226h-13.408v24.228h13.408v-3.438h-9.741v-8.095h9.455v-3.437h-9.455v-5.822h9.741zm-39.325 3.436h1.305q5.068 0 5.068 3.719 0 3.97-5.208 3.969h-1.165zm4.564 10.465q2.42-.516 3.901-2.369 1.478-1.85 1.479-4.425 0-3.293-2.36-5.303-2.141-1.803-6.954-1.804h-4.296v24.228h3.666v-9.917h.661l6.939 9.917h4.483zm-23.228-13.901h-13.406v24.228h13.406v-3.438h-9.74v-8.095h9.457v-3.437h-9.457v-5.822h9.74zm-28.403 0h-13.407v24.228h13.407v-3.438h-9.74v-8.095h9.457v-3.437h-9.457v-5.822h9.74zm-47.129 24.226v-16.961l17.718 18.437v-25.702h-3.667v16.837l-17.717-18.484v25.873zm-23.353-.002h3.666v-24.227h-3.666zm-24.833-9.176h6.059q-.252 2.558-2.408 4.393-2.156 1.82-4.862 1.82-3.177 0-5.9-2.43-2.912-2.622-2.912-6.671c0-2.617.871-4.79 2.612-6.528q2.611-2.65 6.468-2.651 4.296 0 7.284 3.97l2.612-2.495q-2.281-2.604-4.641-3.765-2.47-1.162-5.319-1.162-5.303.001-8.999 3.687-3.698 3.671-3.698 8.944 0 5.162 3.634 8.85 3.636 3.673 8.733 3.673 5.224 0 8.607-3.799 1.495-1.696 2.124-3.639.646-2.103.646-4.834v-.799h-10.04zm-46.466 9.178v-16.961l17.717 18.437v-25.702h-3.666v16.837l-17.717-18.484v25.873zm-18.665-24.226h-13.406v24.228h13.406v-3.438h-9.738v-8.095h9.456v-3.437h-9.456v-5.822h9.738zm469.057-56.79-11.978-33.897-11.94 33.897zm-199.088-41.528h-27.126l27.126 71.136zm-38.276 41.663-11.846-33.897-11.98 33.897zm-187.246-1.909c1.494-3.392 2.286-7.111 2.286-11.156 0-4.047-.792-7.909-2.286-11.25-1.585-3.398-3.729-6.418-6.293-8.883-2.707-2.601-5.78-4.511-9.281-5.856-3.492-1.49-7.086-2.145-11.051-2.145-3.822 0-7.551.655-10.951 2.145-3.502 1.345-6.531 3.255-9.138 5.856-2.708 2.465-4.715 5.485-6.302 8.883-1.485 3.341-2.279 7.203-2.279 11.25 0 4.045.794 7.764 2.279 11.156 1.587 3.49 3.594 6.419 6.302 8.884 2.607 2.556 5.636 4.509 9.138 5.948 3.4 1.347 7.129 2.044 10.951 2.044 3.965 0 7.559-.697 11.051-2.044 3.501-1.439 6.574-3.392 9.281-5.948a28.7 28.7 0 0 0 6.293-8.884m560.29-62.293v101.867h-26.431l-48.962-62.257v62.257h-47.183l-6.108-17.669h-37.904l-6.113 17.669h-47.179v-41.982h-38.233v41.982h-26.526v-79.462l-23.51.135v79.463h-51.702l-6.066-17.668H428.33l-6.108 17.668h-47.278l-49.094-62.258v62.258h-26.533v-34.082c-.414 1.439-.978 2.786-1.536 4.275a54.6 54.6 0 0 1-11.752 17.111c-4.986 4.839-10.951 8.649-17.945 11.433-6.995 2.752-14.546 4.097-22.804 4.097-8.251 0-15.895-1.345-22.796-4.097-6.902-2.784-12.867-6.594-17.81-11.433-4.195-4.09-7.551-8.785-10.166-13.993v.095l-30.212 43.194s-.607.832-.885 1.253c-19.676 28.175-58.51 35.15-86.764 15.53-17.81-12.324-27.14-32.364-26.627-52.448h28.398c0 10.786 5.173 21.437 14.781 28.084 15.567 10.828 37.012 7.068 47.878-8.557l25.042-35.847V66.072L174.412 63l11.794 3.072L194.415 63s.05 0 .093 65.842c2.615-5.302 5.971-9.995 10.166-14.042 4.943-4.838 10.908-8.649 17.81-11.391 6.901-2.794 14.545-4.14 22.796-4.14 8.258 0 15.809 1.346 22.804 4.14 6.994 2.742 12.959 6.553 17.945 11.391 4.944 4.829 8.909 10.55 11.752 17.105.65 1.446 1.122 2.935 1.536 4.375v-34.218h26.533l49.094 62.251v-62.251h26.432v82.29l31.384-82.29h28.997l112.325-.135v39.282h38.233v-39.282h26.67v81.499l31.142-81.499h28.863l31.143 81.499v-81.499h26.669l48.962 62.25v-62.25zM88.812 185.343c.068-13.082 10.755-23.639 23.881-23.571 13.118.066 23.704 10.729 23.638 23.811-.068 13.083-10.761 23.64-23.881 23.574-13.126-.066-23.704-10.731-23.638-23.814" clip-rule="evenodd"/></svg>