<svg width="900" height="312" viewBox="0 0 900 312" fill="none" xmlns="http://www.w3.org/2000/svg">
<mask id="mask0_8_253" style="mask-type:luminance" maskUnits="userSpaceOnUse" x="50" y="52" width="800" height="207">
<path d="M50 52H850V258.933H50V52Z" fill="white"/>
</mask>
<g mask="url(#mask0_8_253)">
<path d="M50 52H328.533V217.6H50V52Z" fill="#931714"/>
<path d="M121.733 118.4C120.4 115.067 117.867 108.8 104.4 108.8C96.5333 108.8 84.9333 112.533 84.9333 128.267C84.9333 138.267 90.5333 147.333 104.4 147.333C113.467 147.333 119.733 143.733 121.733 136.8H138.133C134.8 148.933 123.733 157.333 104 157.333C83.2 157.333 68.1333 147.333 68.1333 128.133C68.1333 108.933 84 98.6666 104.133 98.6666C127.6 98.6666 137.067 110.133 138 118.4M156.533 100.133H191.2C217.6 100.133 223.067 116.133 223.067 126.667C223.067 138.667 216.4 155.867 190.533 155.867H156.533M172.533 146.267H188.533C201.867 146.267 206.4 136.667 206.4 127.6C206.4 111.2 195.333 109.867 188.4 109.867H172.667V146.267H172.533ZM300 110H258.4V121.733H296.667V131.6H258.4V146H301.867V155.867H242.4V100.133H300" fill="#F9F9FA"/>
<path d="M212 174.933L176.8 217.6L177.467 218.133L226 173.2L226.4 172.667L216.667 168.667L240.933 133.467V126.667L200.267 172M298.8 68L266.4 98.2667H272.933L300 69.2" fill="white"/>
<path d="M69.2 258.133H52.9333V236.267H69.0667V238.8H55.8667V245.467H68V248.133H55.8667V255.467H69.3334M87.3334 236.267H90.2667V258.133H86.9333L75.6 240.4V258.133H72.6667V236.267H76.2667L87.3334 253.867M111.067 258.133H94.6667V236.267H110.8V238.8H97.7333V245.467H109.867V248.133H97.7333V255.467H111.067M117.867 258.133H114.8V236.267H125.067C128.667 236.267 132.4 237.467 132.4 242.133C132.4 245.333 130.667 246.533 129.333 247.333C130.667 247.867 131.867 248.4 132 251.467L132.133 255.467C132.133 256.667 132.267 257.2 133.2 257.6V258.133H129.467C129.067 256.8 128.933 253.467 128.933 252.667C128.933 250.933 128.533 248.8 124.933 248.8H117.733M117.867 246.133H124.8C126.933 246.133 129.333 245.6 129.333 242.4C129.333 239.2 126.8 238.8 125.333 238.8H117.867V246.133ZM145.867 246.4H155.6V258.133H153.6L152.933 255.333C151.467 257.467 148.667 258.8 145.6 258.8C141.867 258.8 140 257.467 138.8 256.4C135.467 253.2 135.333 249.467 135.333 247.2C135.333 241.867 138.667 235.867 145.867 235.867C150 235.867 154.667 238.133 155.2 243.067H152.267C151.333 239.2 148.133 238.533 145.6 238.533C141.6 238.533 138.4 241.6 138.4 247.333C138.4 251.733 139.867 256.4 145.733 256.4C146.8 256.4 148.667 256.267 150.267 255.067C152.267 253.6 152.667 251.6 152.667 249.2H145.733M160.133 236.267H163.067V258.133H160.133V236.267ZM183.6 258.133H166.133V255.6L179.733 238.8H167.2V236.267H183.6V238.8L169.867 255.467H183.6M186.533 236.267H189.467V258.133H186.533V236.267ZM208.8 236.267H211.733V258.133H208.4L197.067 240.4V258.133H194.133V236.267H197.733L208.8 253.867M225.6 246.4H235.333V258.133H233.333L232.667 255.333C231.2 257.467 228.4 258.8 225.333 258.8C221.6 258.8 219.733 257.467 218.533 256.4C215.2 253.2 215.067 249.467 215.067 247.2C215.067 241.867 218.4 235.867 225.6 235.867C229.733 235.867 234.4 238.133 234.933 243.067H232C231.067 239.2 227.867 238.533 225.333 238.533C221.333 238.533 218.133 241.6 218.133 247.333C218.133 251.733 219.6 256.4 225.467 256.4C226.533 256.4 228.4 256.267 230 255.067C232 253.6 232.4 251.6 232.4 249.2H225.6M247.867 236.267H250.8V258.133H247.867V236.267ZM255.6 236.267H264.533C270.267 236.267 273.867 240.533 273.867 246.933C273.867 251.867 271.733 258.133 264.4 258.133H255.6M258.667 255.6H264.4C268.267 255.6 270.8 252.533 270.8 247.067C270.8 241.6 268.267 238.8 264.133 238.8H258.533V255.6H258.667ZM293.867 258.133H277.6V236.267H293.733V238.8H280.533V245.467H292.667V248.133H280.533V255.467H293.867M300.8 251.733L298.533 258.133H295.467L303.867 236.267H307.2L315.2 258.133H311.867L309.733 251.733M308.533 249.067L305.2 239.467L301.6 249.067H308.533ZM330.667 242.667C330.533 239.333 327.733 238.267 325.2 238.267C323.333 238.267 320.133 238.8 320.133 242.133C320.133 244 321.467 244.533 322.8 244.933L329.067 246.4C332 247.067 334.133 248.8 334.133 252.267C334.133 257.467 329.2 258.933 325.467 258.933C321.333 258.933 319.733 257.733 318.8 256.8C316.933 255.067 316.533 253.333 316.533 251.2H319.333C319.333 255.2 322.667 256.267 325.467 256.267C327.6 256.267 331.2 255.733 331.2 252.533C331.2 250.267 330.133 249.467 326.533 248.667L322 247.6C320.533 247.2 317.333 246.267 317.333 242.4C317.333 238.933 319.6 235.6 324.933 235.6C332.667 235.6 333.467 240.133 333.6 242.533M407.867 90.6666C406.8 88 404.667 83.0666 393.2 83.0666C386.533 83.0666 376.667 86 376.667 98.4C376.667 106.267 381.333 113.333 393.2 113.333C400.933 113.333 406.267 110.533 407.867 105.067H421.733C418.933 114.533 409.467 121.2 392.8 121.2C375.067 121.2 362.4 113.333 362.4 98.2666C362.4 83.2 375.867 75.2 392.933 75.2C412.8 75.2 420.933 84.2666 421.6 90.6666M469.067 75.2C477.867 75.2 500.933 77.7333 500.933 98.2666C500.933 118.8 477.733 121.333 469.067 121.333C460.4 121.333 437.2 118.8 437.2 98.2666C437.2 77.7333 460.267 75.2 469.067 75.2ZM469.067 113.467C476.533 113.467 487.067 110.4 487.067 98.1333C487.067 85.8666 476.533 82.8 469.067 82.8C461.6 82.8 451.067 85.8666 451.067 98.1333C451.067 110.4 461.6 113.467 469.067 113.467ZM520 76.4H553.6C571.333 76.4 574.533 84.9333 574.533 88.8C574.533 93.6 570.8 97.7333 564.267 99.2C569.733 100.8 572.667 102.133 572.667 110.267C572.667 116.667 572.667 118.267 575.6 118.933V120.133H560.267C559.333 118 558.8 115.867 558.8 111.333C558.8 105.333 558.267 103.067 548 103.067H533.6V120.133H520M549.867 95.6C557.067 95.6 560.533 94 560.533 89.6C560.533 87.3333 558.933 83.8666 550.8 83.8666H533.467V95.6H549.867ZM635.067 76.4H648V120.133H634.133L607.067 88.9333H606.933V120.133H593.867V76.4H608.533L634.933 106.8H635.067M718 84.1333H682.8V93.3333H715.2V101.067H682.8V112.4H719.6V120.133H669.2V76.4H718M752.533 112.133H785.6V120.133H738.667V76.4H752.533M816.933 112.133H850V120.133H803.067V76.4H816.933M365.467 154H394.8C417.2 154 421.867 166.533 421.867 174.8C421.867 184.133 416.267 197.733 394.267 197.733H365.467M379.2 190.133H392.667C404 190.133 407.733 182.667 407.733 175.467C407.733 162.533 398.4 161.467 392.4 161.467H379.067V190.133H379.2ZM493.733 182.4C493.733 193.867 483.2 198.8 466.4 198.8C460.267 198.8 451.2 197.867 445.333 193.467C441.733 190.8 440.4 187.2 440.133 182.933V154H454.267V182.4C454.267 188.533 459.6 191.2 466.133 191.2C475.733 191.2 479.6 188.133 479.6 182.8V154H493.733M515.467 154H547.733C564 154 568.133 160.667 568.133 165.2C568.133 171.467 562.8 173.2 560 174.133C568.133 176.133 570.267 180.4 570.267 184.667C570.267 188.133 568 191.467 564.533 193.733C560.8 196.133 557.067 197.733 543.467 197.733H515.333M528.8 171.067H545.067C550.533 171.067 554.933 169.733 554.933 166.133C554.933 162.533 551.067 161.467 544.8 161.467H528.933V171.067H528.8ZM528.8 190.133H545.867C552.667 190.133 556.533 188.133 556.533 183.733C556.533 179.867 551.6 178.4 546.533 178.4H528.8V190.133ZM589.333 154H603.2V197.733H589.333V154ZM638.267 189.867H671.333V197.733H624.4V154H638.267M688 154H701.867V197.733H688V154ZM771.867 161.733H736.533V170.933H768.933V178.667H736.533V190H773.333V197.733H722.933V154H771.867M792.8 154H826.4C844.133 154 847.333 162.533 847.333 166.4C847.333 171.2 843.6 175.333 837.067 176.8C842.533 178.4 845.467 179.733 845.467 187.867C845.467 194.267 845.467 195.867 848.4 196.533V197.733H833.067C832.133 195.6 831.6 193.467 831.6 188.933C831.6 182.933 831.067 180.667 820.8 180.667H806.4V197.733H792.8M822.8 173.2C830 173.2 833.467 171.6 833.467 167.2C833.467 164.933 831.867 161.467 823.733 161.467H806.4V173.2H822.8Z" fill="black"/>
</g>
</svg>
