<svg width="900" height="312" viewBox="0 0 900 312" fill="none" xmlns="http://www.w3.org/2000/svg">
<rect width="900" height="312" fill="white"/>
<g clip-path="url(#clip0_6_387)">
<path d="M647.084 131.13C634.297 131.13 625.547 137.08 625.547 137.08C616.686 143.031 616.686 151.564 616.686 151.564C616.686 155.83 619.378 158.637 619.378 158.637C622.07 161.444 626.108 161.444 626.108 161.444C629.81 161.444 632.502 158.861 632.502 158.861C635.194 156.279 635.194 152.686 635.194 152.686C635.194 148.42 631.605 146.399 631.605 146.399L629.137 144.715L628.688 143.143C628.688 142.02 629.81 140.673 629.81 140.673C630.932 139.101 632.838 138.091 632.838 138.091C638.447 134.498 646.075 134.498 646.075 134.498C655.497 134.498 659.199 138.877 659.199 138.877C662.788 143.368 662.788 155.044 662.788 155.044L662.676 166.384L646.523 169.527C630.146 172.671 621.621 179.52 621.621 179.52C613.096 186.144 613.096 195.8 613.096 195.8C613.096 204.557 619.041 209.834 619.041 209.834C624.987 214.998 634.97 214.998 634.97 214.998C644.616 214.998 651.683 210.171 651.683 210.171C658.75 205.455 662.676 196.249 662.676 196.249C663.124 206.578 666.49 210.844 666.49 210.844C669.967 214.998 678.043 214.998 678.043 214.998C686.68 214.998 690.831 209.609 690.831 209.609C694.869 204.108 694.869 192.544 694.869 192.544V190.972H691.504C691.391 200.74 689.26 205.231 689.26 205.231C687.129 209.722 682.754 209.722 682.754 209.722C680.511 209.722 679.614 207.813 679.614 207.813C678.716 205.904 678.716 201.189 678.716 201.189V159.872C678.716 151.339 676.697 146.062 676.697 146.062C674.678 140.785 670.079 137.529 670.079 137.529C665.929 134.61 659.759 132.814 659.759 132.814C653.59 131.13 647.084 131.13 647.084 131.13ZM662.676 169.415V174.131C662.676 185.246 661.778 189.961 661.778 189.961C660.769 194.789 657.404 199.841 657.404 199.841C654.6 204.332 650.001 207.139 650.001 207.139C645.402 210.058 641.139 210.058 641.139 210.058C636.428 210.058 633.736 206.016 633.736 206.016C631.044 201.975 631.044 194.789 631.044 194.789C631.044 184.348 637.213 178.397 637.213 178.397C640.915 174.917 646.748 172.896 646.748 172.896C652.244 170.987 662.676 169.415 662.676 169.415Z" fill="#003767"/>
<path d="M766.433 133.825C766.433 133.825 771.705 136.519 774.285 141.123L776.641 146.961L778.211 156.167C778.211 156.167 781.8 143.817 789.54 137.53C789.54 137.53 797.28 131.13 808.833 131.13C808.833 131.13 822.855 131.13 829.249 139.102C829.249 139.102 832.053 142.807 832.838 146.512C832.838 146.512 833.623 150.105 833.623 159.199V197.147C833.623 197.147 833.623 204.558 836.54 206.915C836.54 206.915 839.456 209.273 850 210.059V212.754H801.542V210.059C801.542 210.059 811.974 209.273 814.891 206.915C814.891 206.915 817.807 204.558 817.807 197.147V158.862C817.807 158.862 817.807 144.828 815.676 140.786C815.676 140.786 813.545 136.856 805.917 136.856C805.917 136.856 797.28 136.856 790.886 142.021C790.886 142.021 784.38 147.073 781.8 156.167C781.8 156.167 780.006 162.23 779.333 168.63C779.333 168.63 778.66 174.917 778.66 186.257V196.923C778.66 196.923 778.66 204.445 781.688 206.915C781.688 206.915 784.605 209.273 795.037 210.059V212.754H746.579V210.059C746.579 210.059 757.011 209.273 759.927 206.915C759.927 206.915 762.844 204.558 762.844 197.147V152.35C762.844 152.35 762.844 144.154 760.039 140.561C760.039 140.561 757.123 136.856 750.841 136.856C750.841 136.856 743.326 136.856 737.269 141.572C737.269 141.572 730.987 146.4 727.846 154.708C727.846 154.708 725.266 161.444 724.369 168.068C724.369 168.068 723.472 174.805 723.472 187.492V196.923C723.472 196.923 723.472 204.445 726.388 206.915C726.388 206.915 729.417 209.273 739.736 210.059V212.754H691.279V210.059C691.279 210.059 701.711 209.273 704.739 206.915C704.739 206.915 707.656 204.558 707.656 197.147V149.094C707.656 149.094 707.656 142.695 706.871 140.561C706.871 140.561 706.085 138.54 703.169 137.53L691.279 136.07V133.151L723.472 131.13V156.167C723.472 156.167 727.622 144.154 735.81 137.642C735.81 137.642 743.775 131.13 754.431 131.13C754.431 131.13 760.937 131.13 766.433 133.825Z" fill="#003767"/>
<path d="M284.212 96.999V196.923C284.212 196.923 284.212 204.557 287.128 206.915C287.128 206.915 289.821 209.048 299.019 209.947C299.019 209.947 308.104 209.048 310.909 206.915C310.909 206.915 313.825 204.557 313.825 197.147V136.856H297.448V133.488H313.825C313.825 133.488 314.61 123.047 317.078 116.535C317.078 116.535 319.658 110.023 325.042 105.083C325.042 105.083 333.343 96.999 345.008 96.999C345.008 96.999 353.533 96.999 359.366 101.265C359.366 101.265 365.087 105.532 365.087 111.819C365.087 111.819 365.087 115.749 362.731 118.219C362.731 118.219 360.488 120.689 356.674 120.689C356.674 120.689 352.748 120.689 350.505 118.443C350.505 118.443 348.261 116.086 348.261 112.156C348.261 112.156 348.261 109.686 350.393 106.205L351.066 104.521C351.066 104.521 351.066 102.837 348.934 101.714C348.934 101.714 346.803 100.479 343.887 100.479C343.887 100.479 335.586 100.479 332.557 106.318C332.557 106.318 329.641 112.044 329.641 127.874V133.488H351.851V136.856H329.753V197.147C329.753 197.147 329.641 204.557 332.67 206.915C332.67 206.915 335.586 209.273 345.906 210.059V212.753L242.821 213.427L230.819 214.213L227.678 214.55V190.186C227.678 190.186 225.21 196.025 223.191 199.168L218.368 205.343C218.368 205.343 214.105 209.947 208.048 212.529C208.048 212.529 202.215 214.999 195.709 214.999C195.709 214.999 190.101 214.999 185.39 212.978C185.39 212.978 180.566 210.845 177.874 207.14C177.874 207.14 174.846 203.21 173.724 198.27C173.724 198.27 172.602 193.33 172.602 184.573V149.094C172.602 149.094 172.602 142.582 171.817 140.561C171.817 140.561 170.92 138.54 167.891 137.53L155.104 136.07V133.151L188.418 131.13V188.502C188.418 188.502 188.418 199.505 191.335 204.782C191.335 204.782 194.363 210.059 200.533 210.059C200.533 210.059 207.712 210.059 214.442 203.996C214.442 203.996 221.172 197.821 224.537 188.278C224.537 188.278 227.678 179.633 227.678 165.486V149.094C227.678 149.094 227.678 142.47 227.005 140.561C227.005 140.561 226.22 138.54 223.191 137.53L210.852 136.07V133.151L243.718 131.13V196.923C243.718 196.923 243.718 204.557 246.635 206.915C246.635 206.915 248.99 208.824 256.057 209.722C256.057 209.722 263.012 208.824 265.367 206.915C265.367 206.915 268.396 204.557 268.396 197.147V115.412C268.396 115.412 268.396 108.788 267.611 106.767C267.611 106.767 266.826 104.858 263.797 103.848L252.019 102.164V99.469H253.029L269.405 98.4585L282.642 97.3358L284.212 96.999Z" fill="#003767"/>
<path d="M408.609 132.253V162.118H405.917C405.917 162.118 403.898 149.206 396.943 141.796C396.943 141.796 390.101 134.499 379.893 134.499C379.893 134.499 373.051 134.499 368.34 138.091C368.34 138.091 363.629 141.684 363.629 146.961C363.629 146.961 363.629 152.238 368.003 155.269C368.003 155.269 372.49 158.301 387.185 163.128L398.85 167.17C398.85 167.17 401.991 168.405 405.132 170.426C405.132 170.426 409.394 173.121 411.974 177.949C411.974 177.949 414.442 182.776 414.442 188.278C414.442 188.278 414.442 199.505 405.356 207.252C405.356 207.252 396.27 214.999 383.034 214.999C383.034 214.999 371.817 214.999 362.731 209.273L357.123 205.456L356.001 205.007C356.001 205.007 354.543 205.007 353.533 207.701L352.86 210.059L351.514 214.55H348.822V178.285H351.514C351.514 178.285 360.825 211.743 383.034 211.743C383.034 211.743 390.886 211.743 396.383 207.14C396.383 207.14 401.991 202.424 401.991 195.8C401.991 195.8 401.991 189.288 397.953 186.145C397.953 186.145 393.915 183.001 378.884 178.061C378.884 178.061 366.77 174.356 361.273 171.1C361.273 171.1 351.178 165.262 351.178 154.708C351.178 154.708 351.178 144.828 359.478 137.979C359.478 137.979 367.779 131.13 379.893 131.13C379.893 131.13 389.54 131.13 398.402 136.183C398.402 136.183 401.542 138.091 402.328 138.091C402.328 138.091 403.337 138.091 404.122 136.856L405.805 132.253H408.609Z" fill="#003767"/>
<path d="M488.026 132.253L503.057 131.13V148.982C503.057 148.982 506.534 139.888 512.142 135.509C512.142 135.509 517.751 131.13 526.052 131.13C526.052 131.13 533.343 131.13 538.054 134.948C538.054 134.948 542.653 138.765 542.653 144.828C542.653 144.828 542.653 149.319 539.849 152.35C539.849 152.35 537.044 155.381 533.006 155.381C533.006 155.381 528.856 155.381 526.052 152.687C526.052 152.687 523.247 149.88 523.247 145.95C523.247 145.95 523.247 143.368 524.145 141.796L527.398 138.204L528.071 137.193C528.071 137.193 528.071 136.407 526.725 135.958L523.472 135.397C523.472 135.397 518.648 135.397 514.161 139.102C514.161 139.102 509.787 142.695 507.319 148.645C507.319 148.645 504.851 154.483 503.954 160.658C503.954 160.658 503.057 166.833 503.057 176.938V196.923C503.057 196.923 503.057 204.445 506.197 206.915C506.197 206.915 509.338 209.273 520.331 210.059V212.754H470.751V210.059C470.751 210.059 481.183 209.273 484.1 206.915C484.1 206.915 487.016 204.558 487.016 197.147V149.094C487.016 149.094 487.016 142.47 486.231 140.561C486.231 140.561 485.446 138.54 482.305 137.53L469.518 136.07V133.151L488.026 132.253Z" fill="#003767"/>
<path d="M437.886 115.187C437.886 115.187 439.568 108.9 440.578 96.999H443.382V133.263H468.396V136.744H443.382V190.186C443.382 190.186 443.382 201.863 445.513 205.792C445.513 205.792 447.532 209.61 453.926 209.61C453.926 209.61 461.778 209.61 465.255 203.772C465.255 203.772 468.62 197.933 469.181 183.225L469.405 181.092H472.771V183.001C472.771 183.001 472.771 190.748 471.985 195.576C471.985 195.576 471.2 200.067 469.181 204.108C469.181 204.108 466.489 209.385 461.329 212.192C461.329 212.192 456.169 214.999 449.327 214.999C449.327 214.999 442.485 214.999 437.213 212.192C437.213 212.192 431.828 209.385 429.697 204.782C429.697 204.782 427.79 200.516 427.566 194.79V136.856H411.189V133.825C411.189 133.825 426.556 132.927 432.838 125.292C432.838 125.292 436.091 121.475 437.886 115.187Z" fill="#003767"/>
<path d="M77.2574 114.401C77.2574 114.401 68.7325 128.436 68.7325 155.606C68.7325 155.606 68.7325 184.011 76.8087 197.821C76.8087 197.821 84.7729 211.743 101.15 211.743C101.15 211.743 107.543 211.743 113.264 209.61C113.264 209.61 118.985 207.476 122.799 203.659C122.799 203.659 127.061 199.393 128.856 193.667C128.856 193.667 130.763 187.941 130.763 179.296V172.11C130.763 172.11 130.763 163.24 128.071 160.995C128.071 160.995 125.266 158.637 113.152 157.851V154.932H165.872V157.627C165.872 157.627 153.197 158.637 150.28 160.995C150.28 160.995 147.252 163.24 147.252 172.11V213.988H144.56C144.56 213.988 142.316 204.67 140.634 201.189C140.634 201.189 138.727 197.484 136.259 197.484C136.259 197.484 134.464 197.484 131.324 200.515C131.324 200.515 123.247 208.711 116.629 211.855C116.629 211.855 110.011 214.999 101.15 214.999C101.15 214.999 81.4077 214.999 65.7039 197.035C65.7039 197.035 50 179.071 50 156.504C50 156.504 50 133.488 66.0404 115.299C66.0404 115.299 82.0808 96.9988 102.384 96.9988C102.384 96.9988 114.61 96.9988 125.154 104.521L128.744 107.103C128.744 107.103 131.772 109.124 133.567 109.124C133.567 109.124 137.044 109.124 140.185 98.2338H142.989L143.326 142.47H140.634L136.259 129.221L130.987 118.668C130.987 118.668 125.603 109.124 118.761 104.746C118.761 104.746 111.918 100.479 102.271 100.479C102.271 100.479 85.6702 100.479 77.2574 114.401Z" fill="#003767"/>
<path d="M577.314 131.467C561.498 131.467 549.608 144.041 549.608 144.041C537.718 156.616 537.718 173.457 537.718 173.457C537.718 190.972 549.608 202.985 549.608 202.985C561.498 214.998 578.66 214.998 578.66 214.998C592.345 214.998 601.094 207.252 601.094 207.252C609.731 199.505 611.526 185.695 611.526 185.695H608.161C606.142 198.494 598.739 205.118 598.739 205.118C591.335 211.742 579.109 211.742 579.109 211.742C566.658 211.742 560.825 203.659 560.825 203.659C554.88 195.575 554.88 178.734 554.88 178.734L555.104 170.313L610.853 170.426L611.077 166.833C611.077 151.227 601.655 141.347 601.655 141.347C592.12 131.467 577.314 131.467 577.314 131.467ZM576.977 134.835C594.7 134.835 594.7 157.626 594.7 157.626C594.7 163.914 592.793 165.598 592.793 165.598C591.111 167.057 587.073 167.057 587.073 167.057H555.553C556.45 149.655 561.386 142.245 561.386 142.245C566.321 134.835 576.977 134.835 576.977 134.835Z" fill="#003767"/>
</g>
<defs>
<clipPath id="clip0_6_387">
<rect width="800" height="118" fill="white" transform="translate(50 97)"/>
</clipPath>
</defs>
</svg>
