<svg xmlns="http://www.w3.org/2000/svg" width="900" height="312" fill="none"><path fill="#1a64b7" d="M703.362 190.108h-21.901l26.352-53.602h.425zm-478.036 0h-21.902l26.335-53.602h.426zm554.109 20.237 27.402-95.46h-37.786l-31.153 108.47-.699-108.47h-45.52l-61.888 106.238 30.502-106.238h-35.869l-15.451 66.611h-.652l-10.351-66.611h-39.002l-27.419 95.46h-53.938l7.384-25.717h47.237l6.818-23.77h-47.238l6.384-22.203h48.737l6.834-23.77H374.103l-3.052 10.644c-5.517-8.329-17.418-13.376-35.803-13.376-29.335 0-50.887 11.427-57.304 33.797-3.001 10.477-1.016 17.757 4.134 23.787 5.35 6.03 13.917 10.627 24.152 15.54 8.683 4.448 18.885 8.246 16.001 18.24-1.715 6.013-7.318 11.893-16.202 11.893-11.951 0-13.233-6.047-11.267-12.877l2.415-8.428-35.02.048-2.433 8.462-.567-87.732h-45.52l-26.102 44.807 7.034-24.518h-62.705l8.084-28.117h68.139l9.151-31.882H98.795L53.175 234.08h50.287l19.251-67.027h60.522l-39.053 67.043h38.002l11.118-23.003h29.636l-1.233 23.003h38.219l-.047-11.56c4.734 8.396 17.001 14.292 39.253 14.292 31.386 0 52.22-12.693 58.771-35.546 4.148-14.425 1.267-22.353-5.8-28.367-7.084-6.029-18.152-10.16-30.436-16.806-6.6-3.815-10.534-7.462-7.417-14.592 2.386-5.23 7.834-8.412 15.501-7.928 12.401.632 9.234 10.144 7.667 17.123h34.803c1.55-4.283 2.348-8.312 2.433-12.059h22.285l-27.419 95.443h37.803l27.402-95.443h25.685l-27.401 95.443h127.709l15.634-66.444.515-.33 10.518 66.761h72.87l11.118-23.003h29.635l-1.252 23.003H818.78l6.834-23.753zM834.5 124.849v-3.611h2.401c1.233 0 2.551.283 2.551 1.714 0 1.799-1.332 1.897-2.835 1.897zm3.766 1.417c1.715-.236 3.019-1.114 3.019-3.216 0-2.299-1.352-3.314-4.116-3.314h-4.431v11.643h1.767v-5.03h2.031l3.086 5.03h1.965z"/><path fill="#1a64b7" d="M836.641 133.963c-4.635 0-8.267-3.564-8.267-8.411 0-4.797 3.633-8.395 8.267-8.395 4.569 0 8.168 3.598 8.168 8.395 0 4.847-3.601 8.411-8.168 8.411m0-18.472c-5.567 0-10.284 4.249-10.284 10.061 0 5.83 4.715 10.078 10.284 10.078 5.501 0 10.185-4.25 10.185-10.078 0-5.814-4.683-10.061-10.185-10.061"/></svg>