<svg xmlns="http://www.w3.org/2000/svg" width="900" height="312" fill="none"><path fill="#3986b7" d="m792.035 133.179.18 41.489c0 1.009-.969 3.645-1.608 4.753h-29.986c-1.149 0-2.387-2.866-2.387-4.014l-.05-68.06c0-.689-.589-2.377-.649-2.936-.08-.739 1.937-1.708 2.906-1.708l26.431.09c1.059 0 3.465.539 3.645 1.328s.419 2.177.659 3.615l.469 2.896c.21 1.278 7.899-7.24 17.595-8.298 11.882-1.298 23.875-1.718 32.722 6.54 3.595 3.355 7.788 9.676 7.808 14.749l.23 53.112c0 1.019-1.797 2.776-2.836 2.766l-29.826-.23-.22-46.522c0-1.467-1.148-4.833-1.498-6.29-1.248-5.113-6.051-5.992-10.365-5.972-7.958.03-13.25 4.364-13.22 12.692M408.585 178.902c-14.169 3.784-30.595 3.195-40.211-9.286-4.693-6.092-5.182-13.82-2.436-21.379 3.225-8.857 13.131-13.87 21.748-16.027 2.396-.599 5.013-1.418 7.529-1.538l24.874-1.188c2.456-2.676.868-9.156-2.117-11.573-2.676-2.157-6.391-2.636-9.506-1.667-9.187 2.865-4.684 11.383-10.106 11.173l-11.273-.439-16.796-.529c.14-19.991 18.633-23.836 34.57-24.954 9.995-.699 25.672.16 34.609 4.174 3.026 1.358 7.21 4.643 8.917 7.479 2.477 4.104 4.474 9.586 4.494 14.599l.169 46.442c0 1.088.819 5.132-.419 5.132l-29.757.08-1.338-8.557c-4.703 3.814-8.068 6.75-12.951 8.058m11.723-22.597c1.678-4.274 1.907-8.058 1.798-12.731l-12.223.289c-2.236.05-6.37 1.867-8.697 2.966-3.834 1.807-5.532 5.382-5.102 9.316.349 3.285 3.205 6.331 6.9 7.559 6.8 2.277 14.458-.08 17.324-7.399M704.832 179.351c-23.815 4.703-54.25 2.277-65.294-21.558-4.793-10.355-3.934-26.541 1.677-36.367s15.677-15.567 26.581-18.273c8.508-2.107 25.343-1.808 34.17-.519 6.771.988 12.732 3.405 18.463 7.119 11.913 7.729 17.655 23.596 15.378 37.355-1.598 9.686-6.051 19.352-14.229 24.714-5.033 3.306-10.395 6.281-16.736 7.539zm-3.315-30.585-.14-16.805c0-1.179-1.168-3.795-1.468-4.943-1.597-6.001-7.688-10.744-14.538-9.167-17.954-1.717-16.097 26.551-12.911 37.765 1.977 6.94 9.046 9.866 15.737 8.997 9.526-1.248 13.36-10.125 13.32-15.847M306.474 153.809h28.838c.08 5.122-1.757 9.825-5.222 13.809-15.737 18.114-59.363 18.054-74.571.969-10.844-12.182-11.214-35.698-3.575-48.659 7.23-12.262 19.542-16.805 33.361-18.283 4.394-1.887 19.013.489 23.576 1.687 20.46 5.383 29.417 23.486 27.13 44.226-3.505.309-6.33.729-9.606.709l-33.99-.13c-5.182-.02-9.456-.18-14.928.449-.16 4.064.459 7.939 3.065 11.004 5.672 6.65 16.217 6.8 22.857.969l3.075-6.75zm0-22.108c-.279-10.654-8.457-16.156-17.334-14.309-7.02 1.458-12.192 6.78-11.513 14.349zM104.24 160.838c3.865-3.864.899-11.942 6.501-11.952l26.221-.05c.6 0 2.287.309 2.846.479 2.517.759 2.217 31.095-44.904 31.983-3.924.07-8.448-.948-12.212-1.497-9.426-1.378-16.935-5.672-23.456-12.512-3.694-3.864-5.951-8.817-7.649-14.119-.32-.999-1.348-3.575-1.368-4.664-.08-5.112-.629-12.332.39-17.254 3.055-14.769 14.209-24.335 28.099-27.82 6.35-1.597 16.985-2.676 23.415-1.957 11.134 1.248 16.406 1.318 25.863 7.25 7.608 4.773 12.811 12.451 11.643 21.917l-30.975.23c-3.745-3.994-.599-13.181-11.823-12.532-3.485.2-7.36.45-9.326 4.075-1.678 3.095-3.415 7.588-3.485 11.143-.17 9.107-1.708 24.914 6.82 29.188 4.024 2.017 10.145 1.358 13.41-1.898zM541.88 176.605c.03.989-1.927 2.816-3.025 2.896l-10.055.749c-10.146.749-14.989.669-24.005-1.538-10.825-2.656-15.208-11.862-14.639-22.078.619-11.163.13-21.628.15-33.69l-16.157-.45.03-19.461 16.007-.33-.02-11.004 31.404-11.203.26 22.307 17.584-.09c.719 0 2.367 1.728 2.357 2.457l-.28 17.364-19.711.36-.06 8.817.03 22.118c.02 10.784 14.179 6.31 19.661 7.159l.449 15.637zM231.644 125.55c.03 3.175-7.149 1.568-14.678 2.436-7.529.869-13.99 6.96-14.369 14.889-.54 11.383-.3 22.107-.24 33.9 0 .949-1.568 2.756-2.436 2.756l-30.027-.25-.179-66.582c0-3.395-1.368-6.651-.28-9.936h28.029c1.108.01 3.455.5 3.615 1.278.16.779.369 2.377.469 3.605l.569 6.93 3.645-3.794c6.59-6.621 16.276-8.758 25.633-7.649zM606.656 102.713h-32.882v76.718h32.882zM376.832 256.888l-14.679.3-5.042-11.394-7.13-15.887c-1.038-2.306-1.048-4.483-3.595-6.919l-.279 34.1-9.027.1-.23-13.74.1-33.541 14.259-.33 5.332 11.334 6.042 13.999c.928 2.147 1.887 3.775 3.704 5.732l.24-30.685c3.025-.23 6.5-.22 10.275.05l.03 46.901zM646.787 239.973c-3.265-.38-3.435-8.368.02-8.907 4.773-.749 18.483-2.816 17.834 4.184-.559 6.021.739 12.391-.909 17.634-1.488 4.753-15.996 5.122-20.44 4.873-10.734-.599-18.912-7.4-20.989-18.094-.649-3.335-.949-7.289-.03-10.604 2.456-8.807 4.713-14.899 13.051-18.683 5.582-2.536 15.008-2.866 20.25.03 5.522 3.045 9.027 7.489 8.867 14.199l-8.128.859c-4.164.439-2.346-8.438-8.837-9.007-7.399-.649-12.252 3.934-13.281 10.804-.928 6.141-1.587 13.461 3.106 18.483 3.605 3.855 9.736 4.114 14.998 3.475l.559-8.537zM301.372 257.038l-9.836.159v-16.755c0-.819-.269-2.616-.888-2.786s-2.327-.439-2.996-.439l-11.423-.07-.2 19.851-11.014-.08-.08-46.961c3.955-.22 7.11-.21 11.104-.02l.25 17.674 12.172.269c.819.02 3.085-.878 3.085-1.727l-.02-16.376h9.786zM589.91 239.693c-2.057 6.82-3.804 13.201-11.463 16.196-6.341 2.487-11.793 2.856-18.263.729-11.763-3.854-15.088-19.621-12.452-31.344 2.297-10.255 10.225-17.135 21.109-16.905 10.085.22 18.234 5.921 20.56 16.446 1.089 4.933 1.997 9.945.509 14.878m-14.778 7.889c5.262-5.812 4.144-19.951 2.756-23.935-1.867-5.373-6.52-7.949-11.383-7.02-8.937 1.697-9.427 14.479-8.248 22.088.649 4.193 2.236 8.917 6.59 10.404 2.856.969 8.168.799 10.285-1.537M452.411 240.122c-1.537 11.404-11.892 18.803-21.089 18.004-9.296-.799-15.787-4.214-19.292-13.42-2.256-5.932-2.007-12.402-1.198-18.753 1.079-8.577 9.726-17.215 18.164-17.494 14.049-.47 19.152 5.372 24.094 16.995-.139 5.063-.05 9.935-.679 14.668m-14.459 7.649c5.982-6.76 5.173-21.738 1.428-27.589-2.156-3.375-6.6-4.344-10.494-3.555-10.096 2.037-11.843 29.656.319 33.231 2.127.629 7.14-.259 8.747-2.087M833.724 256.718c-7.669 1.708-9.217 1.838-16.496.1-6.091-1.448-11.294-9.087-9.287-14.968.869-2.367 8.238-2.177 9.427.04.828 1.558 1.737 5.352 2.975 6.401 2.177 1.847 7.29 1.707 10.125.339 2.147-1.038 2.347-7.579.09-8.508l-13.8-5.671c-4.643-1.907-8.877-6.441-8.497-12.043.709-10.534 9.126-13.889 18.762-14.089 8.418-.18 15.458 6.431 14.429 14.609-1.697 1.477-7.449 1.827-8.627 0-1.178-1.828-2.446-4.454-3.585-5.552-1.927-1.848-9.676-1.209-10.584 3.594-.26 1.388 1.607 4.444 2.965 4.933l14.1 5.063c4.343 1.558 9.136 8.398 8.068 14.399-.899 5.002-5.222 10.265-10.065 11.343zM158.221 237.037l-16.635.349-.869 10.305 19.422.55c2.166.858 2.246 7.349.299 8.867l-27.739.269c-1.059.01-2.676-1.837-2.676-2.796l-.04-42.298c0-.928 1.677-2.716 2.656-2.706l27.29.1c1.248 1.837 1.268 6.8-.19 8.547l-16.745.23c-.919.03-1.478 2.946-1.558 3.855l-.489 5.481 17.304.49c2.317.07 2.187 8.128-.03 8.757M772.503 236.707c-5.282.52-10.275.55-15.627.62l-1.787 7.638c-.29 1.219 1.548 3.405 2.906 3.425l16.775.2c1.798 1.598 2.077 7.09.25 8.617l-30.436-.039.03-47.461 29.407-.04c1.358 2.107 1.418 6.7.12 8.607l-17.684.21-1.128 9.127 4.014.16c4.263.169 9.705.329 13.72.788 1.857 1.029 1.547 7.949-.54 8.158zM204.983 241.62c1.009 5.972 6.98 9.676 12.332 7.479 2.736-1.128 3.924-4.164 5.282-7.159 2.047-.37 6.421-.11 9.456.21.65 8.787-5.881 14.718-14.269 15.537-7.369.709-16.046-.06-20.2-7.22-6.551-11.293-6.86-25.972 1.617-36.616 1.628-2.047 6.821-4.404 9.477-4.963 3.035-.639 6.87-.509 9.945-.06 6.161.919 16.146 8.408 12.212 14.849-1.657 1.118-6.71.888-8.138.189-1.088-2.506-2.306-5.062-4.633-5.921-2.976-1.098-6.001-.859-8.787.489-5.932 2.876-5.442 16.376-4.294 23.176zM586.465 89.303c-10.085-2.107-15.557-11.793-13.5-21.549.699-3.295 3.095-7.419 5.761-9.935 2.008-1.897 7.02-3.695 9.846-3.805 8.907-.369 15.497 6.361 17.265 14.41 1.228 5.591-.41 10.933-3.675 14.708-3.625 4.184-9.446 7.46-15.687 6.16zM85.977 256.249c-2.956 1.388-6.87 1.138-10.745.449l-.13-38.244-12.94-.21.16-8.617 34.819.02c1.018 1.847 1.367 6.271.519 8.428l-11.613.559-.08 37.615zM512.004 247.602c1.059.01 3.835.539 4.564 1.228 1.587 1.488 1.428 7.099-.609 8.407l-28.908-.03-.05-47.47 10.734.04.09 37.685zM700.029 256.938c-1.228-.18-1.707-4.234-1.707-5.512l.04-41.16c3.674-.579 6.83-.619 10.874-.389l-.02 47.051c-2.457.21-6.97.339-9.177.01z"/></svg>