<svg width="900" height="312" viewBox="0 0 900 312" fill="none" xmlns="http://www.w3.org/2000/svg">
<rect width="900" height="312" fill="white"/>
<g clip-path="url(#clip0_6_456)">
<path d="M280.955 141.965L297.751 79.286H322.404L316.741 100.443H340.033L345.697 79.286H370.364L353.567 141.965H328.914L335.411 117.685H312.118L305.608 141.965H280.955ZM367.227 141.965L379.442 96.3475H401.18L388.951 141.965H367.227ZM413.159 96.3475H432.912L430.441 105.579H430.65C435.591 98.4437 441.755 95.0425 450.292 95.0425C451.235 95.0425 452.124 95.223 453.068 95.3063L448.195 113.423C446.755 113.155 445.299 112.979 443.837 112.895C434.953 112.895 429.539 116.38 426.902 126.222L422.737 141.979H400.944L413.159 96.3475ZM469.822 127.777C469.558 128.508 469.53 129.302 469.741 130.05C469.953 130.797 470.394 131.459 471.002 131.942C472.459 132.921 474.191 133.408 475.944 133.33C479.289 133.33 483.079 132.456 483.939 129.166C485.897 121.849 450.805 127.68 455.539 110.008C458.662 98.3465 474.098 94.9453 485.48 94.9453C497.39 94.9453 510.786 97.2082 508.801 109.314H489.062C489.174 108.705 489.122 108.078 488.91 107.496C488.697 106.915 488.333 106.402 487.854 106.01C486.66 105.184 485.222 104.783 483.773 104.871C480.011 104.871 477.346 105.829 476.735 108.092C475.028 114.45 510.758 110.188 506.191 127.25C503.637 136.842 492.518 143.326 472.46 143.326C459.967 143.326 446.988 140.105 449.125 127.819L469.822 127.777ZM527.499 79.286H549.237L543.129 102.095C548.751 97.4858 554.317 95.0425 561.632 95.0425C576.041 95.0425 580.955 102.095 577.596 114.644L570.267 141.937H548.529L554.997 117.824C556.205 113.284 555.816 109.286 549.653 109.286C542.976 109.286 540.228 112.854 538.673 118.684L532.454 141.937H510.716L527.499 79.286ZM255.317 220.859L272.113 158.166H296.766L279.969 220.859H255.317ZM305.247 175.255H325.097L323.182 182.391C329.567 176.907 335.675 173.95 343.934 173.95C358.356 173.95 363.257 181.002 359.897 193.538L352.582 220.873H330.844L337.313 196.759C338.52 192.233 338.132 188.235 331.968 188.235C325.278 188.235 322.543 191.789 320.988 197.634L314.756 220.873H293.018L305.247 175.255ZM402.832 220.859L404.456 214.765C397.848 220.318 392.657 222.164 385.661 222.164C369.142 222.164 363.562 211.808 367.018 198.925C371.072 183.779 383.856 173.936 396.905 173.936C403.845 173.936 408.232 175.325 411.619 179.864L417.421 158.18H439.159L422.363 220.859H402.832ZM407.357 198.494C408.745 193.441 408.093 187.958 400.888 187.958C393.684 187.958 390.158 193.705 388.798 198.758C387.507 203.534 387.479 209.114 394.586 209.114C402.11 209.114 405.941 203.797 407.357 198.494ZM491.949 220.859H471.78L473.57 214.168C466.463 220.429 460.675 222.164 451.68 222.164C439.77 222.164 433.634 216.083 437.174 203.02L444.614 175.255H466.352L459.745 199.896C458.065 206.157 460.147 208.226 465.366 208.226C471.627 208.226 474.667 204.297 476.555 197.259L482.482 175.255H504.22L491.949 220.859ZM525 206.671C524.731 207.401 524.701 208.197 524.913 208.945C525.125 209.694 525.568 210.355 526.18 210.836C527.638 211.824 529.377 212.311 531.135 212.224C534.481 212.224 538.257 211.363 539.131 208.143C541.088 200.827 505.983 206.657 510.716 188.985C513.84 177.31 529.275 173.922 540.658 173.922C552.582 173.922 565.963 176.185 563.978 188.291H544.239C544.354 187.682 544.302 187.054 544.089 186.473C543.877 185.891 543.511 185.378 543.032 184.987C541.84 184.155 540.401 183.753 538.951 183.848C535.189 183.848 532.524 184.806 531.913 187.069C530.219 193.427 565.936 189.151 561.369 206.227C558.828 215.722 547.696 222.164 527.637 222.164C515.144 222.164 502.179 218.929 504.317 206.657L525 206.671ZM602.041 220.859C573.168 222.164 570.114 220.512 574.389 204.755L579.497 185.695H571.766L574.542 175.241H582.593L586.396 161.053H607.829L604.026 175.255H614.478L611.702 185.709H601.249L596.821 202.256C595.697 206.421 596.044 207.893 602.096 207.893H605.552L602.041 220.859ZM624.903 175.255H644.656L642.185 184.487H642.393C647.321 177.338 653.568 173.95 662.035 173.95C662.979 173.95 663.867 174.131 664.811 174.214L659.953 192.331C658.517 192.059 657.066 191.878 655.608 191.789C646.724 191.789 641.297 195.274 638.659 205.13L634.495 220.873H612.687L624.903 175.255ZM660.105 220.859L672.321 175.241H694.059L681.83 220.859H660.105ZM718.365 202.145C716.977 207.546 720.988 211.113 726.693 211.113C728.429 211.165 730.155 210.841 731.753 210.163C733.351 209.485 734.784 208.469 735.952 207.185H756.774C749.986 218.499 735.189 222.233 722.446 222.233C704.886 222.233 693.545 213.904 697.64 198.564C701.652 183.585 717.698 174.006 735.258 174.006C755.525 174.006 764.617 185.667 759.87 202.215L718.365 202.145ZM740.575 192.914C741.699 188.749 738.201 185.001 733.079 185.001C726.61 185.001 722.14 188.041 720.836 192.914H740.575ZM786.008 206.671C785.739 207.401 785.708 208.197 785.92 208.945C786.132 209.694 786.576 210.355 787.188 210.836C788.645 211.824 790.385 212.311 792.143 212.224C795.489 212.224 799.264 211.363 800.139 208.143C802.096 200.827 766.991 206.657 771.724 188.985C774.847 177.31 790.283 173.922 801.68 173.922C813.59 173.922 826.971 176.185 824.986 188.291H805.247C805.365 187.682 805.314 187.053 805.101 186.471C804.889 185.889 804.522 185.376 804.039 184.987C802.848 184.155 801.409 183.753 799.958 183.848C796.197 183.848 793.531 184.806 792.935 187.069C791.227 193.427 826.943 189.151 822.376 206.227C819.836 215.722 808.704 222.164 788.645 222.164C776.152 222.164 763.173 218.929 765.325 206.657L786.008 206.671ZM223.82 155.417C211.674 200.757 164.964 237.643 119.711 237.643C98.8063 237.643 81.2188 229.716 70.1833 215.334C58.537 200.16 55.3859 179.642 61.2993 157.583C73.4315 112.257 120.183 75.3017 165.408 75.3017C178.748 75.3017 190.741 78.5502 200.541 84.6307L202.79 76.3012C191.353 69.9933 178.468 66.7779 165.408 66.9722C116.602 66.9722 66.2688 106.662 53.2066 155.417C46.5991 180.045 50.2777 203.131 63.5342 220.415C76.1938 236.921 96.1272 246.056 119.697 246.056C168.504 246.056 218.837 206.393 231.899 157.638C235.424 145.228 236.018 132.169 233.634 119.489H225.069C227.608 131.405 227.178 143.762 223.82 155.473" fill="#005590"/>
<path d="M242.574 79.0638H206.371L204.206 87.1712L196.682 115.255H232.871L242.574 79.0638Z" fill="#ED1C29"/>
<path d="M66.2827 221.067L94.9335 114.159H129.97L120.308 150.239H153.415L163.076 114.159H198.126L169.489 221.067H134.439L145.544 179.642H112.438L101.333 221.067H66.2827ZM840.172 172.479C841.843 172.459 843.481 172.937 844.88 173.851C846.278 174.765 847.373 176.075 848.026 177.613C848.678 179.151 848.859 180.848 848.545 182.489C848.231 184.13 847.436 185.64 846.262 186.829C845.087 188.017 843.586 188.829 841.949 189.162C840.312 189.495 838.613 189.334 837.068 188.699C835.522 188.065 834.201 186.985 833.271 185.597C832.34 184.209 831.844 182.576 831.844 180.905C831.813 179.799 832.008 178.698 832.414 177.668C832.821 176.638 833.432 175.702 834.21 174.914C834.988 174.127 835.917 173.506 836.942 173.087C837.967 172.668 839.065 172.461 840.172 172.479ZM840.172 171.09C838.232 171.093 836.336 171.671 834.724 172.751C833.112 173.831 831.856 175.365 831.115 177.159C830.375 178.953 830.182 180.926 830.562 182.829C830.943 184.732 831.878 186.479 833.251 187.85C834.625 189.222 836.373 190.155 838.277 190.533C840.18 190.91 842.153 190.715 843.945 189.972C845.737 189.228 847.269 187.97 848.347 186.357C849.425 184.743 850 182.846 850 180.905C850.013 179.612 849.768 178.328 849.278 177.131C848.789 175.933 848.065 174.845 847.15 173.931C846.234 173.017 845.146 172.295 843.947 171.807C842.749 171.319 841.466 171.076 840.172 171.09ZM838.007 181.53H840.367L843.559 186.583H845.183L841.81 181.53C842.592 181.463 843.317 181.096 843.835 180.506C844.352 179.916 844.622 179.149 844.586 178.365C844.586 176.338 843.462 175.227 840.908 175.227H836.549V186.583H837.937L838.007 181.53ZM838.007 180.35V176.449H840.616C842.005 176.449 843.309 176.81 843.309 178.393C843.309 180.322 841.616 180.378 839.895 180.378L838.007 180.35Z" fill="#005590"/>
</g>
<defs>
<clipPath id="clip0_6_456">
<rect width="800" height="179" fill="white" transform="translate(50 67)"/>
</clipPath>
</defs>
</svg>
