
<svg xmlns="http://www.w3.org/2000/svg" width="900" height="312" fill="none"><g fill="#de1e34" fill-rule="evenodd" clip-path="url(#a)" clip-rule="evenodd"><path d="M774.918 193.384h30.392V85h-30.392zM850 85v108.384h-30.388V85zm-735.198 42.097h-24.58V85H50v108.384h40.222v-53.742h24.58v53.742h40.226V85h-40.226zm188.829-1.792-2.459-7.164h-33.074v75.244h33.074v-45.234c0-9.856 6.259-15.229 11.621-15.229 4.468 0 10.276.895 10.276 10.75v49.713h33.074v-48.818c0-27.32-30.609-38.067-52.512-19.262m339.667 36.502-15.418-43.666h-22.57l-15.421 45.458-16.091-45.458h-44.243l-15.87 38.289-22.345-38.289h-37.767l44.469 76.138-5.807 14.327c-2.015 4.482-6.83 4.704-7.772.449 0-7.695-6.227-13.931-13.907-13.931s-13.905 6.236-13.905 13.931c.054 8.063 8.097 18.587 23.962 17.914 15.868-.67 22.57-13.88 24.804-19.479l36.752-89.056 26.491 74.95h24.134l14.749-43.222 15.196 43.222h22.791l25.698-75.243h-13.182zm-431.29-47.49c-25.306 0-45.817 18.855-45.817 42.113 0 23.266 20.511 42.123 45.817 42.123 25.31 0 45.825-18.857 45.825-42.123 0-23.258-20.515-42.113-45.825-42.113m11.4 61.817c0 3.03-1.201 5.936-3.339 8.078a11.39 11.39 0 0 1-8.061 3.346c-6.289 0-11.392-5.113-11.392-11.424V136.73c0-6.307 5.103-11.415 11.392-11.415 6.297 0 11.4 5.108 11.4 11.414z"/><path d="M457.247 162.478c.24-1.762.366-4.222.366-6.048 0-23.258-20.516-42.113-45.822-42.113-25.311 0-45.827 18.855-45.827 42.113 0 23.266 20.516 42.123 45.827 42.123 17.388 0 32.513-8.905 40.28-22.025l-10.123-3.752c-6.116 9.368-17.334 15.641-30.157 15.641-6.297 0-11.4-5.972-11.4-12.283v-13.653zm-56.856-25.749c0-6.306 5.103-11.414 11.4-11.414 6.292 0 11.395 5.108 11.395 11.414v15.002h-22.795zm362.996 25.749c.248-1.762.372-4.222.372-6.048 0-23.258-20.516-42.113-45.825-42.113-25.307 0-45.822 18.855-45.822 42.113 0 23.266 20.515 42.123 45.822 42.123 17.392 0 32.517-8.905 40.283-22.025l-10.122-3.752c-6.117 9.368-17.333 15.641-30.161 15.641-6.294 0-11.397-5.972-11.397-12.283v-13.653zm-56.85-25.749c0-6.306 5.103-11.414 11.397-11.414 6.297 0 11.4 5.108 11.4 11.414v15.002h-22.797z"/></g><defs><clipPath id="a"><path fill="#fff" d="M50 85h800v142H50z"/></clipPath></defs></svg>