<svg width="900" height="312" viewBox="0 0 900 312" fill="none" xmlns="http://www.w3.org/2000/svg">
<rect width="900" height="312" fill="white"/>
<g clip-path="url(#clip0_8_313)">
<mask id="mask0_8_313" style="mask-type:luminance" maskUnits="userSpaceOnUse" x="50" y="81" width="800" height="149">
<path d="M50 81H850V230H50V81Z" fill="white"/>
</mask>
<g mask="url(#mask0_8_313)">
<path d="M50 94.4321H98.5923L72.974 133.943C67.1529 142.382 63.7481 152.602 63.7481 163.624C63.7481 192.551 87.2442 215.998 116.241 215.998C145.051 215.998 168.437 192.838 168.726 164.164L182.55 164.151V228.246H50V94.4321Z" fill="#234972"/>
<path d="M150.742 139.718C155.565 146.696 158.142 154.98 158.129 163.461C158.129 186.607 139.279 205.369 116.092 205.369C92.8962 205.369 74.0471 186.607 74.0471 163.46C74.0382 154.98 76.6149 146.697 81.4337 139.718L110.422 94.4341V150.911C105.596 153.116 102.239 157.98 102.239 163.624C102.239 171.337 108.507 177.591 116.243 177.591C123.972 177.591 130.239 171.337 130.239 163.624C130.239 157.98 126.883 153.117 122.064 150.911V94.4341L150.744 139.718" fill="#AFADA9"/>
<path fill-rule="evenodd" clip-rule="evenodd" d="M849.992 224.67V209.449C843.896 210.401 840.842 210.586 836.84 210.586C825.205 210.586 821.581 206.969 821.581 195.742V146.273H849.992V130.093H821.581V99.4606L793.738 109.352V130.092H781.54V146.273H793.738V199.934C793.738 221.62 801.749 229.614 823.681 229.614C829.591 229.614 835.309 228.478 849.992 224.67ZM768.011 154.073V131.045C764.579 129.333 761.524 128.764 757.137 128.764C752.944 128.764 743.41 131.997 732.159 137.518V130.093H705.085V228.286H732.919V151.409C736.543 150.457 743.031 149.697 746.84 149.697C754.851 149.697 761.524 151.025 768.011 154.073ZM662.972 168.725H628.835C628.835 151.025 634.368 143.038 646.765 143.038C658.778 143.038 662.972 149.696 662.972 168.725ZM690.236 184.138C690.236 167.39 689.667 161.301 687.574 154.835C682.233 137.326 668.696 128.195 648.288 128.195C619.114 128.195 601.185 148.169 601.185 180.906C601.185 212.682 618.16 230 649.242 230C656.676 230 666.595 228.479 685.664 224.287V210.019C675.36 211.348 667.549 211.923 660.301 211.923C637.422 211.923 628.835 204.306 628.835 184.14L690.236 184.138ZM560.954 179.377C560.954 200.879 550.464 212.489 531.017 212.489C528.725 212.489 526.438 212.297 523.007 211.921V149.697C527.962 148.744 531.21 148.36 535.781 148.36C551.802 148.36 560.953 159.588 560.953 179.376L560.954 179.377ZM589.749 176.527C589.749 147.032 574.305 128.194 550.087 128.194C543.601 128.194 537.883 129.907 523.009 135.804V80.998H495.166V223.526C511.95 227.711 524.531 229.807 534.642 229.807C567.439 229.807 589.749 208.305 589.749 176.527ZM453.052 168.725H418.923C418.923 151.025 424.456 143.038 436.846 143.038C448.865 143.038 453.052 149.696 453.052 168.725ZM480.324 184.138C480.324 167.39 479.755 161.301 477.654 154.835C472.313 137.326 458.777 128.195 438.369 128.195C409.195 128.195 391.273 148.169 391.273 180.906C391.273 212.682 408.242 230 439.331 230C446.764 230 456.684 228.479 475.745 224.287V210.019C465.448 211.348 457.63 211.923 450.387 211.923C427.503 211.923 418.922 204.306 418.922 184.14L480.324 184.138ZM348.371 228.286H376.211V130.093H348.371V228.286ZM379.076 104.789C379.076 95.2742 374.497 91.8491 362.292 91.8491C350.28 91.8491 345.701 95.4655 345.701 104.788C345.701 114.303 350.28 117.914 362.292 117.914C374.497 117.914 379.076 114.303 379.076 104.789ZM334.67 228.286V209.256H287.382V93.9389H258.586V228.287H334.67" fill="#234972"/>
</g>
</g>
<defs>
<clipPath id="clip0_8_313">
<rect width="800" height="149" fill="white" transform="translate(50 81)"/>
</clipPath>
</defs>
</svg>
