<svg xmlns="http://www.w3.org/2000/svg" width="900" height="312" fill="none"><path fill="#252969" fill-rule="evenodd" d="M523.171 109.728c14.951-2.531 31.504-1.668 47.051-3.444-.104 6.449-3.026 12.735-4.52 19.157l1.44.942 37.778-.254-4.187 15.986-39.147.621c-5.364 15.936-9.468 32.482-14.041 48.786.073 4.184 3.371 6.596 6.808 8.403 11.922 0 25.901 1.842 36.357-2.3l-4.94 18.227-65.045.52c-8.863-1.387-17.919-9.562-19.681-17.834l.371-11.747c7.599-25.443 14.416-51.418 21.756-77.063m-150.886 18.35c11.802 16.595 22.645 33.426 32.459 50.884-18.323 13.103-36.927 25.54-55.447 37.925l.041.964 30.483-.516 34.498-23.25c5.187 7.285 10.16 14.751 12.946 23.046l58.573-.613c-1.263-.319-2.289-1.822-3.314-2.558l-28.523-46.79 57.861-39.51-.053-.939-34.904 1.136c-8.694 10.737-21.929 16.061-32.874 23.986-4.8-7.858-11.398-14.946-12.58-24.183zm378.44-2.414.687 4.51-20.977 77.479-5.101 7.655h55.367l-1.162-6.198 13.578-52.368c.555-3.046 3.108-6.101 6.105-7.459 11.522.173 28.634-3.697 39.222 2.56l6.804-26.005c-17.322 2.704-40.732-7.856-50.715 10.467-1.654-3.009-.732-6.996-.963-10.614zM204.432 94.508l-111.493.473.188 8.711-28.624 101.225-7.877 14.456 119.151-.069c10.779.242 20.012-3.133 24.922-11.682 3.576-12.559 10.001-24.372 8.55-38.368-1.739-5.444-5.843-10.465-10.964-13.764 5.047-1.408 10.076-3.23 14.035-7.069 8.452-10.71 11.036-24.184 11.376-37.414-1.913-8.096-10.527-15.11-19.264-16.5m-60.346 20.669 29.235.243c4.063 2.221 2.591 7.908 1.648 10.932-2.563 6.112-2.386 14.24-8.374 18.302l-33.527.146zm-16.904 50.139 31.068-.128c4.302 1.827 3.214 7.694 2.043 10.942-3.937 7.07.591 17.954-7.803 21.891l-33.808-.047c1.442-10.814 5.678-21.825 8.5-32.658m209.17-36.693-97.802.32-6.903 16.526c23.577-3.404 49.052-1.132 72.649-1.755 2.052.94 3.108 2.986 3.347 5.055-.951 2.831-.683 6.623-4.112 8.195l-64.361 1.437-11.214 5.236c-9.138 9.439-11.131 21.583-11.917 34.239.548 7.366 5.742 14.116 12.479 17.977 14.995 4.461 35.992 2.269 53.726 1.756 4.071-1.02 6.737-5.054 8.663-8.302 1.471 2.654 2.6 5.632 3.473 8.464l46.026.204-1.484-6.206 13.587-50.117c2.125-6.48 4.179-15.569-.426-21.359-3.107-5.814-9.605-9.509-15.731-11.67m-36.313 45.974-6.842 24.307-2.954 2.319-23.233.37c-10.003-5.493-.313-16.624.57-24.58l3.77-2.335zm418.816-48.023-88.274-.445c-6.668 1.233-12.667 5.103-16.77 10.816-6.105 19.011-11.835 38.227-15.268 58.292 1.56 9.266 8.979 18.373 19.163 20.499l96.914-.254 7.554-18.689-4.837 2.019-66.423.493-3.475-1.629c-5.335-6.153 1.009-12.483 1.692-18.762l79.937-1.276c2.186-12.71 11.028-25.327 4.528-39.043-2.732-5.443-8.841-10.44-14.741-12.021m-56.47 16.404 21.422-.341c2.001.514 4.261 2.36 4.944 4.454-.156 4.509-1.045 8.894-2.84 13.074l-31.496.526c2.738-5.918 1.763-14.018 7.97-17.713" clip-rule="evenodd"/></svg>