<svg xmlns="http://www.w3.org/2000/svg" width="900" height="312" fill="none"><path fill="#e42237" fill-rule="evenodd" d="M745.283 115.704 366.93 149.665l-.001.761 352.215-16.475zm81.452-53.983-413.877 65.134.001.763 376.83-39.795zM672.71 48.035l-434.435 87.69.256.762 400.425-64.882z" clip-rule="evenodd"/><path fill="#360054" fill-rule="evenodd" d="M227.871 170.955c24.107 0 41.36 16.225 41.36 42.578.002 26.362-17.255 42.836-41.359 42.836-24.358 0-41.616-16.474-41.616-42.836 0-26.355 17.253-42.578 41.615-42.578m-23.344 42.578c0 17.998 9.388 27.879 23.345 27.879s23.344-9.891 23.344-27.879c0-17.738-9.384-27.629-23.342-27.629-13.959 0-23.348 9.889-23.347 27.629m204.779 41.06h-25.628l.002-81.864h29.437c27.149 0 44.912 11.909 44.912 40.553 0 29.396-21.062 41.311-48.723 41.311m2.286-67.924H400.68v53.477h10.404c16.747 0 28.671-7.859 28.671-26.363 0-18.247-9.385-27.114-28.163-27.114m130.429 67.924-26.387-35.228c13.447-2.283 21.82-11.157 21.82-24.589 0-13.681-10.403-22.047-30.704-22.047h-31.723l.004 81.864h17.252v-41.311l28.676 41.311zm-49.738-45.119v-23.313h12.186c9.639 0 15.478 2.534 15.478 10.39s-5.585 12.923-15.483 12.923zm63.444-36.745h16.997v81.864h-17zM726.5 254.593l.003-34.729h-38.571v34.729h-17.254l-.003-81.864h17.257v32.696H726.5v-32.696h17.007v81.864zm-401.44-83.638c24.108 0 41.362 16.225 41.362 42.578 0 26.362-17.254 42.836-41.362 42.836-24.358 0-41.616-16.474-41.616-42.836 0-26.355 17.258-42.578 41.616-42.578m-23.345 42.578c0 17.998 9.39 27.879 23.345 27.879 13.703 0 23.347-9.883 23.347-27.879 0-17.738-9.644-27.621-23.347-27.629-13.952 0-23.345 9.889-23.345 27.629m349.675 23.57c-5.077 2.283-11.417 3.801-17.251 3.801-16.497 0-25.887-8.617-25.887-27.121 0-16.215 8.63-27.622 24.868-27.622 6.089 0 10.912.758 18.021 3.8l1.515-15.714c-5.833-1.774-12.683-3.043-18.268-3.043-30.705 0-44.407 19.523-44.407 43.087 0 24.079 13.702 41.819 40.602 41.819 6.85 0 14.72-1.517 22.074-4.059zM167.478 169.43c-8.627-3.29-19.032-5.826-30.196-5.573-20.049 0-38.065 12.672-38.065 38.27 0 22.811 13.196 37.259 36.033 37.259 6.09 0 11.93-1.016 16.749-2.531v-36.753h18.78v49.676c-10.659 4.049-25.121 6.591-37.304 6.591-32.987 0-54.56-22.563-54.554-53.476-.002-34.47 24.866-56.018 59.882-56.018 10.151 0 21.317 2.284 30.197 5.579z" clip-rule="evenodd"/></svg>