<svg xmlns="http://www.w3.org/2000/svg" width="900" height="312" fill="none"><path fill="#afc672" d="M509.742 215.025c-.51-1.113-1.512-1.436-2.664-1.436l-46.174.03-13.337 28.215-7.823-.112 42.317-90.49 6.39-.021 40.901 90.52-7.34.168-12.275-26.878zm-3.537-8.049-20.746-45.322-21.692 45.387z"/><path fill="#b0c673" d="M629.013 234.494c17.011 6.305 39.37 3.106 50.813-12.121 2.23 1.455 3.857 2.421 6.049 3.526-7.086 9.608-17.579 15.721-29.358 17.451-10.406 1.53-22.29.647-32.018-3.303-22.688-9.206-29.52-33.373-24.485-55.745 3.333-14.808 14.001-26.518 28.496-31.154 12.584-4.024 25.968-4.041 38.513.057 8.201 2.679 14.753 7.73 19.954 14.708l-5.988 3.819c-6.001-8.591-15.204-13.283-25.382-14.332-9.282-.953-18.388-.459-27.04 3.01-20.107 8.062-26.121 29-21.559 48.964 2.677 11.714 10.642 20.903 21.996 25.115z"/><path fill="#5dabe7" d="m584.105 100.835.128 25.984 43.195.06c.2 1.766.226 3.347.064 4.898l-48.298-.025-.149-27.411-.03-26.774V68.08l48.05.047.098 4.413-43.045.077.009 23.702 38.142.06c.141 1.59.162 2.75.098 4.469h-38.258z"/><path fill="#61b0e7" d="M708.525 127.88c11.598.674 20.085-1.673 27.229-10.466l4.344 2.842c-9.404 12.996-28.87 15.187-42.781 9.997-10.352-3.859-17.013-12.983-18.519-23.579-1.913-13.44 2.041-27.409 14.183-34.585 11.998-7.089 31.885-7.071 42.755 1.948 1.878 1.56 3.234 3.116 5.222 5.098-1.365 1.139-2.554 2.004-4.256 3.064-7.114-9.423-18.602-11.574-29.775-9.945-7.991 1.165-15.262 5.32-19.418 12.218-3.826 6.35-4.586 13.609-3.686 20.811 1.58 12.631 11.682 21.841 24.702 22.597"/><path fill="#56a5e5" d="m411.055 67.847 5.021-.01.124 64.456-5.021.009z"/><path fill="#5dace6" d="M818.321 131.655c-1.576.19-3.236.147-4.679-.047l-.111-12.147-.086-46.817-23.835-.164a32 32 0 0 1 .013-4.4h52.82l-.095 4.473-23.997.039z"/><path fill="#acc56c" d="M770.743 200.139c-.087 2.429-2.065 1.336-1.834 3.959.052.601 1.443 1.435 2.147 1.219 1.135-.35 2.131-1.232 3.057-1.772 3.678-2.157 6.726-4.693 10.161-7.247l3.691-2.749c.656-.488 2.717-1.106 3.422-.704 1.208.669 2.86 2.1 3.813 3.107a290 290 0 0 0 8.799 8.945l13.165 12.784c2.122 2.061 4.474 3.6 6.457 5.683 2.126 2.23 4.239 4.498 6.565 6.452 2.287 1.918 4.352 3.608 6.443 5.76 1.483 1.526 5.996 6.561 8.205 4.357.617-.614-.422-1.854-1.083-2.334a44 44 0 0 1-5.156-4.378l-7.883-7.779-3.096-2.934-5.221-4.832-7.309-6.94-6.556-6.033-5.861-5.415a58 58 0 0 1-3.917-3.937c-1.309-1.452-4.096-2.796-4.492-4.814-.426-2.178 2.279-2.628 3.353-3.531l.047 1.336-2.165 1.944 7.287 6.707 8.443 8.047 7.435 6.936 9.113 8.682 8.713 8.125 6.63 6.37c2.048 1.97 4.174 3.703 5.805 5.799l-.07.93-8.278-.009-30.113-28.207-20.382-19.274-19.461 14.412-.034 32.615-.84.48h-5.147l-.944-.406-.009-19.387c.748-1.063.753-2.952-.004-4.01v-1.612c.109-.173.435-.8.561-1.102.096-.225-.43-.679-.565-.744v-3.777l.5-.54v-5.445c0-.259-.513-1.193-.505-1.042.022-.635.109-1.871 0-2.485.018.191.496-.76.496-1.102v-17.839c0-.259-.487-1.227-.483-1.059l.048-30.138 6.805.047.247 48.873z"/><path fill="#b0c774" d="m842.006 151.287 1.541.986c-3.625 4.309-11.087 8.584-14.713 11.499l-5.084 4.082-10.293 7.518-6.905 5.252c-4.921 3.744-4.135 2.858-9.012 7.027-1.07.917-3.755 1.373-3.327 3.582.392 2.047 3.133 3.376 4.458 4.884s2.512 2.696 3.888 3.994l5.818 5.493 6.509 6.12 7.254 7.04 5.184 4.902 3.073 2.976 7.824 7.891a44 44 0 0 0 5.119 4.441c.656.487 1.687 1.745 1.075 2.368-2.193 2.235-6.673-2.876-8.144-4.419-2.081-2.184-4.126-3.898-6.397-5.844-2.309-1.977-4.406-4.283-6.516-6.545-1.969-2.114-4.303-3.674-6.41-5.765l-13.068-12.968a291 291 0 0 1-8.735-9.075c-.945-1.021-2.585-2.472-3.785-3.152-.699-.408-2.745.219-3.397.715l-3.664 2.788c-3.409 2.591-6.435 5.169-10.086 7.352-.919.552-1.908 1.442-3.034 1.797-.695.219-2.076-.627-2.132-1.236-.229-2.661 1.735-1.556 1.821-4.016l1.493-.491c-.026.25.467.767.764.715.298-.053 1.252-.333 1.606-.623 3.565-2.937 8.446-6.589 12.52-9.636l7.324-5.471c.868-.649 9.189-6.199 5.978-6.527l1.799-1.71 33.884-25.576c1.722-.802 4.078-.25 5.775-.364z"/><path fill="#aec669" d="m797.147 188.997-.048-1.351c5.014-4.164 4.211-3.281 9.264-7.012l7.1-5.24 10.583-7.502 5.227-4.072c3.731-2.905 11.399-7.174 15.126-11.474l-1.584-.984c1.974-.127 3.825-.332 6.105.166l-24.857 18.088c-9.078 6.609-17.713 13.398-26.92 19.381z"/><path fill="#aec46b" d="M772.272 200.176c7.351-6.038 21.964-15.006 28.406-20.895 3.236.319-5.15 5.702-6.024 6.331l-7.381 5.307c-4.106 2.956-9.025 6.498-12.617 9.347-.353.28-1.323.553-1.618.604s-.792-.451-.77-.694z"/><path fill="#b0c774" d="M764.065 202.145c-.882-4.831.004-14.373.013-19.606-.004-.165.499.784.499 1.038v17.491c0 .335-.49 1.267-.512 1.081zm.004 9.322c-.543-2.149-.623-4.763-.004-6.89-.009-.148.516.767.516 1.021v5.339zm.009 11.021c0-1.153-.962-2.78-.004-3.932.775 1.034.77 2.889.004 3.932m-.009-5.513c-.454-.462 0-1.305 0-1.809.138.063.677.508.579.729-.133.292-.463.906-.579 1.08m.985 24.924c-.29 0-.967-.127-.967-.403zm6.134-.475c-.036.221-.023.466-.17.471h-.69z"/><path fill="#5baade" d="M52.16 158.768c-.015.358-.136 1.184-.363 1.068l-.717-.372.017-.566c.288-.038.796-.125 1.062-.125z"/><path fill="#5baadf" d="m146.086 69.16-.073 11.572c-.052 7.921-.212 15.968-.243 23.963l-.186 44.033-.428 1.312c-.312.026-.896.091-1.195.091L50 150.079v-.866c.64-.152 1.173-.685 1.64-1.499l35.663-42.655 21.861-.061-23.821 28.19 41.8.1c.194-4.232.272-7.913-.212-12.174l-8.423 10.221-8.755-.148-15.46-.55 51.361-61.404z"/><path fill="#adc670" d="m191.201 105.366 21.727-.095 37.882 44.606-11.159.245-85.491.009-.048-17.11-.21-14.821-.188-27.763-.07-21.278 52.312 61.712-24.409.486-8.7-10.211-.438 12.323 42.825-.056z"/><path fill="#62b0e3" d="m136.365 158.833-.269.783c-.056.161-.794.234-1.02.234l-4.973.065-10.226.477-3.594.168c-3.085.143-6.158-.147-9.27.057l-2.383.156c-2.669.173-5.095.142-7.873-.174-9.145-1.026-8.19.602-12.057.641-2.097.022-4.683.533-6.54-.212-1.924-.771-2.705-.29-4.627.061-3.416.619-11.211.151-11.177.125-.78.511-2.174 2.239-2.14 3.161.031.771.46 2.611.908 3.278 3.272 4.866 4.991 6.945 8.94 11.378l4.098 4.603c4.574 5.144 11.545 16.362 18.142 16.025l6.649-.338c7.048-.359 2.882 1.273 6.224.16.668.299 1.606 1.022 2.053 1.663l1.831 2.619-13.932.334c-2.721.065-5.403-.078-7.968-.459l-17.222-20.597-19.084-23.334.877.334c.278.104.42-.632.442-.957l84.196-.256zm-85.497.368-.022.506-.846-.073v-.866z"/><path fill="#5baade" d="M140.192 158.811c-.445.311 2.546 3.08 3.422 2.299.537-.479.898-1.678.842-2.312.139 0 .401-.022.553-.03l.467.819.288.936.113 41.302-.065 1.799c-.292.768-.441 1.764-.497 2.791l-.24 4.464c-.07 1.333-.1 2.912 1.011 3.516v15.628c-2.354-.565-5.99-.971-7.668-2.994l-15.573-18.772-5.55-6.574-4.756-5.228c-1.762-1.937-6.64-9.533-6.932-9.83-1.709-1.76-1.901-3.201-.493-5.586l7.12.539c1.116.086 2.707.056 3.548.384 3.946 1.54 3.27-.876 5.088-1.221l6.243 6.686c.244-4.271.192-7.868-.004-12.009l-41.944.073 19.714 23.841c-3.357 1.109.828-.517-6.252-.159l-6.679.336c-6.627.332-13.628-10.844-18.223-15.964l-4.116-4.586c-3.963-4.417-5.693-6.487-8.98-11.336-.45-.66-.881-2.497-.912-3.265-.035-.919 1.365-2.64 2.15-3.149-.04.026 7.795.492 11.226-.125 1.93-.349 2.716-.828 4.647-.06 1.866.742 4.464.233 6.57.211 3.885-.034 2.925-1.661 12.111-.638 2.79.31 5.232.345 7.909.172l2.393-.155c3.126-.203 6.217.086 9.312-.056l3.61-.168 10.271-.475 4.997-.064c.226 0 .967-.078 1.024-.233l.27-.781 3.976-.013z"/><path fill="#62b0e3" d="M121.267 180.559c-1.834.341-1.152 2.76-5.132 1.221-.849-.328-2.459-.298-3.58-.384l-7.182-.539c-1.42 2.385-1.227 3.83.497 5.585.295.298 5.216 7.893 6.993 9.83l4.798 5.227 5.598 6.574 15.709 18.77c1.693 2.019 5.361 2.429 7.736 2.994l.189 7.211c0 .147.194.393.273.466-.04.505-.194 1.38-.431 2.226l-48.354-56.8c-1.579-1.855-2.824-3.265-4.117-5.146l24.474-.673c1.06.967 1.962 2.33 2.533 3.438zm25.595 22.886-.162 10.769c-1.122-.603-1.095-2.182-1.021-3.515l.242-4.464c.057-1.022.207-2.023.502-2.79zM143.923 158.768c.042.562-.226 1.615-.632 2.037-.655.688-2.9-1.752-2.57-2.026l3.198-.011z"/><path fill="#acc56f" d="M155.522 158.768c1.167 4.138-.617.31 1.184 5.13 1.321 3.521.136 4.237 1.889 4.97.647.272 1.25.505 1.22.829l-.175 1.691 3.279-2.123c.56.587 1.395 1.243 2.024 1.213 1.014-.048 1.329-.997 1.836-2.084.739-1.584 4.027.996 4.551 2.209.171.392-.966 1.363-1.119 1.044-.459-.85-1.661-1.549-2.006-.923.542 1.462 1.005 2.752.218 3.952-.861 1.316-.459 2.55-.468 3.948-.008 2.183-.332 4.331.656 6.532 2.829-.056 1.53-6.83 1.648-8.949.236-4.129 4.425-3.71 6.943-4.004 2.304-.267 4.49-.772 7.117-1.246-2.002-.967-3.104-1.347-3.93-3.098-1.141-1.605-4.617 2.446-3.729-.207.507-1.511 2.745-2.365 4.385-1.791 1.928.673 3.292-.056 5.141-.38 2.44-.427 5.229-.177 7.76-.371 2.58-.194 4.936-.293 7.463-.129 8.552.561 3.139-.358 9.833 1.683 1.171.358 3.344-.954 5.032-.074 1.093.574 2.461.017 3.69-.233 6.116-1.242 3.143.311 8.372.16 2.382-.069 4.804-.306 7.31-.578 1.503 1.462.677 4.185-.682 6.329l3.34-1.596c.97-1.907 2.124-3.486 3.869-4.151-1.609 2.563-3.712 4.854-5.832 7.262l-2.265 2.575-3.882 4.363-10.532 12.861-2.549 3.09c-1.609 1.95-3.052 4.409-5.474 5.212-.677-1.105-1.521-2.11-2.784-2.106-4.023 0-3.673-1.851-4.875-4.953 3.852-3.495 7.087-7.335 9.955-11.248 1.276-1.743 1.928-3.305 2.264-5.553l.306-2.037c.07-.448-1.045-.647-1.482-.781-.415-.125-.996-.146-2.597-.129l-39.456.41c-.162 0-.446.065-.603.108-.158.043-.28.647-.28.88l.013 6.334c0 .263.498 1.212.494 1.053-.188 1.07.017 2.705.214 3.917l8.971-10.441 15.131.229 9.094.396-12.149 14.347-14.209 16.473c-.402-1.545-4.486 3.369-4.901 3.891l-3.331 4.186c-1.238 1.557-7.682 8.219-4.98 7.507l-.455.414c-2.286-.077-2.968 2.339-4.363 3.961l-2.912 3.383c-.083.099-.144 1.005-.131 1.001a5 5 0 0 1 .424.164c-.153.164-.502.401-.704.535-.76-2.002-2.002 2.752-4.459 2.675-.149-7.167-.446-14.45.262-21.586.936-9.449.376-19.55.538-29.301 0-.246-.424-1.165-.437-1.035l.136-19.334v-5.7c-.005-.379.848-.755 1.189-.768z"/><path fill="#b0c876" d="M239.462 158.161c-.782 1.479 6.265 1.157 6.941.885l.088 1.411c-.887 1.478-1.849 3.104-3.387 3.899-4.78.107-3.102-1.679-7.1-1.228l-5.715.643c-5.479.621-16.014-.54-18.496-.402-10.228.563-8.027-1.081-16.128-.482l-4.068.299-9.846.572c-5.483.317-10.895.861-16.484 1.21l-3.91.245c-4.222.264-2.798-1.165-5.443-1.701-1.814-4.989-.018-1.023-1.191-5.31 26.888-.858 57.645-.478 84.739-.036z"/><path fill="#b1c873" d="M215.055 174.601c.441.135 1.55.33 1.48.786l-.306 2.05c-.336 2.263-.987 3.835-2.262 5.59-2.864 3.939-6.096 7.805-9.943 11.323 1.201 3.123.852 4.991 4.869 4.986 1.262 0 2.105 1.008 2.782 2.12 2.419-.804 3.86-3.284 5.467-5.247l2.546-3.11 10.519-12.947 3.878-4.391 2.262-2.593c2.113-2.424 4.218-4.73 5.825-7.31.542-.208 1.109-1.234 1.297-1.816 1.528-.773 2.48-2.358 3.367-3.791.489-.799 1.113-1.381.974-2.563a29 29 0 0 1 3 .204l-37.655 45.14-21.725-.113 14.629-17.299c3.14-3.713 6.284-7.249 9-11.015z"/><path fill="#b0c876" d="M179.555 208.954c-3.591 4.168-9.429 12.168-13.216 15.618-2.703.709 3.743-5.967 4.981-7.524l3.332-4.194c.416-.523 4.505-5.444 4.903-3.9m-25.557 6.14-.354-.506c0-10.17.385-20.094.455-29.897.008-.129.441.796.437 1.038-.162 9.768.398 19.895-.538 29.365"/><path fill="#b1c873" d="m246.491 157.746-.036 1.764c-.619.396-7.105.857-6.386-1.266-.057-.019.703-.556.938-.556z"/><path fill="#b0c876" d="m159.042 233.792-3.837 4.671-1.117.195c-.127.023.138.199.35.325l-.72.757-.074-3.07c2.974.084 4.477-5.033 5.398-2.878"/><path fill="#c1d592" d="M173.045 176.046c.051 2.533.113 5.097-.449 7.537.01.144-.578-.715-.583-.948l-.016-5.703c0-.206.145-.754.331-.793.185-.039.521-.093.712-.097z"/><path fill="#b0c876" d="M166.599 224.627c-1.605 2.518-5.222 6.577-7.122 8.635a6 6 0 0 0-.432-.167c-.018.005.044-.915.134-1.016l2.97-3.433c1.427-1.65 2.118-4.098 4.45-4.019"/><path fill="#acc56f" d="M247.551 157.697c.139 1.184-.477 1.768-.966 2.569l-.087-1.376.039-1.202 1.01.009zm-91.886 80.475-.628.488c-.174-.122-.391-.287-.286-.305z"/><path fill="#adc670" d="M243.252 164.609c-.187.568-.748 1.568-1.292 1.771-1.737.653-2.881 2.199-3.852 4.076l-3.325 1.568c1.354-2.106 2.172-4.779.679-6.216-2.493.263-4.9.5-7.276.568-5.205.144-2.246-1.377-8.334-.157-1.228.246-2.585.793-3.673.229-1.68-.868-3.843.424-5.01.072-6.663-2-1.275-1.097-9.787-1.652-2.516-.161-4.861-.068-7.429.127-2.52.191-5.301-.059-7.725.364-1.841.318-3.199 1.034-5.118.373-1.632-.563-3.86.275-4.365 1.758-.883 2.606 2.576-1.372 3.712.204.827 1.72 1.92 2.093 3.913 3.042-2.616.466-4.792.961-7.085 1.224-2.507.288-6.676-.123-6.911 3.932-.122 2.076 1.175 8.728-1.641 8.787-.979-2.161-.661-4.271-.653-6.415.005-1.372-.396-2.584.466-3.876.783-1.178.322-2.445-.218-3.881.344-.614 1.541.068 1.998.907.152.313 1.284-.64 1.114-1.026-.522-1.19-3.795-3.72-4.53-2.169-.505 1.068-.819 2-1.828 2.046-.623.03-1.458-.618-2.015-1.19l-3.264 2.084.174-1.66c.035-.318-.57-.547-1.214-.814-1.746-.72-.566-1.419-1.88-4.881 2.619.509 1.209 1.865 5.392 1.615l3.873-.233c5.536-.331 10.897-.848 16.329-1.149l9.753-.542 4.029-.284c8.026-.563 5.845.996 15.977.458 2.459-.132 12.895.97 18.322.381l5.662-.61c3.96-.428 2.297 1.271 7.032 1.165zm-69.627 4.186c.631-.118 1.318-.296 1.579-.567.262-.272.179-1.009.109-1.653-.888.437-1.427 1.076-1.688 2.22"/><path fill="#acc56f" d="M173.077 168.484c.321-1.112.984-1.734 2.075-2.159.086.627.182 1.339-.133 1.607-.316.268-1.167.437-1.942.552"/><path fill="#63b1e6" d="M475.837 111.865c-.009-2.144-.786-4.826-.516-7.232l-2.443.19c-.223-2.958-.275-5.66.399-8.308 1.332 1.231 1.765 1.941 2.581 1.937l27.218-.116c4.578-.022 9.195-1.58 12.518-4.787 4.48-4.326 4.729-12.298.275-16.705-2.787-2.76-7.012-4.124-10.903-4.137l-28.747-.112-.412 5.652c-.026-.758-.511-1.993-.859-3.353l-1.881 5.087c-1.319-2.277-.052-4.442-1.654-4.765.086-2.1-.532-4.442-.313-7.115l33.887-.021c5.175 0 10.444 1.618 14.326 4.83 3.612 2.987 4.51 7.769 4.634 12.202.189 6.862-3.397 12.51-9.95 15.54 4.84 2.604 8.585 6.306 8.683 11.708l.348 19.417-4.848-.034-.155-16.082c-.034-3.534-1.168-6.809-4.157-9.009-2.516-1.851-6.021-3.004-9.383-3.017l-28.197-.125c-1.027 1.769.79 7.33-.447 8.363z"/><path fill="#56a9e2" d="M476.297 77.93c.185 5.083.204 14.84.052 20.344-.901 0-1.38-.71-2.85-1.95-.739 2.665-.687 5.387-.44 8.365l2.698-.191c-.299 2.423.564 5.123.569 7.281l.066 17.276c0 .746-.157 1.964-.237 2.722-1.285-.242-2.219-.459-2.252-.021l-1.001-.083 1.479-1.855c.982-1.231.446-3.671-1.01-4.997l-.744 3.255c-.071.308-.356 1.01-.503 1.27-.109.195-.739.078-.938.065l-.133-45.817.389-8.712c1.768.325.369 2.506 1.825 4.798l2.077-5.123c.384 1.37.92 2.614.948 3.377z"/><path fill="#63b1e6" d="M472.717 131.418c-.216-.016-.653.019-.869.019l-.455-.418c-.152-.41-.336-1.196-.34-1.621.193.011.804.116.91-.058.142-.233.418-.859.487-1.134l.722-2.906c1.411 1.184 1.926 3.362.979 4.461zm.97.073c.032-.391.938-.193 2.183.02.078-.678.23-1.761.23-2.431.428.403.501 1.904.014 2.446-.372.414-2.041.255-2.427-.039z"/><path fill="#b0c775" d="M372.392 182.148c-.791.075-1.143.663-1.535 1.563l-2.487 5.736c-.152.349-1.14 1.356-.818 1.466l1.135.398c-1.861 3.016-4.366 4.455-6.805 6.243-.04-.132-.144-.454-.179-.618-.135-.671-10.48 4.738-15.833 4.813l-14.203.203c-1.105.018-3.04-.477-3.979-.715-.253-.062-.344-1.13-.092-1.201 3.17-.874 7.658.049 10.855-1.841-9.528-.897-18.691.463-27.663-.76-.152.013.801-.424 1.127-.419l18.908.154c10.637.089 19.769.848 28.401-5.687 4.849-3.674 6.837-9.189 6.489-15.203-.387-6.685-3.584-12.293-9.628-15.185-3.71-1.775-7.758-2.804-12.051-2.817l-39.586-.137c-.217.962-.509 2.093-.505 2.693-1.052-.887-1.856 6.164-3.178 7.374l-2.044-8.646c-.092-.388-1.227-.22-1.34-.022l-.148-7.904 25.184-.212c14.468-.123 37.708-2.424 46.331 11.534 3.523 5.705 4.805 12.757 3.64 19.19z"/><path fill="#abc569" d="m303.953 160.246.34 35.794c0 .183.161.659.214.864.03.118.374-.507.348-.458 1.857.078 4.132-.254 5.953-.009 8.991 1.213 18.173-.136 27.722.751-3.203 1.872-7.701.956-10.878 1.82-.253.07-.161 1.126.092 1.188.945.231 2.88.72 3.987.707l14.233-.201c5.365-.074 15.729-5.422 15.868-4.759.031.158.135.476.179.612-5.988 4.335-13.148 5.387-20.113 6.072.17.009-.823-.476-1.085-.476h-12.346c-.301 0-1.281.476-1.098.485l-18.151-.013c-.467-.607-1.879-.607-2.332.013h-1.608c-.405-.271-.902-.568-.911-.328l-.035.756-.431 37.473c-.266.153-.719.424-1.064.647-3.368 2.209-3.342-1.406-5.473-1.393l-.079-16.637c.109.092.515-.616.515-1.03l.013-54.277-.55-.607c.083-2.733-.178-5.549.109-8.264.114-.196 1.251-.358 1.343.022l2.048 8.548c1.325-1.197 2.131-8.173 3.186-7.291z"/><path fill="#b0c775" d="M297.491 222.572c-.08-18.319-.525-36.844-.02-55.167l.504.599-.012 53.552c0 .409-.376 1.107-.472 1.016m6.08 17.152c-.004.517.104 1.524.14 2.175l-6.344-.078c.064-1.042.2-2.192.196-2.838 1.959-.013 1.934 3.553 5.031 1.374.312-.22.733-.487.977-.638z"/><path fill="#b0c876" d="M342.557 202.696c-5.045.749-10.026.013-15.071.013-.19-.007.827-.756 1.139-.756h12.806c.271 0 1.306.763 1.126.743"/><path fill="#abc569" d="M372.807 181.44c-.718 3.376-2.183 6.006-4.078 8.637l-1.25-.375c-.354-.108.733-1.053.9-1.382l2.738-5.407c.431-.849.819-1.402 1.69-1.473"/><path fill="#b0c775" d="M310.189 202.629c-.822 0-2.021.633-2.556.012.497-.573 2.045-.573 2.556-.012m-4.314.016-1.041.387.038-.697c.014-.218.554.056.998.306zm-.468-5.715c.029-.045-.349.532-.382.423-.057-.189-.234-.625-.234-.798z"/><path fill="#62b0e7" d="M299.831 131.09h1.187l-.092-2.259c-.092-2.327-.074-4.604.946-7.034 1.122 1.644 1.104 2.95 2.379 3.289l.89 1.83 22.123-.245c6.48-.073 12.521-2.577 17.358-6.609 9.033-7.533 9.484-22.302 5.988-32.618-3.307-9.761-13.383-14.726-23.166-14.73l-22.886-.017.118 17.092c0 .253-.35 1.087-.363.953l-.206-14.773c-2.252.352-1.24 4.814-2.432 7.056-1.362-1.7-.718-3.195-1.761-4.123-.214-.494-.526-1.64-.521-2.259l.07-8.473 27.092-.09c8.113-.026 16.064 2.109 22.106 7.442 8.486 7.49 10.194 21.555 8.376 31.896-1.805 10.26-8.587 18.098-18.527 21.598-5.835 2.053-11.78 2.744-18.124 2.748l-19.644.013c-.188 0-.714-.103-.78-.219a1.3 1.3 0 0 1-.135-.464z"/><path fill="#55a7e3" d="M304.717 90.68v20.122l.005 4.375c.005 3.495.19 7.02-.068 10.489-1.42-.345-1.4-1.675-2.64-3.35-1.133 2.471-1.153 4.794-1.051 7.165l.103 2.296h-1.318l-.117-2.161c-.039-.73-.083-1.614-.238-2.187l.024-42.825c0-2.2.131-4.08.423-5.98 1.158.946.438 2.468 1.955 4.2 1.323-2.283.194-6.828 2.699-7.187l.228 15.048zm-2.494 29.308c0-.266-.243-.485-.54-.485-.296 0-.54.219-.54.485 0 .267.244.486.54.486s.54-.219.54-.486"/><path fill="#62b0e7" d="M299.617 129.618c-.183-.583-.224-1.5-.224-2.26.146.592.187 1.505.224 2.26m4.796-14.914-.009-4.519c.517 1.315.512 3.195.009 4.519M302.092 120.981a.54.54 0 1 0 0-1.08.54.54 0 0 0 0 1.08"/></svg>