<svg xmlns="http://www.w3.org/2000/svg" width="900" height="312" fill="none"><path fill="#000" d="M181.547 180.428c0 20.21.193 39.115 1.093 55.664h-.171c-.236-.771-.622-1.67-1.115-2.933-12.064-29.973-41.658-99.96-41.658-99.96h-16.78v123.703h12.858v-48.235c0-22.223-.193-42.819-1.093-58.276h.15l.15.407c.279.77.643 1.734 1.2 3.082 8.572 20.789 42.195 103.065 42.195 103.065h16.05V133.242h-12.857zm45.366-35.283h27.623v111.842h13.672v-111.82h27.536v-11.861h-68.831zm-163.87-11.86h13.629v123.702H63zm322.212 86.729c0 15.864-4.008 27.147-20.422 27.147s-20.294-13.467-20.294-27.147v-86.708h-13.843v87.778c0 22.587 8.571 37.895 33.729 37.895 26.08 0 34.287-16.207 34.287-38.794v-86.879h-13.457zm64.288-166.993c5.005 0 9.898 1.483 14.06 4.262a25.3 25.3 0 0 1 9.321 11.347 25.26 25.26 0 0 1-5.486 27.555 25.323 25.323 0 0 1-38.938-3.832 25.27 25.27 0 0 1-4.265-14.047 25.31 25.31 0 0 1 7.417-17.88A25.37 25.37 0 0 1 449.543 53m0 39.307c2.772 0 5.481-.82 7.786-2.36a14 14 0 0 0 5.162-6.283 13.992 13.992 0 0 0-3.038-15.259 14.02 14.02 0 0 0-15.273-3.035 14 14 0 0 0-6.29 5.157 14 14 0 0 0-2.362 7.779 14.02 14.02 0 0 0 4.111 9.894 14.04 14.04 0 0 0 9.904 4.107m-6.836 164.702h13.672V133.285h-13.672zm53.252-111.842h27.537v111.842h13.672V145.167h27.536v-11.861h-68.788zm110.018 111.842h13.694V133.285h-13.694zm104.811-65.041c-4.286 17.491-10.2 40.078-11.679 50.632h-.364c-1.65-11.839-6.429-33.334-10.393-50.632l-13.694-58.662h-14.572l30.794 123.703h16.244l31.908-123.703h-14.036zM836 145.167v-11.861h-57.666v123.703h57.73v-11.861h-44.251v-47.7h40.715v-11.86h-40.715v-40.421z"/></svg>