<svg width="900" height="312" viewBox="0 0 900 312" fill="none" xmlns="http://www.w3.org/2000/svg">
<rect width="900" height="312" fill="none"/>
<mask id="mask0_8_261" style="mask-type:luminance" maskUnits="userSpaceOnUse" x="50" y="79" width="799" height="153">
<path d="M50 79H848.495V231.377H50V79Z" fill="none"/>
</mask>
<g mask="url(#mask0_8_261)">
<path d="M368.064 146.032C368.064 146.032 368.064 151.954 368.069 154.773C368.889 153.158 374.286 144.03 385.123 144.03H388.481V159.111H385.047C375.107 159.111 369.599 166.413 369.599 175.505V209.066H351.866V146.032H368.064ZM553.338 153.678V146.032H569.529V231.375H551.756V209.066H533.396C514.746 209.066 500.227 194.515 500.227 176.562C500.227 157.998 515.456 144.03 532.407 144.03C546.167 144.03 553.338 153.68 553.338 153.68V153.678ZM551.756 176.704C551.756 167.142 543.834 159.449 534.14 159.449C524.585 159.449 516.815 166.721 516.533 176.18C516.249 185.823 523.929 193.959 534.14 193.959L551.756 193.953V176.704Z" fill="#DD1B2D"/>
<path fill-rule="evenodd" clip-rule="evenodd" d="M334.255 122.875V138.013H316.522V122.873L334.255 122.875ZM334.255 146.032V209.066H316.522V146.032H334.255Z" fill="#DD1B2D"/>
<path d="M279.384 209.066V180.59H247.496V209.066H229.547L229.567 158.936C229.567 139.039 246.719 122.875 267.956 122.875H297.337V209.066H279.384ZM267.958 138.013C256.675 138.013 247.503 146.617 247.503 157.28V166.28H279.381L279.384 138.013H267.958Z" fill="#DD1B2D"/>
<path fill-rule="evenodd" clip-rule="evenodd" d="M487.591 146.032V209.066H469.858V146.032H487.591ZM487.591 122.873V138.013H469.858V122.873H487.591ZM683.764 146.032V209.066H666.031V146.032H683.764ZM683.764 122.873V138.013H666.031V122.873H683.764ZM585.173 146.032H602.899V181.263C602.899 190.863 609.975 195.982 616.857 195.982C623.505 195.982 631.23 191.583 631.23 181.265V146.032H648.956V209.088H632.758V201.452L632.488 201.758C627.338 207.597 620.093 211.086 611.726 211.086C598.119 211.086 585.191 199.971 585.191 183.855L585.173 146.032Z" fill="#DD1B2D"/>
<path d="M435.034 122.875V193.952H458.144V209.023L417.083 209.068V122.875H435.034ZM749.488 201.423V209.063H765.68V122.875H747.911V146.032H729.551C710.899 146.032 696.386 160.587 696.386 178.54C696.386 197.103 711.609 211.068 728.562 211.068C742.32 211.068 749.488 201.423 749.488 201.423ZM747.911 178.398C747.911 187.954 739.988 195.647 730.295 195.647C720.742 195.647 712.972 188.379 712.695 178.918C712.402 169.275 720.082 161.143 730.295 161.143L747.911 161.147V178.398ZM814.004 211.086C794.286 211.086 778.291 196.074 778.291 177.557C778.291 159.039 794.268 144.023 813.986 144.023C833.716 144.023 848.495 159.053 848.495 177.557C848.495 179.379 848.427 181.143 848.184 183.243L795.287 183.249C797.923 191.066 804.902 196.664 813.986 196.664C822.392 196.664 827.523 194.065 831.749 189.142L844.506 197.418C837.585 205.835 826.964 211.086 814.004 211.086ZM795.332 171.729H831.514C828.945 163.92 823.032 158.45 813.986 158.45C804.921 158.45 797.901 164.03 795.332 171.729Z" fill="#DD1B2D"/>
<path d="M126.21 122.87C144.035 122.87 158.482 137.3 158.482 155.09V187.315H126.214C108.389 187.315 93.9392 172.89 93.9392 155.093C93.9392 137.3 108.386 122.87 126.21 122.87ZM180.265 209.068H126.207C96.3482 209.068 72.1499 184.903 72.1499 155.097C72.1499 125.285 96.3504 101.12 126.207 101.12C156.062 101.12 180.265 125.285 180.265 155.097V209.068ZM126.309 79H50V155.192C50 197.273 84.1634 231.377 126.309 231.377C168.452 231.377 202.617 197.273 202.617 155.192C202.617 113.114 168.452 79 126.309 79Z" fill="#3C60A5"/>
</g>
</svg>
