<svg xmlns="http://www.w3.org/2000/svg" width="500" height="500" fill="none"><path fill="#e4002b" fill-rule="evenodd" d="M249.458 443.42C142.471 443.281 55.857 356.444 56 249.461c.14-106.986 86.98-193.6 193.959-193.46 106.982.139 193.6 86.983 193.461 193.965-.139 106.983-86.98 193.597-193.962 193.454m137.751-80.38c5.56.008 10.382-4.212 10.393-10.585.008-6.374-4.807-10.604-10.367-10.608-5.597-.008-10.43 4.208-10.438 10.581-.011 6.035 4.325 10.601 10.412 10.612M192.572 196.55c-1.834-46.94-34.219-68.024-74.823-68.374-4.555-.038-10.642.124-15.189.73l-.316 241.544 19.452.022.136-101.452 100.149 114.644 20.372.027-91.236-109.906c30.821-15.509 42.804-42.759 41.455-77.235m34.25 13.392c-4.423.591-8.427 3.066-11.373 6.596l.211-154.21a184 184 0 0 0-16.017 3.636l-.347 263.098 16.014.022.124-93.775s.008-7.35 5.752-7.338c5.945.011 5.937 7.357 5.937 7.357l-.113 93.771 15.999.019.128-93.771.007-9.554c.015-9.952-7.289-17.045-16.322-15.851m44.902-.019c-12.536-.011-22.711 16.266-22.771 60.212-.053 43.949 10.08 60.245 22.617 60.264 10.54.015 19.415-11.504 22.003-41.35l-15.358-2.019c-.588 18.183-2.396 25.306-6.622 25.299-5.044-.004-6.495-10.047-6.623-36.71l13.399.016 15.954.026.003-5.466c.061-43.946-10.073-60.253-22.602-60.272m51.45.072c-12.522-.019-22.704 16.266-22.764 60.211-.053 43.946 10.088 60.246 22.613 60.261 10.544.011 19.423-11.505 22.011-41.347l-15.358-2.019c-.584 18.18-2.392 25.303-6.634 25.299-5.033-.007-6.487-10.054-6.615-36.713l13.392.019 15.957.019.004-5.458c.06-43.946-10.073-60.257-22.606-60.272m85.179.117c-5.805-.008-10.868 2.791-13.437 6.908-2.569-4.125-7.598-6.939-13.399-6.942-5.756-.008-10.762 2.166-13.35 6.238l-.034-.113c-1.296-6.325-7.398-6.592-14.759-5.44q-.625.099-1.243.234l-.162 118.264 16.013.023.125-93.775s.007-7.346 5.752-7.335c5.952.004 5.944 7.353 5.944 7.353l-.113 93.776 15.999.019.128-93.776s.003-7.345 5.744-7.338c5.952.008 5.945 7.357 5.945 7.357l-.113 93.768 16.005.026.125-93.775.015-9.553.045-2.743c-.034-7.134-6.811-13.165-15.23-13.176m-85.198 17.957c4.829.004 6.464 9.338 6.709 33.722l-13.388-.015c.29-24.388 1.839-33.715 6.679-33.707m-51.453-.072c4.822.008 6.46 9.339 6.713 33.73l-13.396-.023c.29-24.384 1.846-33.714 6.683-33.707m-145.591 32.954c-1.228.102-3.258-.072-4.271-.143l.15-112.449c1.895.008 3.801-.271 5.688-.252 30.984.301 47.378 23.77 47.344 53.16-.041 30.098-17.351 57.145-48.911 59.684m261.121 82.742c4.531.007 8.106 3.605 8.099 8.762-.004 5.179-3.587 8.747-8.122 8.739-5.036-.007-8.148-3.948-8.14-8.762.007-5.161 3.582-8.747 8.163-8.739m-2.114 14.804.008-5.014 1.812.004 3.025 5.014 2.185.004-3.282-5.154c1.767-.192 3.063-1.073 3.063-3.198.008-2.381-1.435-3.371-4.268-3.375l-4.449-.008-.019 11.723zm4.886-8.491c0 1.703-1.277 1.842-2.72 1.838l-2.151-.003v-3.424h2.321c1.168.003 2.55.177 2.55 1.589" clip-rule="evenodd"/></svg>