<svg xmlns="http://www.w3.org/2000/svg" width="900" height="312" fill="none"><g clip-path="url(#a)"><mask id="b" width="801" height="145" x="49" y="83" maskUnits="userSpaceOnUse" style="mask-type:luminance"><path fill="#fff" d="M50 227.535h799.997V83.295H49.999z"/></mask><g mask="url(#b)"><path fill="#253d8d" d="m129.459 209.775-3.799-13.724.47-.182 7.45 12.053c3.661-1.662 7.268-4.013 10.193-6.482l-6.808-11.052.39-.331 9.684 8.588c3.236-2.781 6.205-6.294 8.405-9.649l-8.87-7.97.272-.428 10.831 4.937c2.391-3.746 4.379-8.125 5.56-12.445l-9.818-4.59.12-.494 10.746 1.284c1.159-4.32 1.675-9.035 1.624-13.791h-35.514c-.041 12.376-10.001 22.401-22.282 22.401-12.308 0-22.284-10.065-22.284-22.474 0-11.367 8.368-20.765 19.23-22.263l-9.035-34.855c-1.922.323-4.328.952-6.105 1.65l8.947 32.632-.492.188-16.615-29.405c-1.991.89-4.226 2.238-5.907 3.488l16.434 27.401-.401.323-22.574-22.609c-1.668 1.38-3.62 3.325-4.92 5.017l21.796 20.945-.329.397-26.125-15.21c-1.418 1.882-2.841 4.464-3.77 6.596l24.964 13.861-.188.481-27.524-7.704c-.902 2.335-1.71 5.343-2.095 7.826l26.2 6.461-.093.525-27.037.013c-.086 1.314-.238 2.969-.238 4.307 0 1.297.144 2.867.225 4.143l25.447-.216.05.494-24.684 6.207c.452 2.948 1.201 5.87 2.245 8.575l22.938-6.346.196.471-20.804 11.617a48 48 0 0 0 4.565 8.025l18.875-11.013.31.404-15.63 15.321c1.956 2.468 4.228 4.745 6.687 6.78l14.056-14.023.41.297-10.044 17.17a46 46 0 0 0 8.54 5.001l9.08-15.699.475.189-4.705 17.539c3.09 1.236 6.44 2.109 9.933 2.657l4.385-16.22.5.082.107 16.777c1.608.134 3.221.279 4.865.279 1.965 0 3.91-.175 5.825-.37l.01-15.56.498-.071 4.218 14.959a45.5 45.5 0 0 0 10.914-3.176M111.12 97.151a35 35 0 0 0-3.121-.149c-.858 0-2.053.041-2.881.135l.32 35.975q1.332-.16 2.675-.161 1.367.002 2.697.164zm.327 36.051c1.727.261 3.394.725 4.967 1.363l9.652-34.593c-1.601-.62-3.811-1.232-5.521-1.53zm5.811 1.726a22 22 0 0 1 4.235 2.526l18.39-30.733c-1.325-.967-3.239-2.164-4.753-2.854zm34.205-18.037c-.932-1.146-2.377-2.723-3.541-3.713l-25.391 25.113a22.3 22.3 0 0 1 3.098 3.243zm-24.527 26.5a23 23 0 0 1 1.607 3.049l31.229-17.149c-.478-1.117-1.343-2.731-2.037-3.737zm3.183 8.483a22 22 0 0 0-.754-3.224l34.43-8.853c.365 1.048.733 2.695.907 3.776z"/></g><path fill="#253d8d" d="m341.513 179.326-1.576-9.291h-8.706l-1.325 9.291h-11.167l9.348-47.72h16.049l8.605 47.72zm-9.085-17.688h6.436l-3.092-21.379h-.127z"/><mask id="c" width="801" height="145" x="49" y="83" maskUnits="userSpaceOnUse" style="mask-type:luminance"><path fill="#fff" d="M49.954 227.535H850V83.295H49.954z"/></mask><g fill="#253d8d" mask="url(#c)"><path d="m398.986 143.698.152 4.569h.127c.308-1.349 2.128-5.588 7.762-5.588v11.455c-.331-.066-1.56-.256-3.029-.256-2.573 0-4.163 1.599-4.163 4.728v20.722h-10.997v-35.63zM525.342 162.023s-1.618.752-2.542 1.157c-3.111 1.362-3.336 3.744-3.336 6.003 0 2.09 1.039 3.5 2.842 3.5 2.445 0 3.036-2.045 3.036-3.592zm.374 14.123c-.767 1.204-3.501 4.329-8.552 4.329-5.68 0-8.656-3.584-8.656-9.247v-2.319c0-5.913 4.274-8.564 8.008-10.035 1.362-.536 2.515-.971 3.74-1.443 2.689-1.037 5.086-1.939 5.086-4.773 0-1.258-.915-2.211-2.585-2.211-1.579 0-2.617 1.181-2.617 2.636v2.466H509.1v-1.738c0-7.05 6.396-11.131 12.773-11.131 10.67 0 14.56 5.538 14.56 11.994v17.324c0 3.633.379 6.054.82 7.331h-11.244zM632.836 162.63v4.856c0 2.585.953 3.879 3.287 3.879 2.557 0 3.279-1.693 3.279-4.021 0-3.562-2.242-5.56-5.243-7.36-1.102-.663-3.865-2.303-4.88-2.917-5.398-3.267-8.445-8.802-8.445-13.001 0-8.792 5.714-13.603 15.132-13.603 10.826 0 15.513 5.804 15.513 13.954v2.804h-12.07v-3.691c0-2.197-.798-3.961-3.298-3.961-1.916 0-3.275 1.061-3.275 3.292 0 2.142.937 4.018 3.02 5.267 2.675 1.6 4.934 2.966 7.067 4.242 6.106 3.651 8.556 8.067 8.556 13.857 0 9.163-5.113 14.247-15.88 14.247-9.418 0-14.835-5.244-14.835-13.983v-3.861zM672.126 167.286h.125l3.551-23.587h10.244l-8.444 34.378c-1.955 8.766-4.219 16.187-14.571 16.187-1.848 0-4.276-.292-4.455-.319v-8.343c.236.037 1.178.189 2.136.189 1.741 0 3.807-.762 4.17-2.814.116-.636.396-2.206.396-2.206l-9.382-37.072h11.575zM718.865 151.013v-7.315h3.977v-10.18h11.081v10.18h4.799v7.315h-4.799v18.434c0 1.877 1.07 2.816 2.707 2.816.879 0 1.952-.167 2.092-.187v7.125c-.664.162-2.883.636-5.908.636-7.647 0-9.972-3.904-9.972-9.541v-19.283zM799.782 146.903h.304c1.011-1.465 3.383-4.334 7.994-4.334 5.873 0 8.909 4.268 8.909 9.431v27.329h-11.092V154.42c.064-1.914-1.139-2.869-2.401-2.869-1.136 0-2.528.955-2.528 2.739v25.039h-11.09V154.42c.064-1.914-1.139-2.869-2.4-2.869-1.138 0-2.529.955-2.529 2.739v25.039h-11.024v-35.614h9.701l.252 3.187h.188c1.012-1.467 3.558-4.333 8.17-4.333 3.745 0 6.164 1.737 7.546 4.334M201.472 131.608h12.065v35.676c-.063 2.359.631 4.08 3.285 4.08 2.338 0 3.285-1.402 3.285-4.08v-35.676h12.067v34.532c0 8.087-4.044 14.334-15.416 14.334-9.411 0-15.286-4.528-15.286-14.334zM301.217 149.665V144.8c0-8.089-4.043-14.333-15.414-14.333-9.413 0-15.287 4.524-15.287 14.333v21.339c0 9.807 5.874 14.334 15.287 14.334 11.371 0 15.414-6.246 15.414-14.334v-4.867h-12.066v6.011c0 2.679-.946 4.079-3.284 4.079-2.655 0-3.348-1.721-3.286-4.079v-23.629c-.062-2.358.631-4.078 3.286-4.078 2.338 0 3.284 1.401 3.284 4.078v6.011zM767.662 167.158v1.277c-.127 7.197-4.172 12.102-13.014 12.102-8.149 0-13.141-4.142-13.141-12.231v-13.379c0-8.091 4.992-12.234 13.141-12.234 8.968 0 13.074 4.907 13.074 12.234v9.11h-15.54v6.37c0 1.34 1.012 2.485 2.466 2.485 1.263 0 2.467-1.019 2.467-2.485v-3.249zm-10.547-10.255v-4.142c0-1.464-1.204-2.422-2.467-2.422-1.454 0-2.466 1.084-2.466 2.486v4.078zM601.968 167.158v1.277c-.129 7.197-4.171 12.102-13.016 12.102-8.15 0-13.138-4.142-13.138-12.231v-13.379c0-8.091 4.988-12.234 13.138-12.234 8.97 0 13.078 4.907 13.078 12.234v9.11h-15.543v6.37c0 1.34 1.015 2.485 2.465 2.485 1.264 0 2.466-1.019 2.466-2.485v-3.249zm-10.55-10.255v-4.142c0-1.464-1.202-2.422-2.466-2.422-1.45 0-2.465 1.084-2.465 2.486v4.078zM382.506 167.158v1.277c-.127 7.197-4.169 12.102-13.013 12.102-8.15 0-13.14-4.142-13.14-12.231v-13.379c0-8.091 4.99-12.234 13.14-12.234 8.97 0 13.077 4.907 13.077 12.234v9.11h-15.542v6.37c0 1.34 1.012 2.485 2.465 2.485 1.262 0 2.465-1.019 2.465-2.485v-3.249zm-10.548-10.255v-4.142c0-1.464-1.203-2.422-2.465-2.422-1.453 0-2.465 1.084-2.465 2.486v4.078zM237.683 131.611h28.805v9.557h-8.276v38.161h-12.569v-38.161h-7.96zM570.181 165.692v2.614c0 7.326-4.8 12.231-13.772 12.231-8.146 0-13.768-4.142-13.768-12.231v-13.379c0-8.091 5.622-12.234 13.768-12.234 8.972 0 13.772 4.907 13.772 12.234v2.23h-11.433v-4.267c0-1.467-1.072-2.359-2.339-2.359-1.452 0-2.399 1.019-2.399 2.359v17.454c0 1.339.947 2.356 2.399 2.356 1.267 0 2.339-.89 2.339-2.356v-4.652zM409.784 154.926c0-8.092 5.495-12.234 13.644-12.234 8.971 0 13.712 4.907 13.712 12.234v13.378c0 7.327-4.677 12.232-13.712 12.232-8.084 0-13.644-4.077-13.644-12.168zm11.084 15.417c0 1.338 1.134 2.423 2.588 2.423 1.364 0 2.592-.957 2.592-2.423v-17.454c0-1.467-1.108-2.488-2.592-2.488-1.511 0-2.588 1.085-2.588 2.422zM848.991 155.244h-10.365v-2.166c0-1.716-1.127-3.058-2.968-3.058-1.933 0-2.847.978-2.847 2.358 0 1.681.982 2.684 3.516 3.928 1.583.774 3.28 1.606 5.244 2.56 6.75 3.294 8.432 5.982 8.432 10.333 0 6.387-4.635 11.338-14.285 11.338-9.178 0-13.767-4.692-13.767-12.042v-1.336h10.487v2.867c0 1.98 1.15 3.185 3.28 3.185 1.88 0 3.037-1.361 3.037-2.868 0-.878-.129-2.352-4.117-4.314-.906-.448-2.816-1.363-3.828-1.864-4.863-2.397-8.227-4.533-8.227-10.768 0-6.183 4.68-10.703 13.204-10.703 9.734 0 13.204 5.452 13.204 11.597zM716.162 155.244H705.8v-2.166c0-1.716-1.132-3.058-2.963-3.058-1.938 0-2.848.978-2.848 2.358 0 1.681.981 2.684 3.518 3.928q2.615 1.283 5.233 2.56c6.757 3.294 8.431 5.982 8.431 10.333 0 6.387-4.633 11.338-14.276 11.338-9.181 0-13.772-4.692-13.772-12.042v-1.336h10.488v2.867c0 1.98 1.149 3.185 3.284 3.185 1.878 0 3.034-1.361 3.034-2.868 0-.878-.129-2.352-4.115-4.314-.91-.448-2.818-1.363-3.831-1.864-4.865-2.397-8.225-4.533-8.225-10.768 0-6.183 4.677-10.703 13.201-10.703 9.736 0 13.203 5.452 13.203 11.597zM469.23 155.244h-10.362v-2.166c0-1.716-1.131-3.058-2.967-3.058-1.937 0-2.847.978-2.847 2.358 0 1.681.982 2.684 3.519 3.928 1.578.774 3.277 1.606 5.236 2.56 6.754 3.294 8.432 5.982 8.432 10.333 0 6.387-4.634 11.338-14.28 11.338-9.179 0-13.771-4.692-13.771-12.042v-1.336h10.49v2.867c0 1.98 1.145 3.185 3.281 3.185 1.878 0 3.033-1.361 3.033-2.868 0-.878-.126-2.352-4.115-4.314-.907-.448-2.816-1.363-3.831-1.864-4.864-2.397-8.224-4.533-8.224-10.768 0-6.183 4.676-10.703 13.202-10.703 9.732 0 13.204 5.452 13.204 11.597zM486.603 170.339c0 1.337 1.136 2.422 2.59 2.422 1.364 0 2.592-.957 2.592-2.422v-17.455c0-1.466-1.108-2.487-2.592-2.487-1.513 0-2.59 1.086-2.59 2.422zm-.818-26.64.079 2.943h.125c.754-1.246 1.852-3.962 7.749-3.962 6.624 0 9.166 4.585 9.166 9.818v17.912c0 5.119-2.147 10.065-9.281 10.065-4.583 0-5.921-1.846-6.895-3.125h-.125v14.004h-11.059v-47.655z"/></g></g><defs><clipPath id="a"><path fill="#fff" d="M50 97h800v117H50z"/></clipPath></defs></svg>