<svg width="500" height="500" viewBox="0 0 500 500" fill="none" xmlns="http://www.w3.org/2000/svg">
<rect width="500" height="500" fill="none"/>
<path fill-rule="evenodd" clip-rule="evenodd" d="M249.458 443.42C142.471 443.281 55.857 356.444 56.0002 249.461C56.1396 142.475 142.98 55.8608 249.959 56.0002C356.941 56.1395 443.559 142.984 443.42 249.966C443.281 356.949 356.44 443.563 249.458 443.42ZM387.209 363.04C392.769 363.048 397.591 358.828 397.602 352.455C397.61 346.081 392.795 341.851 387.235 341.847C381.638 341.839 376.805 346.055 376.797 352.428C376.786 358.463 381.122 363.029 387.209 363.04ZM192.572 196.55C190.738 149.61 158.353 128.526 117.749 128.176C113.194 128.138 107.107 128.3 102.56 128.906L102.244 370.45L121.696 370.472L121.832 269.02L221.981 383.664L242.353 383.691L151.117 273.785C181.938 258.276 193.921 231.026 192.572 196.55ZM226.822 209.942C222.399 210.533 218.395 213.008 215.449 216.538L215.66 62.3287C210.27 63.3008 204.925 64.5137 199.643 65.9639L199.296 329.062L215.31 329.084L215.434 235.309C215.434 235.309 215.442 227.959 221.186 227.971C227.131 227.982 227.123 235.328 227.123 235.328L227.01 329.099L243.009 329.118L243.137 235.347L243.144 225.793C243.159 215.841 235.855 208.748 226.822 209.942ZM271.724 209.923C259.188 209.912 249.013 226.189 248.953 270.135C248.9 314.084 259.033 330.38 271.57 330.399C282.11 330.414 290.985 318.895 293.573 289.049L278.215 287.03C277.627 305.213 275.819 312.336 271.593 312.329C266.549 312.325 265.098 302.282 264.97 275.619L278.369 275.635L294.323 275.661L294.326 270.195C294.387 226.249 284.253 209.942 271.724 209.923ZM323.174 209.995C310.652 209.976 300.47 226.261 300.41 270.206C300.357 314.152 310.498 330.452 323.023 330.467C333.567 330.478 342.446 318.962 345.034 289.12L329.676 287.101C329.092 305.281 327.284 312.404 323.042 312.4C318.009 312.393 316.555 302.346 316.427 275.687L329.819 275.706L345.776 275.725L345.78 270.267C345.84 226.321 335.707 210.01 323.174 209.995ZM408.353 210.112C402.548 210.104 397.485 212.903 394.916 217.02C392.347 212.895 387.318 210.081 381.517 210.078C375.761 210.07 370.755 212.244 368.167 216.316L368.133 216.203C366.837 209.878 360.735 209.611 353.374 210.763C352.957 210.829 352.543 210.907 352.131 210.997L351.969 329.261L367.982 329.284L368.107 235.509C368.107 235.509 368.114 228.163 373.859 228.174C379.811 228.178 379.803 235.527 379.803 235.527L379.69 329.303L395.689 329.322L395.817 235.546C395.817 235.546 395.82 228.201 401.561 228.208C407.513 228.216 407.506 235.565 407.506 235.565L407.393 329.333L423.398 329.359L423.523 235.584L423.538 226.031L423.583 223.288C423.549 216.154 416.772 210.123 408.353 210.112ZM323.155 228.069C327.984 228.073 329.619 237.407 329.864 261.791L316.476 261.776C316.766 237.388 318.315 228.061 323.155 228.069ZM271.702 227.997C276.524 228.005 278.162 237.336 278.415 261.727L265.019 261.704C265.309 237.32 266.865 227.99 271.702 227.997ZM126.111 260.951C124.883 261.053 122.853 260.879 121.84 260.808L121.99 148.359C123.885 148.367 125.791 148.088 127.678 148.107C158.662 148.408 175.056 171.877 175.022 201.267C174.981 231.365 157.671 258.412 126.111 260.951ZM387.232 343.693C391.763 343.7 395.338 347.298 395.331 352.455C395.327 357.634 391.744 361.202 387.209 361.194C382.173 361.187 379.061 357.246 379.069 352.432C379.076 347.271 382.651 343.685 387.232 343.693ZM385.118 358.497L385.126 353.483L386.938 353.487L389.963 358.501L392.148 358.505L388.866 353.351C390.633 353.159 391.929 352.278 391.929 350.153C391.937 347.772 390.494 346.782 387.661 346.778L383.212 346.77L383.193 358.493L385.118 358.497ZM390.004 350.006C390.004 351.709 388.727 351.848 387.284 351.844L385.133 351.841V348.417H387.454C388.622 348.42 390.004 348.594 390.004 350.006Z" fill="#E4002B"/>
</svg>
