<svg width="900" height="312" viewBox="0 0 900 312" fill="none" xmlns="http://www.w3.org/2000/svg">
<g clip-path="url(#clip0_6_482)">
<path d="M50 244V67H850V244H50Z" fill="#FECC00"/>
<path d="M307.938 140.956C304.442 145.702 298.592 153.953 295.033 158.772C293.226 161.223 289.962 165.672 300.782 165.672H357.75C357.75 165.672 366.931 153.15 374.628 142.677C385.098 128.429 375.534 98.7849 338.103 98.7849H190.692L165.133 133.6H304.437C311.47 133.6 311.374 136.283 307.938 140.956ZM266.087 174.261C255.267 174.261 258.53 169.802 260.338 167.352C263.897 162.532 269.842 154.368 273.338 149.622C276.779 144.949 276.87 142.266 269.828 142.266H206.119L154.786 212.206H279.97C321.316 212.206 344.335 184.013 351.432 174.265L266.087 174.261ZM347.521 212.206H420.958L448.798 174.256L375.37 174.265C375.348 174.261 347.521 212.206 347.521 212.206ZM536.997 98.7849L508.83 137.141H476.055L504.209 98.7849H430.795L381.679 165.672H561.3L610.402 98.7849H536.997ZM453.733 212.206H527.142L554.996 174.265H481.586C481.559 174.261 453.733 212.206 453.733 212.206ZM50 189.229V197.288H152.274L158.182 189.229H50ZM169.175 174.261H50V182.311H163.253L169.175 174.261ZM50 212.206H141.317L147.198 204.193H50V212.206ZM742.227 197.284H850V189.224H748.145L742.227 197.284ZM731.28 212.206H850V204.193H737.157L731.28 212.206ZM759.12 174.261L753.216 182.32H850V174.261H759.12ZM662.964 165.672L712.075 98.7849H634.323C634.296 98.7849 585.175 165.672 585.175 165.672H662.964ZM578.88 174.261C578.88 174.261 573.513 181.612 570.905 185.154C561.687 197.64 569.84 212.206 599.928 212.206H717.829L745.682 174.265L578.88 174.261Z" fill="#D50029"/>
</g>
<defs>
<clipPath id="clip0_6_482">
<rect width="800" height="177" fill="white" transform="translate(50 67)"/>
</clipPath>
</defs>
</svg>
