<svg width="900" height="312" viewBox="0 0 900 312" fill="none" xmlns="http://www.w3.org/2000/svg">
<rect width="900" height="312" fill="white"/>
<g clip-path="url(#clip0_9_6)">
<path d="M238.458 233.049L235.928 221.683L227.076 233.049H238.458ZM239.724 237.473H223.914L218.856 243.788H210.636L233.401 216.001H242.254L248.58 243.788H240.99L239.724 237.473ZM253.637 243.786L261.86 215.999H270.079L261.225 243.786H253.637ZM299.169 243.786H292.215L290.315 230.524L281.464 243.786H274.507L270.712 223.578H277.67L279.565 236.84L289.052 223.578H296.009L296.641 236.84L306.126 223.578H313.715L299.169 243.786ZM330.792 234.315H328.895C325.101 234.947 322.571 234.947 321.306 235.576C320.673 236.208 320.044 236.837 320.044 237.47C320.044 238.104 320.673 238.735 321.306 239.365C321.938 239.997 322.571 239.997 323.838 239.997C325.102 239.997 326.368 239.997 326.999 239.365C328.262 238.736 328.896 238.736 329.531 238.104C330.162 237.475 330.795 236.209 330.795 234.948L330.792 234.315ZM323.202 229.261L315.613 228.629C316.246 226.735 318.143 225.471 320.041 224.21C321.938 222.949 325.097 222.949 328.892 222.949C332.686 222.949 335.217 223.578 337.113 224.21C339.01 225.471 339.643 226.736 339.643 228V229.895C339.643 230.524 339.012 232.422 337.746 235.58C337.115 238.107 336.482 239.368 336.482 240.629C336.482 241.261 336.482 242.525 337.115 243.788H329.526C329.526 243.159 328.893 242.527 328.893 241.261L325.099 243.157C323.836 243.786 321.936 243.786 320.672 243.786C318.142 243.786 316.248 243.157 314.979 241.892C313.715 240.628 312.449 239.362 312.449 237.469C312.449 235.576 313.08 234.31 314.979 233.049C316.876 231.785 320.039 231.154 323.833 231.154C327.627 231.154 330.157 230.522 331.422 230.522C332.053 229.89 332.053 229.258 332.053 228.626C332.053 227.994 331.422 227.365 330.79 227.365C330.157 227.365 329.526 226.733 328.257 226.733C326.995 226.733 325.727 226.733 325.096 227.365L323.202 229.261ZM345.969 223.578H353.557L355.454 233.683C356.086 236.209 356.086 238.102 356.086 239.368C357.352 237.473 358.617 234.948 360.513 233.051L367.47 224.211H375.691L357.981 245.686C356.719 247.58 355.451 248.844 354.818 249.476C354.187 250.105 352.921 250.737 351.657 251.371C350.393 252.005 349.127 252.003 347.23 252.003C345.333 252.003 343.436 252.003 341.537 251.371L342.17 247.58H344.7C347.23 247.58 349.127 246.319 350.393 243.793L345.969 223.578ZM373.161 238.102L380.75 237.473C381.381 238.735 382.014 239.368 383.281 240C384.544 240.629 385.811 240.629 387.076 240.629C388.973 240.629 390.238 240.629 391.503 240C392.133 239.368 392.765 239.368 392.765 238.739C392.765 238.107 392.765 238.107 392.133 237.475C391.503 237.475 390.87 236.843 388.971 236.214C384.544 234.953 381.381 234.319 380.118 233.687C378.221 232.423 377.587 231.161 377.587 229.897C377.587 228.002 378.22 226.738 380.118 225.477C382.648 223.582 385.811 222.95 390.87 222.95C394.664 222.95 397.194 223.579 399.091 224.211C400.988 225.472 402.254 226.738 402.885 227.999L395.927 228.631C395.297 227.999 394.664 227.37 394.03 226.736H389.603C387.705 226.736 387.073 226.736 385.808 227.368C385.177 227.997 384.544 227.997 384.544 228.629C384.544 229.261 385.177 229.261 385.808 229.893C386.441 229.893 387.705 230.522 390.235 231.154C394.03 231.783 396.56 232.416 397.824 233.681C399.721 234.945 400.354 236.208 400.354 237.472C400.354 239.367 399.091 241.26 397.191 242.524C394.661 243.785 391.5 244.418 387.705 244.418C383.278 244.418 380.115 243.786 378.218 242.524C375.693 241.261 373.793 239.999 373.161 238.102ZM443.361 243.786H435.771L433.872 220.419L428.182 243.786H420.594L428.815 215.999H440.198L441.461 234.947L455.376 215.999H466.759L458.538 243.786H450.949L459.171 220.419L443.361 243.786ZM490.157 231.156C490.157 229.895 489.526 228.629 488.26 227.997C487.627 227.365 485.729 226.736 484.465 226.736C482.567 226.736 481.303 227.365 480.039 227.997C478.776 228.629 477.509 229.892 476.876 231.156C476.245 232.417 475.613 233.683 475.613 234.947C475.613 236.208 476.245 237.473 477.511 238.102C478.775 238.735 480.041 239.363 481.936 239.363C483.832 239.363 485.732 238.735 486.996 237.469C488.893 236.208 490.157 233.683 490.157 231.156ZM468.023 234.947C468.023 231.156 469.286 227.997 472.447 226.104C475.612 223.578 479.406 222.945 484.463 222.945C488.89 222.945 492.053 223.578 494.585 225.472C497.115 227.368 498.379 229.263 498.379 231.79C498.379 234.948 497.115 238.107 493.952 240C490.79 242.527 486.995 243.788 481.936 243.788C479.406 243.788 476.878 243.159 474.98 242.527C473.083 241.898 471.185 240.632 470.553 239.368C468.655 238.102 468.023 236.84 468.023 234.947ZM514.823 243.786H507.866L502.173 223.578H509.762L511.659 232.42C512.29 234.947 512.29 236.208 512.923 237.472C512.923 237.472 513.553 236.208 514.82 234.945C516.084 233.681 516.717 232.416 516.717 232.416L523.674 224.208H531.896L514.823 243.786ZM540.117 215.999H547.707L546.444 220.419H538.854L540.117 215.999ZM537.588 223.578H545.178L538.853 243.786H531.264L537.588 223.578ZM553.398 223.578H560.988L560.355 226.104C562.253 224.84 564.15 224.21 565.414 223.578C566.677 222.945 568.577 222.945 570.472 222.945C573.004 222.945 574.898 223.578 576.165 224.21C577.429 225.471 578.062 226.104 578.062 227.997C578.062 228.629 578.062 229.892 577.431 231.788L574.268 243.157H566.678L569.843 231.788C570.475 229.892 570.475 229.258 570.475 228.629C570.475 227.997 570.475 227.365 569.843 226.735H566.048C564.784 226.735 563.517 227.364 562.254 227.996C560.99 228.628 559.723 229.257 559.09 230.522C558.46 231.154 557.827 233.049 557.193 235.574L554.661 243.785H547.072L553.398 223.578ZM589.445 234.947C589.445 236.208 590.078 237.473 590.709 238.735C591.974 239.364 593.239 239.363 595.136 239.363C596.401 239.363 597.666 238.735 598.931 238.102C600.195 237.473 601.461 236.208 602.094 234.947C602.725 233.683 603.358 232.417 603.358 231.156C603.358 229.895 602.725 228.629 601.461 227.997C600.198 227.365 598.931 226.736 597.666 226.736C596.404 226.736 595.136 227.365 593.872 227.997C592.61 228.629 591.975 229.892 590.709 231.785C590.078 233.049 589.445 233.683 589.445 234.947ZM580.592 244.418L588.814 245.05C588.814 245.683 588.814 246.311 589.444 246.311C589.444 246.311 590.076 246.944 590.708 246.944H593.238C595.135 246.944 596.402 246.944 597.034 246.311C597.665 245.683 598.298 245.683 598.931 244.417C598.931 243.785 599.564 243.153 600.195 241.258V240.626C597.663 241.89 594.502 243.153 591.974 243.153C589.444 243.153 586.915 242.524 585.018 241.258C583.121 239.997 582.485 238.099 582.485 234.944C582.485 232.414 583.118 230.521 584.382 228.626C585.645 226.732 587.545 225.468 589.439 224.206C591.97 222.942 593.866 222.942 596.398 222.942C598.295 222.942 600.192 223.574 601.454 224.206C603.352 224.835 603.986 226.101 605.249 227.362L606.513 223.574H614.103L609.043 240.626C608.412 243.156 607.78 245.049 607.146 246.313C606.513 247.574 605.882 248.208 605.249 248.84C604.617 249.472 603.352 250.101 602.719 250.734C601.454 251.363 600.187 251.363 598.924 251.995H593.866C590.072 251.995 586.909 251.363 584.379 250.734C581.214 249.473 580.585 247.576 580.585 245.683C580.592 245.052 580.592 245.052 580.592 244.418ZM629.921 243.786L638.773 215.999H666.6L664.701 220.419H645.097L643.202 227.365H662.806L660.906 231.785H641.936L638.142 243.786H629.921ZM687.468 231.156C687.468 229.895 686.839 228.629 685.571 227.997C684.304 227.365 683.041 226.736 681.144 226.736C679.247 226.736 677.981 227.365 676.717 227.997C675.454 228.629 674.187 229.892 673.556 231.156C672.923 232.417 672.291 233.683 672.291 234.947C672.291 236.208 672.923 237.473 674.189 238.102C675.453 238.735 676.72 239.363 678.616 239.363C680.511 239.363 682.41 238.735 683.673 237.469C686.204 236.208 687.468 233.683 687.468 231.156ZM665.334 234.947C665.334 231.156 666.599 227.997 669.762 226.104C672.923 223.578 676.717 222.945 681.777 222.945C686.203 222.945 689.366 223.578 691.896 225.472C694.427 227.368 695.69 229.263 695.69 231.79C695.69 234.948 694.427 238.107 691.263 240C688.101 242.527 684.307 243.788 679.25 243.788C676.717 243.788 674.19 243.159 672.293 242.527C670.396 241.898 668.499 240.632 667.866 239.368C665.969 238.102 665.334 236.84 665.334 234.947ZM703.913 223.578H710.87L709.607 227.365C712.137 224.21 715.299 222.945 718.458 222.945C719.723 222.945 720.99 222.945 722.253 223.578L719.091 227.997H716.56C715.294 227.997 714.028 228.629 712.765 229.258C711.501 229.89 710.234 231.154 709.604 231.788C708.971 233.049 708.34 234.947 707.073 237.473L705.175 243.788H697.587L703.913 223.578Z" fill="#01539C"/>
<path d="M750.078 243.786H742.489L741.224 230.524L732.369 243.786H724.781L721.62 223.578H728.575L730.474 236.84L739.327 223.578H746.284L747.548 236.84L756.402 223.578H763.992L750.078 243.786ZM781.066 234.315H779.169C775.375 234.947 772.845 234.947 771.581 235.576C770.948 236.208 770.318 236.837 770.318 237.47C770.318 238.104 770.948 238.735 771.581 239.365C772.212 239.997 772.845 239.997 774.112 239.997C775.376 239.997 776.642 239.997 777.275 239.365C778.538 238.736 779.172 238.736 779.805 238.104C780.436 237.475 781.069 236.209 781.069 234.948L781.066 234.315ZM774.109 229.261L766.521 228.629C767.15 226.735 769.051 225.471 770.945 224.21C772.842 222.949 776.005 222.949 779.799 222.949C783.593 222.949 786.123 223.578 788.02 224.21C789.917 225.471 790.55 226.736 790.55 228V229.895C790.55 230.524 789.917 232.422 788.653 235.58C788.022 238.107 787.389 239.368 787.389 240.629C787.389 241.261 787.389 242.525 788.022 243.788H780.432C780.432 243.159 779.8 242.527 779.8 241.261L776.006 243.157C774.742 243.786 772.843 243.786 771.579 243.786C769.049 243.786 767.152 243.157 765.886 241.892C764.62 240.626 763.355 239.362 763.355 237.469C763.355 235.576 763.988 234.31 765.886 233.049C767.783 231.785 770.943 231.154 774.739 231.154C778.533 231.154 781.065 230.522 782.327 230.522C782.959 229.89 782.959 229.258 782.959 228.626C782.959 227.994 782.327 227.365 781.696 227.365C781.065 226.733 779.799 226.733 778.533 226.733C777.27 226.733 776.003 226.733 775.37 227.365C774.742 227.997 774.109 228.629 774.109 229.261ZM799.406 223.578H806.363L805.099 227.365C807.631 224.21 810.792 222.945 813.952 222.945C815.216 222.945 816.482 222.945 817.746 223.578L814.583 227.997H812.053C810.787 227.997 809.521 228.629 808.259 229.258C806.995 229.89 805.727 231.154 805.096 231.788C804.465 233.049 803.833 234.947 802.566 237.474L800.669 243.788H793.08L799.406 223.578ZM824.069 235.576C824.069 236.84 824.701 238.106 825.333 238.738C826.597 239.367 827.863 239.999 829.127 239.999C830.393 239.999 831.659 239.367 832.923 238.738C834.187 238.106 834.82 236.841 836.084 235.576C836.717 234.315 837.348 233.049 837.348 231.788C837.348 230.527 836.717 229.261 835.451 227.997C834.189 227.368 832.921 226.736 831.657 226.736C829.126 226.736 827.23 227.368 825.964 229.263C824.698 231.159 824.069 233.049 824.069 235.576ZM841.777 243.786H834.189L834.818 241.892C833.556 243.153 832.288 243.786 830.394 243.786C829.13 244.418 827.23 244.418 825.967 244.418C822.804 244.418 820.274 243.786 819.01 242.524C817.113 241.263 816.479 238.736 816.479 236.206C816.479 233.048 817.743 229.892 820.273 227.367C822.804 224.837 826.599 223.576 830.394 223.576C834.189 223.576 837.35 224.837 839.246 226.735L842.408 216.63H849.997L841.777 243.786ZM236.563 119.367L249.844 85.8927L216.326 119.367H236.563ZM192.292 119.367L249.843 60H280.829L234.031 182.523H213.796L230.235 137.681H198.617L154.979 182.523H129.685L173.955 137.052H50.0016L58.2229 119.365L192.292 119.367ZM310.553 161.052C304.861 165.472 297.905 167.998 290.316 167.998C277.671 168.63 268.182 160.42 272.608 149.05C277.668 137.052 292.845 128.208 305.495 128.842C312.452 129.474 318.142 132 320.042 135.791H342.809C342.809 122.526 330.793 113.053 312.452 112.421C289.054 111.16 263.125 123.79 253.637 145.896C245.415 166.105 261.225 184.421 284.624 183.16C303.596 182.528 321.305 173.055 332.687 159.792L310.553 161.052ZM399.723 161.052C394.03 165.472 387.076 167.998 379.487 167.998C366.839 168.63 357.353 160.42 361.777 149.05C366.836 137.052 382.014 128.208 394.664 128.842C401.621 129.474 407.311 132 409.21 135.791H431.977C431.977 122.526 419.961 113.053 401.621 112.421C378.223 111.16 352.293 123.79 342.806 145.896C334.586 166.105 350.394 184.421 373.793 183.16C392.765 182.528 410.474 173.055 421.858 159.792L399.723 161.052ZM444.625 114.314L428.815 155.368C428.815 155.368 419.961 183.155 449.049 183.155C458.536 183.155 466.126 180.629 474.348 176.206L471.818 181.893H490.157L517.352 114.312H497.115L483.833 148.417C483.833 148.417 478.14 167.365 459.169 167.365C442.726 167.365 450.315 151.576 450.315 151.576L464.229 114.312L444.625 114.314ZM528.733 114.314L502.173 181.894H521.776L537.585 143.999C537.585 143.999 542.645 128.21 560.352 128.21L566.045 112.421C566.045 112.421 554.663 111.788 545.174 119.367L547.071 114.315H528.733V114.314ZM573.635 114.314L547.074 181.894H567.311L593.239 114.314H573.635ZM600.196 99.7871C598.299 104.837 592.608 108.628 586.282 108.628C580.589 108.628 576.795 104.837 578.692 99.7871C580.589 94.7338 586.282 90.9461 592.608 90.9461C598.301 90.9461 601.461 94.7369 600.196 99.7871ZM623.596 166.105C609.682 166.105 602.094 157.263 605.888 147.157C609.682 136.42 624.228 128.21 637.507 128.21C650.787 128.21 659.01 136.42 655.847 146.525L654.583 149.052C650.156 158.524 636.878 166.105 623.596 166.105ZM677.352 92.2086L667.233 117.472C662.173 113.685 655.217 111.788 646.362 111.788C615.376 111.788 595.771 126.315 587.548 146.524C579.327 166.104 597.666 182.526 618.535 182.526C627.387 182.526 636.243 180.63 643.832 176.841L641.935 181.893H661.537L696.32 91.575H677.347V92.2071L677.352 92.2086ZM747.548 142.104H703.91C710.867 133.893 722.249 128.84 732.369 129.474C739.327 130.103 744.384 132.632 746.915 136.42C748.814 140.208 747.548 142.104 747.548 142.104ZM769.682 136.42C769.682 123.155 757.666 113.682 739.327 113.053C715.928 111.79 689.998 124.419 680.511 146.525C672.29 166.734 688.1 185.05 711.498 183.789C730.471 183.157 748.179 173.684 759.562 160.421H737.428C731.735 164.841 724.781 167.371 717.193 167.371C707.073 168 698.851 162.319 698.22 154.737H761.462C769.051 147.789 769.682 136.42 769.682 136.42ZM774.742 111.156H776.639C777.272 111.156 777.903 111.156 778.536 110.524C778.536 110.524 779.168 109.894 779.168 109.262V108.63L778.536 107.999H775.376V111.156H774.742ZM772.845 116.207V106.732H778.538C779.171 106.732 779.169 107.364 779.802 107.364C779.802 107.996 780.433 107.996 780.433 108.627C780.433 109.256 780.433 109.888 779.802 110.521C779.169 111.153 778.538 111.153 777.905 111.153C777.905 111.153 778.536 111.153 778.536 111.785C779.168 112.417 779.168 113.046 779.8 113.68L781.065 115.575H779.168L778.536 114.312C777.905 113.051 777.274 112.417 777.274 112.417H775.376V116.205L772.845 116.207ZM776.639 104.208C775.375 104.208 774.109 104.208 772.845 104.84C771.581 105.473 770.948 106.102 770.315 107.367C769.682 108.628 769.051 109.894 769.051 111.156C769.051 112.419 769.682 113.685 770.315 114.946C770.945 116.207 771.578 116.84 772.845 117.472C774.112 118.104 775.375 118.104 776.639 118.104C777.903 118.104 779.169 118.104 780.433 117.472C781.698 116.84 782.33 116.211 782.963 114.946C783.596 113.685 783.596 112.419 783.596 111.156C783.596 109.894 782.963 108.628 782.963 107.367C782.332 106.106 781.701 105.473 780.433 104.84C779.166 104.208 777.903 104.208 776.639 104.208ZM776.639 102.946C777.903 102.946 779.169 103.578 781.066 104.208C782.329 104.84 783.596 106.103 784.228 107.366C784.86 108.628 785.49 109.894 785.49 111.787C785.49 113.048 784.86 114.944 784.228 116.207C783.596 117.471 782.33 118.735 781.066 119.365C779.802 119.994 778.535 120.626 776.639 120.626C775.375 120.626 773.476 119.994 772.212 119.365C770.948 118.735 769.682 117.471 769.051 116.207C768.418 114.946 767.786 113.68 767.786 111.787C767.786 110.523 768.418 108.628 769.051 107.366C769.682 106.103 770.948 104.837 772.212 104.208C774.109 102.946 775.375 102.946 776.639 102.946Z" fill="#01539C"/>
</g>
<defs>
<clipPath id="clip0_9_6">
<rect width="800" height="192" fill="white" transform="translate(50 60)"/>
</clipPath>
</defs>
</svg>
