
<svg xmlns="http://www.w3.org/2000/svg" width="900" height="312" fill="none"><path fill="#ff5f30" d="m146.854 59-4.837.14-4.788.33-4.695.563-4.601.844-4.552.987-4.461 1.267-4.413 1.409-4.273 1.642-4.177 1.831-4.085 2.02-3.99 2.206-3.85 2.394-3.709 2.536-3.615 2.722-3.475 2.911L80 85.807l-3.193 3.192-3.003 3.334-2.912 3.474-2.723 3.615-2.535 3.755-2.393 3.85-2.208 3.991-2.017 4.037-1.832 4.225-1.643 4.273-1.408 4.366-1.268 4.46-.985 4.554-.8 4.647-.61 4.695-.328 4.742-.142 4.836.142 4.835.328 4.789.61 4.694.8 4.601.985 4.554 1.268 4.46 1.408 4.366 1.643 4.319 1.832 4.179 2.017 4.084 2.208 3.944 2.393 3.85 2.535 3.755 2.724 3.615 2.91 3.474 3.004 3.334L80 225.851l3.333 3.052 3.475 2.91 3.615 2.723 3.71 2.535 3.848 2.395 3.991 2.206 4.085 2.019 4.177 1.831 4.273 1.643 4.413 1.409 4.461 1.22 4.552 1.033 4.601.798 4.695.61 4.788.329 4.837.141 4.977-.141 4.929-.376 4.834-.61 4.789-.892 4.695-1.079 4.6-1.315 4.507-1.549 4.415-1.737 4.271-1.925 4.179-2.16 4.085-2.347 3.943-2.535 3.803-2.723 3.661-2.911 3.521-3.051 3.381-3.24 3.193-3.38 3.051-3.521 2.863-3.662 2.724-3.803 2.487-3.991 2.347-4.037 2.114-4.225 1.926-4.272 1.735-4.461 1.549-4.506 1.268-4.601H224.27l-1.596 4.648-1.877 4.553-2.114 4.367-2.393 4.225-2.629 4.084-2.818 3.897-3.099 3.756-3.285 3.521-3.475 3.333-3.709 3.146-3.849 2.863-4.037 2.676-4.227 2.442-4.365 2.206-4.506 1.925-4.601 1.643-4.789 1.362-4.883 1.079-4.976.799-5.071.469-5.165.188-5.446-.188-5.351-.563-5.304-.893-5.119-1.22-5.023-1.502-4.882-1.878-4.695-2.16-4.555-2.441 4.367.939 4.413.704 4.506.422 4.601.141 4.931-.187 4.883-.47 4.74-.798 4.649-1.126 4.553-1.409 4.367-1.69 4.27-1.972 4.085-2.254 3.946-2.441 3.755-2.723 3.566-2.957 3.382-3.193 3.145-3.38 2.957-3.568 2.723-3.756 2.49-3.944 2.253-4.084 1.972-4.272 1.689-4.366h-17.09l-2.253 4.366-2.629 4.085-2.957 3.896-3.285 3.615-3.57 3.286-3.803 3.005-4.082 2.676-4.321 2.301-4.553 1.924-4.743 1.55-4.883 1.126-5.068.705-5.165.234-5.07-.234-4.977-.658-4.789-1.079-4.646-1.503-4.461-1.878-4.273-2.253 1.267.141 1.268.094 1.268.047h1.316l4.882-.282 4.741-.705 4.649-1.173 4.507-1.644 4.27-2.018 4.085-2.394 3.803-2.864 3.521-3.099 3.239-3.474 2.864-3.756 2.535-4.084h-19.717l-3.897 3.286-4.412 2.676-4.743 2.019-5.071 1.22-5.256.423-4.931-.376-4.695-1.032-4.459-1.69-4.085-2.301-3.757-2.817-3.239-3.286-2.863-3.709-2.254-4.131-1.689-4.413-1.08-4.695-.33-4.929.33-4.93 1.08-4.695 1.69-4.46 2.253-4.131 2.863-3.709 3.24-3.286 3.756-2.817 4.085-2.301 4.459-1.69 4.695-1.033 4.931-.375 5.116.422 4.883 1.127 4.601 1.831 4.224 2.442 3.803 3.051 3.334 3.521 2.769 3.991 2.207 4.412 1.55 4.742h-32.487v15.822h49.246v-7.934l-.234-4.742-.657-4.601-1.08-4.46-1.456-4.32-1.877-4.084-2.208-3.896-2.535-3.662-2.863-3.428-3.145-3.145-3.427-2.864-3.664-2.535-3.894-2.207-4.133-1.877-4.271-1.456-4.461-1.079-4.647-.658-4.743-.234h-1.267l-1.314.046-1.267.094-1.222.094 4.225-2.206 4.509-1.878 4.6-1.502 4.835-1.081 4.977-.656 5.07-.235 4.883.188 4.741.61 4.649.986 4.458 1.408 4.319 1.69 4.133 2.066 3.943 2.394 3.709 2.677 3.473 2.957 3.241 3.239 2.957 3.474 2.724 3.756 2.347 3.897 2.066 4.131 1.737 4.32 1.36 4.506.988 4.648.609 4.742.234 4.883-.046 2.018-.094 1.972-.188 2.019-.236 1.925h15.964l.188-1.972.14-1.972.094-1.972v-2.018l-.142-4.742-.468-4.695-.752-4.601-1.034-4.46-1.313-4.413-1.55-4.225-1.831-4.132-2.066-3.99-2.299-3.85-2.535-3.662-2.724-3.521-2.957-3.333-3.145-3.145-3.333-2.958-3.521-2.723-3.663-2.535-3.849-2.301-3.991-2.065-4.131-1.831-4.225-1.55-4.367-1.314-4.506-1.033-4.601-.751-4.695-.47-4.743-.14-4.601.14-4.506.423-4.413.704-4.319.986 4.507-2.442 4.695-2.159 4.882-1.878 5.023-1.549 5.165-1.22 5.258-.893 5.353-.516 5.444-.188 4.931.14 4.883.424 4.74.75 4.695.987 4.555 1.267 4.459 1.502 4.319 1.784 4.227 1.972 4.082 2.254 3.897 2.441 3.803 2.676 3.615 2.864 3.427 3.098 3.24 3.239 3.099 3.428 2.863 3.615 2.675 3.756 2.442 3.943 2.253 4.084 1.974 4.226 1.783 4.319 1.502 4.46 1.267 4.554.986 4.694.704 4.742.47 4.883.142 4.93v1.971l-.094 2.019-.142 1.972-.14 1.972h15.867l.143-1.972.139-1.972.046-2.019v-1.971l-.094-4.836-.373-4.789-.564-4.695-.798-4.6-1.034-4.554-1.219-4.46-1.41-4.413-1.644-4.273-1.829-4.178-2.02-4.084-2.205-3.991-2.395-3.85-2.582-3.755-2.723-3.568-2.863-3.474-3.054-3.334-3.145-3.192-3.333-3.052-3.473-2.864-3.615-2.722-3.757-2.583-3.849-2.394-3.943-2.206-4.085-2.02-4.179-1.83-4.272-1.596-4.413-1.456-4.459-1.22-4.555-1.033-4.646-.798-4.695-.61-4.743-.33z"/><path fill="#000" d="M391.341 195.392h-66.009v-32.16h60.798V147.13h-60.798v-31.784h65.821V98.961h-83.848v112.815h84.036zM484.294 161.307l-.282-5.116-.843-4.789-1.316-4.46-1.832-4.132-2.253-3.756-2.721-3.333-3.148-2.911-3.521-2.394-3.943-1.971-4.224-1.409-4.555-.892-4.883-.282-5.162.282-4.837.845-4.507 1.315-4.131 1.831-3.803 2.347-3.427 2.817-3.099 3.286v-10.328h-17.512v83.613h17.512v-38.638l.282-5.962.891-5.352 1.41-4.695 1.878-4.038 2.393-3.427 2.817-2.816 3.239-2.16 3.663-1.502 3.989-.939 4.367-.329 4.837.563 4.319 1.597 3.661 2.535 3.005 3.38 2.205 4.225 1.362 4.93.47 5.586v47.042h17.653zM576.85 128.045h-19.015l-26.291 62.91-26.243-62.91h-19.012l35.866 83.848h18.685zM594.014 92.2l-4.507.893-3.569 2.394-2.347 3.474-.844 4.179.844 4.318 2.347 3.427 3.569 2.254 4.507.798 4.459-.798 3.521-2.254 2.347-3.427.8-4.318-.8-4.179-2.347-3.474-3.521-2.394z"/><path fill="#000" fill-rule="evenodd" d="M585.294 128.248h17.537v83.542h-17.537z" clip-rule="evenodd"/><path fill="#000" d="m687.242 187.246-.518-4.836-1.453-4.319-2.347-3.803-3.194-3.286-4.037-2.676-4.742-2.16-5.447-1.502-19.859-4.413-4.694-1.503-3.097-2.065-1.738-2.63-.564-3.192.892-4.225 2.677-3.474 4.601-2.395 6.666-.891 6.196.704 5.119 1.972 3.895 3.098 2.677 4.085h17.7l-1.222-4.038-1.784-3.756-2.347-3.474-2.863-3.099-3.381-2.722-3.803-2.348-4.319-1.878-4.695-1.361-5.165-.845-5.538-.329-5.774.329-5.353.939-4.835 1.549-4.273 2.066-3.757 2.535-3.145 3.052-2.535 3.427-1.829 3.849-1.128 4.226-.376 4.507.47 4.789 1.501 4.271 2.396 3.804 3.333 3.286 4.179 2.723 5.022 2.206 5.823 1.643 18.167 3.709 5.025 1.549 3.521 2.16 2.065 2.77.658 3.474-.752 3.662-2.113 3.098-3.428 2.348-4.6 1.502-5.587.516-5.446-.375-4.883-1.22-4.177-2.02-3.287-2.957-2.205-3.85h-18.406l1.08 4.789 1.832 4.225 2.489 3.756 3.145 3.193 3.709 2.722 4.225 2.206 4.601 1.691 5.022 1.221 5.259.703 5.541.235 5.492-.235 5.165-.703 4.789-1.127 4.318-1.597 3.897-2.065 3.379-2.488 2.772-2.911 2.299-3.334 1.644-3.755 1.031-4.179zM759.259 207.786l-5.399-14.648-3.427 1.925-3.615 1.408-3.615.892-3.475.282-4.601-.611-3.801-1.83-2.911-3.099-1.832-4.319-.658-5.634v-39.436h28.639V128.21h-28.639v-25.915h-17.511v25.915h-17.981v14.506h17.981v40.61l.33 5.352.844 4.882 1.41 4.32 1.923 3.849 2.441 3.287 2.866 2.77 3.333 2.3 3.709 1.737 4.082 1.268 4.461.751 4.741.235 5.119-.329 4.928-1.08 5.117-1.971zM850 128.271h-17.511v41.783l-.376 5.117-1.174 4.647-1.783 4.226-2.348 3.756-2.863 3.239-3.239 2.677-3.615 2.159-3.851 1.549-4.037.94-4.131.327-4.507-.327-4.227-.94-3.895-1.549-3.569-2.159-3.193-2.677-2.675-3.239-2.205-3.756-1.644-4.226-1.034-4.647-.328-5.117.328-5.024 1.034-4.647 1.644-4.225 2.205-3.756 2.675-3.24 3.193-2.723 3.569-2.16 3.895-1.596 4.227-.938 4.507-.329 4.131.329 4.037.938 3.851 1.596 3.615 2.16 3.239 2.723 2.863 3.24 2.348 3.756 1.783 4.225 1.174 4.647.376 5.024v-32.159l-3.288-3.052-3.66-2.629-4.037-2.206-4.367-1.737-4.695-1.315-4.977-.751-5.304-.282-4.319.235-4.225.704-4.133 1.127-3.943 1.596-3.803 1.972-3.567 2.347-3.333 2.723-3.053 3.099-2.721 3.427-2.396 3.755-2.019 4.085-1.642 4.366-1.221 4.648-.752 4.882-.234 5.165.234 5.164.752 4.929 1.221 4.648 1.642 4.366 2.019 4.085 2.396 3.756 2.721 3.427 3.053 3.098 3.333 2.723 3.567 2.348 3.803 1.971 3.943 1.55 4.133 1.127 4.225.656 4.319.235 5.304-.235 4.977-.797 4.695-1.268 4.367-1.737 4.037-2.207 3.66-2.675 3.288-3.006v9.578H850z"/></svg>