<svg width="900" height="312" viewBox="0 0 900 312" fill="none" xmlns="http://www.w3.org/2000/svg">
<path d="M406.073 23L370.666 150.281H232.496L267.77 23H406.073ZM200.948 288.202H239.151L240.483 283.414C232.23 282.35 225.707 279.025 226.24 270.114C227.038 258.011 238.619 222.367 249.401 179.807H249.8L257.388 288.335H262.579L330.466 179.275L330.732 179.408L307.704 263.996C304.642 275.966 301.314 281.685 289.201 283.414L287.87 288.202H339.651L340.982 283.414C331.398 282.616 327.005 278.36 327.404 271.71C327.937 262.533 349.634 188.319 352.429 178.876C355.225 169.566 359.218 166.241 367.604 165.842L368.935 161.054H332.862L275.624 253.356H275.358L268.569 161.054H230.765L229.434 165.842C237.022 165.975 243.278 167.172 242.879 173.822C242.479 179.142 227.97 229.416 217.854 265.326C214.393 277.695 210.932 282.483 202.28 283.414L200.948 288.202ZM405.94 208.535C404.077 205.875 400.483 200.954 392.363 200.954C367.072 200.954 346.572 239.79 345.507 262.267C344.709 277.163 351.231 288.335 364.409 288.335C374.659 288.335 383.311 280.887 389.434 271.843H389.967C389.7 273.572 389.301 275.434 389.168 277.296C388.769 284.744 391.564 288.202 397.82 288.202C408.336 288.202 417.787 274.237 421.647 267.986L419.384 265.326C414.859 271.71 410.599 275.7 408.336 275.7C406.872 275.7 405.807 274.769 405.94 272.907C406.206 268.119 416.19 233.938 425.241 200.688H408.469L405.94 208.535ZM401.547 218.377C401.015 229.283 390.632 277.429 372.529 277.429C364.809 277.429 363.478 272.242 364.01 263.065C364.809 246.041 378.785 207.737 393.561 207.737C400.083 207.737 401.814 212.259 401.547 218.377ZM444.542 168.236C451.065 168.369 454.126 168.901 453.86 173.955C453.461 181.536 427.105 264.927 426.439 278.094C426.173 284.611 429.9 288.335 436.822 288.335C450.932 288.335 459.584 272.109 462.646 265.991L459.717 263.863C457.987 266.656 453.062 275.833 447.87 275.833C446.007 275.833 445.208 274.636 445.208 272.774C445.474 267.986 459.318 222.367 472.23 174.62C473.561 169.433 475.424 163.847 475.424 162.384C475.424 161.187 475.025 160.788 474.226 160.788C471.83 160.788 452.13 163.448 445.341 164.113L444.542 168.236ZM521.88 264.661C513.627 273.971 504.975 277.695 499.118 277.695C489.8 277.695 485.541 271.444 486.073 261.735C486.206 258.942 486.739 255.484 487.404 252.425C502.845 248.568 536.789 238.859 537.854 216.515C538.386 205.875 530.799 200.954 519.085 200.954C493.661 200.954 469.035 231.677 467.571 261.203C466.772 278.36 475.291 288.335 489.534 288.335C504.576 288.335 517.754 278.493 525.474 269.05L521.88 264.661ZM488.735 245.775C491.131 234.603 502.18 207.737 515.491 207.737C519.75 207.737 522.013 211.062 521.747 215.318C521.082 231.411 499.917 241.785 488.735 245.775ZM544.243 211.195H555.824C548.236 238.726 538.386 269.715 537.854 277.695C537.454 285.01 540.782 288.335 548.636 288.335C561.547 288.335 572.329 272.641 576.589 266.257L573.661 263.597C567.804 271.577 563.012 276.631 559.684 276.631C557.687 276.631 556.489 275.035 556.622 272.907C556.889 268.119 565.94 238.726 573.661 211.195H590.566L592.562 203.082H575.79L582.712 177.413H577.521C571.797 192.043 560.483 201.22 545.84 204.412L544.243 211.195ZM594.426 211.195H606.007C598.419 238.726 588.569 269.715 588.037 277.695C587.637 285.01 590.965 288.335 598.819 288.335C611.73 288.335 622.512 272.641 626.772 266.257L623.844 263.597C617.987 271.577 613.195 276.631 609.867 276.631C607.87 276.631 606.672 275.035 606.805 272.907C607.072 268.119 616.123 238.726 623.844 211.195H640.749L642.745 203.082H625.973L632.895 177.413H627.704C621.98 192.043 610.666 201.22 596.023 204.412L594.426 211.195ZM644.076 209.067C650.998 209.2 654.06 210.131 653.927 214.786C653.794 218.643 638.752 267.454 638.353 277.562C638.22 284.345 641.947 288.335 648.336 288.335C662.446 288.335 670.699 271.843 673.627 265.991L670.566 263.996C668.835 266.789 664.176 275.833 659.651 275.833C657.92 275.833 656.855 275.168 656.988 272.109C657.255 264.262 672.695 213.323 674.027 208.535C675.091 204.811 675.757 203.082 675.89 201.752C675.89 200.821 674.958 200.555 674.027 200.555C671.897 200.555 658.719 203.215 645.008 204.944L644.076 209.067ZM673.494 160.522C667.77 160.522 662.978 165.709 662.845 171.827C662.712 178.078 667.238 183.132 672.962 183.132C678.685 183.132 683.478 177.945 683.611 171.827C683.744 165.709 679.218 160.522 673.494 160.522ZM210.666 150.414C217.587 150.414 223.577 145.094 223.577 137.114C223.577 129.134 217.587 123.814 210.666 123.814C203.611 123.814 197.621 129.134 197.621 137.114C197.621 144.695 203.078 150.414 210.666 150.414ZM210.666 126.208C216.389 126.208 220.782 130.73 220.782 137.114C220.782 143.631 216.256 148.02 210.666 148.02C204.409 148.02 200.416 143.099 200.416 137.114C200.416 130.73 204.942 126.208 210.666 126.208ZM208.003 138.444H210.266L213.993 144.695H216.789L212.662 138.311C214.925 138.045 216.522 136.981 216.522 134.321C216.522 131.395 214.659 130.065 211.198 130.065H205.607V144.695H208.003V138.444ZM208.003 136.449V132.193H210.932C212.396 132.193 214.126 132.459 214.126 134.188C214.126 136.316 212.529 136.449 210.666 136.449H208.003ZM85.4077 161.054L50 288.335H188.303L223.71 161.054H85.4077ZM710.366 161.054L675.091 288.335H813.394L848.802 161.054H710.366Z" fill="#585857"/>
<path d="M346.972 99.475C339.651 99.608 332.596 104.529 329.667 111.179H317.155V71.678H327.937V96.682C335.923 89.633 347.77 86.973 358.02 90.83C366.672 93.756 374.659 102.401 376.789 111.179H365.341C362.413 103.997 354.825 99.209 346.972 99.475ZM455.458 71.811H444.809V111.179H455.458V71.811ZM599.617 99.608C607.338 99.475 614.526 104.13 617.854 111.179H630.499V72.343H619.983V97.214L619.584 97.48C612.529 91.628 603.877 88.037 594.027 90.032C583.777 91.628 573.661 101.071 571.265 111.179H582.579C585.507 104.396 592.562 99.874 599.617 99.608ZM404.742 89.899C394.492 91.628 384.243 100.938 381.847 111.179H393.161C396.356 104.396 403.544 99.209 411.265 99.475C418.586 99.741 425.641 104.396 428.436 111.179H439.617C438.952 108.519 438.153 105.992 436.556 103.731C429.767 92.692 417.521 87.372 404.742 89.899ZM519.883 111.046C519.883 111.046 520.283 109.317 521.081 107.987C525.075 101.736 531.065 99.076 538.12 99.475C544.775 100.14 551.298 104.795 553.827 111.046H565.141C564.609 107.987 562.879 105.327 561.414 102.667C559.151 99.209 555.69 96.017 552.096 93.623C542.646 87.372 527.737 88.303 518.819 94.953C513.095 99.076 508.968 104.795 507.903 111.046H519.883ZM663.511 99.608C671.098 99.475 678.153 104.396 681.481 111.179H692.529C689.068 96.283 671.897 87.106 657.521 90.298C647.67 92.16 637.687 101.204 635.424 111.179H646.606C649.667 104.662 656.19 99.608 663.511 99.608ZM710.1 105.859C712.762 101.869 716.888 101.071 721.281 100.805V89.5C715.557 89.101 711.298 92.027 707.837 96.15V90.697H697.72V111.046H708.236C708.902 109.184 709.035 107.322 710.1 105.859ZM731.398 111.046L732.463 109.051C736.456 102.534 743.111 98.943 750.699 99.608C757.088 100.273 763.344 105.061 766.007 111.046H777.454L776.256 107.588C770.799 95.219 757.754 87.771 744.176 89.899C732.862 91.495 722.479 101.071 720.083 111.179C720.083 111.046 731.131 111.046 731.398 111.046ZM477.022 111.046L469.434 90.431H457.987C460.649 97.347 463.045 104.263 465.973 111.046H477.022ZM503.245 111.046L511.364 90.564H500.316L492.729 111.046H503.245ZM797.554 115.302H778.652L778.785 122.617H797.554V123.947H378.253L378.652 122.75H380.649C380.383 121.021 380.25 117.829 380.516 116.765V116.366L380.782 115.435H380.649L381.048 114.105H797.554V115.302ZM444.409 115.302H441.081V122.617H444.409V115.302ZM470.1 122.75L467.171 115.435H455.591V122.75H470.1ZM490.466 115.302H478.752L481.414 122.617H487.804L490.466 115.302ZM506.306 115.302H501.78L498.719 122.75H506.306V115.302ZM569.8 122.75V115.435H566.339L566.473 122.75H569.8ZM619.451 122.75C619.584 120.489 619.717 117.696 619.318 115.435H581.647C581.248 117.696 580.582 120.489 581.248 122.75H619.451ZM633.827 122.75V115.435H630.765V122.75H633.827ZM697.454 115.302H693.594L693.86 122.75H697.321V115.302H697.454ZM718.619 115.302H708.502V122.75H718.619V115.302ZM378.652 122.75L378.253 123.947H298.519V122.75H316.755V115.302H298.386V114.105H380.915L380.516 115.435H377.854V122.883H378.652V122.75ZM366.805 122.75C366.938 120.223 366.539 117.164 366.007 115.302H327.937C327.804 116.765 327.937 120.622 328.07 122.75H366.805ZM357.754 148.286C366.938 145.36 375.324 136.183 377.188 126.873H366.672C363.744 134.055 355.491 139.641 347.504 139.375C339.651 139.375 332.063 134.188 329.401 126.873H319.018C320.083 131.262 322.08 135.119 325.008 138.71C332.729 148.419 345.641 152.409 357.754 148.286ZM406.739 138.976C400.882 137.912 394.759 132.858 392.895 126.873H381.581C382.379 130.996 384.243 134.454 386.772 137.912C394.093 147.355 405.141 151.212 416.589 149.084C426.04 147.355 435.89 139.774 438.685 130.331H426.972C422.446 137.38 414.859 140.705 406.739 138.976ZM444.809 148.02H455.324V127.006H444.809V148.02ZM484.609 131.129L482.612 127.006H471.83L479.817 148.02H487.937L496.456 127.006H486.472L484.609 131.129ZM532.396 138.976C526.406 137.779 520.682 132.725 518.419 126.873H507.238C508.037 130.065 509.235 132.858 510.832 135.518C517.221 145.626 528.003 150.414 539.584 149.35C550.1 148.419 560.882 140.705 564.077 130.331H552.496C548.103 137.247 540.116 140.572 532.396 138.976ZM600.416 139.641C592.296 140.04 584.975 134.188 581.913 127.006H570.998C571.93 131.129 573.794 134.853 576.19 138.178C583.777 147.621 595.491 151.744 607.205 148.685C616.922 146.291 626.905 136.981 629.035 127.006H618.519C615.591 134.188 608.136 139.641 600.416 139.641ZM661.248 139.375C654.459 138.843 648.336 132.991 645.807 126.873H634.892C640.349 144.163 652.196 150.946 668.835 149.217C678.552 147.887 688.536 140.04 691.464 130.464H680.017C675.624 137.247 668.569 140.306 661.248 139.375ZM697.72 148.02H708.236V127.006H697.72V148.02ZM748.835 139.641C740.982 140.04 733.66 134.055 730.732 127.006H719.684C720.482 130.464 722.08 133.922 724.21 136.981C731.531 147.089 743.111 151.744 755.358 149.084C764.276 147.355 773.461 139.641 776.389 130.73H764.676C760.948 136.449 755.225 139.375 748.835 139.641Z" fill="#9E9D9C"/>
</svg>
