<svg xmlns="http://www.w3.org/2000/svg" width="900" height="312" fill="none"><mask id="a" width="800" height="207" x="50" y="52" maskUnits="userSpaceOnUse" style="mask-type:luminance"><path fill="#fff" d="M50 52h800v206.933H50z"/></mask><g mask="url(#a)"><path fill="#931714" d="M50 52h278.533v165.6H50z"/><path fill="#f9f9fa" d="M121.733 118.4c-1.333-3.333-3.866-9.6-17.333-9.6-7.867 0-19.467 3.733-19.467 19.467 0 10 5.6 19.066 19.467 19.066 9.067 0 15.333-3.6 17.333-10.533h16.4c-3.333 12.133-14.4 20.533-34.133 20.533-20.8 0-35.867-10-35.867-29.2s15.867-29.466 36-29.466c23.467 0 32.934 11.466 33.867 19.733m18.533-18.267H191.2c26.4 0 31.867 16 31.867 26.534 0 12-6.667 29.2-32.534 29.2h-34m16-9.6h16c13.334 0 17.867-9.6 17.867-18.667 0-16.4-11.067-17.733-18-17.733h-15.733v36.4zM300 110h-41.6v11.733h38.267v9.867H258.4V146h43.467v9.867H242.4v-55.734H300"/><path fill="#fff" d="M212 174.933 176.8 217.6l.667.533L226 173.2l.4-.533-9.733-4 24.266-35.2v-6.8L200.267 172M298.8 68l-32.4 30.267h6.533L300 69.2"/><path fill="#000" d="M69.2 258.133H52.933v-21.866h16.134v2.533h-13.2v6.667H68v2.666H55.867v7.334h13.466m18-19.2h2.934v21.866h-3.334L75.6 240.4v17.733h-2.933v-21.866h3.6l11.066 17.6m23.734 4.266h-16.4v-21.866H110.8v2.533H97.733v6.667h12.134v2.666H97.733v7.334h13.334m6.8 2.666H114.8v-21.866h10.267c3.6 0 7.333 1.2 7.333 5.866 0 3.2-1.733 4.4-3.067 5.2 1.334.534 2.534 1.067 2.667 4.134l.133 4c0 1.2.134 1.733 1.067 2.133v.533h-3.733c-.4-1.333-.534-4.666-.534-5.466 0-1.734-.4-3.867-4-3.867h-7.2m.134-2.667h6.933c2.133 0 4.533-.533 4.533-3.733s-2.533-3.6-4-3.6h-7.466zm28 .267h9.733v11.733h-2l-.667-2.8c-1.466 2.134-4.266 3.467-7.333 3.467-3.733 0-5.6-1.333-6.8-2.4-3.333-3.2-3.467-6.933-3.467-9.2 0-5.333 3.334-11.333 10.534-11.333 4.133 0 8.8 2.266 9.333 7.2h-2.933c-.934-3.867-4.134-4.534-6.667-4.534-4 0-7.2 3.067-7.2 8.8 0 4.4 1.467 9.067 7.333 9.067 1.067 0 2.934-.133 4.534-1.333 2-1.467 2.4-3.467 2.4-5.867h-6.934m14.4-12.933h2.934v21.866h-2.934zm23.467 21.866h-17.467V255.6l13.6-16.8H167.2v-2.533h16.4v2.533l-13.733 16.667H183.6m2.933-19.2h2.934v21.866h-2.934zm22.267 0h2.933v21.866H208.4L197.067 240.4v17.733h-2.934v-21.866h3.6l11.067 17.6m16.8-7.467h9.733v11.733h-2l-.666-2.8c-1.467 2.134-4.267 3.467-7.334 3.467-3.733 0-5.6-1.333-6.8-2.4-3.333-3.2-3.466-6.933-3.466-9.2 0-5.333 3.333-11.333 10.533-11.333 4.133 0 8.8 2.266 9.333 7.2H232c-.933-3.867-4.133-4.534-6.667-4.534-4 0-7.2 3.067-7.2 8.8 0 4.4 1.467 9.067 7.334 9.067 1.066 0 2.933-.133 4.533-1.333 2-1.467 2.4-3.467 2.4-5.867h-6.8m22.267-12.933h2.933v21.866h-2.933zm7.733 0h8.933c5.734 0 9.334 4.266 9.334 10.666 0 4.934-2.134 11.2-9.467 11.2h-8.8m3.067-2.533h5.733c3.867 0 6.4-3.067 6.4-8.533 0-5.467-2.533-8.267-6.667-8.267h-5.6v16.8zm35.2 2.533H277.6v-21.866h16.133v2.533h-13.2v6.667h12.134v2.666h-12.134v7.334h13.334m6.933-3.734-2.267 6.4h-3.066l8.4-21.866h3.333l8 21.866h-3.333l-2.134-6.4m-1.2-2.666-3.333-9.6-3.6 9.6zm22.134-6.4c-.134-3.334-2.934-4.4-5.467-4.4-1.867 0-5.067.533-5.067 3.866 0 1.867 1.334 2.4 2.667 2.8l6.267 1.467c2.933.667 5.066 2.4 5.066 5.867 0 5.2-4.933 6.666-8.666 6.666-4.134 0-5.734-1.2-6.667-2.133-1.867-1.733-2.267-3.467-2.267-5.6h2.8c0 4 3.334 5.067 6.134 5.067 2.133 0 5.733-.534 5.733-3.734 0-2.266-1.067-3.066-4.667-3.866L322 247.6c-1.467-.4-4.667-1.333-4.667-5.2 0-3.467 2.267-6.8 7.6-6.8 7.734 0 8.534 4.533 8.667 6.933m74.267-151.866c-1.067-2.667-3.2-7.6-14.667-7.6-6.667 0-16.533 2.933-16.533 15.333 0 7.867 4.666 14.933 16.533 14.933 7.733 0 13.067-2.8 14.667-8.266h13.866c-2.8 9.466-12.266 16.133-28.933 16.133-17.733 0-30.4-7.867-30.4-22.933 0-15.067 13.467-23.067 30.533-23.067 19.867 0 28 9.067 28.667 15.467M469.067 75.2c8.8 0 31.866 2.533 31.866 23.067s-23.2 23.066-31.866 23.066S437.2 118.8 437.2 98.267c0-20.534 23.067-23.067 31.867-23.067m0 38.267c7.466 0 18-3.067 18-15.334s-10.534-15.333-18-15.333c-7.467 0-18 3.067-18 15.333s10.533 15.334 18 15.334M520 76.4h33.6c17.733 0 20.933 8.533 20.933 12.4 0 4.8-3.733 8.933-10.266 10.4 5.466 1.6 8.4 2.933 8.4 11.067 0 6.4 0 8 2.933 8.666v1.2h-15.333c-.934-2.133-1.467-4.266-1.467-8.8 0-6-.533-8.266-10.8-8.266h-14.4v17.066H520M549.867 95.6c7.2 0 10.666-1.6 10.666-6 0-2.267-1.6-5.733-9.733-5.733h-17.333V95.6zm85.2-19.2H648v43.733h-13.867l-27.066-31.2h-.134v31.2h-13.066V76.4h14.666l26.4 30.4h.134M718 84.133h-35.2v9.2h32.4v7.734h-32.4V112.4h36.8v7.733h-50.4V76.4H718m34.533 35.733H785.6v8h-46.933V76.4h13.866m64.4 35.733H850v8h-46.933V76.4h13.866M365.467 154H394.8c22.4 0 27.067 12.533 27.067 20.8 0 9.333-5.6 22.933-27.6 22.933h-28.8m13.733-7.6h13.467c11.333 0 15.066-7.466 15.066-14.666 0-12.934-9.333-14-15.333-14h-13.333v28.666zm114.533-7.733c0 11.467-10.533 16.4-27.333 16.4-6.133 0-15.2-.933-21.067-5.333-3.6-2.667-4.933-6.267-5.2-10.534V154h14.134v28.4c0 6.133 5.333 8.8 11.866 8.8 9.6 0 13.467-3.067 13.467-8.4V154h14.133m21.734 0h32.266c16.267 0 20.4 6.667 20.4 11.2 0 6.267-5.333 8-8.133 8.933 8.133 2 10.267 6.267 10.267 10.534 0 3.466-2.267 6.8-5.734 9.066-3.733 2.4-7.466 4-21.066 4h-28.134m13.467-26.666h16.267c5.466 0 9.866-1.334 9.866-4.934s-3.866-4.666-10.133-4.666h-15.867v9.6zm0 19.066h17.067c6.8 0 10.666-2 10.666-6.4 0-3.866-4.933-5.333-10-5.333H528.8zM589.333 154H603.2v43.733h-13.867zm48.934 35.867h33.066v7.866H624.4V154h13.867M688 154h13.867v43.733H688zm83.867 7.733h-35.334v9.2h32.4v7.734h-32.4V190h36.8v7.733h-50.4V154h48.934m20.933 0h33.6c17.733 0 20.933 8.533 20.933 12.4 0 4.8-3.733 8.933-10.266 10.4 5.466 1.6 8.4 2.933 8.4 11.067 0 6.4 0 8 2.933 8.666v1.2h-15.333c-.934-2.133-1.467-4.266-1.467-8.8 0-6-.533-8.266-10.8-8.266h-14.4v17.066h-13.6m30-24.533c7.2 0 10.667-1.6 10.667-6 0-2.267-1.6-5.733-9.734-5.733H806.4V173.2z"/></g></svg>