<svg width="900" height="312" viewBox="0 0 900 312" fill="none" xmlns="http://www.w3.org/2000/svg">
<path fill-rule="evenodd" clip-rule="evenodd" d="M523.171 109.728C538.122 107.197 554.675 108.06 570.222 106.284C570.118 112.733 567.196 119.019 565.702 125.441L567.142 126.383L604.92 126.129L600.733 142.115L561.586 142.736C556.222 158.672 552.118 175.218 547.545 191.522C547.618 195.706 550.916 198.118 554.353 199.925C566.275 199.925 580.254 201.767 590.71 197.625L585.77 215.852L520.725 216.372C511.862 214.985 502.806 206.81 501.044 198.538L501.415 186.791C509.014 161.348 515.831 135.373 523.171 109.728ZM372.285 128.078C384.087 144.673 394.93 161.504 404.744 178.962C386.421 192.065 367.817 204.502 349.297 216.887L349.338 217.851L379.821 217.335L414.319 194.085C419.506 201.37 424.479 208.836 427.265 217.131L485.838 216.518C484.575 216.199 483.549 214.696 482.524 213.96L454.001 167.17L511.862 127.66L511.809 126.721L476.905 127.857C468.211 138.594 454.976 143.918 444.031 151.843C439.231 143.985 432.633 136.897 431.451 127.66L372.285 128.078ZM750.725 125.664L751.412 130.174L730.435 207.653L725.334 215.308H780.701L779.539 209.11L793.117 156.742C793.672 153.696 796.225 150.641 799.222 149.283C810.744 149.456 827.856 145.586 838.444 151.843L845.248 125.838C827.926 128.542 804.516 117.982 794.533 136.305C792.879 133.296 793.801 129.309 793.57 125.691L750.725 125.664ZM204.432 94.5077L92.939 94.9811L93.1266 103.692L64.5028 204.917L56.6255 219.373L175.777 219.304C186.556 219.546 195.789 216.171 200.699 207.622C204.275 195.063 210.7 183.25 209.249 169.254C207.51 163.81 203.406 158.789 198.285 155.49C203.332 154.082 208.361 152.26 212.32 148.421C220.772 137.711 223.356 124.237 223.696 111.007C221.783 102.911 213.169 95.8963 204.432 94.5077ZM144.086 115.177L173.321 115.42C177.384 117.641 175.912 123.328 174.969 126.352C172.406 132.464 172.583 140.592 166.595 144.654L133.068 144.8L144.086 115.177ZM127.182 165.316L158.25 165.188C162.552 167.015 161.464 172.882 160.293 176.13C156.356 183.2 160.884 194.084 152.49 198.021L118.682 197.974C120.124 187.16 124.36 176.149 127.182 165.316ZM336.352 128.623L238.55 128.943L231.647 145.469C255.224 142.065 280.699 144.337 304.296 143.714C306.348 144.654 307.404 146.7 307.643 148.769C306.692 151.6 306.96 155.392 303.531 156.964L239.17 158.401L227.956 163.637C218.818 173.076 216.825 185.22 216.039 197.876C216.587 205.242 221.781 211.992 228.518 215.853C243.513 220.314 264.51 218.122 282.244 217.609C286.315 216.589 288.981 212.555 290.907 209.307C292.378 211.961 293.507 214.939 294.38 217.771L340.406 217.975L338.922 211.769L352.509 161.652C354.634 155.172 356.688 146.083 352.083 140.293C348.976 134.479 342.478 130.784 336.352 128.623ZM300.039 174.597L293.197 198.904L290.243 201.223L267.01 201.593C257.007 196.1 266.697 184.969 267.58 177.013L271.35 174.678L300.039 174.597ZM718.855 126.574L630.581 126.129C623.913 127.362 617.914 131.232 613.811 136.945C607.706 155.956 601.976 175.172 598.543 195.237C600.103 204.503 607.522 213.61 617.706 215.736L714.62 215.482L722.174 196.793L717.337 198.812L650.914 199.305L647.439 197.676C642.104 191.523 648.448 185.193 649.131 178.914L729.068 177.638C731.254 164.928 740.096 152.311 733.596 138.595C730.864 133.152 724.755 128.155 718.855 126.574ZM662.385 142.978L683.807 142.637C685.808 143.151 688.068 144.997 688.751 147.091C688.595 151.6 687.706 155.985 685.911 160.165L654.415 160.691C657.153 154.773 656.178 146.673 662.385 142.978Z" fill="#252969"/>
</svg>
