<svg xmlns="http://www.w3.org/2000/svg" width="900" height="312" fill="none"><g clip-path="url(#a)"><mask id="b" width="800" height="149" x="50" y="81" maskUnits="userSpaceOnUse" style="mask-type:luminance"><path fill="#fff" d="M50 81h800v149H50z"/></mask><g mask="url(#b)"><path fill="#234972" d="M50 94.432h48.592l-25.618 39.511c-5.821 8.439-9.226 18.659-9.226 29.681 0 28.927 23.496 52.374 52.493 52.374 28.81 0 52.196-23.16 52.485-51.834l13.824-.013v64.095H50z"/><path fill="#afada9" d="M150.742 139.718a41.65 41.65 0 0 1 7.387 23.743c0 23.146-18.85 41.908-42.037 41.908-23.196 0-42.045-18.762-42.045-41.909a41.7 41.7 0 0 1 7.387-23.742l28.988-45.284v56.477c-4.826 2.205-8.183 7.069-8.183 12.713 0 7.713 6.268 13.967 14.004 13.967 7.729 0 13.996-6.254 13.996-13.967 0-5.644-3.356-10.507-8.175-12.713V94.434l28.68 45.284"/><path fill="#234972" fill-rule="evenodd" d="M849.992 224.67v-15.221c-6.096.952-9.15 1.137-13.152 1.137-11.635 0-15.259-3.617-15.259-14.844v-49.469h28.411v-16.18h-28.411V99.461l-27.843 9.891v20.74H781.54v16.181h12.198v53.661c0 21.686 8.011 29.68 29.943 29.68 5.91 0 11.628-1.136 26.311-4.944m-81.981-70.597v-23.028c-3.432-1.712-6.487-2.281-10.874-2.281-4.193 0-13.727 3.233-24.978 8.754v-7.425h-27.074v98.193h27.834v-76.877c3.624-.952 10.112-1.712 13.921-1.712 8.011 0 14.684 1.328 21.171 4.376m-105.039 14.652h-34.137c0-17.7 5.533-25.687 17.93-25.687 12.013 0 16.207 6.658 16.207 25.687m27.264 15.413c0-16.748-.569-22.837-2.662-29.303-5.341-17.509-18.878-26.64-39.286-26.64-29.174 0-47.103 19.974-47.103 52.711 0 31.776 16.975 49.094 48.057 49.094 7.434 0 17.353-1.521 36.422-5.713v-14.268c-10.304 1.329-18.115 1.904-25.363 1.904-22.879 0-31.466-7.617-31.466-27.783zm-129.282-4.761c0 21.502-10.49 33.112-29.937 33.112-2.292 0-4.579-.192-8.01-.568v-62.224c4.955-.953 8.203-1.337 12.774-1.337 16.021 0 25.172 11.228 25.172 31.016zm28.795-2.85c0-29.495-15.444-48.333-39.662-48.333-6.486 0-12.204 1.713-27.078 7.61V80.998h-27.843v142.528c16.784 4.185 29.365 6.281 39.476 6.281 32.797 0 55.107-21.502 55.107-53.28m-136.697-7.802h-34.129c0-17.7 5.533-25.687 17.923-25.687 12.019 0 16.206 6.658 16.206 25.687m27.272 15.413c0-16.748-.569-22.837-2.67-29.303-5.341-17.509-18.877-26.64-39.285-26.64-29.174 0-47.096 19.974-47.096 52.711 0 31.776 16.969 49.094 48.058 49.094 7.433 0 17.353-1.521 36.414-5.713v-14.268c-10.297 1.329-18.115 1.904-25.358 1.904-22.884 0-31.465-7.617-31.465-27.783zm-131.953 44.148h27.84v-98.193h-27.84zm30.705-123.497c0-9.515-4.579-12.94-16.784-12.94-12.012 0-16.591 3.617-16.591 12.939 0 9.515 4.579 13.126 16.591 13.126 12.205 0 16.784-3.611 16.784-13.125M334.67 228.286v-19.03h-47.288V93.939h-28.796v134.348z" clip-rule="evenodd"/></g></g><defs><clipPath id="a"><path fill="#fff" d="M50 81h800v149H50z"/></clipPath></defs></svg>