<svg width="900" height="312" viewBox="0 0 900 312" fill="none" xmlns="http://www.w3.org/2000/svg">
<path d="M349.019 180.141C347.734 180.141 346.466 180.686 345.496 181.64C337.499 188.919 329.909 192.004 320.023 192.004C301.501 192.004 287.003 176.529 287.003 156.778V156.561C287.003 136.59 301.166 121.548 320.023 121.548C329.429 121.548 336.968 124.582 344.701 131.392C345.886 132.186 347.112 132.624 348.228 132.624C351.228 132.624 353.848 130.082 353.848 127.169C353.848 124.964 352.447 123.425 351.615 122.714C344.792 117.038 335.734 111.27 320.173 111.27C295.161 111.27 275.544 131.256 275.544 156.774V157.056C275.544 182.848 294.561 202.293 319.767 202.293C332.768 202.293 342.602 198.448 352.525 189.378C353.648 188.39 354.327 186.902 354.327 185.434C354.33 182.612 351.836 180.141 349.019 180.141Z" fill="#53565A"/>
<path d="M393.806 134.103C376.13 134.103 362.356 149.023 362.356 168.075V168.342C362.356 187.707 376.393 202.298 395.003 202.298C404.948 202.298 412.556 199.266 419.658 192.46C420.77 191.515 421.371 190.267 421.371 188.917C421.371 186.328 419.185 184.218 416.525 184.218C415.061 184.218 414.024 184.909 413.365 185.494C408.032 190.399 402.138 192.761 395.266 192.761C383.544 192.761 374.795 184.565 373.334 172.299H419.132C421.975 172.299 424.213 169.999 424.213 167.232C424.21 150.767 413.79 134.103 393.806 134.103ZM393.499 143.385C406.57 143.385 412.304 153.923 413.307 163.982H373.331C374.793 151.832 383.041 143.385 393.499 143.385Z" fill="#53565A"/>
<path d="M444.779 109.095C441.891 109.095 439.442 111.577 439.442 114.551V195.983C439.442 199.048 441.824 201.437 444.884 201.437C447.934 201.437 450.216 199.066 450.216 195.983V114.551C450.216 111.551 447.763 109.095 444.779 109.095Z" fill="#53565A"/>
<path d="M495.609 134.103C477.971 134.103 464.186 149.023 464.186 168.075V168.342C464.186 187.707 478.209 202.298 496.87 202.298C506.778 202.298 514.412 199.266 521.472 192.46C522.577 191.515 523.179 190.267 523.179 188.917C523.179 186.328 520.973 184.218 518.31 184.218C516.864 184.218 515.861 184.909 515.177 185.494C509.851 190.399 503.95 192.761 497.082 192.761C485.374 192.761 476.663 184.565 475.181 172.299H520.917C523.74 172.299 526.009 169.999 526.009 167.232C526.011 150.767 515.575 134.103 495.609 134.103ZM495.339 143.385C508.362 143.385 514.125 153.923 515.174 163.982H475.181C476.63 151.832 484.866 143.385 495.339 143.385Z" fill="#53565A"/>
<path d="M565.387 163.033L565.127 162.944C556.979 160.499 549.283 158.133 549.283 152.579V152.312C549.283 147.224 554.165 143.647 561.106 143.647C566.256 143.647 571.963 145.335 577.588 148.54C578.027 148.758 578.889 149.092 579.974 149.092C582.651 149.092 584.839 146.981 584.839 144.392C584.839 142.597 583.83 140.905 582.176 139.871C575.622 136.365 568.05 134.35 561.401 134.35C548.095 134.35 538.856 142.128 538.856 153.291V153.547C538.856 166.111 551.402 169.667 560.549 172.276C569.418 174.732 576.126 177.08 576.126 182.97V183.199C576.126 188.944 571.041 192.763 563.46 192.763C556.714 192.763 549.991 190.519 543.473 186.093C542.749 185.521 541.755 185.194 540.737 185.194C538.074 185.194 535.883 187.309 535.883 189.898C535.883 191.777 536.908 193.196 537.869 193.897C545.049 199.01 554.455 202.077 562.94 202.077C577.017 202.077 586.444 194.086 586.444 182.225V181.969C586.441 170.319 576.032 166.187 565.387 163.033Z" fill="#53565A"/>
<path d="M633.363 145.146C636.079 145.146 638.305 142.969 638.305 140.302C638.305 137.691 636.01 135.469 633.363 135.469H617.296V121.604C617.296 118.648 614.82 116.161 611.847 116.161C608.776 116.161 606.486 118.523 606.486 121.604V135.469H601.891C599.275 135.469 597.082 137.691 597.082 140.302C597.082 142.858 599.319 145.146 601.891 145.146H606.486V183.197C606.486 195.283 613.182 201.906 625.253 201.906C628.91 201.906 631.916 201.397 634.938 200.151C636.812 199.417 638.044 197.752 638.044 195.861C638.044 193.321 635.921 191.146 633.367 191.146C633.002 191.146 632.645 191.257 632.132 191.384C631.161 191.644 629.661 192.004 627.495 192.004C620.641 192.004 617.3 188.75 617.3 181.962V145.146H633.363Z" fill="#53565A"/>
<path d="M660.206 134.857C657.289 134.857 654.854 137.346 654.854 140.302V195.983C654.854 199.048 657.294 201.437 660.311 201.437C663.408 201.437 665.699 199.066 665.699 195.983V140.302C665.699 137.264 663.25 134.857 660.206 134.857Z" fill="#53565A"/>
<path d="M734.307 183.484C733.115 183.484 732.128 183.94 731.168 184.874C725.706 190.038 719.963 192.532 713.681 192.532C700.783 192.532 690.677 181.818 690.677 168.186V167.964C690.677 154.399 700.5 143.734 713.084 143.734C720.908 143.734 726.136 147.566 730.192 151.334C731.168 152.101 732.429 152.579 733.697 152.579C736.592 152.579 738.896 150.246 738.896 147.364C738.896 145.602 737.995 144.203 737.227 143.536C730.122 137.137 722.479 134.103 713.224 134.103C694.673 134.103 679.649 149.39 679.649 168.186V168.453C679.649 187.125 694.673 202.298 713.224 202.298C722.864 202.298 730.713 198.988 737.846 191.833C738.735 190.961 739.303 189.667 739.303 188.395C739.303 185.772 736.988 183.484 734.307 183.484Z" fill="#53565A"/>
<path d="M803.408 141.863C798.602 137.037 791.498 134.593 782.25 134.593C774.599 134.593 768.035 135.954 761.002 138.959C759.486 139.57 758.007 141.336 758.007 143.514C758.007 146.063 760.244 148.247 762.86 148.247C763.462 148.247 764.126 148.062 764.808 147.835C770.185 145.391 775.529 144.268 781.238 144.268C793.178 144.268 799.767 150.266 799.767 161.12V162.519C794.847 161.202 789.071 160.015 780.634 160.015C763.045 160.015 752.549 167.975 752.549 181.333V181.615C752.549 195.105 764.904 202.158 777.149 202.158C788.48 202.158 795.6 197.058 799.763 192.269V196.37C799.763 199.264 801.978 201.435 804.973 201.435C807.957 201.435 810.196 199.135 810.196 196.097V160.987C810.196 152.795 807.914 146.323 803.408 141.863ZM779.007 193.366C771.482 193.366 763.455 189.596 763.455 181.251V180.995C763.455 173.064 770.256 168.319 781.61 168.319C787.718 168.319 793.775 169.154 799.883 170.879V176.629C799.887 186.202 790.907 193.366 779.007 193.366Z" fill="#53565A"/>
<path d="M660.438 109.062C657.048 109.062 654.263 111.84 654.263 115.205C654.263 118.577 657.051 121.326 660.438 121.326C663.772 121.326 666.541 118.577 666.541 115.205C666.546 111.84 663.772 109.062 660.438 109.062Z" fill="#53565A"/>
<path d="M189.855 116.15C189.855 121.799 185.287 126.381 179.593 126.381C173.918 126.381 169.32 121.797 169.32 116.15C169.32 110.472 173.918 105.872 179.593 105.872C185.285 105.872 189.855 110.472 189.855 116.15Z" fill="#D50032"/>
<path d="M189.855 195.238C189.855 189.582 185.287 184.985 179.593 184.985C173.918 184.985 169.32 189.582 169.32 195.238C169.32 200.928 173.918 205.492 179.593 205.492C185.285 205.492 189.855 200.928 189.855 195.238Z" fill="#D50032"/>
<path d="M139.95 145.435C145.643 145.435 150.252 150.028 150.252 155.673C150.252 161.371 145.643 165.955 139.95 165.955C134.29 165.955 129.681 161.373 129.681 155.673C129.681 150.028 134.29 145.435 139.95 145.435Z" fill="#D50032"/>
<path d="M158.845 120.483C162.863 124.482 162.863 130.981 158.845 134.96C154.816 138.97 148.316 138.97 144.302 134.96C140.302 130.981 140.302 124.484 144.302 120.483C148.314 116.451 154.814 116.451 158.845 120.483Z" fill="#D50032"/>
<path d="M214.887 176.407C210.858 172.396 204.38 172.396 200.385 176.407C196.349 180.417 196.349 186.918 200.385 190.915C204.38 194.929 210.858 194.929 214.887 190.915C218.923 186.918 218.923 180.419 214.887 176.407Z" fill="#D50032"/>
<path d="M144.302 176.407C148.315 172.396 154.816 172.396 158.845 176.407C162.862 180.417 162.862 186.918 158.845 190.915C154.816 194.929 148.315 194.929 144.302 190.915C140.3 186.918 140.3 180.419 144.302 176.407Z" fill="#D50032"/>
<path d="M200.385 120.483C196.349 124.482 196.349 130.981 200.385 134.96C204.38 138.97 210.858 138.97 214.887 134.96C218.923 130.981 218.923 124.484 214.887 120.483C210.858 116.451 204.38 116.451 200.385 120.483Z" fill="#D50032"/>
<path d="M188.306 90.1098C188.306 94.8762 184.389 98.7796 179.591 98.7796C174.793 98.7796 170.92 94.8762 170.92 90.1098C170.92 85.2879 174.793 81.4001 179.591 81.4001C184.389 81.4001 188.306 85.2879 188.306 90.1098Z" fill="#D50032"/>
<path d="M188.306 221.29C188.306 216.514 184.389 212.624 179.591 212.624C174.793 212.624 170.92 216.51 170.92 221.29C170.92 226.089 174.793 229.966 179.591 229.966C184.389 229.966 188.306 226.089 188.306 221.29Z" fill="#D50032"/>
<path d="M113.875 147.035C118.657 147.035 122.568 150.9 122.568 155.673C122.568 160.477 118.655 164.334 113.875 164.334C109.084 164.334 105.167 160.479 105.167 155.673C105.167 150.9 109.082 147.035 113.875 147.035Z" fill="#D50032"/>
<path d="M139.254 103.157C142.677 106.562 142.677 112.06 139.254 115.438C135.898 118.81 130.367 118.81 126.975 115.438C123.559 112.06 123.559 106.562 126.975 103.157C130.365 99.7917 135.898 99.7917 139.254 103.157Z" fill="#D50032"/>
<path d="M232.258 195.948C228.842 192.549 223.331 192.549 219.948 195.948C216.563 199.326 216.563 204.829 219.948 208.196C223.333 211.612 228.842 211.612 232.258 208.196C235.614 204.833 235.614 199.326 232.258 195.948Z" fill="#D50032"/>
<path d="M126.975 195.948C130.365 192.549 135.898 192.549 139.254 195.948C142.677 199.326 142.677 204.829 139.254 208.196C135.898 211.612 130.367 211.612 126.975 208.196C123.559 204.833 123.559 199.326 126.975 195.948Z" fill="#D50032"/>
<path d="M219.946 103.157C216.561 106.562 216.561 112.06 219.946 115.438C223.331 118.81 228.84 118.81 232.256 115.438C235.612 112.06 235.612 106.562 232.256 103.157C228.842 99.7917 223.331 99.7917 219.946 103.157Z" fill="#D50032"/>
<path d="M164.519 99.2798C166.099 103.172 164.236 107.663 160.33 109.262C156.435 110.905 151.971 109.039 150.311 105.136C148.698 101.219 150.545 96.7532 154.474 95.1429C158.391 93.497 162.888 95.3854 164.519 99.2798Z" fill="#D50032"/>
<path d="M208.896 206.228C207.271 202.358 202.814 200.507 198.85 202.115C194.966 203.73 193.085 208.196 194.71 212.126C196.325 216.014 200.827 217.88 204.755 216.256C208.628 214.642 210.491 210.147 208.896 206.228Z" fill="#D50032"/>
<path d="M123.047 170.786C126.976 169.136 131.466 171.042 133.109 174.919C134.729 178.829 132.848 183.306 128.957 184.9C125.011 186.509 120.525 184.671 118.916 180.761C117.309 176.862 119.174 172.399 123.047 170.786Z" fill="#D50032"/>
<path d="M128.957 126.437C132.848 128.081 134.729 132.553 133.109 136.47C131.466 140.362 126.976 142.235 123.047 140.62C119.174 138.992 117.309 134.515 118.916 130.609C120.525 126.699 125.011 124.86 128.957 126.437Z" fill="#D50032"/>
<path d="M150.311 206.228C151.969 202.358 156.435 200.507 160.33 202.115C164.236 203.73 166.101 208.196 164.519 212.126C162.89 216.014 158.391 217.88 154.474 216.256C150.545 214.642 148.698 210.147 150.311 206.228Z" fill="#D50032"/>
<path d="M194.705 99.2798C193.081 103.172 194.962 107.663 198.846 109.262C202.808 110.905 207.265 109.039 208.891 105.136C210.489 101.219 208.624 96.7532 204.751 95.1429C200.822 93.497 196.321 95.3854 194.705 99.2798Z" fill="#D50032"/>
<path d="M185.759 67.2079C185.759 71.118 182.608 74.274 178.698 74.274C174.762 74.274 171.551 71.118 171.551 67.2079C171.551 63.2734 174.762 60.0929 178.698 60.0929C182.608 60.0907 185.759 63.2734 185.759 67.2079Z" fill="#97999B"/>
<path d="M184.206 47.482C184.206 50.5158 181.717 52.9646 178.695 52.9646C175.633 52.9646 173.164 50.5158 173.164 47.482C173.164 44.4372 175.636 41.9662 178.695 41.9662C181.717 41.9662 184.206 44.4372 184.206 47.482Z" fill="#97999B"/>
<path d="M182.608 30.9056C182.608 33.0875 180.888 34.849 178.695 34.849C176.514 34.849 174.76 33.0875 174.76 30.9056C174.76 28.7615 176.514 27 178.695 27C180.888 27 182.608 28.7615 182.608 30.9056Z" fill="#97999B"/>
<path d="M186.314 244.185C186.314 240.262 183.13 237.063 179.197 237.063C175.268 237.063 172.101 240.262 172.101 244.185C172.101 248.062 175.268 251.262 179.197 251.262C183.13 251.262 186.314 248.062 186.314 244.185Z" fill="#97999B"/>
<path d="M184.741 263.873C184.741 260.819 182.276 258.382 179.197 258.382C176.164 258.382 173.692 260.819 173.692 263.873C173.692 266.927 176.164 269.382 179.197 269.382C182.274 269.38 184.741 266.927 184.741 263.873Z" fill="#97999B"/>
<path d="M183.148 280.411C183.148 278.234 181.405 276.501 179.197 276.501C177.02 276.501 175.268 278.232 175.268 280.411C175.268 282.591 177.022 284.366 179.197 284.366C181.407 284.366 183.148 282.589 183.148 280.411Z" fill="#97999B"/>
<path d="M121.071 88.2694C123.863 91.0473 123.863 95.5401 121.071 98.2846C118.321 101.085 113.813 101.085 111.059 98.3069C108.286 95.5401 108.286 91.0451 111.059 88.2694C113.815 85.4981 118.321 85.4981 121.071 88.2694Z" fill="#97999B"/>
<path d="M106.001 75.4542C108.172 77.5916 108.172 81.0813 106.001 83.2409C103.86 85.3783 100.345 85.3783 98.215 83.2631C96.0445 81.079 96.0445 77.5849 98.215 75.452C100.348 73.3057 103.86 73.3057 106.001 75.4542Z" fill="#97999B"/>
<path d="M93.1492 64.8726C94.6957 66.4117 94.6846 68.8783 93.1492 70.4063C91.6138 71.9676 89.1537 71.9676 87.5894 70.4063C86.0584 68.8783 86.0584 66.3783 87.5894 64.8726C89.1247 63.3335 91.6406 63.3335 93.1492 64.8726Z" fill="#97999B"/>
<path d="M246.85 213.043C244.095 210.265 239.576 210.265 236.811 213.043C233.989 215.801 234.039 220.302 236.811 223.069C239.576 225.851 244.073 225.851 246.812 223.069C249.611 220.302 249.611 215.801 246.85 213.043Z" fill="#97999B"/>
<path d="M259.689 228.091C257.537 225.945 254.04 225.945 251.87 228.091C249.748 230.211 249.748 233.734 251.87 235.875C254.04 238.033 257.534 238.033 259.689 235.875C261.848 233.734 261.848 230.277 259.689 228.091Z" fill="#97999B"/>
<path d="M90.2897 148.834C94.185 148.834 97.4117 152.023 97.4117 155.944C97.4117 159.854 94.185 163.033 90.2897 163.033C86.3432 163.033 83.1877 159.854 83.1877 155.944C83.1877 152.021 86.3432 148.834 90.2897 148.834Z" fill="#97999B"/>
<path d="M70.5482 150.417C73.5654 150.417 76.0345 152.884 76.0345 155.944C76.0345 158.956 73.5632 161.434 70.5482 161.434C67.493 161.434 65.0061 158.956 65.0061 155.944C65.0061 152.884 67.493 150.417 70.5482 150.417Z" fill="#97999B"/>
<path d="M53.9398 152.021C56.1326 152.021 57.8752 153.765 57.8752 155.942C57.8752 158.097 56.1348 159.852 53.9398 159.852C51.7983 159.852 50 158.097 50 155.942C50 153.767 51.7983 152.021 53.9398 152.021Z" fill="#97999B"/>
<path d="M111.42 213.425C114.169 210.647 118.7 210.647 121.45 213.407C124.242 216.203 124.242 220.696 121.45 223.447C118.671 226.212 114.169 226.212 111.42 223.447C108.638 220.669 108.638 216.203 111.42 213.425Z" fill="#97999B"/>
<path d="M98.5818 228.467C100.719 226.323 104.202 226.323 106.361 228.467C108.516 230.615 108.516 234.121 106.361 236.254C104.202 238.411 100.701 238.411 98.5484 236.267C96.4002 234.121 96.4002 230.611 98.5818 228.467Z" fill="#97999B"/>
<path d="M87.916 241.296C89.5204 239.741 91.9561 239.741 93.5204 241.284C95.029 242.826 95.029 245.295 93.5204 246.838C91.9561 248.371 89.5204 248.379 87.916 246.838C86.4251 245.306 86.4251 242.83 87.916 241.296Z" fill="#97999B"/>
<path d="M236.448 87.8979C233.642 90.6648 233.642 95.1531 236.426 97.9199C239.187 100.698 243.688 100.698 246.445 97.9199C249.25 95.1531 249.25 90.6648 246.445 87.9113C243.688 85.1334 239.209 85.1333 236.448 87.8979Z" fill="#97999B"/>
<path d="M155.133 80.3288C156.452 83.5672 154.899 87.2726 151.636 88.5893C148.365 89.9105 144.646 88.3513 143.338 85.0996C142.014 81.8457 143.594 78.1337 146.832 76.817C150.09 75.4714 153.791 77.0616 155.133 80.3288Z" fill="#97999B"/>
<path d="M147.158 64.4737C148.165 66.9892 146.957 69.8673 144.419 70.917C141.91 71.9179 139.015 70.7169 137.981 68.2014C136.945 65.6636 138.204 62.8034 140.684 61.758C143.262 60.7349 146.133 61.9404 147.158 64.4737Z" fill="#97999B"/>
<path d="M215.377 227.117C214.04 223.861 210.341 222.291 207.074 223.612C203.829 224.935 202.225 228.663 203.578 231.903C204.919 235.119 208.609 236.734 211.876 235.366C215.121 234.052 216.685 230.355 215.377 227.117Z" fill="#97999B"/>
<path d="M220.703 244.018C219.689 241.476 216.801 240.272 214.258 241.287C211.713 242.319 210.49 245.197 211.524 247.719C212.565 250.254 215.453 251.475 217.986 250.463C220.498 249.418 221.75 246.529 220.703 244.018Z" fill="#97999B"/>
<path d="M224.995 258.281C224.259 256.504 222.211 255.63 220.386 256.375C218.612 257.071 217.732 259.151 218.468 260.941C219.203 262.743 221.251 263.595 223.058 262.874C224.85 262.147 225.723 260.103 224.995 258.281Z" fill="#97999B"/>
<path d="M108.526 119.622C111.767 120.977 113.302 124.7 111.931 127.938C110.539 131.172 106.795 132.693 103.562 131.321C100.324 129.949 98.8195 126.206 100.172 122.983C101.563 119.76 105.271 118.261 108.526 119.622Z" fill="#97999B"/>
<path d="M91.6906 114.022C94.1841 115.094 95.3808 117.969 94.3 120.505C93.2215 123.014 90.3535 124.181 87.8154 123.147C85.2995 122.071 84.1139 119.159 85.1947 116.671C86.2421 114.162 89.1524 112.983 91.6906 114.022Z" fill="#97999B"/>
<path d="M77.4212 109.573C79.2195 110.316 80.0373 112.385 79.2752 114.162C78.5198 115.95 76.4541 116.815 74.6446 116.006C72.8752 115.283 72.0217 113.25 72.7905 111.444C73.566 109.64 75.6563 108.806 77.4212 109.573Z" fill="#97999B"/>
<path d="M103.406 180.263C106.655 178.953 110.39 180.508 111.698 183.739C113.011 187.018 111.475 190.728 108.215 192.047C104.944 193.359 101.236 191.793 99.9233 188.561C98.5818 185.29 100.173 181.595 103.406 180.263Z" fill="#97999B"/>
<path d="M87.5406 188.252C90.0565 187.216 92.949 188.428 93.9919 190.946C95.0148 193.475 93.798 196.381 91.2643 197.385C88.7596 198.396 85.8493 197.184 84.793 194.656C83.817 192.14 85.0092 189.251 87.5406 188.252Z" fill="#97999B"/>
<path d="M74.2942 195.138C76.1193 194.404 78.1672 195.272 78.8915 197.06C79.638 198.859 78.7756 200.903 76.9283 201.655C75.1411 202.367 73.0931 201.515 72.3979 199.718C71.6224 197.903 72.5004 195.854 74.2942 195.138Z" fill="#97999B"/>
<path d="M142.793 226.757C144.168 223.547 147.891 222.046 151.125 223.412C154.38 224.766 155.86 228.516 154.519 231.732C153.117 234.962 149.404 236.496 146.175 235.115C142.937 233.734 141.395 230.024 142.793 226.757Z" fill="#97999B"/>
<path d="M137.189 243.607C138.27 241.084 141.151 239.906 143.667 241.018C146.216 242.052 147.362 244.952 146.321 247.461C145.236 249.937 142.348 251.16 139.825 250.097C137.327 249.029 136.137 246.118 137.189 243.607Z" fill="#97999B"/>
<path d="M132.718 257.839C133.469 256.037 135.546 255.196 137.356 255.973C139.147 256.727 139.972 258.773 139.203 260.559C138.474 262.36 136.386 263.21 134.606 262.436C132.803 261.669 131.934 259.625 132.718 257.839Z" fill="#97999B"/>
<path d="M204.197 80.4774C202.811 83.7046 204.32 87.4434 207.564 88.8045C210.791 90.1879 214.575 88.6444 215.946 85.4216C217.303 82.1788 215.756 78.4667 212.511 77.09C209.271 75.711 205.543 77.2435 204.197 80.4774Z" fill="#97999B"/>
<path d="M212.356 64.7562C211.316 67.2672 212.483 70.1675 215.01 71.2151C217.499 72.2782 220.41 71.115 221.477 68.5884C222.545 66.0773 221.377 63.1837 218.872 62.1228C216.325 61.0463 213.453 62.234 212.356 64.7562Z" fill="#97999B"/>
<path d="M219.461 51.6137C218.706 53.4308 219.524 55.4904 221.375 56.2355C223.134 56.9694 225.193 56.151 225.961 54.3583C226.73 52.5745 225.872 50.5128 224.092 49.7588C222.282 48.9914 220.234 49.8366 219.461 51.6137Z" fill="#97999B"/>
<path d="M827.25 137.142H822.713V135.531H833.644V137.142H829.106V148.743H827.25V137.142Z" fill="#53565A"/>
<path d="M836.197 135.529H838.147L841.184 142.677C841.485 143.407 841.842 144.455 841.842 144.455H841.88C841.88 144.455 842.236 143.407 842.537 142.677L845.572 135.529H847.522L848.592 148.74H846.755L846.098 140.413C846.042 139.608 846.08 138.467 846.08 138.467H846.042C846.042 138.467 845.648 139.684 845.331 140.413L842.689 146.363H841.04L838.414 140.413C838.114 139.702 837.701 138.429 837.701 138.429H837.666C837.666 138.429 837.684 139.608 837.628 140.413L836.99 148.74H835.136L836.197 135.529Z" fill="#53565A"/>
</svg>
