<svg xmlns="http://www.w3.org/2000/svg" width="900" height="312" fill="none"><g clip-path="url(#a)"><mask id="b" width="181" height="182" x="50" y="65" maskUnits="userSpaceOnUse" style="mask-type:luminance"><path fill="#fff" d="M50 155.5a90.5 90.5 0 0 0 4.751 28.954c20.464-72.873 114.965-68.935 114.965-68.935s2.806.863 2.806 4.014c0 3.15-1.983 3.675-1.983 3.675s-48.523 1.125-77.74 36.043c-20.689 24.678-13.618 53.257-7.782 67.771A89.68 89.68 0 0 0 140.31 246c49.869 0 90.273-40.506 90.273-90.5S190.142 65 140.273 65 50 105.506 50 155.5"/></mask><g mask="url(#b)"><path fill="url(#c)" d="M50 155.5a90.5 90.5 0 0 0 4.751 28.954c20.464-72.873 114.965-68.935 114.965-68.935s2.806.863 2.806 4.014c0 3.15-1.983 3.675-1.983 3.675s-48.523 1.125-77.74 36.043c-20.689 24.678-13.618 53.257-7.782 67.771A89.68 89.68 0 0 0 140.31 246c49.869 0 90.273-40.506 90.273-90.5S190.142 65 140.273 65 50 105.506 50 155.5"/></g><mask id="d" width="800" height="181" x="50" y="65" maskUnits="userSpaceOnUse" style="mask-type:luminance"><path fill="#fff" d="M50 65h800v181H50z"/></mask><g mask="url(#d)"><path fill="#fff" d="M92.761 159.25c29.218-34.917 77.74-36.042 77.74-36.042s1.983-.488 1.983-3.676c0-3.187-2.806-4.013-2.806-4.013s-94.5-3.938-114.964 68.897c5.724 17.028 16.386 31.805 30.266 42.569-5.837-14.515-12.907-43.094 7.781-67.772"/><path fill="#003a57" d="M318.986 203.694h-46.277v-6.413c1.496-.113 3.03-.263 4.601-.375 1.571-.15 2.956-.375 4.115-.788 1.796-.6 3.18-1.613 4.041-3.075.86-1.463 1.309-3.376 1.309-5.701v-59.258c0-2.063-.486-3.976-1.422-5.701s-2.244-3.151-3.928-4.351c-1.234-.787-2.993-1.462-5.349-1.987-2.32-.563-4.49-.901-6.398-1.013v-6.414l33.82-2.137 1.347 1.35v78.348c0 2.251.449 4.163 1.309 5.626.861 1.5 2.245 2.625 4.115 3.3a34 34 0 0 0 4.153 1.426c1.347.375 2.881.6 4.527.712m101.197-83.711q-4.377.788-8.305 3.15c-2.619 1.575-4.864 4.388-6.772 8.439a4926 4926 0 0 0-11.859 27.229 3737 3737 0 0 0-12.72 29.779c-1.309 3-2.694 6.526-4.153 10.614a505 505 0 0 0-4.04 11.776h-7.594c-6.173-15.264-11.822-29.179-17.023-41.743-5.2-12.564-10.549-25.466-16.124-38.63-1.309-3.001-3.367-5.326-6.285-6.976-2.88-1.651-5.799-2.701-8.717-3.151v-6.413h44.37v6.826c-1.945.075-4.377.487-7.295 1.2-2.918.75-4.377 1.763-4.377 3.075 0 .188.149.713.486 1.501.337.825.636 1.725.973 2.775 2.656 6.638 6.397 15.865 11.261 27.754a3359 3359 0 0 0 11.821 28.729c2.32-5.588 5.275-12.527 8.792-20.816a1452 1452 0 0 0 11.41-27.828c.636-1.763 1.272-3.376 1.834-4.914.561-1.537.86-3.075.86-4.613 0-1.087-.524-2.1-1.609-2.963a16.6 16.6 0 0 0-3.853-2.287 27 27 0 0 0-4.377-1.463q-2.133-.507-3.479-.675v-6.226h36.663m82.454 73.398c-4.003 7.651-9.39 13.764-16.124 18.302s-14.479 6.826-23.233 6.826c-7.706 0-14.478-1.35-20.277-4.088-5.798-2.738-10.587-6.413-14.328-11.102-3.741-4.688-6.547-10.126-8.418-16.389a69.7 69.7 0 0 1-2.768-19.766c0-6.225.973-12.376 2.956-18.377 1.982-6.001 4.863-11.402 8.716-16.24 3.704-4.613 8.268-8.326 13.768-11.139 5.462-2.813 11.597-4.238 18.406-4.238s12.982 1.125 17.995 3.3c4.975 2.213 9.053 5.214 12.158 9.077 2.993 3.638 5.2 7.913 6.659 12.864s2.208 10.276 2.208 16.09v6.413h-63.487c0 6.301.599 12.039 1.796 17.177 1.197 5.139 3.105 9.677 5.686 13.577 2.544 3.788 5.836 6.751 9.914 8.927q6.116 3.263 14.591 3.263c5.649 0 10.737-1.351 14.927-4.051s8.23-7.576 12.083-14.627m-14.702-32.442c0-3.638-.3-7.501-.935-11.664-.599-4.163-1.609-7.614-2.956-10.389-1.496-2.963-3.517-5.401-6.135-7.276-2.582-1.875-5.949-2.813-10.027-2.813-6.808 0-12.458 2.85-16.947 8.514s-6.958 13.539-7.332 23.665h44.332zm190.572 59.258h-46.652v-6.413c1.497-.113 2.993-.263 4.527-.375q2.301-.225 4.041-.788c1.833-.6 3.18-1.613 4.04-3.075s1.309-3.376 1.309-5.701V137.76q0-10.126-4.601-15.64c-3.068-3.675-6.921-5.513-11.523-5.513-3.18 0-6.173.488-8.941 1.463s-5.35 2.325-7.669 4.088q-2.806 2.138-4.714 4.613c-1.272 1.65-2.207 3.038-2.881 4.163v55.433c0 2.288.374 4.125 1.16 5.588s2.095 2.588 3.966 3.375a31 31 0 0 0 4.04 1.313c1.197.3 2.768.488 4.714.638v6.413h-45.679v-6.413c1.496-.113 2.918-.263 4.339-.375 1.385-.15 2.694-.413 3.854-.788 1.795-.6 3.142-1.613 4.04-3.075.861-1.463 1.31-3.376 1.31-5.701V137.76c0-6.751-1.534-11.964-4.639-15.64q-4.602-5.513-11.56-5.513c-3.18 0-6.173.488-8.979 1.5a30.5 30.5 0 0 0-7.707 4.126c-1.87 1.425-3.479 3.038-4.788 4.838q-1.965 2.7-2.919 4.051v55.057c0 2.213.449 4.051 1.347 5.551s2.282 2.625 4.078 3.413a22.3 22.3 0 0 0 4.19 1.463c1.422.337 2.993.562 4.751.675v6.413h-46.539v-6.413c1.496-.113 3.03-.263 4.601-.375 1.572-.15 2.956-.375 4.116-.788 1.833-.6 3.18-1.613 4.04-3.075.861-1.463 1.309-3.376 1.309-5.701v-59.671c0-2.063-.486-3.938-1.421-5.588s-2.245-3.076-3.928-4.238c-1.235-.788-2.769-1.425-4.564-1.913a31 31 0 0 0-5.65-.938v-6.413l32.062-2.138 1.347 1.35v13.727h.673c1.609-1.612 3.591-3.525 5.911-5.738s4.489-4.013 6.51-5.363c2.282-1.575 5.087-2.851 8.492-3.901 3.404-1.05 7.07-1.575 11.036-1.575 6.21 0 11.56 1.688 16.05 5.026 4.451 3.338 7.669 7.388 9.614 12.114a640 640 0 0 1 6.173-6.001c1.796-1.725 4.115-3.563 7.033-5.513 2.469-1.688 5.35-3.038 8.68-4.088q4.994-1.575 11.111-1.576c8.081 0 14.478 2.663 19.229 7.989 4.714 5.326 7.071 13.502 7.071 24.566v48.832c0 2.288.374 4.125 1.16 5.588s2.095 2.588 4.003 3.375a25.5 25.5 0 0 0 4.414 1.313c1.459.3 3.105.488 4.901.638m70.557-40.581a24.2 24.2 0 0 1 6.136 8.101c1.421 3.076 2.132 6.789 2.132 11.214 0 8.889-3.329 16.165-9.951 21.828-6.659 5.664-15.264 8.476-25.814 8.476-5.574 0-10.699-1.012-15.413-3.037s-8.044-3.863-10.064-5.551l-1.945 6.338h-7.295l-.973-33.417h6.697c.523 2.55 1.608 5.513 3.292 8.889a43.2 43.2 0 0 0 6.135 9.189 33.4 33.4 0 0 0 9.091 7.238c3.517 1.95 7.52 2.925 11.897 2.925q9.315 0 14.366-4.275c3.367-2.851 5.05-6.901 5.05-12.189 0-2.738-.524-5.101-1.609-7.051-1.084-1.988-2.656-3.713-4.713-5.214q-3.2-2.25-7.857-4.05c-3.105-1.2-6.584-2.4-10.4-3.563-3.068-.9-6.435-2.175-10.138-3.751-3.741-1.575-6.921-3.45-9.578-5.588a27.5 27.5 0 0 1-6.995-8.364c-1.796-3.3-2.732-7.201-2.732-11.701 0-7.876 2.919-14.515 8.755-19.99 5.836-5.476 13.655-8.177 23.419-8.177 3.779 0 7.595.488 11.523 1.463s7.108 2.138 9.577 3.488l2.245-5.063h6.996l1.459 30.904h-6.697c-1.347-6.901-4.302-12.526-8.792-16.877-4.489-4.351-9.988-6.526-16.461-6.526-5.312 0-9.502 1.35-12.532 4.013-3.068 2.7-4.564 5.926-4.564 9.714 0 2.925.486 5.363 1.496 7.313 1.01 1.951 2.507 3.601 4.527 4.951 1.945 1.313 4.377 2.513 7.332 3.638a249 249 0 0 0 10.924 3.863 94 94 0 0 1 12.084 4.763c3.779 1.801 6.921 3.826 9.39 6.039M850 201.931c-3.03 1.126-5.724 1.988-8.006 2.701-2.282.675-4.901 1.012-7.819 1.012-5.05 0-9.091-1.2-12.084-3.563-2.993-2.362-4.938-5.813-5.799-10.389h-.561c-4.227 4.689-8.716 8.252-13.543 10.727-4.826 2.475-10.662 3.713-17.433 3.713q-10.775 0-17.733-6.638-6.958-6.639-6.958-17.328c0-3.713.523-7.013 1.571-9.939a23.9 23.9 0 0 1 4.676-7.913c1.609-1.951 3.741-3.676 6.435-5.214 2.656-1.537 5.163-2.737 7.482-3.638 2.918-1.087 8.829-3.15 17.733-6.15s14.927-5.326 18.032-7.014v-9.639c0-.862-.187-2.475-.524-4.875-.336-2.401-1.122-4.689-2.282-6.826q-1.964-3.601-5.499-6.301c-2.357-1.8-5.724-2.663-10.064-2.663-2.993 0-5.761.525-8.305 1.5-2.544 1.013-4.34 2.063-5.387 3.188 0 1.313.299 3.226.935 5.738.599 2.551.935 4.876.935 7.014 0 2.288-1.01 4.35-3.067 6.226-2.058 1.875-4.864 2.813-8.493 2.813-3.217 0-5.611-1.163-7.145-3.451-1.534-2.325-2.282-4.876-2.282-7.763 0-2.888 1.047-5.851 3.142-8.589s4.864-5.176 8.231-7.314c2.918-1.837 6.434-3.375 10.587-4.613 4.153-1.275 8.193-1.913 12.159-1.913 5.462 0 10.176.376 14.253 1.126 4.041.75 7.744 2.362 11.037 4.838 3.292 2.4 5.836 5.663 7.519 9.789 1.684 4.125 2.582 9.451 2.582 15.939 0 9.302-.113 17.515-.3 24.716a904 904 0 0 0-.299 23.516c0 2.55.449 4.538 1.309 6.038.861 1.501 2.208 2.776 4.041 3.788.973.6 2.506.901 4.601.976s4.265.075 6.473.075m-34.082-45.157c-5.499 1.613-10.326 3.226-14.478 4.801q-6.23 2.362-11.56 5.851c-3.255 2.213-5.799 4.838-7.669 7.876-1.871 3.038-2.844 6.638-2.844 10.801 0 5.401 1.422 9.377 4.228 11.927s6.397 3.826 10.737 3.826c4.601 0 8.642-1.126 12.158-3.376 3.48-2.25 6.435-4.913 8.829-7.951l.562-33.68z"/></g></g><defs><radialGradient id="c" cx="0" cy="0" r="1" gradientTransform="matrix(-84.1329 34.1287 34.0431 84.3443 160.868 126.018)" gradientUnits="userSpaceOnUse"><stop stop-color="#fff"/><stop offset=".18" stop-color="#fff"/><stop offset=".26" stop-color="#e2ece9"/><stop offset=".46" stop-color="#99bdb2"/><stop offset=".65" stop-color="#5f9786"/><stop offset=".8" stop-color="#357c67"/><stop offset=".93" stop-color="#1b6c54"/><stop offset="1" stop-color="#12664d"/></radialGradient><clipPath id="a"><path fill="#fff" d="M50 65h800v181H50z"/></clipPath></defs></svg>