<svg width="900" height="312" viewBox="0 0 900 312" fill="none" xmlns="http://www.w3.org/2000/svg">
<rect width="900" height="312" fill="none"/>
<g clip-path="url(#clip0_7_187)">
<mask id="mask0_7_187" style="mask-type:luminance" maskUnits="userSpaceOnUse" x="50" y="65" width="181" height="182">
<path d="M50 155.5C50 165.626 51.6835 175.34 54.7512 184.454C75.2151 111.581 169.716 115.519 169.716 115.519C169.716 115.519 172.522 116.382 172.522 119.533C172.522 122.683 170.539 123.208 170.539 123.208C170.539 123.208 122.016 124.333 92.7984 159.251C72.11 183.929 79.1807 212.508 85.0168 227.022C100.823 239.351 120.284 246.03 140.311 246C190.18 246 230.584 205.494 230.584 155.5C230.584 105.506 190.142 65 140.273 65C90.404 65 50 105.506 50 155.5Z" fill="none"/>
</mask>
<g mask="url(#mask0_7_187)">
<path d="M50 155.5C50 165.626 51.6835 175.34 54.7512 184.454C75.2151 111.581 169.716 115.519 169.716 115.519C169.716 115.519 172.522 116.382 172.522 119.533C172.522 122.683 170.539 123.208 170.539 123.208C170.539 123.208 122.016 124.333 92.7984 159.251C72.11 183.929 79.1807 212.508 85.0168 227.022C100.823 239.351 120.284 246.03 140.311 246C190.18 246 230.584 205.494 230.584 155.5C230.584 105.506 190.142 65 140.273 65C90.404 65 50 105.506 50 155.5Z" fill="url(#paint0_radial_7_187)"/>
</g>
<mask id="mask1_7_187" style="mask-type:luminance" maskUnits="userSpaceOnUse" x="50" y="65" width="800" height="181">
<path d="M50 65H850V246H50V65Z" fill="none"/>
</mask>
<g mask="url(#mask1_7_187)">
<path d="M92.761 159.25C121.979 124.333 170.501 123.208 170.501 123.208C170.501 123.208 172.484 122.72 172.484 119.532C172.484 116.345 169.678 115.519 169.678 115.519C169.678 115.519 75.1778 111.581 54.7139 184.416C60.4378 201.444 71.1 216.221 84.9795 226.985C79.1433 212.47 72.0726 183.891 92.761 159.213" fill="none"/>
<path d="M318.986 203.694H272.709V197.281C274.205 197.168 275.739 197.018 277.31 196.906C278.881 196.756 280.266 196.531 281.425 196.118C283.221 195.518 284.605 194.505 285.466 193.043C286.326 191.58 286.775 189.667 286.775 187.342V128.084C286.775 126.021 286.289 124.108 285.353 122.383C284.418 120.658 283.109 119.232 281.425 118.032C280.191 117.245 278.432 116.57 276.076 116.045C273.756 115.482 271.586 115.144 269.678 115.032V108.618L303.498 106.481L304.845 107.831V186.179C304.845 188.43 305.294 190.342 306.154 191.805C307.015 193.305 308.399 194.43 310.269 195.105C311.691 195.706 313.075 196.156 314.422 196.531C315.769 196.906 317.303 197.131 318.949 197.243M420.146 113.532C417.228 114.057 414.459 115.107 411.841 116.682C409.222 118.257 406.977 121.07 405.069 125.121C401.253 133.822 397.288 142.898 393.21 152.35C389.132 161.801 384.867 171.74 380.49 182.129C379.181 185.129 377.796 188.655 376.337 192.743C374.878 196.831 373.532 200.769 372.297 204.519H364.703C358.53 189.255 352.881 175.34 347.68 162.776C342.48 150.212 337.131 137.31 331.556 124.146C330.247 121.145 328.189 118.82 325.271 117.17C322.391 115.519 319.472 114.469 316.554 114.019V107.606H360.924V114.432C358.979 114.507 356.547 114.919 353.629 115.632C350.711 116.382 349.252 117.395 349.252 118.707C349.252 118.895 349.401 119.42 349.738 120.208C350.075 121.033 350.374 121.933 350.711 122.983C353.367 129.621 357.108 138.848 361.972 150.737C366.798 162.626 370.763 172.19 373.793 179.466C376.113 173.878 379.068 166.939 382.585 158.65C386.102 150.324 389.918 141.06 393.995 130.822C394.631 129.059 395.267 127.446 395.829 125.908C396.39 124.371 396.689 122.833 396.689 121.295C396.689 120.208 396.165 119.195 395.08 118.332C393.905 117.399 392.608 116.63 391.227 116.045C389.731 115.407 388.272 114.919 386.85 114.582C385.428 114.244 384.269 114.019 383.371 113.907V107.681H420.034M502.488 181.079C498.485 188.73 493.098 194.843 486.364 199.381C479.63 203.919 471.885 206.207 463.131 206.207C455.425 206.207 448.653 204.857 442.854 202.119C437.056 199.381 432.267 195.706 428.526 191.017C424.785 186.329 421.979 180.891 420.108 174.628C418.242 168.207 417.31 161.55 417.34 154.862C417.34 148.637 418.313 142.486 420.296 136.485C422.278 130.484 425.159 125.083 429.012 120.245C432.716 115.632 437.28 111.919 442.78 109.106C448.242 106.293 454.377 104.868 461.186 104.868C467.995 104.868 474.168 105.993 479.181 108.168C484.156 110.381 488.234 113.382 491.339 117.245C494.332 120.883 496.539 125.158 497.998 130.109C499.457 135.06 500.206 140.385 500.206 146.199V152.612H436.719C436.719 158.913 437.318 164.651 438.515 169.789C439.712 174.928 441.62 179.466 444.201 183.366C446.745 187.154 450.037 190.117 454.115 192.293C458.193 194.468 463.056 195.556 468.706 195.556C474.355 195.556 479.443 194.205 483.633 191.505C487.823 188.805 491.863 183.929 495.716 176.878M481.014 144.436C481.014 140.798 480.714 136.935 480.079 132.772C479.48 128.609 478.47 125.158 477.123 122.383C475.627 119.42 473.606 116.982 470.988 115.107C468.406 113.232 465.039 112.294 460.961 112.294C454.153 112.294 448.503 115.144 444.014 120.808C439.525 126.471 437.056 134.347 436.682 144.473H481.014V144.436ZM671.586 203.694H624.934V197.281C626.431 197.168 627.927 197.018 629.461 196.906C630.995 196.756 632.342 196.493 633.502 196.118C635.335 195.518 636.682 194.505 637.542 193.043C638.402 191.58 638.851 189.667 638.851 187.342V137.76C638.851 131.009 637.318 125.796 634.25 122.12C631.182 118.445 627.329 116.607 622.727 116.607C619.547 116.607 616.554 117.095 613.786 118.07C611.018 119.045 608.436 120.395 606.117 122.158C604.246 123.583 602.675 125.121 601.403 126.771C600.131 128.421 599.196 129.809 598.522 130.934V186.367C598.522 188.655 598.896 190.492 599.682 191.955C600.468 193.418 601.777 194.543 603.648 195.33C605.144 195.931 606.491 196.343 607.688 196.643C608.885 196.943 610.456 197.131 612.402 197.281V203.694H566.723V197.281C568.219 197.168 569.641 197.018 571.062 196.906C572.447 196.756 573.756 196.493 574.916 196.118C576.711 195.518 578.058 194.505 578.956 193.043C579.817 191.58 580.266 189.667 580.266 187.342V137.76C580.266 131.009 578.732 125.796 575.627 122.12C572.559 118.445 568.706 116.607 564.067 116.607C560.887 116.607 557.894 117.095 555.088 118.107C552.282 119.12 549.738 120.508 547.381 122.233C545.511 123.658 543.902 125.271 542.593 127.071C541.283 128.871 540.31 130.221 539.674 131.122V186.179C539.674 188.392 540.123 190.23 541.021 191.73C541.919 193.23 543.303 194.355 545.099 195.143C546.483 195.781 547.868 196.268 549.289 196.606C550.711 196.943 552.282 197.168 554.04 197.281V203.694H507.501V197.281C508.997 197.168 510.531 197.018 512.102 196.906C513.674 196.756 515.058 196.531 516.218 196.118C518.051 195.518 519.398 194.505 520.258 193.043C521.119 191.58 521.567 189.667 521.567 187.342V127.671C521.567 125.608 521.081 123.733 520.146 122.083C519.211 120.433 517.901 119.007 516.218 117.845C514.983 117.057 513.449 116.42 511.654 115.932C509.82 115.444 507.95 115.144 506.004 114.994V108.581L538.066 106.443L539.413 107.793V121.52H540.086C541.695 119.908 543.677 117.995 545.997 115.782C548.316 113.569 550.486 111.769 552.507 110.419C554.789 108.844 557.594 107.568 560.999 106.518C564.403 105.468 568.069 104.943 572.035 104.943C578.245 104.943 583.595 106.631 588.085 109.969C592.536 113.307 595.754 117.357 597.699 122.083C600.019 119.795 602.076 117.807 603.872 116.082C605.668 114.357 607.987 112.519 610.905 110.569C613.374 108.881 616.255 107.531 619.585 106.481C622.914 105.431 626.618 104.905 630.696 104.905C638.777 104.905 645.174 107.568 649.925 112.894C654.639 118.22 656.996 126.396 656.996 137.46V186.292C656.996 188.58 657.37 190.417 658.156 191.88C658.941 193.343 660.251 194.468 662.159 195.255C663.655 195.856 665.114 196.268 666.573 196.568C668.032 196.868 669.678 197.056 671.474 197.206M742.031 156.625C744.625 158.86 746.716 161.621 748.167 164.726C749.588 167.802 750.299 171.515 750.299 175.94C750.299 184.829 746.97 192.105 740.348 197.768C733.689 203.432 725.084 206.244 714.534 206.244C708.96 206.244 703.835 205.232 699.121 203.207C694.407 201.181 691.077 199.344 689.057 197.656L687.112 203.994H679.817L678.844 170.577H685.541C686.064 173.127 687.149 176.09 688.833 179.466C690.516 182.841 692.574 185.917 694.968 188.655C697.554 191.581 700.631 194.031 704.059 195.893C707.576 197.843 711.579 198.818 715.956 198.818C722.166 198.818 726.955 197.393 730.322 194.543C733.689 191.692 735.372 187.642 735.372 182.354C735.372 179.616 734.848 177.253 733.763 175.303C732.679 173.315 731.107 171.59 729.05 170.089C726.917 168.589 724.298 167.239 721.193 166.039C718.088 164.839 714.609 163.639 710.793 162.476C707.725 161.576 704.358 160.301 700.655 158.725C696.914 157.15 693.734 155.275 691.077 153.137C688.213 150.845 685.834 148.001 684.082 144.773C682.286 141.473 681.35 137.572 681.35 133.072C681.35 125.196 684.269 118.557 690.105 113.082C695.941 107.606 703.76 104.905 713.524 104.905C717.303 104.905 721.119 105.393 725.047 106.368C728.975 107.343 732.155 108.506 734.624 109.856L736.869 104.793H743.865L745.324 135.697H738.627C737.28 128.796 734.325 123.171 729.835 118.82C725.346 114.469 719.847 112.294 713.374 112.294C708.062 112.294 703.872 113.644 700.842 116.307C697.774 119.007 696.278 122.233 696.278 126.021C696.278 128.946 696.764 131.384 697.774 133.334C698.784 135.285 700.281 136.935 702.301 138.285C704.246 139.598 706.678 140.798 709.633 141.923C712.589 143.048 716.218 144.361 720.557 145.786C724.822 147.136 728.863 148.749 732.641 150.549C736.42 152.35 739.562 154.375 742.031 156.588M850 201.931C846.97 203.057 844.276 203.919 841.994 204.632C839.712 205.307 837.093 205.644 834.175 205.644C829.125 205.644 825.084 204.444 822.091 202.081C819.098 199.719 817.153 196.268 816.292 191.692H815.731C811.504 196.381 807.015 199.944 802.188 202.419C797.362 204.894 791.526 206.132 784.755 206.132C777.572 206.132 771.661 203.919 767.022 199.494C762.383 195.068 760.064 189.292 760.064 182.166C760.064 178.453 760.587 175.153 761.635 172.227C762.682 169.302 764.216 166.677 766.311 164.314C767.92 162.363 770.052 160.638 772.746 159.1C775.402 157.563 777.909 156.363 780.228 155.462C783.146 154.375 789.057 152.312 797.961 149.312C806.865 146.311 812.888 143.986 815.993 142.298V132.659C815.993 131.797 815.806 130.184 815.469 127.784C815.133 125.383 814.347 123.095 813.187 120.958C811.878 118.557 810.045 116.457 807.688 114.657C805.331 112.857 801.964 111.994 797.624 111.994C794.631 111.994 791.863 112.519 789.319 113.494C786.775 114.507 784.979 115.557 783.932 116.682C783.932 117.995 784.231 119.908 784.867 122.42C785.466 124.971 785.802 127.296 785.802 129.434C785.802 131.722 784.792 133.784 782.735 135.66C780.677 137.535 777.871 138.473 774.242 138.473C771.025 138.473 768.631 137.31 767.097 135.022C765.563 132.697 764.815 130.146 764.815 127.259C764.815 124.371 765.862 121.408 767.957 118.67C770.052 115.932 772.821 113.494 776.188 111.356C779.106 109.519 782.622 107.981 786.775 106.743C790.928 105.468 794.968 104.83 798.934 104.83C804.396 104.83 809.11 105.206 813.187 105.956C817.228 106.706 820.931 108.318 824.224 110.794C827.516 113.194 830.06 116.457 831.743 120.583C833.427 124.708 834.325 130.034 834.325 136.522C834.325 145.824 834.212 154.037 834.025 161.238C833.838 168.402 833.726 176.278 833.726 184.754C833.726 187.304 834.175 189.292 835.035 190.792C835.896 192.293 837.243 193.568 839.076 194.58C840.049 195.18 841.582 195.481 843.677 195.556C845.772 195.631 847.942 195.631 850.15 195.631M816.068 150.474C810.569 152.087 805.742 153.7 801.59 155.275C797.437 156.85 793.584 158.8 790.03 161.126C786.775 163.339 784.231 165.964 782.361 169.002C780.49 172.04 779.517 175.64 779.517 179.803C779.517 185.204 780.939 189.18 783.745 191.73C786.551 194.28 790.142 195.556 794.482 195.556C799.083 195.556 803.124 194.43 806.64 192.18C810.12 189.93 813.075 187.267 815.469 184.229L816.031 150.549L816.068 150.474Z" fill="#003A57"/>
</g>
</g>
<defs>
<radialGradient id="paint0_radial_7_187" cx="0" cy="0" r="1" gradientTransform="matrix(-84.1329 34.1287 34.0431 84.3443 160.868 126.018)" gradientUnits="userSpaceOnUse">
<stop stop-color="white"/>
<stop offset="0.18" stop-color="white"/>
<stop offset="0.26" stop-color="#E2ECE9"/>
<stop offset="0.46" stop-color="#99BDB2"/>
<stop offset="0.65" stop-color="#5F9786"/>
<stop offset="0.8" stop-color="#357C67"/>
<stop offset="0.93" stop-color="#1B6C54"/>
<stop offset="1" stop-color="#12664D"/>
</radialGradient>
<clipPath id="clip0_7_187">
<rect width="800" height="181" fill="none" transform="translate(50 65)"/>
</clipPath>
</defs>
</svg>
