<svg xmlns="http://www.w3.org/2000/svg" width="900" height="312" fill="none"><path fill="#53565a" d="M349.019 180.141c-1.285 0-2.553.545-3.523 1.499-7.997 7.279-15.587 10.364-25.473 10.364-18.522 0-33.02-15.475-33.02-35.226v-.217c0-19.971 14.163-35.013 33.02-35.013 9.406 0 16.945 3.034 24.678 9.844 1.185.794 2.411 1.232 3.527 1.232 3 0 5.62-2.542 5.62-5.455 0-2.205-1.401-3.744-2.233-4.455-6.823-5.676-15.881-11.444-31.442-11.444-25.012 0-44.629 19.986-44.629 45.504v.282c0 25.792 19.017 45.237 44.223 45.237 13.001 0 22.835-3.845 32.758-12.915 1.123-.988 1.802-2.476 1.802-3.944.003-2.822-2.491-5.293-5.308-5.293M393.806 134.103c-17.676 0-31.45 14.92-31.45 33.972v.267c0 19.365 14.037 33.956 32.647 33.956 9.945 0 17.553-3.032 24.655-9.838 1.112-.945 1.713-2.193 1.713-3.543 0-2.589-2.186-4.699-4.846-4.699-1.464 0-2.501.691-3.16 1.276-5.333 4.905-11.227 7.267-18.099 7.267-11.722 0-20.471-8.196-21.932-20.462h45.798a5.07 5.07 0 0 0 5.081-5.067c-.003-16.465-10.423-33.129-30.407-33.129m-.307 9.282c13.071 0 18.805 10.538 19.808 20.597h-39.976c1.462-12.15 9.71-20.597 20.168-20.597M444.779 109.095c-2.888 0-5.337 2.482-5.337 5.456v81.432c0 3.065 2.382 5.454 5.442 5.454 3.05 0 5.332-2.371 5.332-5.454v-81.432c0-3-2.453-5.456-5.437-5.456M495.609 134.103c-17.638 0-31.423 14.92-31.423 33.972v.267c0 19.365 14.023 33.956 32.684 33.956 9.908 0 17.542-3.032 24.602-9.838 1.105-.945 1.707-2.193 1.707-3.543 0-2.589-2.206-4.699-4.869-4.699-1.446 0-2.449.691-3.133 1.276-5.326 4.905-11.227 7.267-18.095 7.267-11.708 0-20.419-8.196-21.901-20.462h45.736c2.823 0 5.092-2.3 5.092-5.067.002-16.465-10.434-33.129-30.4-33.129m-.27 9.282c13.023 0 18.786 10.538 19.835 20.597h-39.993c1.449-12.15 9.685-20.597 20.158-20.597M565.387 163.033l-.26-.089c-8.148-2.445-15.844-4.811-15.844-10.365v-.267c0-5.088 4.882-8.665 11.823-8.665 5.15 0 10.857 1.688 16.482 4.893a5.5 5.5 0 0 0 2.386.552c2.677 0 4.865-2.111 4.865-4.7 0-1.795-1.009-3.487-2.663-4.521-6.554-3.506-14.126-5.521-20.775-5.521-13.306 0-22.545 7.778-22.545 18.941v.256c0 12.564 12.546 16.12 21.693 18.729 8.869 2.456 15.577 4.804 15.577 10.694v.229c0 5.745-5.085 9.564-12.666 9.564-6.746 0-13.469-2.244-19.987-6.67-.724-.572-1.718-.899-2.736-.899-2.663 0-4.854 2.115-4.854 4.704 0 1.879 1.025 3.298 1.986 3.999 7.18 5.113 16.586 8.18 25.071 8.18 14.077 0 23.504-7.991 23.504-19.852v-.256c-.003-11.65-10.412-15.782-21.057-18.936M633.363 145.146c2.716 0 4.942-2.177 4.942-4.844 0-2.611-2.295-4.833-4.942-4.833h-16.067v-13.865c0-2.956-2.476-5.443-5.449-5.443-3.071 0-5.361 2.362-5.361 5.443v13.865h-4.595c-2.616 0-4.809 2.222-4.809 4.833 0 2.556 2.237 4.844 4.809 4.844h4.595v38.051c0 12.086 6.696 18.709 18.767 18.709 3.657 0 6.663-.509 9.685-1.755 1.874-.734 3.106-2.399 3.106-4.29 0-2.54-2.123-4.715-4.677-4.715-.365 0-.722.111-1.235.238-.971.26-2.471.62-4.637.62-6.854 0-10.195-3.254-10.195-10.042v-36.816zM660.206 134.857c-2.917 0-5.352 2.489-5.352 5.445v55.681c0 3.065 2.44 5.454 5.457 5.454 3.097 0 5.388-2.371 5.388-5.454v-55.681c0-3.038-2.449-5.445-5.493-5.445M734.307 183.484c-1.192 0-2.179.456-3.139 1.39-5.462 5.164-11.205 7.658-17.487 7.658-12.898 0-23.004-10.714-23.004-24.346v-.222c0-13.565 9.823-24.23 22.407-24.23 7.824 0 13.052 3.832 17.108 7.6.976.767 2.237 1.245 3.505 1.245a5.19 5.19 0 0 0 5.199-5.215c0-1.762-.901-3.161-1.669-3.828-7.105-6.399-14.748-9.433-24.003-9.433-18.551 0-33.575 15.287-33.575 34.083v.267c0 18.672 15.024 33.845 33.575 33.845 9.64 0 17.489-3.31 24.622-10.465.889-.872 1.457-2.166 1.457-3.438 0-2.623-2.315-4.911-4.996-4.911M803.408 141.863c-4.806-4.826-11.91-7.27-21.158-7.27-7.651 0-14.215 1.361-21.248 4.366-1.516.611-2.995 2.377-2.995 4.555 0 2.549 2.237 4.733 4.853 4.733.602 0 1.266-.185 1.948-.412 5.377-2.444 10.721-3.567 16.43-3.567 11.94 0 18.529 5.998 18.529 16.852v1.399c-4.92-1.317-10.696-2.504-19.133-2.504-17.589 0-28.085 7.96-28.085 21.318v.282c0 13.49 12.355 20.543 24.6 20.543 11.331 0 18.451-5.1 22.614-9.889v4.101c0 2.894 2.215 5.065 5.21 5.065 2.984 0 5.223-2.3 5.223-5.338v-35.11c0-8.192-2.282-14.664-6.788-19.124m-24.401 51.503c-7.525 0-15.552-3.77-15.552-12.115v-.256c0-7.931 6.801-12.676 18.155-12.676 6.108 0 12.165.835 18.273 2.56v5.75c.004 9.573-8.976 16.737-20.876 16.737M660.438 109.062c-3.39 0-6.175 2.778-6.175 6.143 0 3.372 2.788 6.121 6.175 6.121 3.334 0 6.103-2.749 6.103-6.121.005-3.365-2.769-6.143-6.103-6.143"/><path fill="#d50032" d="M189.855 116.15c0 5.649-4.568 10.231-10.262 10.231-5.675 0-10.273-4.584-10.273-10.231 0-5.678 4.598-10.278 10.273-10.278 5.692 0 10.262 4.6 10.262 10.278M189.855 195.238a10.245 10.245 0 0 0-10.262-10.253c-5.675 0-10.273 4.597-10.273 10.253 0 5.69 4.598 10.254 10.273 10.254a10.225 10.225 0 0 0 10.262-10.254M139.95 145.435c5.693 0 10.302 4.593 10.302 10.238 0 5.698-4.609 10.282-10.302 10.282-5.66 0-10.269-4.582-10.269-10.282 0-5.645 4.609-10.238 10.269-10.238M158.845 120.483c4.018 3.999 4.018 10.498 0 14.477-4.029 4.01-10.529 4.01-14.543 0-4-3.979-4-10.476 0-14.477 4.012-4.032 10.512-4.032 14.543 0M214.887 176.407c-4.029-4.011-10.507-4.011-14.502 0-4.036 4.01-4.036 10.511 0 14.508 3.995 4.014 10.473 4.014 14.502 0 4.036-3.997 4.036-10.496 0-14.508M144.302 176.407c4.013-4.011 10.514-4.011 14.543 0 4.017 4.01 4.017 10.511 0 14.508-4.029 4.014-10.53 4.014-14.543 0-4.002-3.997-4.002-10.496 0-14.508M200.385 120.483c-4.036 3.999-4.036 10.498 0 14.477 3.995 4.01 10.473 4.01 14.502 0 4.036-3.979 4.036-10.476 0-14.477-4.029-4.032-10.507-4.032-14.502 0M188.306 90.11c0 4.766-3.917 8.67-8.715 8.67s-8.671-3.904-8.671-8.67c0-4.822 3.873-8.71 8.671-8.71s8.715 3.888 8.715 8.71M188.306 221.29c0-4.776-3.917-8.666-8.715-8.666a8.667 8.667 0 0 0-8.671 8.666 8.663 8.663 0 0 0 8.671 8.676c4.798 0 8.715-3.877 8.715-8.676M113.875 147.035c4.782 0 8.693 3.865 8.693 8.638 0 4.804-3.913 8.661-8.693 8.661-4.791 0-8.708-3.855-8.708-8.661 0-4.773 3.915-8.638 8.708-8.638M139.254 103.157c3.423 3.405 3.423 8.903 0 12.281-3.356 3.372-8.887 3.372-12.279 0-3.416-3.378-3.416-8.876 0-12.281 3.39-3.365 8.923-3.365 12.279 0M232.258 195.948c-3.416-3.399-8.927-3.399-12.31 0-3.385 3.378-3.385 8.881 0 12.248 3.385 3.416 8.894 3.416 12.31 0 3.356-3.363 3.356-8.87 0-12.248M126.975 195.948c3.39-3.399 8.923-3.399 12.279 0 3.423 3.378 3.423 8.881 0 12.248-3.356 3.416-8.887 3.416-12.279 0-3.416-3.363-3.416-8.87 0-12.248M219.946 103.157c-3.385 3.405-3.385 8.903 0 12.281 3.385 3.372 8.894 3.372 12.31 0 3.356-3.378 3.356-8.876 0-12.281-3.414-3.365-8.925-3.365-12.31 0M164.519 99.28c1.58 3.892-.283 8.383-4.189 9.982-3.895 1.643-8.359-.223-10.019-4.126a7.633 7.633 0 0 1 4.163-9.993c3.917-1.646 8.414.242 10.045 4.137M208.896 206.228c-1.625-3.87-6.082-5.721-10.046-4.113a7.667 7.667 0 0 0-4.14 10.011c1.615 3.888 6.117 5.754 10.045 4.13 3.873-1.614 5.736-6.109 4.141-10.028M123.047 170.786c3.929-1.65 8.419.256 10.062 4.133 1.62 3.91-.261 8.387-4.152 9.981-3.946 1.609-8.432-.229-10.041-4.139-1.607-3.899.258-8.362 4.131-9.975M128.957 126.437c3.891 1.644 5.772 6.116 4.152 10.033-1.643 3.892-6.133 5.765-10.062 4.15-3.873-1.628-5.738-6.105-4.131-10.011 1.609-3.91 6.095-5.749 10.041-4.172M150.311 206.228c1.658-3.87 6.124-5.721 10.019-4.113 3.906 1.615 5.771 6.081 4.189 10.011-1.629 3.888-6.128 5.754-10.045 4.13-3.929-1.614-5.776-6.109-4.163-10.028M194.705 99.28c-1.624 3.892.257 8.383 4.141 9.982a7.66 7.66 0 0 0 10.045-4.126c1.598-3.917-.267-8.383-4.14-9.993-3.929-1.646-8.43.242-10.046 4.137"/><path fill="#97999b" d="M185.759 67.208a7.05 7.05 0 0 1-7.061 7.066c-3.936 0-7.147-3.156-7.147-7.066 0-3.935 3.211-7.115 7.147-7.115 3.91-.002 7.061 3.18 7.061 7.115M184.206 47.482c0 3.034-2.489 5.483-5.511 5.483-3.062 0-5.531-2.45-5.531-5.483a5.52 5.52 0 0 1 5.531-5.516c3.022 0 5.511 2.471 5.511 5.516M182.608 30.906c0 2.182-1.72 3.943-3.913 3.943a3.93 3.93 0 0 1-3.935-3.943c0-2.144 1.754-3.906 3.935-3.906a3.897 3.897 0 0 1 3.913 3.906M186.314 244.185c0-3.923-3.184-7.122-7.117-7.122-3.929 0-7.096 3.199-7.096 7.122 0 3.877 3.167 7.077 7.096 7.077 3.933 0 7.117-3.2 7.117-7.077M184.741 263.873c0-3.054-2.465-5.491-5.544-5.491a5.49 5.49 0 0 0-5.505 5.491 5.504 5.504 0 0 0 5.505 5.509c3.077-.002 5.544-2.455 5.544-5.509M183.148 280.411c0-2.177-1.743-3.91-3.951-3.91a3.903 3.903 0 0 0-3.929 3.91c0 2.18 1.754 3.955 3.929 3.955a3.94 3.94 0 0 0 3.951-3.955M121.071 88.27c2.792 2.777 2.792 7.27 0 10.015-2.75 2.8-7.258 2.8-10.012.022-2.773-2.767-2.773-7.262 0-10.038 2.756-2.77 7.262-2.77 10.012 0M106.001 75.454c2.171 2.138 2.171 5.627 0 7.787-2.141 2.137-5.656 2.137-7.786.022-2.17-2.184-2.17-5.678 0-7.811 2.133-2.146 5.645-2.146 7.786.002M93.15 64.873a3.89 3.89 0 0 1 0 5.533c-1.536 1.562-3.996 1.562-5.56 0-1.532-1.528-1.532-4.028 0-5.533 1.535-1.54 4.05-1.54 5.56 0M246.85 213.043c-2.755-2.778-7.274-2.778-10.039 0-2.822 2.758-2.772 7.259 0 10.026 2.765 2.782 7.262 2.782 10.001 0 2.799-2.767 2.799-7.268.038-10.026M259.689 228.091c-2.152-2.146-5.649-2.146-7.819 0-2.122 2.12-2.122 5.643 0 7.784 2.17 2.158 5.664 2.158 7.819 0 2.159-2.141 2.159-5.598 0-7.784M90.29 148.834c3.895 0 7.122 3.189 7.122 7.11 0 3.91-3.227 7.089-7.122 7.089a7.083 7.083 0 0 1-7.102-7.089 7.093 7.093 0 0 1 7.102-7.11M70.548 150.417c3.017 0 5.486 2.467 5.486 5.527 0 3.012-2.47 5.49-5.486 5.49-3.055 0-5.542-2.478-5.542-5.49 0-3.06 2.487-5.527 5.542-5.527M53.94 152.021a3.91 3.91 0 0 1 3.935 3.921c0 2.155-1.74 3.91-3.935 3.91-2.142 0-3.94-1.755-3.94-3.91 0-2.175 1.798-3.921 3.94-3.921M111.42 213.425c2.749-2.778 7.28-2.778 10.03-.018 2.792 2.796 2.792 7.289 0 10.04-2.779 2.765-7.281 2.765-10.03 0a7.06 7.06 0 0 1 0-10.022M98.582 228.467c2.137-2.144 5.62-2.144 7.779 0 2.155 2.148 2.155 5.654 0 7.787-2.159 2.157-5.66 2.157-7.813.013a5.496 5.496 0 0 1 .034-7.8M87.916 241.296c1.604-1.555 4.04-1.555 5.604-.012a3.974 3.974 0 0 1 0 5.554c-1.564 1.533-4 1.541-5.604 0-1.49-1.532-1.49-4.008 0-5.542M236.448 87.898a7.037 7.037 0 0 0-.022 10.022c2.761 2.778 7.262 2.778 10.019 0a7.004 7.004 0 0 0 0-10.009 7.05 7.05 0 0 0-9.997-.013M155.133 80.329a6.33 6.33 0 0 1-3.497 8.26c-3.271 1.322-6.99-.238-8.298-3.49-1.324-3.253.256-6.965 3.494-8.282 3.258-1.346 6.959.245 8.301 3.512M147.158 64.474c1.007 2.515-.201 5.393-2.739 6.443-2.509 1-5.404-.2-6.438-2.716-1.036-2.537.223-5.398 2.703-6.443 2.578-1.023 5.449.182 6.474 2.716M215.377 227.117a6.38 6.38 0 0 0-8.303-3.505c-3.245 1.323-4.849 5.051-3.496 8.291 1.341 3.216 5.031 4.831 8.298 3.463a6.34 6.34 0 0 0 3.501-8.249M220.703 244.018c-1.014-2.542-3.902-3.746-6.445-2.731-2.545 1.032-3.768 3.91-2.734 6.432a4.99 4.99 0 0 0 6.462 2.744c2.512-1.045 3.764-3.934 2.717-6.445M224.995 258.281a3.534 3.534 0 0 0-4.609-1.906c-1.774.696-2.654 2.776-1.918 4.566.735 1.802 2.783 2.654 4.59 1.933a3.53 3.53 0 0 0 1.937-4.593M108.526 119.622c3.241 1.355 4.776 5.078 3.405 8.316-1.392 3.234-5.136 4.755-8.369 3.383-3.238-1.372-4.742-5.115-3.39-8.338a6.39 6.39 0 0 1 8.354-3.361M91.69 114.022c2.494 1.072 3.69 3.947 2.61 6.483a4.984 4.984 0 0 1-6.485 2.642c-2.516-1.076-3.701-3.988-2.62-6.476 1.047-2.509 3.957-3.688 6.496-2.649M77.421 109.573c1.798.743 2.616 2.812 1.854 4.589-.755 1.788-2.82 2.653-4.63 1.844a3.447 3.447 0 0 1-1.855-4.562c.776-1.804 2.866-2.638 4.631-1.871M103.406 180.263c3.249-1.31 6.984.245 8.292 3.476 1.313 3.279-.223 6.989-3.483 8.308-3.271 1.312-6.979-.254-8.292-3.486-1.341-3.271.25-6.966 3.483-8.298M87.54 188.252c2.516-1.036 5.409.176 6.452 2.694 1.023 2.529-.194 5.435-2.728 6.439-2.504 1.011-5.415-.201-6.471-2.729-.976-2.516.216-5.405 2.748-6.404M74.294 195.138c1.825-.734 3.873.134 4.597 1.922.747 1.799-.115 3.843-1.963 4.595-1.787.712-3.835-.14-4.53-1.937a3.455 3.455 0 0 1 1.896-4.58M142.793 226.757c1.375-3.21 5.098-4.711 8.332-3.345 3.255 1.354 4.735 5.104 3.394 8.32-1.402 3.23-5.115 4.764-8.344 3.383-3.238-1.381-4.78-5.091-3.382-8.358M137.189 243.607c1.081-2.523 3.962-3.701 6.478-2.589 2.549 1.034 3.695 3.934 2.654 6.443-1.085 2.476-3.973 3.699-6.496 2.636-2.498-1.068-3.688-3.979-2.636-6.49M132.718 257.839a3.51 3.51 0 0 1 4.638-1.866 3.47 3.47 0 0 1 1.847 4.586 3.476 3.476 0 0 1-4.597 1.877c-1.803-.767-2.672-2.811-1.888-4.597M204.197 80.477a6.323 6.323 0 0 0 3.367 8.328c3.227 1.383 7.011-.16 8.382-3.383 1.357-3.243-.19-6.955-3.435-8.332a6.323 6.323 0 0 0-8.314 3.387M212.356 64.756c-1.04 2.511.127 5.412 2.654 6.46 2.489 1.062 5.4-.101 6.467-2.628a4.923 4.923 0 0 0-2.605-6.465c-2.547-1.077-5.419.111-6.516 2.633M219.461 51.614c-.755 1.817.063 3.876 1.914 4.622a3.525 3.525 0 0 0 4.586-1.878c.769-1.783-.089-3.845-1.869-4.6a3.534 3.534 0 0 0-4.631 1.856"/><path fill="#53565a" d="M827.25 137.142h-4.537v-1.611h10.931v1.611h-4.538v11.601h-1.856zM836.197 135.529h1.95l3.037 7.148c.301.73.658 1.778.658 1.778h.038s.356-1.048.657-1.778l3.035-7.148h1.95l1.07 13.211h-1.837l-.657-8.327c-.056-.805-.018-1.946-.018-1.946h-.038s-.394 1.217-.711 1.946l-2.642 5.95h-1.649l-2.626-5.95c-.3-.711-.713-1.984-.713-1.984h-.035s.018 1.179-.038 1.984l-.638 8.327h-1.854z"/></svg>