<svg xmlns="http://www.w3.org/2000/svg" width="900" height="312" fill="none"><g fill="#003767" clip-path="url(#a)"><path d="M647.084 131.13c-12.787 0-21.537 5.95-21.537 5.95-8.861 5.951-8.861 14.484-8.861 14.484 0 4.266 2.692 7.073 2.692 7.073 2.692 2.807 6.73 2.807 6.73 2.807 3.702 0 6.394-2.583 6.394-2.583 2.692-2.582 2.692-6.175 2.692-6.175 0-4.266-3.589-6.287-3.589-6.287l-2.468-1.684-.449-1.572c0-1.123 1.122-2.47 1.122-2.47 1.122-1.572 3.028-2.582 3.028-2.582 5.609-3.593 13.237-3.593 13.237-3.593 9.422 0 13.124 4.379 13.124 4.379 3.589 4.491 3.589 16.167 3.589 16.167l-.112 11.34-16.153 3.143c-16.377 3.144-24.902 9.993-24.902 9.993-8.525 6.624-8.525 16.28-8.525 16.28 0 8.757 5.945 14.034 5.945 14.034 5.946 5.164 15.929 5.164 15.929 5.164 9.646 0 16.713-4.827 16.713-4.827 7.067-4.716 10.993-13.922 10.993-13.922.448 10.329 3.814 14.595 3.814 14.595 3.477 4.154 11.553 4.154 11.553 4.154 8.637 0 12.788-5.389 12.788-5.389 4.038-5.501 4.038-17.065 4.038-17.065v-1.572h-3.365c-.113 9.768-2.244 14.259-2.244 14.259-2.131 4.491-6.506 4.491-6.506 4.491-2.243 0-3.14-1.909-3.14-1.909-.898-1.909-.898-6.624-.898-6.624v-41.317c0-8.533-2.019-13.81-2.019-13.81-2.019-5.277-6.618-8.533-6.618-8.533-4.15-2.919-10.32-4.715-10.32-4.715-6.169-1.684-12.675-1.684-12.675-1.684m15.592 38.285v4.716c0 11.115-.898 15.83-.898 15.83-1.009 4.828-4.374 9.88-4.374 9.88-2.804 4.491-7.403 7.298-7.403 7.298-4.599 2.919-8.862 2.919-8.862 2.919-4.711 0-7.403-4.042-7.403-4.042-2.692-4.041-2.692-11.227-2.692-11.227 0-10.441 6.169-16.392 6.169-16.392 3.702-3.48 9.535-5.501 9.535-5.501 5.496-1.909 15.928-3.481 15.928-3.481"/><path d="M766.433 133.825s5.272 2.694 7.852 7.298l2.356 5.838 1.57 9.206s3.589-12.35 11.329-18.637c0 0 7.74-6.4 19.293-6.4 0 0 14.022 0 20.416 7.972 0 0 2.804 3.705 3.589 7.41 0 0 .785 3.593.785 12.687v37.948s0 7.411 2.917 9.768c0 0 2.916 2.358 13.46 3.144v2.695h-48.458v-2.695s10.432-.786 13.349-3.144c0 0 2.916-2.357 2.916-9.768v-38.285s0-14.034-2.131-18.076c0 0-2.131-3.93-9.759-3.93 0 0-8.637 0-15.031 5.165 0 0-6.506 5.052-9.086 14.146 0 0-1.794 6.063-2.467 12.463 0 0-.673 6.287-.673 17.627v10.666s0 7.522 3.028 9.992c0 0 2.917 2.358 13.349 3.144v2.695h-48.458v-2.695s10.432-.786 13.348-3.144c0 0 2.917-2.357 2.917-9.768V152.35s0-8.196-2.805-11.789c0 0-2.916-3.705-9.198-3.705 0 0-7.515 0-13.572 4.716 0 0-6.282 4.828-9.423 13.136 0 0-2.58 6.736-3.477 13.36 0 0-.897 6.737-.897 19.424v9.431s0 7.522 2.916 9.992c0 0 3.029 2.358 13.348 3.144v2.695h-48.457v-2.695s10.432-.786 13.46-3.144c0 0 2.917-2.357 2.917-9.768v-48.053s0-6.399-.785-8.533c0 0-.786-2.021-3.702-3.031l-11.89-1.46v-2.919l32.193-2.021v25.037s4.15-12.013 12.338-18.525c0 0 7.965-6.512 18.621-6.512 0 0 6.506 0 12.002 2.695M284.212 96.999v99.924s0 7.634 2.916 9.992c0 0 2.693 2.133 11.891 3.032 0 0 9.085-.899 11.89-3.032 0 0 2.916-2.358 2.916-9.768v-60.291h-16.377v-3.368h16.377s.785-10.441 3.253-16.953c0 0 2.58-6.512 7.964-11.452 0 0 8.301-8.084 19.966-8.084 0 0 8.525 0 14.358 4.266 0 0 5.721 4.267 5.721 10.554 0 0 0 3.93-2.356 6.4 0 0-2.243 2.47-6.057 2.47 0 0-3.926 0-6.169-2.246 0 0-2.244-2.357-2.244-6.287 0 0 0-2.47 2.132-5.951l.673-1.684s0-1.684-2.132-2.807c0 0-2.131-1.235-5.047-1.235 0 0-8.301 0-11.33 5.839 0 0-2.916 5.726-2.916 21.556v5.614h22.21v3.368h-22.098v60.291s-.112 7.41 2.917 9.768c0 0 2.916 2.358 13.236 3.144v2.694l-103.085.674-12.002.786-3.141.337v-24.364s-2.468 5.839-4.487 8.982l-4.823 6.175s-4.263 4.604-10.32 7.186c0 0-5.833 2.47-12.339 2.47 0 0-5.608 0-10.319-2.021 0 0-4.824-2.133-7.516-5.838 0 0-3.028-3.93-4.15-8.87 0 0-1.122-4.94-1.122-13.697v-35.479s0-6.512-.785-8.533c0 0-.897-2.021-3.926-3.031l-12.787-1.46v-2.919l33.314-2.021v57.372s0 11.003 2.917 16.28c0 0 3.028 5.277 9.198 5.277 0 0 7.179 0 13.909-6.063 0 0 6.73-6.175 10.095-15.718 0 0 3.141-8.645 3.141-22.792v-16.392s0-6.624-.673-8.533c0 0-.785-2.021-3.814-3.031l-12.339-1.46v-2.919l32.866-2.021v65.793s0 7.634 2.917 9.992c0 0 2.355 1.909 9.422 2.807 0 0 6.955-.898 9.31-2.807 0 0 3.029-2.358 3.029-9.768v-81.735s0-6.624-.785-8.645c0 0-.785-1.909-3.814-2.919l-11.778-1.684v-2.695h1.01l16.376-1.01 13.237-1.123z"/><path d="M408.609 132.253v29.865h-2.692s-2.019-12.912-8.974-20.322c0 0-6.842-7.297-17.05-7.297 0 0-6.842 0-11.553 3.592 0 0-4.711 3.593-4.711 8.87 0 0 0 5.277 4.374 8.308 0 0 4.487 3.032 19.182 7.859l11.665 4.042s3.141 1.235 6.282 3.256c0 0 4.262 2.695 6.842 7.523 0 0 2.468 4.827 2.468 10.329 0 0 0 11.227-9.086 18.974 0 0-9.086 7.747-22.322 7.747 0 0-11.217 0-20.303-5.726l-5.608-3.817-1.122-.449s-1.458 0-2.468 2.694l-.673 2.358-1.346 4.491h-2.692v-36.265h2.692s9.311 33.458 31.52 33.458c0 0 7.852 0 13.349-4.603 0 0 5.608-4.716 5.608-11.34 0 0 0-6.512-4.038-9.655 0 0-4.038-3.144-19.069-8.084 0 0-12.114-3.705-17.611-6.961 0 0-10.095-5.838-10.095-16.392 0 0 0-9.88 8.3-16.729 0 0 8.301-6.849 20.415-6.849 0 0 9.647 0 18.509 5.053 0 0 3.14 1.908 3.926 1.908 0 0 1.009 0 1.794-1.235l1.683-4.603zM488.026 132.253l15.031-1.123v17.852s3.477-9.094 9.085-13.473c0 0 5.609-4.379 13.91-4.379 0 0 7.291 0 12.002 3.818 0 0 4.599 3.817 4.599 9.88 0 0 0 4.491-2.804 7.522 0 0-2.805 3.031-6.843 3.031 0 0-4.15 0-6.954-2.694 0 0-2.805-2.807-2.805-6.737 0 0 0-2.582.898-4.154l3.253-3.592.673-1.011s0-.786-1.346-1.235l-3.253-.561s-4.824 0-9.311 3.705c0 0-4.374 3.593-6.842 9.543 0 0-2.468 5.838-3.365 12.013 0 0-.897 6.175-.897 16.28v19.985s0 7.522 3.14 9.992c0 0 3.141 2.358 14.134 3.144v2.695h-49.58v-2.695s10.432-.786 13.349-3.144c0 0 2.916-2.357 2.916-9.768v-48.053s0-6.624-.785-8.533c0 0-.785-2.021-3.926-3.031l-12.787-1.46v-2.919z"/><path d="M437.886 115.187s1.682-6.287 2.692-18.188h2.804v36.264h25.014v3.481h-25.014v53.442s0 11.677 2.131 15.606c0 0 2.019 3.818 8.413 3.818 0 0 7.852 0 11.329-5.838 0 0 3.365-5.839 3.926-20.547l.224-2.133h3.366v1.909s0 7.747-.786 12.575c0 0-.785 4.491-2.804 8.532 0 0-2.692 5.277-7.852 8.084 0 0-5.16 2.807-12.002 2.807 0 0-6.842 0-12.114-2.807 0 0-5.385-2.807-7.516-7.41 0 0-1.907-4.266-2.131-9.992v-57.934h-16.377v-3.031s15.367-.898 21.649-8.533c0 0 3.253-3.817 5.048-10.105M77.257 114.401s-8.525 14.035-8.525 41.205c0 0 0 28.405 8.077 42.215 0 0 7.964 13.922 24.341 13.922 0 0 6.393 0 12.114-2.133 0 0 5.721-2.134 9.535-5.951 0 0 4.262-4.266 6.057-9.992 0 0 1.907-5.726 1.907-14.371v-7.186s0-8.87-2.692-11.115c0 0-2.805-2.358-14.919-3.144v-2.919h52.72v2.695s-12.675 1.01-15.592 3.368c0 0-3.028 2.245-3.028 11.115v41.878h-2.692s-2.244-9.318-3.926-12.799c0 0-1.907-3.705-4.375-3.705 0 0-1.795 0-4.935 3.031 0 0-8.077 8.196-14.695 11.34 0 0-6.618 3.144-15.479 3.144 0 0-19.742 0-35.446-17.964 0 0-15.704-17.964-15.704-40.531 0 0 0-23.016 16.04-41.205 0 0 16.04-18.3 36.344-18.3 0 0 12.226 0 22.77 7.522l3.59 2.582s3.028 2.021 4.823 2.021c0 0 3.477 0 6.618-10.89h2.804l.337 44.236h-2.692l-4.375-13.249-5.272-10.553s-5.384-9.544-12.226-13.922c0 0-6.843-4.267-16.49-4.267 0 0-16.6 0-25.014 13.922M577.314 131.467c-15.816 0-27.706 12.574-27.706 12.574-11.89 12.575-11.89 29.416-11.89 29.416 0 17.515 11.89 29.528 11.89 29.528 11.89 12.013 29.052 12.013 29.052 12.013 13.685 0 22.434-7.746 22.434-7.746 8.637-7.747 10.432-21.557 10.432-21.557h-3.365c-2.019 12.799-9.422 19.423-9.422 19.423-7.404 6.624-19.63 6.624-19.63 6.624-12.451 0-18.284-8.083-18.284-8.083-5.945-8.084-5.945-24.925-5.945-24.925l.224-8.421 55.749.113.224-3.593c0-15.606-9.422-25.486-9.422-25.486-9.535-9.88-24.341-9.88-24.341-9.88m-.337 3.368c17.723 0 17.723 22.791 17.723 22.791 0 6.288-1.907 7.972-1.907 7.972-1.682 1.459-5.72 1.459-5.72 1.459h-31.52c.897-17.402 5.833-24.812 5.833-24.812 4.935-7.41 15.591-7.41 15.591-7.41"/></g><defs><clipPath id="a"><path fill="#fff" d="M50 97h800v118H50z"/></clipPath></defs></svg>