<svg width="900" height="312" viewBox="0 0 900 312" fill="none" xmlns="http://www.w3.org/2000/svg">
<g clip-path="url(#clip0_7_134)">
<mask id="mask0_7_134" style="mask-type:luminance" maskUnits="userSpaceOnUse" x="49" y="83" width="801" height="145">
<path d="M49.9994 227.535H849.997V83.2941H49.9994V227.535Z" fill="white"/>
</mask>
<g mask="url(#mask0_7_134)">
<path d="M129.459 209.775L125.66 196.051L126.13 195.869L133.58 207.922C137.241 206.26 140.848 203.909 143.773 201.44L136.965 190.388L137.355 190.057L147.039 198.645C150.275 195.864 153.244 192.351 155.444 188.996L146.574 181.026L146.846 180.598L157.677 185.535C160.068 181.789 162.056 177.41 163.237 173.09L153.419 168.5L153.539 168.006L164.285 169.29C165.444 164.97 165.96 160.255 165.909 155.499H130.395C130.354 167.875 120.394 177.9 108.113 177.9C95.8052 177.9 85.8286 167.835 85.8286 155.426C85.8286 144.059 94.1971 134.661 105.059 133.163L96.0236 98.3083C94.1019 98.6306 91.6963 99.26 89.9193 99.9585L98.8661 132.59L98.3737 132.778L81.7586 103.373C79.7677 104.263 77.5333 105.611 75.8521 106.861L92.2861 134.262L91.885 134.585L69.3109 111.976C67.6427 113.356 65.6907 115.301 64.3916 116.993L86.1871 137.938L85.8583 138.335L59.7332 123.125C58.3154 125.007 56.8915 127.589 55.963 129.721L80.9268 143.582L80.7388 144.063L53.2149 136.359C52.313 138.694 51.5056 141.702 51.1205 144.185L77.3202 150.646L77.2273 151.171L50.1897 151.184C50.1037 152.498 49.9523 154.153 49.9523 155.491C49.9523 156.788 50.0961 158.358 50.1768 159.634L75.6238 159.418L75.6733 159.912L50.9896 166.119C51.4424 169.067 52.1913 171.989 53.2347 174.694L76.1733 168.348L76.3689 168.819L55.565 180.436C56.8062 183.228 58.3519 185.925 60.1297 188.461L79.0051 177.448L79.3156 177.852L63.6853 193.173C65.6412 195.641 67.9129 197.918 70.3718 199.953L84.4283 185.93L84.8378 186.227L74.7935 203.397C77.4374 205.345 80.2685 207.029 83.3347 208.398L92.414 192.699L92.8888 192.888L88.1841 210.427C91.2739 211.663 94.6248 212.536 98.1172 213.084L102.502 196.864L103.002 196.946L103.109 213.723C104.717 213.857 106.33 214.002 107.974 214.002C109.939 214.002 111.884 213.827 113.799 213.632L113.809 198.072L114.307 198.001L118.525 212.96C122.279 212.362 125.946 211.296 129.439 209.784M111.12 97.1509C110.082 97.0541 109.041 97.0044 107.999 97.002C107.141 97.002 105.946 97.0434 105.118 97.137L105.438 133.112C106.325 133.006 107.219 132.952 108.113 132.951C109.024 132.951 109.924 133.008 110.81 133.115L111.12 97.1509ZM111.447 133.202C113.174 133.463 114.841 133.927 116.414 134.565L126.066 99.9723C124.465 99.3513 122.255 98.7396 120.545 98.4426L111.447 133.202ZM117.258 134.928C118.759 135.608 120.18 136.455 121.493 137.454L139.883 106.721C138.558 105.754 136.644 104.557 135.13 103.867L117.258 134.928ZM151.463 116.891C150.531 115.745 149.086 114.168 147.922 113.178L122.531 138.291C123.669 139.264 124.707 140.351 125.629 141.534L151.463 116.891ZM126.936 143.391C127.548 144.365 128.085 145.384 128.543 146.44L159.772 129.291C159.294 128.174 158.429 126.56 157.735 125.554L126.936 143.391ZM130.119 151.874C129.948 150.782 129.696 149.704 129.365 148.65L163.795 139.797C164.16 140.845 164.528 142.492 164.702 143.573L130.119 151.874Z" fill="#253D8D"/>
</g>
<path d="M341.513 179.326L339.937 170.035H331.231L329.906 179.326H318.739L328.087 131.606H344.136L352.741 179.326H341.513ZM332.428 161.638H338.864L335.772 140.259H335.645L332.428 161.638Z" fill="#253D8D"/>
<mask id="mask1_7_134" style="mask-type:luminance" maskUnits="userSpaceOnUse" x="49" y="83" width="801" height="145">
<path d="M49.9539 227.535H850V83.2941H49.9539V227.535Z" fill="white"/>
</mask>
<g mask="url(#mask1_7_134)">
<path d="M398.986 143.698L399.138 148.267H399.265C399.573 146.918 401.393 142.679 407.027 142.679V154.134C406.696 154.068 405.467 153.878 403.998 153.878C401.425 153.878 399.835 155.477 399.835 158.606V179.328H388.838V143.698H398.986Z" fill="#253D8D"/>
<path d="M525.342 162.023C525.342 162.023 523.724 162.775 522.8 163.18C519.689 164.542 519.464 166.924 519.464 169.183C519.464 171.273 520.503 172.683 522.306 172.683C524.751 172.683 525.342 170.638 525.342 169.091V162.023ZM525.716 176.146C524.949 177.35 522.215 180.475 517.164 180.475C511.484 180.475 508.508 176.891 508.508 171.228V168.909C508.508 162.996 512.782 160.345 516.516 158.874C517.878 158.338 519.031 157.903 520.256 157.431C522.945 156.394 525.342 155.492 525.342 152.658C525.342 151.4 524.427 150.447 522.757 150.447C521.178 150.447 520.14 151.628 520.14 153.083V155.549H509.1V153.811C509.1 146.761 515.496 142.68 521.873 142.68C532.543 142.68 536.433 148.218 536.433 154.674V171.998C536.433 175.631 536.812 178.052 537.253 179.329H526.009L525.716 176.146Z" fill="#253D8D"/>
<path d="M632.836 162.63V167.486C632.836 170.071 633.789 171.365 636.123 171.365C638.68 171.365 639.402 169.672 639.402 167.344C639.402 163.782 637.16 161.784 634.159 159.984C633.057 159.321 630.294 157.681 629.279 157.067C623.881 153.8 620.834 148.265 620.834 144.066C620.834 135.274 626.548 130.463 635.966 130.463C646.792 130.463 651.479 136.267 651.479 144.417V147.221H639.409V143.53C639.409 141.333 638.611 139.569 636.111 139.569C634.195 139.569 632.836 140.63 632.836 142.861C632.836 145.003 633.773 146.879 635.856 148.128C638.531 149.728 640.79 151.094 642.923 152.37C649.029 156.021 651.479 160.437 651.479 166.227C651.479 175.39 646.366 180.474 635.599 180.474C626.181 180.474 620.764 175.23 620.764 166.491V162.63H632.836Z" fill="#253D8D"/>
<path d="M672.126 167.286H672.251L675.802 143.699H686.046L677.602 178.077C675.647 186.843 673.383 194.264 663.031 194.264C661.183 194.264 658.755 193.972 658.576 193.945V185.602C658.812 185.639 659.754 185.791 660.712 185.791C662.453 185.791 664.519 185.029 664.882 182.977C664.998 182.341 665.278 180.771 665.278 180.771L655.896 143.699H667.471L672.126 167.286Z" fill="#253D8D"/>
<path d="M718.865 151.013V143.698H722.842V133.518H733.923V143.698H738.722V151.013H733.923V169.447C733.923 171.324 734.993 172.263 736.63 172.263C737.509 172.263 738.582 172.096 738.722 172.076V179.201C738.058 179.363 735.839 179.837 732.814 179.837C725.167 179.837 722.842 175.933 722.842 170.296V151.013H718.865Z" fill="#253D8D"/>
<path d="M799.782 146.903H800.086C801.097 145.438 803.469 142.569 808.08 142.569C813.953 142.569 816.989 146.837 816.989 152V179.329H805.897V154.42C805.961 152.506 804.758 151.551 803.496 151.551C802.36 151.551 800.968 152.506 800.968 154.29V179.329H789.878V154.42C789.942 152.506 788.739 151.551 787.478 151.551C786.34 151.551 784.949 152.506 784.949 154.29V179.329H773.925V143.715H783.626L783.878 146.902H784.066C785.078 145.435 787.624 142.569 792.236 142.569C795.981 142.569 798.4 144.306 799.782 146.903Z" fill="#253D8D"/>
<path d="M201.472 131.608H213.537V167.284C213.474 169.643 214.168 171.364 216.822 171.364C219.16 171.364 220.107 169.962 220.107 167.284V131.608H232.174V166.14C232.174 174.227 228.13 180.474 216.758 180.474C207.347 180.474 201.472 175.946 201.472 166.14V131.608Z" fill="#253D8D"/>
<path d="M301.217 149.665V144.8C301.217 136.711 297.174 130.467 285.803 130.467C276.39 130.467 270.516 134.991 270.516 144.8V166.139C270.516 175.946 276.39 180.473 285.803 180.473C297.174 180.473 301.217 174.227 301.217 166.139V161.272H289.151V167.283C289.151 169.962 288.205 171.362 285.867 171.362C283.212 171.362 282.519 169.641 282.581 167.283V143.654C282.519 141.296 283.212 139.576 285.867 139.576C288.205 139.576 289.151 140.977 289.151 143.654V149.665H301.217Z" fill="#253D8D"/>
<path d="M767.662 167.158V168.435C767.535 175.632 763.49 180.537 754.648 180.537C746.499 180.537 741.507 176.395 741.507 168.306V154.927C741.507 146.836 746.499 142.693 754.648 142.693C763.616 142.693 767.722 147.6 767.722 154.927V164.037H752.182V170.407C752.182 171.747 753.194 172.892 754.648 172.892C755.911 172.892 757.115 171.873 757.115 170.407V167.158H767.662ZM757.115 156.903V152.761C757.115 151.297 755.911 150.339 754.648 150.339C753.194 150.339 752.182 151.423 752.182 152.825V156.903H757.115Z" fill="#253D8D"/>
<path d="M601.968 167.158V168.435C601.839 175.632 597.797 180.537 588.952 180.537C580.802 180.537 575.814 176.395 575.814 168.306V154.927C575.814 146.836 580.802 142.693 588.952 142.693C597.922 142.693 602.03 147.6 602.03 154.927V164.037H586.487V170.407C586.487 171.747 587.502 172.892 588.952 172.892C590.216 172.892 591.418 171.873 591.418 170.407V167.158H601.968ZM591.418 156.903V152.761C591.418 151.297 590.216 150.339 588.952 150.339C587.502 150.339 586.487 151.423 586.487 152.825V156.903H591.418Z" fill="#253D8D"/>
<path d="M382.506 167.158V168.435C382.379 175.632 378.337 180.537 369.493 180.537C361.343 180.537 356.353 176.395 356.353 168.306V154.927C356.353 146.836 361.343 142.693 369.493 142.693C378.463 142.693 382.57 147.6 382.57 154.927V164.037H367.028V170.407C367.028 171.747 368.04 172.892 369.493 172.892C370.755 172.892 371.958 171.873 371.958 170.407V167.158H382.506ZM371.958 156.903V152.761C371.958 151.297 370.755 150.339 369.493 150.339C368.04 150.339 367.028 151.423 367.028 152.825V156.903H371.958Z" fill="#253D8D"/>
<path d="M237.683 131.611H266.488V141.168H258.212V179.329H245.643V141.168H237.683V131.611Z" fill="#253D8D"/>
<path d="M570.181 165.692V168.306C570.181 175.632 565.381 180.537 556.409 180.537C548.263 180.537 542.641 176.395 542.641 168.306V154.927C542.641 146.836 548.263 142.693 556.409 142.693C565.381 142.693 570.181 147.6 570.181 154.927V157.157H558.748V152.89C558.748 151.423 557.676 150.531 556.409 150.531C554.957 150.531 554.01 151.55 554.01 152.89V170.344C554.01 171.683 554.957 172.7 556.409 172.7C557.676 172.7 558.748 171.81 558.748 170.344V165.692H570.181Z" fill="#253D8D"/>
<path d="M409.784 154.926C409.784 146.834 415.279 142.692 423.428 142.692C432.399 142.692 437.14 147.599 437.14 154.926V168.304C437.14 175.631 432.463 180.536 423.428 180.536C415.344 180.536 409.784 176.459 409.784 168.368V154.926ZM420.868 170.343C420.868 171.681 422.002 172.766 423.456 172.766C424.82 172.766 426.048 171.809 426.048 170.343V152.889C426.048 151.422 424.94 150.401 423.456 150.401C421.945 150.401 420.868 151.486 420.868 152.823V170.343Z" fill="#253D8D"/>
<path d="M848.991 155.244H838.626V153.078C838.626 151.362 837.499 150.02 835.658 150.02C833.725 150.02 832.811 150.998 832.811 152.378C832.811 154.059 833.793 155.062 836.327 156.306C837.91 157.08 839.607 157.912 841.571 158.866C848.321 162.16 850.003 164.848 850.003 169.199C850.003 175.586 845.368 180.537 835.718 180.537C826.54 180.537 821.951 175.845 821.951 168.495V167.159H832.438V170.026C832.438 172.006 833.588 173.211 835.718 173.211C837.598 173.211 838.755 171.85 838.755 170.343C838.755 169.465 838.626 167.991 834.638 166.029C833.732 165.581 831.822 164.666 830.81 164.165C825.947 161.768 822.583 159.632 822.583 153.397C822.583 147.214 827.263 142.694 835.787 142.694C845.521 142.694 848.991 148.146 848.991 154.291V155.244Z" fill="#253D8D"/>
<path d="M716.162 155.244H705.8V153.078C705.8 151.362 704.668 150.02 702.837 150.02C700.899 150.02 699.989 150.998 699.989 152.378C699.989 154.059 700.97 155.062 703.507 156.306C705.25 157.161 706.995 158.015 708.74 158.866C715.497 162.16 717.171 164.848 717.171 169.199C717.171 175.586 712.538 180.537 702.895 180.537C693.714 180.537 689.123 175.845 689.123 168.495V167.159H699.611V170.026C699.611 172.006 700.76 173.211 702.895 173.211C704.773 173.211 705.929 171.85 705.929 170.343C705.929 169.465 705.8 167.991 701.814 166.029C700.904 165.581 698.996 164.666 697.983 164.165C693.118 161.768 689.758 159.632 689.758 153.397C689.758 147.214 694.435 142.694 702.959 142.694C712.695 142.694 716.162 148.146 716.162 154.291V155.244Z" fill="#253D8D"/>
<path d="M469.23 155.244H458.868V153.078C458.868 151.362 457.737 150.02 455.901 150.02C453.964 150.02 453.054 150.998 453.054 152.378C453.054 154.059 454.036 155.062 456.573 156.306C458.151 157.08 459.85 157.912 461.809 158.866C468.563 162.16 470.241 164.848 470.241 169.199C470.241 175.586 465.607 180.537 455.961 180.537C446.782 180.537 442.19 175.845 442.19 168.495V167.159H452.68V170.026C452.68 172.006 453.825 173.211 455.961 173.211C457.839 173.211 458.994 171.85 458.994 170.343C458.994 169.465 458.868 167.991 454.879 166.029C453.972 165.581 452.063 164.666 451.048 164.165C446.184 161.768 442.824 159.632 442.824 153.397C442.824 147.214 447.5 142.694 456.026 142.694C465.758 142.694 469.23 148.146 469.23 154.291V155.244Z" fill="#253D8D"/>
<path d="M486.603 170.339C486.603 171.676 487.739 172.761 489.193 172.761C490.557 172.761 491.785 171.804 491.785 170.339V152.884C491.785 151.418 490.677 150.397 489.193 150.397C487.68 150.397 486.603 151.483 486.603 152.819V170.339ZM485.785 143.699L485.864 146.642H485.989C486.743 145.396 487.841 142.68 493.738 142.68C500.362 142.68 502.904 147.265 502.904 152.498V170.41C502.904 175.529 500.757 180.475 493.623 180.475C489.04 180.475 487.702 178.629 486.728 177.35H486.603V191.354H475.544V143.699H485.785Z" fill="#253D8D"/>
</g>
</g>
<defs>
<clipPath id="clip0_7_134">
<rect width="800" height="117" fill="white" transform="translate(50 97)"/>
</clipPath>
</defs>
</svg>
