<svg width="900" height="312" viewBox="0 0 900 312" fill="none" xmlns="http://www.w3.org/2000/svg">
<path d="M181.547 180.428C181.547 200.638 181.74 219.543 182.64 236.092H182.469C182.233 235.321 181.847 234.422 181.354 233.159C169.29 203.186 139.696 133.199 139.696 133.199H122.916V256.902H135.774V208.667C135.774 186.444 135.581 165.848 134.681 150.391H134.831L134.981 150.798C135.26 151.568 135.624 152.532 136.181 153.88C144.753 174.669 178.376 256.945 178.376 256.945H194.426V133.242H181.569L181.547 180.428ZM226.913 145.145H254.536V256.987H268.208V145.167H295.744V133.306H226.913V145.145ZM63.0429 133.285H76.6719V256.987H63L63.0429 133.285ZM385.255 220.014C385.255 235.878 381.247 247.161 364.833 247.161C348.418 247.161 344.539 233.694 344.539 220.014V133.306H330.696V221.084C330.696 243.671 339.267 258.979 364.425 258.979C390.505 258.979 398.712 242.772 398.712 220.185V133.306H385.255V220.014ZM449.543 53.0214C454.548 53.0214 459.441 54.5043 463.603 57.2826C467.765 60.0609 471.009 64.0097 472.924 68.6299C474.84 73.25 475.341 78.3338 474.365 83.2384C473.388 88.1431 470.978 92.6484 467.438 96.1845C463.899 99.7206 459.389 102.129 454.48 103.104C449.571 104.08 444.482 103.579 439.858 101.665C435.233 99.7517 431.281 96.5109 428.5 92.3529C425.719 88.1949 424.235 83.3065 424.235 78.3057C424.24 71.5996 426.908 65.1696 431.652 60.4257C436.397 55.6818 442.831 53.0113 449.543 53M449.543 92.3074C452.315 92.3074 455.024 91.4862 457.329 89.9477C459.634 88.4091 461.43 86.2224 462.491 83.6639C463.552 81.1054 463.829 78.2902 463.288 75.5741C462.748 72.8581 461.413 70.3632 459.453 68.405C457.493 66.4469 454.996 65.1133 452.277 64.5731C449.558 64.0328 446.74 64.3101 444.18 65.3699C441.619 66.4296 439.43 68.2243 437.89 70.5268C436.35 72.8294 435.528 75.5364 435.528 78.3057C435.534 82.0174 437.012 85.5755 439.639 88.2001C442.266 90.8247 445.828 92.3017 449.543 92.3074ZM442.707 257.009H456.379V133.285H442.707V257.009ZM495.959 145.167H523.496V257.009H537.168V145.167H564.704V133.306H495.916L495.959 145.167ZM605.977 257.009H619.671V133.285H605.977V257.009ZM710.788 191.968C706.502 209.459 700.588 232.046 699.109 242.6H698.745C697.095 230.761 692.316 209.266 688.352 191.968L674.658 133.306H660.086L690.88 257.009H707.124L739.032 133.306H724.996L710.788 191.968ZM836 145.167V133.306H778.334V257.009H836.064V245.148H791.813V197.448H832.528V185.588H791.813V145.167H836Z" fill="black"/>
</svg>
