
<svg xmlns="http://www.w3.org/2000/svg" width="900" height="312" fill="none"><g clip-path="url(#a)"><path fill="#fecc00" d="M50 244V67h800v177z"/><path fill="#d50029" d="M307.938 140.956c-3.496 4.746-9.346 12.997-12.905 17.816-1.807 2.451-5.071 6.9 5.749 6.9h56.968s9.181-12.522 16.878-22.995c10.47-14.248.906-43.892-36.525-43.892H190.692L165.133 133.6h139.304c7.033 0 6.937 2.683 3.501 7.356m-41.851 33.305c-10.82 0-7.557-4.459-5.749-6.909 3.559-4.82 9.504-12.984 13-17.73 3.441-4.673 3.532-7.356-3.51-7.356h-63.709l-51.333 69.94H279.97c41.346 0 64.365-28.193 71.462-37.941zm81.434 37.945h73.437l27.84-37.95-73.428.009c-.022-.004-27.849 37.941-27.849 37.941M536.997 98.785 508.83 137.14h-32.775l28.154-38.356h-73.414l-49.116 66.887H561.3l49.102-66.887zm-83.264 113.421h73.409l27.854-37.941h-73.41c-.027-.004-27.853 37.941-27.853 37.941M50 189.229v8.059h102.274l5.908-8.059zm119.175-14.968H50v8.05h113.253zM50 212.206h91.317l5.881-8.013H50zm692.227-14.922H850v-8.06H748.145zm-10.947 14.922H850v-8.013H737.157zm27.84-37.945-5.904 8.059H850v-8.059zm-96.156-8.589 49.111-66.887h-77.752c-.027 0-49.148 66.887-49.148 66.887zm-84.084 8.589s-5.367 7.351-7.975 10.893c-9.218 12.486-1.065 27.052 29.023 27.052h117.901l27.853-37.941z"/></g><defs><clipPath id="a"><path fill="#fff" d="M50 67h800v177H50z"/></clipPath></defs></svg>