<svg width="900" height="312" viewBox="0 0 900 312" fill="none" xmlns="http://www.w3.org/2000/svg">
<path fill-rule="evenodd" clip-rule="evenodd" d="M849.185 107.861C849.185 110.858 846.738 113.296 843.73 113.296C840.726 113.296 838.284 110.858 838.284 107.861C838.284 104.864 840.726 102.426 843.73 102.426C846.738 102.426 849.185 104.864 849.185 107.861ZM850 107.861C850 104.414 847.191 101.608 843.73 101.608C840.277 101.608 837.464 104.414 837.464 107.861C837.464 111.308 840.277 114.113 843.73 114.113C847.191 114.113 850 111.308 850 107.861ZM842.528 104.964C842.685 104.921 843.014 104.877 843.477 104.877C844.483 104.888 845.174 105.304 845.174 106.257C845.174 107.1 844.531 107.659 843.505 107.659H842.528V104.964ZM841.574 111.579H842.528V108.382H843.429C844.297 108.415 844.693 108.797 844.912 109.816C845.122 110.735 845.284 111.371 845.408 111.579H846.395C846.243 111.294 846.066 110.582 845.823 109.553C845.646 108.786 845.308 108.26 844.736 108.064V108.031C845.518 107.768 846.133 107.122 846.133 106.148C846.133 105.578 845.923 105.075 845.551 104.746C845.089 104.33 844.431 104.143 843.41 104.143C842.752 104.143 842.056 104.199 841.574 104.297V111.579ZM804.185 226.394C802.612 223.674 800.423 222.313 797.624 222.313C795.55 222.313 793.814 222.932 792.417 224.165C791.02 225.389 790.324 226.912 790.324 228.731C790.324 231.429 791.988 233.48 795.311 234.879L797.658 235.853C798.268 236.116 798.788 236.39 799.231 236.678C799.67 236.967 800.032 237.275 800.309 237.603C800.585 237.934 800.79 238.294 800.924 238.686C801.053 239.08 801.119 239.511 801.119 239.981C801.119 241.154 800.743 242.121 799.984 242.884C799.231 243.649 798.277 244.03 797.138 244.03C795.688 244.03 794.587 243.505 793.833 242.46C793.414 241.917 793.118 240.933 792.951 239.511L789.241 240.327C789.57 242.586 790.419 244.337 791.769 245.583C793.147 246.827 794.887 247.45 796.995 247.45C799.222 247.45 801.081 246.718 802.583 245.254C804.071 243.801 804.815 241.959 804.815 239.729C804.815 238.066 804.362 236.663 803.446 235.518C802.536 234.37 801.091 233.401 799.121 232.607L796.699 231.618C794.935 230.896 794.053 229.944 794.053 228.762C794.053 227.904 794.386 227.193 795.059 226.628C795.731 226.053 796.575 225.765 797.596 225.765C798.42 225.765 799.098 225.933 799.622 226.267C800.128 226.559 800.657 227.187 801.215 228.15L804.185 226.394ZM756.726 247.01V230.049L774.445 248.486V222.784H770.778V239.621L753.059 221.137V247.01H756.726ZM716.566 234.834C716.566 232.282 717.439 230.136 719.18 228.401C720.92 226.645 723.056 225.765 725.583 225.765C728.125 225.765 730.252 226.645 731.973 228.401C733.704 230.147 734.572 232.314 734.572 234.898C734.572 237.45 733.695 239.616 731.945 241.394C730.19 243.15 728.039 244.03 725.493 244.03C723.142 244.03 721.068 243.166 719.275 241.44C717.472 239.716 716.566 237.514 716.566 234.834ZM712.871 234.788C712.871 238.668 714.244 241.807 716.996 244.203C719.489 246.365 722.308 247.451 725.445 247.451C728.993 247.451 732.016 246.232 734.524 243.794C737.018 241.367 738.267 238.412 738.267 234.928C738.267 231.466 737.028 228.498 734.538 226.033C732.064 223.563 729.093 222.328 725.631 222.328C722.131 222.328 719.127 223.552 716.633 226.001C714.125 228.447 712.871 231.377 712.871 234.788ZM694.398 247.008H698.065V222.781H694.398V247.008ZM680.942 226.22V222.784H666.122V226.22H671.706V247.012H675.372V226.22H680.942ZM634.679 222.784V238.381C634.679 240.933 635.475 243.037 637.073 244.688C638.851 246.531 641.05 247.45 643.663 247.45C646.276 247.45 648.479 246.531 650.267 244.688C651.864 243.037 652.665 240.933 652.665 238.381V222.784H648.994V237.377C648.994 239.489 648.655 241.012 647.973 241.943C646.958 243.335 645.518 244.03 643.663 244.03C641.817 244.03 640.387 243.335 639.366 241.943C638.685 240.98 638.341 239.458 638.341 237.377V222.784H634.679ZM610.947 222.784V247.01H621.757V243.575H614.614V222.784H610.947ZM574.459 234.834C574.459 232.282 575.327 230.136 577.068 228.401C578.808 226.645 580.944 225.765 583.471 225.765C586.013 225.765 588.14 226.645 589.861 228.401C591.592 230.147 592.455 232.314 592.455 234.898C592.455 237.45 591.582 239.616 589.828 241.394C588.078 243.15 585.927 244.03 583.376 244.03C581.03 244.03 578.956 243.166 577.163 241.44C575.36 239.716 574.459 237.514 574.459 234.834ZM570.759 234.788C570.759 238.668 572.132 241.807 574.884 244.203C577.377 246.365 580.196 247.451 583.333 247.451C586.876 247.451 589.904 246.232 592.412 243.794C594.906 241.367 596.155 238.412 596.155 234.928C596.155 231.466 594.911 228.498 592.422 226.033C589.952 223.563 586.981 222.328 583.519 222.328C580.014 222.328 577.015 223.552 574.521 226.001C572.013 228.447 570.759 231.377 570.759 234.788ZM556.735 226.394C555.162 223.674 552.978 222.313 550.179 222.313C548.1 222.313 546.364 222.932 544.967 224.165C543.574 225.389 542.873 226.912 542.873 228.731C542.873 231.429 544.538 233.48 547.861 234.879L550.207 235.853C550.818 236.116 551.342 236.39 551.781 236.678C552.224 236.967 552.582 237.275 552.858 237.603C553.14 237.934 553.34 238.294 553.474 238.686C553.602 239.08 553.669 239.511 553.669 239.981C553.669 241.154 553.292 242.121 552.539 242.884C551.781 243.649 550.832 244.03 549.687 244.03C548.238 244.03 547.141 243.505 546.383 242.46C545.963 241.917 545.672 240.933 545.501 239.511L541.786 240.327C542.125 242.586 542.969 244.337 544.323 245.583C545.696 246.827 547.437 247.45 549.549 247.45C551.771 247.45 553.631 246.718 555.133 245.254C556.621 243.801 557.365 241.959 557.365 239.729C557.365 238.066 556.912 236.663 555.996 235.518C555.085 234.37 553.64 233.401 551.671 232.607L549.249 231.618C547.484 230.896 546.602 229.944 546.602 228.762C546.602 227.904 546.941 227.193 547.613 226.628C548.281 226.053 549.125 225.765 550.145 225.765C550.975 225.765 551.647 225.933 552.177 226.267C552.677 226.559 553.207 227.187 553.764 228.15L556.735 226.394ZM492.958 226.221H494.611C497.735 226.221 500.102 226.958 501.706 228.432C503.491 230.085 504.382 232.24 504.382 234.898C504.382 237.532 503.479 239.674 501.675 241.313C500.794 242.11 499.808 242.689 498.717 243.056C497.626 243.404 496.258 243.575 494.611 243.575H492.958V226.221ZM494.328 247.01C496.79 247.01 498.696 246.787 500.039 246.336C501.475 245.887 502.85 245.087 504.161 243.935C506.772 241.634 508.08 238.622 508.08 234.898C508.08 231.184 506.824 228.187 504.316 225.906C503.081 224.776 501.7 223.976 500.18 223.505C498.765 223.025 496.835 222.781 494.389 222.781H489.292V247.01H494.328ZM474.296 222.784H460.888V247.012H474.296V243.574H464.555V235.479H474.01V232.042H464.555V226.22H474.296V222.784ZM434.971 226.22H436.276C439.655 226.22 441.344 227.459 441.344 229.939C441.344 232.586 439.607 233.908 436.136 233.908H434.971V226.22ZM439.535 236.685C441.148 236.341 442.45 235.551 443.436 234.316C444.421 233.083 444.915 231.608 444.915 229.891C444.915 227.695 444.129 225.928 442.555 224.588C441.127 223.387 438.81 222.784 435.601 222.784H431.305V247.012H434.971V237.095H435.632L442.571 247.012H447.054L439.535 236.685ZM416.307 222.784H402.901V247.012H416.307V243.574H406.567V235.479H416.024V232.042H406.567V226.22H416.307V222.784ZM387.904 222.784H374.497V247.012H387.904V243.574H378.164V235.479H387.621V232.042H378.164V226.22H387.904V222.784ZM340.775 247.01V230.049L358.493 248.486V222.784H354.826V239.621L337.109 221.137V247.01H340.775ZM317.422 247.008H321.088V222.781H317.422V247.008ZM292.589 237.832H298.648C298.48 239.537 297.677 241.002 296.24 242.225C294.802 243.439 293.182 244.045 291.378 244.045C289.26 244.045 287.293 243.235 285.478 241.615C283.537 239.868 282.566 237.642 282.566 234.944C282.566 232.327 283.437 230.154 285.178 228.416C286.919 226.649 289.075 225.765 291.646 225.765C294.51 225.765 296.938 227.089 298.93 229.735L301.542 227.24C300.021 225.504 298.474 224.249 296.901 223.475C295.254 222.701 293.481 222.313 291.582 222.313C288.047 222.313 285.047 223.544 282.583 226C280.117 228.447 278.885 231.429 278.885 234.944C278.885 238.386 280.096 241.335 282.519 243.794C284.943 246.243 287.854 247.467 291.252 247.467C294.735 247.467 297.603 246.201 299.859 243.668C300.856 242.537 301.563 241.325 301.983 240.029C302.414 238.626 302.629 237.016 302.629 235.195V234.396H292.589V237.832ZM246.123 247.01V230.049L263.84 248.486V222.784H260.174V239.621L242.457 221.137V247.01H246.123ZM227.458 222.784H214.052V247.012H227.458V243.574H217.72V235.479H227.176V232.042H217.72V226.22H227.458V222.784ZM696.515 165.994L684.537 132.097L672.597 165.994H696.515ZM497.427 124.466H470.301L497.427 195.602V124.466ZM459.151 166.129L447.305 132.232L435.325 166.129H459.151ZM271.905 164.22C273.399 160.828 274.191 157.109 274.191 153.064C274.191 149.017 273.399 145.155 271.905 141.814C270.32 138.416 268.176 135.396 265.612 132.931C262.905 130.33 259.832 128.42 256.331 127.075C252.839 125.585 249.245 124.93 245.28 124.93C241.458 124.93 237.729 125.585 234.329 127.075C230.827 128.42 227.798 130.33 225.191 132.931C222.483 135.396 220.476 138.416 218.889 141.814C217.404 145.155 216.61 149.017 216.61 153.064C216.61 157.109 217.404 160.828 218.889 164.22C220.476 167.71 222.483 170.639 225.191 173.104C227.798 175.66 230.827 177.613 234.329 179.052C237.729 180.399 241.458 181.096 245.28 181.096C249.245 181.096 252.839 180.399 256.331 179.052C259.832 177.613 262.905 175.66 265.612 173.104C268.176 170.639 270.32 167.71 271.905 164.22ZM832.195 101.927V203.794H805.764L756.802 141.537V203.794H709.619L703.511 186.125H665.607L659.494 203.794H612.315V161.812H574.082V203.794H547.556V124.332L524.046 124.467V203.93H472.344L466.278 186.262H428.33L422.222 203.93H374.944L325.85 141.672V203.93H299.317V169.848C298.903 171.287 298.339 172.634 297.781 174.123C294.938 180.633 290.973 186.355 286.029 191.234C281.043 196.073 275.078 199.883 268.084 202.667C261.089 205.419 253.538 206.764 245.28 206.764C237.029 206.764 229.385 205.419 222.484 202.667C215.582 199.883 209.617 196.073 204.674 191.234C200.479 187.144 197.123 182.449 194.508 177.241V177.336L164.296 220.53C164.296 220.53 163.689 221.362 163.411 221.783C143.735 249.958 104.901 256.933 76.6465 237.313C58.837 224.989 49.5065 204.949 50.0201 184.865H78.4182C78.4182 195.651 83.5908 206.302 93.199 212.949C108.766 223.777 130.211 220.017 141.077 204.392L166.119 168.545V66.0717L174.412 63L186.206 66.0717L194.415 63C194.415 63 194.465 63 194.508 128.842C197.123 123.54 200.479 118.847 204.674 114.8C209.617 109.962 215.582 106.151 222.484 103.409C229.385 100.615 237.029 99.2697 245.28 99.2697C253.538 99.2697 261.089 100.615 268.084 103.409C275.078 106.151 281.043 109.962 286.029 114.8C290.973 119.629 294.938 125.35 297.781 131.905C298.431 133.351 298.903 134.84 299.317 136.28V102.062H325.85L374.944 164.313V102.062H401.376V184.352L432.76 102.062H461.757L574.082 101.927V141.209H612.315V101.927H638.985V183.426L670.127 101.927H698.99L730.133 183.426V101.927H756.802L805.764 164.177V101.927H832.195ZM88.8123 185.343C88.8798 172.261 99.5667 161.704 112.693 161.772C125.811 161.838 136.397 172.501 136.331 185.583C136.263 198.666 125.57 209.223 112.45 209.157C99.3245 209.091 88.7459 198.426 88.8123 185.343Z" fill="#184493"/>
</svg>
