<svg xmlns="http://www.w3.org/2000/svg" width="900" height="312" fill="none"><g clip-path="url(#a)"><path fill="#e41d38" d="M555.042 38.751 498.423 95.32a15.8 15.8 0 0 1-11.207 4.971 15.15 15.15 0 0 1-10.709-4.518A15.1 15.1 0 0 1 472.163 85V54.503a15.2 15.2 0 0 0 4.324 10.829 15.23 15.23 0 0 0 10.729 4.587 15.99 15.99 0 0 0 11.207-4.972l56.619-56.693z"/><path fill="#e41d38" d="M504.026 52.956a15.19 15.19 0 0 0-4.339-10.886 15.23 15.23 0 0 0-10.798-4.572 16.02 16.02 0 0 0-11.207 4.971l-52.688 52.85a15.829 15.829 0 0 1-11.374 4.93 15.31 15.31 0 0 1-10.78-4.479A15.28 15.28 0 0 1 398.357 85V54.502a15.335 15.335 0 0 0 9.387 14.255 15.4 15.4 0 0 0 5.876 1.203 15.94 15.94 0 0 0 11.207-4.972l52.939-53.016A15.98 15.98 0 0 1 488.889 7a15.23 15.23 0 0 1 10.729 4.587 15.2 15.2 0 0 1 4.325 10.83v30.539z"/><path fill="#e41d38" d="M430.597 52.956a15.28 15.28 0 0 0-4.349-10.805 15.3 15.3 0 0 0-10.704-4.611 15.7 15.7 0 0 0-11.207 4.971l-57.873 57.738v-30.29l57.831-57.987A15.68 15.68 0 0 1 415.544 7a15.3 15.3 0 0 1 10.704 4.61 15.28 15.28 0 0 1 4.349 10.806z"/><path fill="#231f20" d="M800 226.251h-52.897v-3.593c9.576-.418 12.545-.794 12.545-3.217a11.24 11.24 0 0 0-3.764-6.809l-28.644-33.966-4.181 3.802v29.244c0 9.192 5.394 9.609 13.757 10.779v3.593h-53.064v-3.426c8.363-.794 13.757-1.587 13.757-10.779v-73.195c0-8.355-5.018-9.985-11.249-10.402a12.54 12.54 0 0 0-9.157 9.609l-31.655 90.741h-4.182l-26.678-70.73h-.836l-28.686 70.73h-4.6l-33.453-90.741c-2.76-7.52-4.181-8.774-10.83-9.985v-3.593h46.248v3.593c-5.436.417-9.994.793-9.994 6.392a12 12 0 0 0 1.255 5.222l18.775 54.311 18.734-45.955-5.855-14.414c-1.463-3.676-3.763-5.18-11.248-5.598v-3.551h49.176v3.593c-6.649.417-11.249.793-11.249 6.016a36.2 36.2 0 0 0 2.091 8.355l17.103 50.134h.418l17.061-51.303a12.53 12.53 0 0 0 1.254-6.393c0-6.392-5.394-6.392-10.83-6.809v-3.593h77.485v3.593c-8.363.793-13.758 1.211-13.758 13.995v32.211l34.164-32.754c4.182-4.178 5.436-5.598 5.436-8.355 0-3.593-1.672-4.387-13.339-5.181v-3.509h45.998v3.593c-16.727 1.211-24.17 8.355-50.849 34.383l48.34 57.152a8.65 8.65 0 0 0 7.485 3.217v3.593zm-557.491 0h-52.103v-3.593c9.158-1.211 13.758-1.587 13.758-11.572v-75.577h-.418l-39.182 90.742h-4.182l-39.139-88.736h-.335v70.02c0 10.778 2.927 14.371 15.848 15.207v3.593H100v-3.677c12.545-1.211 14.176-3.593 14.176-12.533v-71.023c0-7.979-2.509-9.985-13.758-10.779v-4.177h39.6l31.236 71.022 31.655-71.022h39.6v4.177c-8.74.418-14.176.794-14.176 13.996v66.344c0 11.99 3.764 12.533 14.176 13.995z"/><path fill="#231f20" d="M319.158 175.491c0-21.558-5.855-48.379-27.933-48.379-22.079 0-27.934 26.362-27.934 48.379 0 13.202 1.255 48.755 27.934 48.755 26.678 0 27.933-35.595 27.933-48.755m27.515 0c.041 32.044-23.334 53.559-55.407 53.559s-55.448-21.515-55.448-53.559c0-32.754 25.09-53.142 55.407-53.142s55.489 20.346 55.489 53.142"/><path fill="#231f20" d="m515.86 190.823-16.266-36.764L485 190.823zm47.921 35.595h-51.266v-3.76c9.994-.794 12.921-.794 12.921-6.016 0-4.178-5.018-15.207-7.527-19.97h-35.418a102 102 0 0 0-6.691 19.594c0 5.598 7.486 5.974 12.922 6.392v3.593h-83.465v-3.593c8.363-.794 14.175-1.587 14.175-10.779v-34.801h-37.759v34.634c0 9.191 5.812 9.985 14.175 10.779v3.593h-52.939v-3.426c8.363-1.211 13.339-2.005 13.339-10.779v-73.195c0-9.609-7.066-9.985-13.339-10.778v-3.593h52.939v3.593c-7.067.417-14.175.793-14.175 10.778v31.25H419.6v-31.25c0-9.985-7.067-10.402-14.176-10.778v-3.593h53.734v3.593c-7.067.417-14.176 1.211-14.176 10.778v73.028c0 7.98 4.6 10.403 10.83 10.403 4.182 0 8.949 0 16.267-17.171l35-82.72h4.181l35.419 79.127c7.317 16.294 9.575 21.6 17.102 21.182v3.885m222.001-70.145h1.548a2.67 2.67 0 0 0 2.472-2.105 2.7 2.7 0 0 0-.005-1.154 2.39 2.39 0 0 0-.589-1.983 2.38 2.38 0 0 0-1.92-.774h-1.506v6.058zm-4.181-6.726h6.314a3.56 3.56 0 0 1 2.821.693 3.56 3.56 0 0 1 1.361 2.565 4.175 4.175 0 0 1-2.802 3.802l2.049 2.841a17.5 17.5 0 0 0 2.718 3.05v.292h-2.258c-1.129 0-2.049-2.465-4.182-5.849h-1.84v3.551c0 1.546 0 1.546 1.757 1.713v.543h-5.938v-.501c1.798 0 1.756 0 1.756-1.713v-8.731c0-1.63 0-1.588-1.756-1.755v-.543zm5.812-4.178a10.96 10.96 0 0 0-10.67 6.178 10.94 10.94 0 0 0 1.843 12.182 10.964 10.964 0 0 0 17.072-1.259 10.94 10.94 0 0 0 1.917-6.155 10.73 10.73 0 0 0-2.865-7.526 10.75 10.75 0 0 0-7.297-3.42m0 23.354a12.56 12.56 0 0 1-7.079-1.906 12.53 12.53 0 0 1-5.691-12.807 12.52 12.52 0 0 1 3.333-6.525 12.55 12.55 0 0 1 13.718-2.91 12.54 12.54 0 0 1 7.846 11.614 12.182 12.182 0 0 1-3.427 8.813 12.2 12.2 0 0 1-8.7 3.721M261.619 298.527h-3.889V269.7h3.889zm14.008-28.785h.627l.126.46 16.726 21.724V269.7h3.429v28.827h-2.091a1.7 1.7 0 0 1-.794 0 2 2 0 0 1-.627-.543l-16.727-21.725v22.435h-3.261v-28.827h2.592zm57.205 14.372a16.3 16.3 0 0 1-1.046 5.89 13.1 13.1 0 0 1-2.885 4.554 12.9 12.9 0 0 1-4.516 2.925 15.8 15.8 0 0 1-5.813 1.044h-10.746V269.7h10.788a15.7 15.7 0 0 1 5.812 1.045 12.9 12.9 0 0 1 4.517 2.924 13.2 13.2 0 0 1 2.885 4.554 16.3 16.3 0 0 1 1.004 5.891m-4.182 0a14.5 14.5 0 0 0-.711-4.763 10 10 0 0 0-2.049-3.551 8.8 8.8 0 0 0-3.22-2.214 11.2 11.2 0 0 0-4.181-.752h-6.775v22.434h6.858a11.2 11.2 0 0 0 4.182-.752 8.8 8.8 0 0 0 3.22-2.214 9.9 9.9 0 0 0 2.049-3.509c.52-1.506.788-3.087.794-4.679zm24.964 11.154a8 8 0 0 0 3.22-.585 6.65 6.65 0 0 0 2.383-1.671 7.4 7.4 0 0 0 1.506-2.59c.345-1.066.515-2.18.502-3.3v-17.547h3.888v17.547a13.1 13.1 0 0 1-.794 4.637 10.8 10.8 0 0 1-2.258 3.676 10.5 10.5 0 0 1-3.596 2.424 13.44 13.44 0 0 1-9.576 0 10.6 10.6 0 0 1-3.638-2.424 10.7 10.7 0 0 1-2.3-3.676 13.1 13.1 0 0 1-.795-4.637v-17.547h3.889v17.505a10.2 10.2 0 0 0 .502 3.3 7.4 7.4 0 0 0 1.506 2.591 6.8 6.8 0 0 0 2.383 1.712 8 8 0 0 0 3.178.585m37.3-20.889a1.5 1.5 0 0 1-.376.46.84.84 0 0 1-.502 0 1.42 1.42 0 0 1-.836-.46l-1.171-.752a9.5 9.5 0 0 0-1.673-.752 7.2 7.2 0 0 0-2.383-.334 6.9 6.9 0 0 0-2.3.334 4.8 4.8 0 0 0-1.673.961c-.437.393-.78.878-1.004 1.421a4.5 4.5 0 0 0-.334 1.754c-.031.715.175 1.42.585 2.006a5.1 5.1 0 0 0 1.589 1.378 12 12 0 0 0 2.217.961l2.55.878q1.297.459 2.551 1.002a9 9 0 0 1 2.216 1.379 6.3 6.3 0 0 1 1.589 2.089c.419.946.619 1.974.586 3.008a9.7 9.7 0 0 1-.627 3.551 8.4 8.4 0 0 1-1.882 2.883 8.8 8.8 0 0 1-3.053 1.921 11.2 11.2 0 0 1-4.181.711 12.6 12.6 0 0 1-5.102-1.003 12.1 12.1 0 0 1-3.931-2.507l1.129-1.838c.102-.147.229-.275.377-.376a.93.93 0 0 1 .502 0c.191-.051.393-.051.585 0l.753.543.961.71q.595.413 1.255.711a8 8 0 0 0 1.589.543c.658.15 1.332.22 2.007.209a7.4 7.4 0 0 0 2.509-.502c.682-.23 1.309-.6 1.84-1.086.51-.463.91-1.034 1.171-1.671.279-.676.421-1.4.418-2.131a3.64 3.64 0 0 0-.585-2.13 4.9 4.9 0 0 0-1.631-1.337 10.8 10.8 0 0 0-2.3-1.045l-2.551-.794c-.878-.292-1.714-.584-2.551-.96a8.4 8.4 0 0 1-2.091-1.379 6.5 6.5 0 0 1-1.547-2.173 8.35 8.35 0 0 1 0-6.183 7.6 7.6 0 0 1 1.715-2.548 8.4 8.4 0 0 1 2.843-1.629 10.2 10.2 0 0 1 3.806-.669 12.1 12.1 0 0 1 4.557.669 10.35 10.35 0 0 1 3.513 2.214zm30.609-4.679v3.301h-9.325v25.568h-3.889v-25.568h-9.366V269.7zm12.211 16.795v12.032h-3.889V269.7h8.363a17.7 17.7 0 0 1 4.683.502 9 9 0 0 1 3.304 1.587 6.4 6.4 0 0 1 1.923 2.507 8.3 8.3 0 0 1 .627 3.3 8.3 8.3 0 0 1-.501 2.841 7.5 7.5 0 0 1-1.38 2.381 8.4 8.4 0 0 1-2.216 1.797c-.94.529-1.955.91-3.011 1.128.49.305.916.703 1.254 1.17l8.363 11.447H447.7a1.71 1.71 0 0 1-1.547-.836l-7.443-10.11a2.3 2.3 0 0 0-.795-.501 2.7 2.7 0 0 0-1.213 0h-2.968zm0-2.841h4.181a10 10 0 0 0 2.969-.418 6.2 6.2 0 0 0 2.007-1.17 4.9 4.9 0 0 0 1.338-1.796 5.9 5.9 0 0 0 .46-2.298 4.59 4.59 0 0 0-1.672-3.885 8.37 8.37 0 0 0-5.06-1.295h-4.182v10.904zm29.271 14.873h-3.889V269.7h3.889zm29.187-28.827v3.175h-13.883v9.567h11.249v3.05h-11.249v9.776h13.883v3.175h-17.771v-28.826h17.771zm24.254 4.679a1.6 1.6 0 0 1-.377.46.88.88 0 0 1-.502 0 1.42 1.42 0 0 1-.836-.46l-1.171-.752a9.5 9.5 0 0 0-1.672-.752 7.2 7.2 0 0 0-2.384-.334 6.9 6.9 0 0 0-2.3.334 4.9 4.9 0 0 0-1.672.961c-.437.393-.78.878-1.004 1.421a4.45 4.45 0 0 0-.334 1.754c-.031.715.175 1.42.585 2.006a5.1 5.1 0 0 0 1.589 1.378c.705.394 1.447.716 2.216.961l2.551.878a27 27 0 0 1 2.551 1.002 8.9 8.9 0 0 1 2.216 1.379 6.3 6.3 0 0 1 1.589 2.089 6.9 6.9 0 0 1 .585 3.008 9.7 9.7 0 0 1-.627 3.551 8.35 8.35 0 0 1-1.882 2.883 8.8 8.8 0 0 1-3.052 1.921 11.2 11.2 0 0 1-4.182.711 12.55 12.55 0 0 1-5.101-1.003 12 12 0 0 1-3.889-2.507l1.129-1.838a1.4 1.4 0 0 1 .376-.376.93.93 0 0 1 .502 0c.192-.049.393-.049.585 0l.753.543.962.71q.596.412 1.254.711c.51.234 1.043.415 1.589.543.659.15 1.333.22 2.008.209a7.4 7.4 0 0 0 2.467-.502 5.2 5.2 0 0 0 1.84-1.086 4.7 4.7 0 0 0 1.17-1.671c.28-.676.422-1.4.419-2.131a3.63 3.63 0 0 0-.419-2.172 4.9 4.9 0 0 0-1.756-1.295 11 11 0 0 0-2.216-.961l-2.551-.794c-.878-.292-1.714-.585-2.551-.961a8.3 8.3 0 0 1-2.174-1.462 6.4 6.4 0 0 1-1.547-2.173 8.34 8.34 0 0 1 0-6.183 7.6 7.6 0 0 1 1.714-2.548 8.4 8.4 0 0 1 2.718-1.629 10.2 10.2 0 0 1 3.806-.669 12.1 12.1 0 0 1 4.557.669 10.4 10.4 0 0 1 3.513 2.214zm9.617 21.683a2.22 2.22 0 0 1 .46-1.629 2.34 2.34 0 0 1 1.757-.669c.359-.007.716.064 1.045.209.31.144.583.358.794.627.21.275.366.587.46.919.058.374.058.754 0 1.128a7.6 7.6 0 0 1-.25 1.88 9.2 9.2 0 0 1-.753 1.922c-.344.663-.75 1.293-1.213 1.88a11 11 0 0 1-1.631 1.671l-.209-.585-.209-.251a.7.7 0 0 1 0-.292.54.54 0 0 1 0-.293l.209-.25.502-.585.627-.877a8 8 0 0 0 .586-1.045c.177-.4.304-.821.376-1.253h-.251a2.26 2.26 0 0 1-1.714-.71 2.5 2.5 0 0 1-.586-1.797m32.91 2.465h-3.889V269.7h3.889zm13.882-28.785h.628l.292.46 16.727 21.724V269.7h3.429v28.827h-1.966a1.7 1.7 0 0 1-.752 0 1.95 1.95 0 0 1-.628-.543l-16.726-21.725v22.435h-3.429v-28.827h2.467zm52.563 22.853a.75.75 0 0 1 .586.25l1.547 1.671a12.5 12.5 0 0 1-4.182 3.217 14.7 14.7 0 0 1-6.105 1.128 14.3 14.3 0 0 1-5.645-1.086 12.6 12.6 0 0 1-4.182-3.008 13.6 13.6 0 0 1-2.801-4.679 17.4 17.4 0 0 1-1.004-5.974 16.7 16.7 0 0 1 1.045-5.975 13.7 13.7 0 0 1 2.886-4.679 12.9 12.9 0 0 1 4.474-3.008 14.9 14.9 0 0 1 5.729-1.086c1.86-.03 3.708.311 5.436 1.003a13.8 13.8 0 0 1 4.181 2.673l-1.296 1.797a1 1 0 0 1-.293.334.87.87 0 0 1-.501 0 1.6 1.6 0 0 1-.878-.376 13 13 0 0 0-1.38-.877 10.6 10.6 0 0 0-2.091-.878 10.7 10.7 0 0 0-3.136-.376 10.5 10.5 0 0 0-4.182.794 8.9 8.9 0 0 0-3.178 2.256 10.3 10.3 0 0 0-2.091 3.593 14.3 14.3 0 0 0-.753 4.763c-.02 1.636.249 3.262.795 4.804a10.6 10.6 0 0 0 2.133 3.593 9 9 0 0 0 3.178 2.214c1.246.511 2.583.767 3.93.752q1.172.087 2.342 0a9.3 9.3 0 0 0 1.924-.459 8 8 0 0 0 1.63-.794 11.6 11.6 0 0 0 1.506-1.17c.085-.171.215-.315.376-.417m9.241 3.718a2.6 2.6 0 0 1 .711-1.797c.228-.229.498-.414.795-.543a2.55 2.55 0 0 1 1.965 0c.296.132.565.316.795.543a2.497 2.497 0 0 1-.042 3.51 2.5 2.5 0 0 1-.795.543 2.64 2.64 0 0 1-1.965 0c-.3-.124-.57-.309-.794-.543a2.5 2.5 0 0 1-.544-.794 2.6 2.6 0 0 1-.126-.919"/></g><defs><clipPath id="a"><path fill="#fff" d="M100 7h700v297H100z"/></clipPath></defs></svg>