<svg xmlns="http://www.w3.org/2000/svg" width="900" height="312" fill="none"><g fill="#222" clip-path="url(#a)"><path d="m134.059 155.925 40.493-41.994 53.679-.701C210.549 79.234 175.028 56 134.059 56c-40.973 0-76.496 23.238-94.177 57.239l51.911.692zM39.647 113.7a105.6 105.6 0 0 0-11.696 48.408c0 41.073 23.352 76.67 57.49 94.306l47.879-48.05zM240.167 162.108c0-17.625-4.322-34.231-11.926-48.858l-94.921 95.114L181.532 257c34.76-17.426 58.635-53.361 58.635-94.892M324.485 113.418l-25.006.184L336.197 210h22.207l36.27-96.393-23.938-.068-23.634 64.379zM413 113v97h70v-20h-48v-20h39v-19h-39v-17h48v-21zM759.763 113.418l-25.006.184L771.475 210h22.207l36.27-96.393-23.938-.068-23.634 64.379zM649 113h-24v97h24z"/><path d="M596 113h82v21h-82zM717 113h-22v97h22zM825 196h-2v15h2zM834 195h-2v16h2z"/><path d="m832.181 195 5.735 16h1.241l.595-2.306L834.765 195z"/><path d="m845.387 195-5.735 16h-1.179l-.657-2.306L842.803 195z"/><path d="M845 195h-2v16h2zM818 195h13v2h-13zM530 113h-22v97h22z"/><path d="M530.054 112.914h18.51c2.302 0 5.878.337 6.397.426 5.022.857 28.585 6.136 28.585 32.642 0 27.245-27.512 31.126-31.72 31.56a9 9 0 0 1-.945.049h-20.827c-5.103 0-5.103-18.479 0-18.479h19.245c1.43 0 2.839-.327 4.118-.967 2.975-1.49 7.598-4.963 7.598-12.163 0-8.247-6.699-11.017-9.69-11.843a9 9 0 0 0-2.39-.315h-18.881c-5.103 0-5.103-20.91 0-20.91"/><path d="M538.967 177.023 562.224 210h25.277l-31.685-44.838z"/></g><defs><clipPath id="a"><path fill="#fff" d="M10 48h881v217H10z"/></clipPath></defs></svg>