<svg width="900" height="312" viewBox="0 0 900 312" fill="none" xmlns="http://www.w3.org/2000/svg">
<rect width="900" height="312" fill="white"/>
<path d="M703.362 190.108H681.461L707.813 136.506H708.238L703.362 190.108ZM225.326 190.108H203.424L229.759 136.506H230.185L225.326 190.108ZM779.435 210.345L806.837 114.885H769.051L737.898 223.355L737.199 114.885H691.679L629.791 221.123L660.293 114.885H624.424L608.973 181.496H608.321L597.97 114.885H558.968L531.549 210.345H477.611L484.995 184.628H532.232L539.05 160.858H491.812L498.196 138.655H546.933L553.767 114.885H472.027H467.227H374.103L371.051 125.529C365.534 117.2 353.633 112.153 335.248 112.153C305.913 112.153 284.361 123.58 277.944 145.95C274.943 156.427 276.928 163.707 282.078 169.737C287.428 175.767 295.995 180.364 306.23 185.277C314.913 189.725 325.115 193.523 322.231 203.517C320.516 209.53 314.913 215.41 306.029 215.41C294.078 215.41 292.796 209.363 294.762 202.533L297.177 194.105L262.157 194.153L259.724 202.615L259.157 114.883H213.637L187.535 159.69L194.569 135.172H131.864L139.948 107.055H208.087L217.238 75.1727H98.7951L53.1746 234.08H103.462L122.713 167.053H183.235L144.182 234.096H182.184L193.302 211.093H222.938L221.705 234.096H259.924L259.877 222.536C264.611 230.931 276.878 236.828 299.13 236.828C330.516 236.828 351.35 224.135 357.901 201.282C362.049 186.857 359.168 178.929 352.101 172.915C345.017 166.886 333.949 162.755 321.665 156.109C315.065 152.294 311.131 148.647 314.248 141.517C316.634 136.287 322.082 133.105 329.749 133.589C342.15 134.221 338.983 143.733 337.416 150.712H372.219C373.769 146.429 374.567 142.4 374.652 138.653H396.937L369.518 234.096H407.321L434.723 138.653H460.408L433.007 234.096H524.747H526.58H560.716L576.35 167.652L576.865 167.322L587.383 234.083H622.235H626.067H660.253L671.371 211.08H701.006L699.754 234.083H734.824H737.975H818.78L825.614 210.33L779.435 210.345Z" fill="#1A64B7"/>
<path d="M834.5 124.849V121.238H836.901C838.134 121.238 839.452 121.521 839.452 122.952C839.452 124.751 838.12 124.849 836.617 124.849H834.5ZM838.266 126.266C839.981 126.03 841.285 125.152 841.285 123.05C841.285 120.751 839.933 119.736 837.169 119.736H832.738V131.379H834.505V126.349H836.536L839.622 131.379H841.587L838.266 126.266Z" fill="#1A64B7"/>
<path d="M836.641 133.963C832.006 133.963 828.374 130.399 828.374 125.552C828.374 120.755 832.007 117.157 836.641 117.157C841.21 117.157 844.809 120.755 844.809 125.552C844.809 130.399 841.208 133.963 836.641 133.963ZM836.641 115.491C831.074 115.491 826.357 119.74 826.357 125.552C826.357 131.382 831.072 135.63 836.641 135.63C842.142 135.63 846.826 131.38 846.826 125.552C846.826 119.738 842.143 115.491 836.641 115.491Z" fill="#1A64B7"/>
</svg>
