<svg width="900" height="312" viewBox="0 0 900 312" fill="none" xmlns="http://www.w3.org/2000/svg">
<rect width="900" height="312" fill="white"/>
<g clip-path="url(#clip0_7_98)">
<path fill-rule="evenodd" clip-rule="evenodd" d="M774.918 193.384H805.31V85H774.918V193.384ZM850 85V193.384H819.612V85H850ZM114.802 127.097H90.2219V85H50V193.384H90.2219V139.642H114.802V193.384H155.028V85H114.802V127.097ZM303.631 125.305L301.172 118.141H268.098V193.385H301.172V148.151C301.172 138.295 307.431 132.922 312.793 132.922C317.261 132.922 323.069 133.817 323.069 143.672V193.385H356.143V144.567C356.143 117.247 325.534 106.5 303.631 125.305ZM643.298 161.807L627.88 118.141H605.31L589.889 163.599L573.798 118.141H529.555L513.685 156.43L491.34 118.141H453.573L498.042 194.279L492.235 208.606C490.22 213.088 485.405 213.31 484.463 209.055C484.463 201.36 478.236 195.124 470.556 195.124C462.877 195.124 456.651 201.36 456.651 209.055C456.705 217.118 464.748 227.642 480.613 226.969C496.481 226.299 503.183 213.089 505.417 207.49L542.169 118.434L568.66 193.384H592.794L607.543 150.162L622.739 193.384H645.53L671.228 118.141H658.046L643.298 161.807ZM212.008 114.317C186.702 114.317 166.191 133.172 166.191 156.43C166.191 179.696 186.702 198.553 212.008 198.553C237.318 198.553 257.833 179.696 257.833 156.43C257.833 133.172 237.318 114.317 212.008 114.317ZM223.408 176.134C223.408 179.164 222.207 182.07 220.069 184.212C217.931 186.355 215.031 187.558 212.008 187.558C205.719 187.558 200.616 182.445 200.616 176.134V136.73C200.616 130.423 205.719 125.315 212.008 125.315C218.305 125.315 223.408 130.423 223.408 136.729V176.134Z" fill="#DE1E34"/>
<path fill-rule="evenodd" clip-rule="evenodd" d="M457.247 162.478C457.487 160.716 457.613 158.256 457.613 156.43C457.613 133.172 437.097 114.317 411.791 114.317C386.48 114.317 365.964 133.172 365.964 156.43C365.964 179.696 386.48 198.553 411.791 198.553C429.179 198.553 444.304 189.648 452.071 176.528L441.948 172.776C435.832 182.144 424.614 188.417 411.791 188.417C405.494 188.417 400.391 182.445 400.391 176.134V162.481L457.247 162.478ZM400.391 136.729C400.391 130.423 405.494 125.315 411.791 125.315C418.083 125.315 423.186 130.423 423.186 136.729V151.731H400.391V136.729ZM763.387 162.478C763.635 160.716 763.759 158.256 763.759 156.43C763.759 133.172 743.243 114.317 717.934 114.317C692.627 114.317 672.112 133.172 672.112 156.43C672.112 179.696 692.627 198.553 717.934 198.553C735.326 198.553 750.451 189.648 758.217 176.528L748.095 172.776C741.978 182.144 730.762 188.417 717.934 188.417C711.64 188.417 706.537 182.445 706.537 176.134V162.481L763.387 162.478ZM706.537 136.729C706.537 130.423 711.64 125.315 717.934 125.315C724.231 125.315 729.334 130.423 729.334 136.729V151.731H706.537V136.729Z" fill="#DE1E34"/>
</g>
<defs>
<clipPath id="clip0_7_98">
<rect width="800" height="142" fill="white" transform="translate(50 85)"/>
</clipPath>
</defs>
</svg>
