<svg width="900" height="312" viewBox="0 0 900 312" fill="none" xmlns="http://www.w3.org/2000/svg">
<rect width="900" height="312" fill="none"/>
<g clip-path="url(#clip0_17_174)">
<path fill-rule="evenodd" clip-rule="evenodd" d="M83.4343 162.019L79.0733 126.388H78.8795L73.8401 162.019H83.5312H83.4343ZM84.5972 179.981H72.7741L69.6729 198.913H50L64.5366 113.281H93.6099L107.371 198.815H87.7953L84.6941 179.883L84.5972 179.981Z" fill="#101820"/>
<path fill-rule="evenodd" clip-rule="evenodd" d="M329.879 162.019L325.518 126.388H325.324L320.285 162.019H329.976H329.879ZM331.042 179.981H319.219L316.118 198.913H296.542L311.078 113.379H340.151L353.913 198.913H334.337L331.236 179.981H331.042Z" fill="#101820"/>
<path fill-rule="evenodd" clip-rule="evenodd" d="M162.61 180.466C170.17 180.466 170.363 170.951 170.363 155.709C170.363 140.466 170.073 130.951 162.61 130.951C155.148 130.951 155.051 140.466 155.051 155.709C155.051 170.951 155.342 180.466 162.61 180.466ZM186.257 206.971H161.254L156.214 198.913C137.898 195.32 136.154 173.573 136.154 155.709C136.154 137.845 136.735 111.922 162.61 111.922C188.486 111.922 189.358 135.903 189.358 155.709C189.358 175.515 188.001 192.505 173.465 197.748H180.733L186.257 206.971Z" fill="#101820"/>
<path fill-rule="evenodd" clip-rule="evenodd" d="M267.662 170.66C267.662 192.796 257.583 199.495 243.047 199.495C228.51 199.495 218.141 192.796 218.141 170.66V113.281H237.426V169.495C237.426 176.194 237.426 180.369 243.047 180.369C248.667 180.369 248.377 176.194 248.377 169.495V113.281H267.662V170.66Z" fill="#101820"/>
<path fill-rule="evenodd" clip-rule="evenodd" d="M571.575 113.282H590.957V180.175H610.048V198.816H571.575V113.282Z" fill="#101820"/>
<path fill-rule="evenodd" clip-rule="evenodd" d="M717.232 113.282H740.684L753.089 171.631H753.38V113.282H770.63V198.719H748.631L734.773 137.651H734.482V198.719H717.232V113.282Z" fill="#101820"/>
<path fill-rule="evenodd" clip-rule="evenodd" d="M850 190.854C843.894 197.068 835.754 200.078 827.032 200.078C800.963 200.078 799.315 173.961 799.315 154.35C799.315 134.738 806.584 112.02 827.613 112.02C848.643 112.02 842.15 114.544 847.189 119.592V141.728C844.379 136.388 837.401 131.049 831.199 131.049C818.891 131.049 818.31 146.486 818.31 158.233C818.31 169.981 819.182 182.893 827.032 182.893C834.882 182.893 829.842 182.311 830.715 181.825V155.223H850V190.854Z" fill="#101820"/>
<path fill-rule="evenodd" clip-rule="evenodd" d="M688.546 170.66C688.546 192.796 678.467 199.495 663.931 199.495C649.394 199.495 639.025 192.796 639.025 170.66V113.282H658.31V169.495C658.31 176.194 658.31 180.369 663.931 180.369C669.552 180.369 669.261 176.194 669.261 169.495V113.282H688.546V170.66Z" fill="#101820"/>
<path d="M531.551 150.272C524.379 157.359 517.886 163.185 501.217 177.845C474.179 200.952 453.053 205.515 444.815 196.486C438.807 189.981 446.172 171.534 448.692 165.709C451.211 159.689 454.313 151.534 450.048 147.845C443.749 142.408 433.089 147.262 426.693 150.66C413.513 157.748 397.135 167.748 395.1 169.01C394.422 165.709 394.131 161.922 394.131 161.922C401.302 154.835 407.892 148.913 424.561 134.253C451.599 111.146 472.726 106.583 480.963 115.612C486.972 122.117 479.606 140.563 477.087 146.388C474.567 152.505 471.466 160.563 475.73 164.253C482.029 169.689 492.689 164.835 499.085 161.437C512.265 154.35 528.449 144.544 530.581 143.185C531.066 145.515 531.357 147.942 531.551 150.272Z" fill="#0033A0"/>
<path d="M462.841 76C418.746 76 382.986 111.825 382.986 156C382.986 200.175 418.746 236 462.841 236C506.935 236 542.695 200.175 542.695 156C542.695 111.825 506.935 76 462.841 76ZM462.841 225.029C424.755 225.029 393.937 194.155 393.937 156C393.937 117.845 424.755 86.9709 462.841 86.9709C500.927 86.9709 531.744 117.845 531.744 156C531.744 194.155 500.927 225.029 462.841 225.029Z" fill="#101820"/>
</g>
<defs>
<clipPath id="clip0_17_174">
<rect width="800" height="160" fill="none" transform="translate(50 76)"/>
</clipPath>
</defs>
</svg>
