<svg xmlns="http://www.w3.org/2000/svg" width="900" height="312" fill="none"><mask id="a" width="799" height="153" x="50" y="79" maskUnits="userSpaceOnUse" style="mask-type:luminance"><path fill="#fff" d="M50 79h798.495v152.377H50z"/></mask><g mask="url(#a)"><path fill="#dd1b2d" d="M368.064 146.032s0 5.922.005 8.741c.82-1.615 6.217-10.743 17.054-10.743h3.358v15.081h-3.434c-9.94 0-15.448 7.302-15.448 16.394v33.561h-17.733v-63.034zm185.274 7.646v-7.646h16.191v85.343h-17.773v-22.309h-18.36c-18.65 0-33.169-14.551-33.169-32.504 0-18.564 15.229-32.532 32.18-32.532 13.76 0 20.931 9.65 20.931 9.65zm-1.582 23.026c0-9.562-7.922-17.255-17.616-17.255-9.555 0-17.325 7.272-17.607 16.731-.284 9.643 7.396 17.779 17.607 17.779l17.616-.006z"/><path fill="#dd1b2d" fill-rule="evenodd" d="M334.255 122.875v15.138h-17.733v-15.14zm0 23.157v63.034h-17.733v-63.034z" clip-rule="evenodd"/><path fill="#dd1b2d" d="M279.384 209.066V180.59h-31.888v28.476h-17.949l.02-50.13c0-19.897 17.152-36.061 38.389-36.061h29.381v86.191zm-11.426-71.053c-11.283 0-20.455 8.604-20.455 19.267v9h31.878l.003-28.267z"/><path fill="#dd1b2d" fill-rule="evenodd" d="M487.591 146.032v63.034h-17.733v-63.034zm0-23.159v15.14h-17.733v-15.14zm196.173 23.159v63.034h-17.733v-63.034zm0-23.159v15.14h-17.733v-15.14zm-98.591 23.159h17.726v35.231c0 9.6 7.076 14.719 13.958 14.719 6.648 0 14.373-4.399 14.373-14.717v-35.233h17.726v63.056h-16.198v-7.636l-.27.306c-5.15 5.839-12.395 9.328-20.762 9.328-13.607 0-26.535-11.115-26.535-27.231z" clip-rule="evenodd"/><path fill="#dd1b2d" d="M435.034 122.875v71.077h23.11v15.071l-41.061.045v-86.193zm314.454 78.548v7.64h16.192v-86.188h-17.769v23.157h-18.36c-18.652 0-33.165 14.555-33.165 32.508 0 18.563 15.223 32.528 32.176 32.528 13.758 0 20.926-9.645 20.926-9.645m-1.577-23.025c0 9.556-7.923 17.249-17.616 17.249-9.553 0-17.323-7.268-17.6-16.729-.293-9.643 7.387-17.775 17.6-17.775l17.616.004zm66.093 32.688c-19.718 0-35.713-15.012-35.713-33.529s15.977-33.534 35.695-33.534c19.73 0 34.509 15.03 34.509 33.534 0 1.822-.068 3.586-.311 5.686l-52.897.006c2.636 7.817 9.615 13.415 18.699 13.415 8.406 0 13.537-2.599 17.763-7.522l12.757 8.276c-6.921 8.417-17.542 13.668-30.502 13.668m-18.672-39.357h36.182c-2.569-7.809-8.482-13.279-17.528-13.279-9.065 0-16.085 5.58-18.654 13.279"/><path fill="#3c60a5" d="M126.21 122.87c17.825 0 32.272 14.43 32.272 32.22v32.225h-32.268c-17.825 0-32.275-14.425-32.275-32.222 0-17.793 14.447-32.223 32.271-32.223m54.055 86.198h-54.058c-29.859 0-54.057-24.165-54.057-53.971 0-29.812 24.2-53.977 54.057-53.977 29.855 0 54.058 24.165 54.058 53.977zM126.309 79H50v76.192c0 42.081 34.163 76.185 76.309 76.185 42.143 0 76.308-34.104 76.308-76.185 0-42.078-34.165-76.192-76.308-76.192"/></g></svg>