<svg width="900" height="312" viewBox="0 0 900 312" fill="none" xmlns="http://www.w3.org/2000/svg">
<rect width="900" height="312" fill="none"/>
<g clip-path="url(#clip0_6_496)">
<path d="M555.042 38.7513L498.423 95.3187C496.981 96.8514 495.246 98.0807 493.322 98.9344C491.397 99.7882 489.322 100.249 487.216 100.29C485.221 100.279 483.248 99.8746 481.41 99.0993C479.572 98.3239 477.906 97.1932 476.507 95.7722C475.108 94.3512 474.004 92.6679 473.259 90.8191C472.513 88.9704 472.14 86.9926 472.163 84.9995V54.5016C472.135 56.5021 472.503 58.4885 473.245 60.3468C473.987 62.2051 475.089 63.8988 476.487 65.3309C477.886 66.763 479.553 67.9053 481.394 68.6924C483.235 69.4795 485.214 69.8959 487.216 69.9177C489.32 69.8673 491.393 69.4022 493.316 68.549C495.239 67.6958 496.975 66.4714 498.423 64.9461L555.042 8.2533V38.7513Z" fill="#E41D38"/>
<path d="M504.026 52.9558C504.06 50.9448 503.693 48.9472 502.948 47.0786C502.204 45.21 501.095 43.5076 499.687 42.07C498.279 40.6323 496.6 39.488 494.747 38.7032C492.893 37.9184 490.902 37.5087 488.889 37.498C486.786 37.5506 484.713 38.0168 482.791 38.8698C480.868 39.7228 479.132 40.9461 477.682 42.4695L424.994 95.3188C423.529 96.8639 421.766 98.0971 419.811 98.9443C417.856 99.7915 415.751 100.235 413.62 100.249C409.576 100.238 405.7 98.6274 402.84 95.7701C399.98 92.9127 398.368 89.0405 398.357 84.9996V54.5016C398.341 56.5186 398.723 58.5191 399.481 60.3883C400.24 62.2576 401.36 63.959 402.778 65.3949C404.196 66.8309 405.883 67.9732 407.744 68.7565C409.604 69.5398 411.601 69.9486 413.62 69.9595C415.724 69.9114 417.798 69.4473 419.721 68.594C421.645 67.7407 423.38 66.515 424.827 64.9879L477.766 11.9716C480.67 8.91108 484.669 7.12369 488.889 7C490.891 7.0218 492.87 7.43816 494.711 8.22524C496.552 9.01233 498.22 10.1546 499.618 11.5867C501.017 13.0188 502.118 14.7126 502.86 16.5709C503.603 18.4292 503.97 20.4155 503.943 22.4161V52.9558H504.026Z" fill="#E41D38"/>
<path d="M430.597 52.9558C430.631 48.9219 429.068 45.0381 426.248 42.1506C423.428 39.263 419.581 37.6057 415.544 37.5397C413.437 37.5738 411.359 38.0316 409.434 38.8858C407.508 39.74 405.775 40.973 404.337 42.5113L346.464 100.249V69.9595L404.295 11.9716C405.738 10.4282 407.478 9.19226 409.411 8.33791C411.344 7.48356 413.43 7.02847 415.544 7C419.581 7.06599 423.428 8.72328 426.248 11.6108C429.068 14.4983 430.631 18.3821 430.597 22.4161V52.9558Z" fill="#E41D38"/>
<path d="M800 226.251H747.103V222.658C756.679 222.24 759.648 221.864 759.648 219.441C759.244 216.796 757.91 214.381 755.884 212.632L727.24 178.666L723.059 182.468V211.712C723.059 220.904 728.453 221.321 736.816 222.491V226.084H683.752V222.658C692.115 221.864 697.509 221.071 697.509 211.879V138.684C697.509 130.329 692.491 128.699 686.26 128.282C683.987 128.867 681.924 130.077 680.305 131.776C678.686 133.475 677.576 135.593 677.103 137.891L645.448 228.632H641.266L614.588 157.902H613.752L585.066 228.632H580.466L547.013 137.891C544.253 130.371 542.832 129.117 536.183 127.906V124.313H582.431V127.906C576.995 128.323 572.437 128.699 572.437 134.298C572.456 136.111 572.885 137.896 573.692 139.52L592.467 193.831L611.201 147.876L605.346 133.462C603.883 129.786 601.583 128.282 594.098 127.864V124.313H643.274V127.906C636.625 128.323 632.025 128.699 632.025 133.922C632.387 136.78 633.088 139.585 634.116 142.277L651.219 192.411H651.637L668.698 141.108C669.672 139.125 670.105 136.919 669.952 134.715C669.952 128.323 664.558 128.323 659.122 127.906V124.313H736.607V127.906C728.244 128.699 722.849 129.117 722.849 141.901V174.112L757.013 141.358C761.195 137.18 762.449 135.76 762.449 133.003C762.449 129.41 760.777 128.616 749.11 127.822V124.313H795.108V127.906C778.381 129.117 770.938 136.261 744.259 162.289L792.599 219.441C793.486 220.55 794.633 221.424 795.939 221.985C797.244 222.546 798.668 222.777 800.084 222.658V226.251H800ZM242.509 226.251H190.406V222.658C199.564 221.447 204.164 221.071 204.164 211.086V135.509H203.746L164.564 226.251H160.382L121.243 137.515H120.908V207.535C120.908 218.313 123.835 221.906 136.756 222.742V226.335H100V222.658C112.545 221.447 114.176 219.065 114.176 210.125V139.102C114.176 131.123 111.667 129.117 100.418 128.323V124.146H140.018L171.254 195.168L202.909 124.146H242.509V128.323C233.769 128.741 228.333 129.117 228.333 142.319V208.663C228.333 220.653 232.097 221.196 242.509 222.658V226.251Z" fill="#231F20"/>
<path d="M319.158 175.491C319.158 153.933 313.303 127.112 291.225 127.112C269.146 127.112 263.291 153.474 263.291 175.491C263.291 188.693 264.546 224.246 291.225 224.246C317.903 224.246 319.158 188.651 319.158 175.491ZM346.673 175.491C346.714 207.535 323.339 229.05 291.266 229.05C259.194 229.05 235.818 207.535 235.818 175.491C235.818 142.737 260.908 122.349 291.225 122.349C321.541 122.349 346.714 142.695 346.714 175.491" fill="#231F20"/>
<path d="M515.86 190.823L499.594 154.059L485 190.823H515.86ZM563.781 226.418H512.515V222.658C522.509 221.864 525.436 221.864 525.436 216.642C525.436 212.464 520.418 201.435 517.909 196.672H482.491C479.603 202.96 477.361 209.525 475.8 216.266C475.8 221.864 483.286 222.24 488.722 222.658V226.251H405.257V222.658C413.62 221.864 419.432 221.071 419.432 211.879V177.078H381.673V211.712C381.673 220.903 387.485 221.697 395.848 222.491V226.084H342.909V222.658C351.272 221.447 356.248 220.653 356.248 211.879V138.684C356.248 129.075 349.182 128.699 342.909 127.906V124.313H395.848V127.906C388.781 128.323 381.673 128.699 381.673 138.684V169.934H419.6V138.684C419.6 128.699 412.533 128.282 405.424 127.906V124.313H459.158V127.906C452.091 128.323 444.982 129.117 444.982 138.684V211.712C444.982 219.692 449.582 222.115 455.812 222.115C459.994 222.115 464.761 222.115 472.079 204.944L507.079 122.224H511.26L546.679 201.351C553.996 217.645 556.254 222.951 563.781 222.533V226.126V226.418ZM785.782 156.273H787.33C787.719 156.252 788.098 156.147 788.442 155.964C788.786 155.782 789.086 155.526 789.321 155.216C789.556 154.906 789.72 154.548 789.802 154.168C789.884 153.787 789.883 153.394 789.797 153.014C789.854 152.661 789.831 152.299 789.729 151.955C789.627 151.612 789.449 151.296 789.208 151.031C788.967 150.766 788.669 150.559 788.336 150.425C788.004 150.291 787.646 150.233 787.288 150.257H785.782V156.315V156.273ZM781.601 149.547H787.915C788.408 149.457 788.914 149.473 789.4 149.592C789.886 149.712 790.341 149.933 790.736 150.24C791.131 150.548 791.456 150.936 791.691 151.378C791.925 151.82 792.064 152.306 792.097 152.805C792.068 153.647 791.785 154.461 791.285 155.139C790.785 155.818 790.091 156.33 789.295 156.607L791.344 159.448C792.128 160.567 793.04 161.591 794.062 162.498V162.79H791.804C790.675 162.79 789.755 160.325 787.622 156.941H785.782V160.492C785.782 162.038 785.782 162.038 787.539 162.205V162.748H781.601V162.247C783.399 162.247 783.357 162.247 783.357 160.534V151.803C783.357 150.173 783.357 150.215 781.601 150.048V149.505V149.547ZM787.413 145.369C785.22 145.209 783.029 145.713 781.126 146.815C779.223 147.917 777.696 149.566 776.743 151.547C775.791 153.527 775.457 155.749 775.786 157.922C776.115 160.094 777.09 162.118 778.586 163.729C780.082 165.34 782.028 166.465 784.172 166.955C786.316 167.446 788.558 167.281 790.607 166.481C792.656 165.681 794.416 164.283 795.658 162.47C796.901 160.657 797.569 158.512 797.575 156.315C797.633 153.53 796.606 150.831 794.71 148.789C792.814 146.746 790.197 145.52 787.413 145.369ZM787.413 168.723C784.916 168.806 782.451 168.142 780.334 166.817C778.216 165.491 776.544 163.564 775.53 161.282C774.516 159.001 774.207 156.468 774.643 154.01C775.078 151.552 776.239 149.28 777.976 147.485C779.712 145.69 781.946 144.455 784.39 143.936C786.834 143.418 789.378 143.64 791.694 144.575C794.011 145.51 795.995 147.115 797.393 149.185C798.791 151.254 799.539 153.693 799.54 156.189C799.584 157.812 799.304 159.428 798.716 160.941C798.128 162.454 797.243 163.835 796.113 165.002C794.984 166.17 793.633 167.1 792.139 167.739C790.645 168.378 789.038 168.712 787.413 168.723ZM261.619 298.527H257.73V269.7H261.619V298.527ZM275.627 269.742H276.254L276.38 270.202L293.106 291.926V269.7H296.535V298.527H294.444C294.183 298.589 293.911 298.589 293.65 298.527C293.405 298.392 293.192 298.207 293.023 297.984L276.296 276.259V298.694H273.035V269.867H275.627V269.742ZM332.832 284.114C332.851 286.125 332.496 288.122 331.786 290.004C331.151 291.706 330.169 293.257 328.901 294.558C327.618 295.84 326.079 296.836 324.385 297.483C322.531 298.194 320.558 298.549 318.572 298.527H307.826V269.7H318.614C320.6 269.678 322.572 270.033 324.426 270.745C326.121 271.392 327.659 272.388 328.943 273.669C330.208 274.973 331.19 276.523 331.828 278.223C332.524 280.108 332.864 282.105 332.832 284.114ZM328.65 284.114C328.68 282.498 328.44 280.888 327.939 279.351C327.508 278.039 326.811 276.83 325.89 275.8C324.997 274.829 323.896 274.073 322.67 273.586C321.337 273.071 319.918 272.816 318.489 272.834H311.714V295.268H318.572C320.001 295.286 321.421 295.031 322.754 294.516C323.979 294.028 325.08 293.271 325.974 292.302C326.893 291.287 327.591 290.092 328.023 288.793C328.543 287.287 328.811 285.706 328.817 284.114H328.65ZM353.614 295.268C354.716 295.296 355.812 295.097 356.834 294.683C357.742 294.309 358.556 293.738 359.217 293.012C359.891 292.261 360.403 291.379 360.723 290.422C361.068 289.356 361.238 288.242 361.225 287.122V269.575H365.113V287.122C365.13 288.703 364.86 290.273 364.319 291.759C363.822 293.124 363.054 294.374 362.061 295.435C361.044 296.485 359.819 297.31 358.465 297.859C355.381 299.035 351.972 299.035 348.889 297.859C347.521 297.313 346.281 296.487 345.251 295.435C344.241 294.38 343.458 293.129 342.951 291.759C342.409 290.273 342.14 288.703 342.156 287.122V269.575H346.045V287.08C346.031 288.2 346.2 289.315 346.547 290.38C346.866 291.338 347.378 292.219 348.053 292.971C348.712 293.709 349.526 294.293 350.436 294.683C351.445 295.092 352.526 295.291 353.614 295.268ZM390.914 274.379C390.82 274.556 390.692 274.712 390.538 274.839C390.374 274.89 390.199 274.89 390.036 274.839C389.712 274.787 389.417 274.624 389.2 274.379L388.029 273.627C387.497 273.323 386.937 273.071 386.356 272.875C385.586 272.631 384.78 272.518 383.973 272.541C383.192 272.521 382.415 272.634 381.673 272.875C381.056 273.08 380.487 273.407 380 273.836C379.563 274.229 379.22 274.714 378.996 275.257C378.768 275.813 378.654 276.41 378.662 277.011C378.631 277.726 378.837 278.431 379.247 279.017C379.675 279.582 380.216 280.051 380.836 280.395C381.541 280.79 382.283 281.112 383.053 281.356L385.603 282.234C386.468 282.54 387.318 282.874 388.154 283.236C388.957 283.585 389.703 284.049 390.37 284.615C391.04 285.193 391.581 285.905 391.959 286.704C392.378 287.65 392.578 288.678 392.545 289.712C392.56 290.924 392.347 292.129 391.918 293.263C391.497 294.344 390.856 295.326 390.036 296.146C389.162 296.99 388.122 297.644 386.983 298.067C385.647 298.568 384.228 298.809 382.802 298.778C381.05 298.803 379.312 298.462 377.7 297.775C376.239 297.203 374.904 296.352 373.769 295.268L374.898 293.43C375 293.283 375.127 293.155 375.275 293.054C375.439 293.008 375.613 293.008 375.777 293.054C375.968 293.003 376.17 293.003 376.362 293.054L377.115 293.597L378.076 294.307C378.472 294.582 378.892 294.819 379.331 295.018C379.84 295.253 380.373 295.435 380.92 295.561C381.578 295.711 382.252 295.781 382.927 295.77C383.786 295.749 384.635 295.58 385.436 295.268C386.118 295.038 386.745 294.668 387.276 294.182C387.786 293.719 388.186 293.148 388.447 292.511C388.726 291.835 388.868 291.111 388.865 290.38C388.896 289.627 388.691 288.882 388.28 288.25C387.839 287.692 387.282 287.236 386.649 286.913C385.926 286.476 385.154 286.125 384.349 285.868L381.798 285.074C380.92 284.782 380.084 284.49 379.247 284.114C378.485 283.762 377.78 283.297 377.156 282.735C376.495 282.126 375.969 281.386 375.609 280.562C374.818 278.577 374.818 276.365 375.609 274.379C376.001 273.422 376.585 272.555 377.324 271.831C378.155 271.106 379.121 270.552 380.167 270.202C381.381 269.739 382.673 269.512 383.973 269.533C385.521 269.463 387.068 269.69 388.53 270.202C389.839 270.695 391.034 271.449 392.043 272.416L390.914 274.379ZM421.523 269.7V273.001H412.198V298.569H408.309V273.001H398.943V269.7H421.523ZM433.734 286.495V298.527H429.845V269.7H438.208C439.784 269.658 441.359 269.827 442.891 270.202C444.09 270.498 445.214 271.039 446.195 271.789C447.036 272.451 447.697 273.313 448.118 274.296C448.549 275.342 448.762 276.465 448.745 277.596C448.744 278.565 448.575 279.526 448.244 280.437C447.934 281.309 447.466 282.116 446.864 282.818C446.233 283.54 445.484 284.147 444.648 284.615C443.708 285.144 442.693 285.525 441.637 285.743C442.127 286.048 442.553 286.446 442.891 286.913L451.254 298.36H447.7C447.391 298.373 447.083 298.303 446.811 298.155C446.539 298.008 446.311 297.79 446.153 297.524L438.71 287.414C438.482 287.194 438.212 287.023 437.915 286.913C437.516 286.822 437.102 286.822 436.702 286.913H433.734V286.495ZM433.734 283.654H437.915C438.92 283.666 439.921 283.525 440.884 283.236C441.621 282.977 442.303 282.58 442.891 282.066C443.47 281.579 443.928 280.964 444.229 280.27C444.535 279.543 444.692 278.761 444.689 277.972C444.742 277.238 444.618 276.502 444.327 275.826C444.036 275.15 443.587 274.553 443.017 274.087C441.512 273.127 439.739 272.673 437.957 272.792H433.775V283.696L433.734 283.654ZM463.005 298.527H459.116V269.7H463.005V298.527ZM492.192 269.7V272.875H478.309V282.442H489.558V285.492H478.309V295.268H492.192V298.443H474.421V269.617H492.192V269.7ZM516.446 274.379C516.35 274.555 516.223 274.711 516.069 274.839C515.906 274.888 515.731 274.888 515.567 274.839C515.244 274.787 514.949 274.624 514.731 274.379L513.56 273.627C513.028 273.323 512.468 273.071 511.888 272.875C511.118 272.631 510.312 272.518 509.504 272.541C508.724 272.521 507.946 272.634 507.204 272.875C506.588 273.082 506.02 273.408 505.532 273.836C505.095 274.229 504.752 274.714 504.528 275.257C504.299 275.813 504.186 276.41 504.194 277.011C504.163 277.726 504.369 278.431 504.779 279.017C505.207 279.582 505.748 280.051 506.368 280.395C507.073 280.789 507.815 281.111 508.584 281.356L511.135 282.234C512.013 282.526 512.849 282.86 513.686 283.236C514.489 283.584 515.235 284.049 515.902 284.615C516.572 285.192 517.114 285.904 517.491 286.704C517.91 287.65 518.11 288.678 518.076 289.712C518.091 290.924 517.878 292.129 517.449 293.263C517.029 294.344 516.388 295.326 515.567 296.146C514.693 296.989 513.654 297.643 512.515 298.067C511.179 298.568 509.76 298.809 508.333 298.778C506.581 298.803 504.844 298.462 503.232 297.775C501.785 297.199 500.464 296.348 499.343 295.268L500.472 293.43C500.573 293.282 500.7 293.155 500.848 293.054C501.012 293.008 501.186 293.008 501.35 293.054C501.542 293.005 501.743 293.005 501.935 293.054L502.688 293.597L503.65 294.307C504.046 294.581 504.466 294.819 504.904 295.018C505.414 295.252 505.947 295.433 506.493 295.561C507.152 295.711 507.826 295.781 508.501 295.77C509.346 295.745 510.18 295.576 510.968 295.268C511.649 295.037 512.276 294.667 512.808 294.182C513.316 293.718 513.716 293.147 513.978 292.511C514.258 291.835 514.4 291.111 514.397 290.38C514.487 289.63 514.34 288.871 513.978 288.208C513.497 287.651 512.897 287.208 512.222 286.913C511.521 286.511 510.778 286.189 510.006 285.952L507.455 285.158C506.577 284.866 505.741 284.573 504.904 284.197C504.107 283.827 503.373 283.334 502.73 282.735C502.068 282.127 501.541 281.387 501.183 280.562C500.391 278.577 500.391 276.365 501.183 274.379C501.574 273.422 502.157 272.554 502.897 271.831C503.691 271.12 504.614 270.567 505.615 270.202C506.829 269.738 508.121 269.511 509.421 269.533C510.969 269.463 512.516 269.69 513.978 270.202C515.286 270.696 516.481 271.449 517.491 272.416L516.446 274.379ZM526.063 296.062C525.995 295.48 526.16 294.894 526.523 294.433C526.754 294.206 527.029 294.03 527.331 293.915C527.634 293.8 527.956 293.749 528.28 293.764C528.639 293.757 528.996 293.828 529.325 293.973C529.635 294.117 529.908 294.331 530.119 294.6C530.329 294.875 530.485 295.187 530.579 295.519C530.637 295.893 530.637 296.273 530.579 296.647C530.575 297.282 530.491 297.913 530.329 298.527C530.151 299.194 529.898 299.839 529.576 300.449C529.232 301.112 528.826 301.742 528.363 302.329C527.88 302.942 527.333 303.502 526.732 304L526.523 303.415L526.314 303.164C526.293 303.068 526.293 302.968 526.314 302.872C526.287 302.776 526.287 302.675 526.314 302.579L526.523 302.329L527.025 301.744L527.652 300.867C527.872 300.533 528.068 300.184 528.238 299.822C528.415 299.422 528.542 299.001 528.614 298.569H528.363C528.043 298.579 527.725 298.52 527.43 298.398C527.134 298.275 526.868 298.092 526.649 297.859C526.227 297.359 526.016 296.714 526.063 296.062ZM558.973 298.527H555.084V269.7H558.973V298.527ZM572.855 269.742H573.483L573.775 270.202L590.502 291.926V269.7H593.931V298.527H591.965C591.718 298.584 591.46 298.584 591.213 298.527C590.967 298.393 590.753 298.208 590.585 297.984L573.859 276.259V298.694H570.43V269.867H572.897L572.855 269.742ZM625.418 292.595C625.528 292.591 625.638 292.612 625.739 292.655C625.84 292.698 625.93 292.763 626.004 292.845L627.551 294.516C626.401 295.873 624.976 296.969 623.369 297.733C621.438 298.539 619.356 298.923 617.264 298.861C615.328 298.885 613.408 298.515 611.619 297.775C610.032 297.072 608.608 296.048 607.437 294.767C606.197 293.412 605.244 291.82 604.636 290.088C603.954 288.171 603.614 286.148 603.632 284.114C603.613 282.075 603.967 280.05 604.677 278.139C605.313 276.401 606.294 274.809 607.563 273.46C608.826 272.154 610.35 271.129 612.037 270.452C613.856 269.715 615.803 269.346 617.766 269.366C619.626 269.336 621.474 269.677 623.202 270.369C624.746 270.999 626.163 271.905 627.383 273.042L626.087 274.839C626.015 274.97 625.915 275.084 625.794 275.173C625.631 275.222 625.456 275.222 625.293 275.173C624.968 275.141 624.662 275.009 624.415 274.797C623.974 274.476 623.513 274.183 623.035 273.92C622.371 273.553 621.67 273.259 620.944 273.042C619.923 272.763 618.866 272.636 617.808 272.666C616.374 272.642 614.951 272.912 613.626 273.46C612.413 273.969 611.328 274.739 610.448 275.716C609.513 276.759 608.802 277.982 608.357 279.309C607.837 280.842 607.583 282.453 607.604 284.072C607.584 285.708 607.853 287.334 608.399 288.876C608.865 290.203 609.589 291.425 610.532 292.469C611.417 293.429 612.502 294.185 613.71 294.683C614.956 295.194 616.293 295.45 617.64 295.435C618.42 295.493 619.203 295.493 619.982 295.435C620.638 295.351 621.283 295.197 621.906 294.976C622.478 294.774 623.025 294.508 623.536 294.182C624.069 293.834 624.573 293.443 625.042 293.012C625.127 292.841 625.257 292.697 625.418 292.595ZM634.659 296.313C634.656 295.645 634.91 295.001 635.37 294.516C635.598 294.287 635.868 294.102 636.165 293.973C636.476 293.843 636.81 293.777 637.148 293.777C637.485 293.777 637.819 293.843 638.13 293.973C638.426 294.105 638.695 294.289 638.925 294.516C639.135 294.736 639.305 294.99 639.426 295.268C639.559 295.579 639.627 295.913 639.627 296.25C639.627 296.588 639.559 296.921 639.426 297.232C639.297 297.529 639.113 297.798 638.883 298.026C638.656 298.257 638.386 298.442 638.088 298.569C637.458 298.822 636.754 298.822 636.123 298.569C635.823 298.445 635.553 298.26 635.329 298.026C635.098 297.799 634.913 297.529 634.785 297.232C634.687 296.936 634.645 296.624 634.659 296.313Z" fill="#231F20"/>
</g>
<defs>
<clipPath id="clip0_6_496">
<rect width="700" height="297" fill="none" transform="translate(100 7)"/>
</clipPath>
</defs>
</svg>
