<svg xmlns="http://www.w3.org/2000/svg" width="900" height="312" fill="none"><g clip-path="url(#a)"><path fill="#101820" fill-rule="evenodd" d="m83.434 162.019-4.36-35.631h-.195l-5.039 35.631h9.691zm1.163 17.962H72.774l-3.101 18.932H50l14.537-85.632H93.61l13.761 85.534H87.795l-3.1-18.932zM329.879 162.019l-4.361-35.631h-.194l-5.039 35.631h9.691zm1.163 17.962h-11.823l-3.101 18.932h-19.576l14.536-85.534h29.073l13.762 85.534h-19.576l-3.101-18.932zM162.61 180.466c7.56 0 7.753-9.515 7.753-24.757s-.29-24.758-7.753-24.758c-7.462 0-7.559 9.515-7.559 24.758s.291 24.757 7.559 24.757m23.647 26.505h-25.003l-5.04-8.058c-18.316-3.593-20.06-25.34-20.06-43.204s.581-43.787 26.456-43.787c25.876 0 26.748 23.981 26.748 43.787s-1.357 36.796-15.893 42.039h7.268zM267.662 170.66c0 22.136-10.079 28.835-24.615 28.835-14.537 0-24.906-6.699-24.906-28.835v-57.379h19.285v56.214c0 6.699 0 10.874 5.621 10.874 5.62 0 5.33-4.175 5.33-10.874v-56.214h19.285zM571.575 113.282h19.382v66.893h19.091v18.641h-38.473zM717.232 113.282h23.452l12.405 58.349h.291v-58.349h17.25v85.437h-21.999l-13.858-61.068h-.291v61.068h-17.25zM850 190.854c-6.106 6.214-14.246 9.224-22.968 9.224-26.069 0-27.717-26.117-27.717-45.728s7.269-42.33 28.298-42.33c21.03 0 14.537 2.524 19.576 7.572v22.136c-2.81-5.34-9.788-10.679-15.99-10.679-12.308 0-12.889 15.437-12.889 27.184s.872 24.66 8.722 24.66 2.81-.582 3.683-1.068v-26.602H850zM688.546 170.66c0 22.136-10.079 28.835-24.615 28.835-14.537 0-24.906-6.699-24.906-28.835v-57.378h19.285v56.213c0 6.699 0 10.874 5.621 10.874s5.33-4.175 5.33-10.874v-56.213h19.285z" clip-rule="evenodd"/><path fill="#0033a0" d="M531.551 150.272c-7.172 7.087-13.665 12.913-30.334 27.573-27.038 23.107-48.164 27.67-56.402 18.641-6.008-6.505 1.357-24.952 3.877-30.777 2.519-6.02 5.621-14.175 1.356-17.864-6.299-5.437-16.959-.583-23.355 2.815-13.18 7.088-29.558 17.088-31.593 18.35-.678-3.301-.969-7.088-.969-7.088 7.171-7.087 13.761-13.009 30.43-27.669 27.038-23.107 48.165-27.67 56.402-18.641 6.009 6.505-1.357 24.951-3.876 30.776-2.52 6.117-5.621 14.175-1.357 17.865 6.299 5.436 16.959.582 23.355-2.816 13.18-7.087 29.364-16.893 31.496-18.252.485 2.33.776 4.757.97 7.087"/><path fill="#101820" d="M462.841 76c-44.095 0-79.855 35.825-79.855 80s35.76 80 79.855 80c44.094 0 79.854-35.825 79.854-80s-35.76-80-79.854-80m0 149.029c-38.086 0-68.904-30.874-68.904-69.029s30.818-69.03 68.904-69.03 68.903 30.875 68.903 69.03-30.817 69.029-68.903 69.029"/></g><defs><clipPath id="a"><path fill="#fff" d="M50 76h800v160H50z"/></clipPath></defs></svg>