
<svg xmlns="http://www.w3.org/2000/svg" width="900" height="312" fill="none"><g fill="#01539c" clip-path="url(#a)"><path d="m238.458 233.049-2.53-11.366-8.852 11.366zm1.266 4.424h-15.81l-5.058 6.315h-8.22l22.765-27.787h8.853l6.326 27.787h-7.59zm13.913 6.313 8.223-27.787h8.219l-8.854 27.787zm45.532 0h-6.954l-1.9-13.262-8.851 13.262h-6.957l-3.795-20.208h6.958l1.895 13.262 9.487-13.262h6.957l.632 13.262 9.485-13.262h7.589zm31.623-9.471h-1.897c-3.794.632-6.324.632-7.589 1.261-.633.632-1.262 1.261-1.262 1.894 0 .634.629 1.265 1.262 1.895.632.632 1.265.632 2.532.632 1.264 0 2.53 0 3.161-.632 1.263-.629 1.897-.629 2.532-1.261.631-.629 1.264-1.895 1.264-3.156zm-7.59-5.054-7.589-.632c.633-1.894 2.53-3.158 4.428-4.419 1.897-1.261 5.056-1.261 8.851-1.261 3.794 0 6.325.629 8.221 1.261 1.897 1.261 2.53 2.526 2.53 3.79v1.895c0 .629-.631 2.527-1.897 5.685-.631 2.527-1.264 3.788-1.264 5.049 0 .632 0 1.896.633 3.159h-7.589c0-.629-.633-1.261-.633-2.527l-3.794 1.896c-1.263.629-3.163.629-4.427.629-2.53 0-4.424-.629-5.693-1.894-1.264-1.264-2.53-2.53-2.53-4.423s.631-3.159 2.53-4.42c1.897-1.264 5.06-1.895 8.854-1.895s6.324-.632 7.589-.632c.631-.632.631-1.264.631-1.896s-.631-1.261-1.263-1.261c-.633 0-1.264-.632-2.533-.632-1.262 0-2.53 0-3.161.632zm22.767-5.683h7.588l1.897 10.105c.632 2.526.632 4.419.632 5.685 1.266-1.895 2.531-4.42 4.427-6.317l6.957-8.84h8.221l-17.71 21.475c-1.262 1.894-2.53 3.158-3.163 3.79-.631.629-1.897 1.261-3.161 1.895s-2.53.632-4.427.632-3.794 0-5.693-.632l.633-3.791h2.53q3.794.001 5.693-3.787zm27.192 14.524 7.589-.629c.631 1.262 1.264 1.895 2.531 2.527 1.263.629 2.53.629 3.795.629 1.897 0 3.162 0 4.427-.629.63-.632 1.262-.632 1.262-1.261 0-.632 0-.632-.632-1.264-.63 0-1.263-.632-3.162-1.261-4.427-1.261-7.59-1.895-8.853-2.527-1.897-1.264-2.531-2.526-2.531-3.79 0-1.895.633-3.159 2.531-4.42 2.53-1.895 5.693-2.527 10.752-2.527 3.794 0 6.324.629 8.221 1.261 1.897 1.261 3.163 2.527 3.794 3.788l-6.958.632c-.63-.632-1.263-1.261-1.897-1.895h-4.427c-1.898 0-2.53 0-3.795.632-.631.629-1.264.629-1.264 1.261s.633.632 1.264 1.264c.633 0 1.897.629 4.427 1.261 3.795.629 6.325 1.262 7.589 2.527 1.897 1.264 2.53 2.527 2.53 3.791 0 1.895-1.263 3.788-3.163 5.052q-3.794 1.893-9.486 1.894-6.641 0-9.487-1.894c-2.525-1.263-4.425-2.525-5.057-4.422m70.2 5.684h-7.59l-1.899-23.367-5.69 23.367h-7.588l8.221-27.787h11.383l1.263 18.948 13.915-18.948h11.383l-8.221 27.787h-7.589l8.222-23.367zm46.796-12.63c0-1.261-.631-2.527-1.897-3.159-.633-.632-2.531-1.261-3.795-1.261-1.898 0-3.162.629-4.426 1.261-1.263.632-2.53 1.895-3.163 3.159-.631 1.261-1.263 2.527-1.263 3.791 0 1.261.632 2.526 1.898 3.155 1.264.633 2.53 1.261 4.425 1.261s3.796-.628 5.06-1.894c1.897-1.261 3.161-3.786 3.161-6.313m-22.134 3.791c0-3.791 1.263-6.95 4.424-8.843 3.165-2.526 6.959-3.159 12.016-3.159 4.427 0 7.59.633 10.122 2.527 2.53 1.896 3.794 3.791 3.794 6.318 0 3.158-1.264 6.317-4.427 8.21-3.162 2.527-6.957 3.788-12.016 3.788-2.53 0-5.058-.629-6.956-1.261-1.897-.629-3.795-1.895-4.427-3.159-1.898-1.266-2.53-2.528-2.53-4.421m46.8 8.839h-6.957l-5.693-20.208h7.589l1.897 8.842c.631 2.527.631 3.788 1.264 5.052 0 0 .63-1.264 1.897-2.527 1.264-1.264 1.897-2.529 1.897-2.529l6.957-8.208h8.222zm25.294-27.787h7.59l-1.263 4.42h-7.59zm-2.529 7.579h7.59l-6.325 20.208h-7.589zm15.81 0h7.59l-.633 2.526c1.898-1.264 3.795-1.894 5.059-2.526 1.263-.633 3.163-.633 5.058-.633 2.532 0 4.426.633 5.693 1.265 1.264 1.261 1.897 1.894 1.897 3.787 0 .632 0 1.895-.631 3.791l-3.163 11.369h-7.59l3.165-11.369c.632-1.896.632-2.53.632-3.159 0-.632 0-1.264-.632-1.894h-3.795c-1.264 0-2.531.629-3.794 1.261-1.264.632-2.531 1.261-3.164 2.526-.63.632-1.263 2.527-1.897 5.052l-2.532 8.211h-7.588zm36.047 11.369c0 1.261.633 2.526 1.264 3.788 1.265.629 2.53.628 4.427.628 1.265 0 2.53-.628 3.795-1.261 1.264-.629 2.53-1.894 3.163-3.155.631-1.264 1.264-2.53 1.264-3.791s-.633-2.527-1.897-3.159c-1.263-.632-2.53-1.261-3.795-1.261-1.262 0-2.53.629-3.794 1.261-1.262.632-1.897 1.895-3.163 3.788-.631 1.264-1.264 1.898-1.264 3.162m-8.853 9.471 8.222.632c0 .633 0 1.261.63 1.261 0 0 .632.633 1.264.633h2.53c1.897 0 3.164 0 3.796-.633.631-.628 1.264-.628 1.897-1.894 0-.632.633-1.264 1.264-3.159v-.632c-2.532 1.264-5.693 2.527-8.221 2.527-2.53 0-5.059-.629-6.956-1.895-1.897-1.261-2.533-3.159-2.533-6.314 0-2.53.633-4.423 1.897-6.318 1.263-1.894 3.163-3.158 5.057-4.42 2.531-1.264 4.427-1.264 6.959-1.264 1.897 0 3.794.632 5.056 1.264 1.898.629 2.532 1.895 3.795 3.156l1.264-3.788h7.59l-5.06 17.052c-.631 2.53-1.263 4.423-1.897 5.687-.633 1.261-1.264 1.895-1.897 2.527-.632.632-1.897 1.261-2.53 1.894-1.265.629-2.532.629-3.795 1.261h-5.058c-3.794 0-6.957-.632-9.487-1.261-3.165-1.261-3.794-3.158-3.794-5.051.007-.631.007-.631.007-1.265m49.329-.632 8.852-27.787H666.6l-1.899 4.42h-19.604l-1.895 6.946h19.604l-1.9 4.42h-18.97l-3.794 12.001zm57.547-12.63c0-1.261-.629-2.527-1.897-3.159-1.267-.632-2.53-1.261-4.427-1.261s-3.163.629-4.427 1.261-2.53 1.895-3.161 3.159c-.633 1.261-1.265 2.527-1.265 3.791 0 1.261.632 2.526 1.898 3.155 1.264.633 2.531 1.261 4.427 1.261s3.794-.628 5.057-1.894c2.531-1.261 3.795-3.786 3.795-6.313m-22.134 3.791c0-3.791 1.265-6.95 4.428-8.843 3.161-2.526 6.955-3.159 12.015-3.159 4.426 0 7.589.633 10.119 2.527 2.531 1.896 3.794 3.791 3.794 6.318 0 3.158-1.263 6.317-4.427 8.21-3.162 2.527-6.956 3.788-12.013 3.788-2.533 0-5.06-.629-6.957-1.261-1.897-.629-3.794-1.895-4.427-3.159-1.897-1.266-2.532-2.528-2.532-4.421m38.579-11.369h6.957l-1.263 3.787c2.53-3.155 5.691-4.42 8.851-4.42 1.265 0 2.532 0 3.795.633l-3.162 4.419h-2.531c-1.266 0-2.532.632-3.795 1.261-1.264.632-2.531 1.896-3.161 2.53-.633 1.261-1.264 3.159-2.531 5.685l-1.898 6.315h-7.588z"/><path d="M750.078 243.786h-7.588l-1.266-13.262-8.855 13.262h-7.588l-3.161-20.208h6.955l1.899 13.262 8.853-13.262h6.957l1.264 13.262 8.854-13.262h7.59zm30.988-9.471h-1.897c-3.794.632-6.324.632-7.588 1.261-.633.632-1.263 1.261-1.263 1.894 0 .634.63 1.265 1.263 1.895.631.632 1.264.632 2.531.632 1.264 0 2.53 0 3.163-.632 1.263-.629 1.897-.629 2.53-1.261.631-.629 1.264-1.895 1.264-3.156zm-6.957-5.054-7.588-.632c.629-1.894 2.53-3.158 4.424-4.419 1.897-1.261 5.06-1.261 8.854-1.261s6.324.629 8.221 1.261c1.897 1.261 2.53 2.526 2.53 3.79v1.895c0 .629-.633 2.527-1.897 5.685-.631 2.527-1.264 3.788-1.264 5.049 0 .632 0 1.896.633 3.159h-7.59c0-.629-.632-1.261-.632-2.527l-3.794 1.896c-1.264.629-3.163.629-4.427.629q-3.794.002-5.693-1.894c-1.266-1.266-2.531-2.53-2.531-4.423s.633-3.159 2.531-4.42c1.897-1.264 5.057-1.895 8.853-1.895 3.794 0 6.326-.632 7.588-.632.632-.632.632-1.264.632-1.896s-.632-1.261-1.263-1.261c-.631-.632-1.897-.632-3.163-.632-1.262 0-2.53 0-3.163.632-.628.632-1.261 1.264-1.261 1.896m25.297-5.683h6.957l-1.264 3.787c2.531-3.155 5.693-4.42 8.853-4.42 1.264 0 2.53 0 3.794.633l-3.163 4.419h-2.53c-1.266 0-2.532.632-3.794 1.261-1.264.632-2.532 1.896-3.163 2.53-.631 1.261-1.263 3.159-2.53 5.686l-1.897 6.314h-7.589zm24.663 11.998c0 1.264.632 2.53 1.264 3.162 1.264.629 2.53 1.261 3.794 1.261 1.266 0 2.532-.632 3.796-1.261 1.264-.632 1.897-1.897 3.161-3.162.633-1.261 1.264-2.527 1.264-3.788q.001-1.893-1.897-3.791c-1.262-.629-2.53-1.261-3.794-1.261-2.531 0-4.427.632-5.693 2.527s-1.895 3.786-1.895 6.313m17.708 8.21h-7.588l.629-1.894c-1.262 1.261-2.53 1.894-4.424 1.894-1.264.632-3.164.632-4.427.632-3.163 0-5.693-.632-6.957-1.894-1.897-1.261-2.531-3.788-2.531-6.318 0-3.158 1.264-6.314 3.794-8.839 2.531-2.53 6.326-3.791 10.121-3.791s6.956 1.261 8.852 3.159l3.162-10.105h7.589zM236.563 119.367l13.281-33.474-33.518 33.474zm-44.271 0L249.843 60h30.986l-46.798 122.523h-20.235l16.439-44.842h-31.618l-43.638 44.842h-25.294l44.27-45.471H50.002l8.22-17.687zm118.261 41.685c-5.692 4.42-12.648 6.946-20.237 6.946-12.645.632-22.134-7.578-17.708-18.948 5.06-11.998 20.237-20.842 32.887-20.208 6.957.632 12.647 3.158 14.547 6.949h22.767c0-13.265-12.016-22.738-30.357-23.37-23.398-1.261-49.327 11.369-58.815 33.475-8.222 20.209 7.588 38.525 30.987 37.264 18.972-.632 36.681-10.105 48.063-23.368zm89.17 0c-5.693 4.42-12.647 6.946-20.236 6.946-12.648.632-22.134-7.578-17.71-18.948 5.059-11.998 20.237-20.842 32.887-20.208 6.957.632 12.647 3.158 14.546 6.949h22.767c0-13.265-12.016-22.738-30.356-23.37-23.398-1.261-49.328 11.369-58.815 33.475-8.22 20.209 7.588 38.525 30.987 37.264 18.972-.632 36.681-10.105 48.065-23.368zm44.902-46.738-15.81 41.054s-8.854 27.787 20.234 27.787c9.487 0 17.077-2.526 25.299-6.949l-2.53 5.687h18.339l27.195-67.581h-20.237l-13.282 34.105s-5.693 18.948-24.664 18.948c-16.443 0-8.854-15.789-8.854-15.789l13.914-37.264zm84.108 0-26.56 67.58h19.603l15.809-37.895s5.06-15.789 22.767-15.789l5.693-15.789s-11.382-.633-20.871 6.946l1.897-5.052h-18.338zm44.902 0-26.561 67.58h20.237l25.928-67.58zm26.561-14.527c-1.897 5.05-7.588 8.841-13.914 8.841-5.693 0-9.487-3.791-7.59-8.84 1.897-5.054 7.59-8.842 13.916-8.842 5.693 0 8.853 3.79 7.588 8.841m23.4 66.318c-13.914 0-21.502-8.842-17.708-18.948 3.794-10.737 18.34-18.947 31.619-18.947s21.503 8.21 18.34 18.315l-1.264 2.527c-4.427 9.472-17.705 17.053-30.987 17.053m53.756-73.896-10.119 25.263q-7.59-5.682-20.871-5.684c-30.986 0-50.591 14.527-58.814 34.736-8.221 19.58 10.118 36.002 30.987 36.002 8.852 0 17.708-1.896 25.297-5.685l-1.897 5.052h19.602l34.783-90.318h-18.973v.632zm70.196 49.895H703.91c6.957-8.211 18.339-13.264 28.459-12.63 6.958.629 12.014 3.158 14.546 6.946 1.899 3.788.633 5.684.633 5.684m22.134-5.684c0-13.265-12.016-22.738-30.355-23.367-23.399-1.263-49.329 11.366-58.816 33.472-8.221 20.209 7.589 38.525 30.987 37.264 18.973-.632 36.681-10.105 48.064-23.368h-22.134c-5.693 4.42-12.647 6.95-20.235 6.95-10.12.629-18.342-5.052-18.973-12.634h63.242c7.589-6.948 8.22-18.317 8.22-18.317m5.06-25.264h1.897c.633 0 1.264 0 1.897-.632 0 0 .632-.63.632-1.262v-.632l-.632-.631h-3.16v3.157zm-1.897 5.051v-9.475h5.693c.633 0 .631.632 1.264.632 0 .632.631.632.631 1.263 0 .629 0 1.261-.631 1.894-.633.632-1.264.632-1.897.632 0 0 .631 0 .631.632.632.632.632 1.261 1.264 1.895l1.265 1.895h-1.897l-.632-1.263c-.631-1.261-1.262-1.895-1.262-1.895h-1.898v3.788zm3.794-11.999c-1.264 0-2.53 0-3.794.632-1.264.633-1.897 1.262-2.53 2.527-.633 1.261-1.264 2.527-1.264 3.789s.631 2.529 1.264 3.79c.63 1.261 1.263 1.894 2.53 2.526s2.53.632 3.794.632 2.53 0 3.794-.632 1.898-1.261 2.53-2.526c.633-1.261.633-2.527.633-3.79s-.633-2.528-.633-3.789c-.631-1.261-1.262-1.894-2.53-2.527-1.267-.632-2.53-.632-3.794-.632m0-1.262c1.264 0 2.53.632 4.427 1.262 1.263.632 2.53 1.895 3.162 3.158s1.262 2.528 1.262 4.421c0 1.261-.63 3.157-1.262 4.42-.632 1.264-1.897 2.528-3.162 3.158s-2.531 1.261-4.427 1.261c-1.264 0-3.163-.632-4.427-1.261-1.264-.63-2.53-1.894-3.161-3.158-.633-1.261-1.265-2.527-1.265-4.42 0-1.264.632-3.159 1.265-4.421.631-1.263 1.897-2.529 3.161-3.158 1.897-1.262 3.163-1.262 4.427-1.262"/></g><defs><clipPath id="a"><path fill="#fff" d="M50 60h800v192H50z"/></clipPath></defs></svg>