<svg width="900" height="312" viewBox="0 0 900 312" fill="none" xmlns="http://www.w3.org/2000/svg">
<rect width="900" height="312" fill="none"/>
<path d="M487.989 250.661H492.832V293.14H487.989V250.661Z" fill="#82888F"/>
<path d="M633.882 250.264H638.74V288.293H658.537V293.14H633.882V250.264Z" fill="#82888F"/>
<path d="M321.077 293.553C310.965 293.553 306.108 288.691 306.108 278.171V249.851H310.965V278.171C310.965 285.862 314.204 289.104 321.062 289.104C327.936 289.104 331.175 285.465 331.175 278.171V249.851H336.017V278.171C336.017 288.293 331.174 293.553 321.062 293.553H321.077Z" fill="#82888F"/>
<path d="M277.008 256.732C276.247 255.163 275.146 253.784 273.785 252.695C272.358 251.544 270.702 250.71 268.928 250.248L263.673 249.453L258.419 250.264L253.576 252.695C252.246 253.658 251.141 254.9 250.338 256.334C249.448 258.082 249.027 260.032 249.116 261.992C249.072 263.694 249.495 265.376 250.338 266.855C251.017 268.136 251.984 269.241 253.164 270.081L257.212 272.115L262.054 273.323L266.912 274.547L270.945 275.754L273.785 277.773C274.636 278.789 275.073 280.088 275.008 281.412C275.073 282.678 274.787 283.938 274.183 285.051L271.754 287.483L268.531 288.706H260.435L256.799 287.085C255.767 286.195 254.944 285.088 254.386 283.844C253.995 283.079 253.722 282.259 253.576 281.412L248.719 282.636C248.981 283.761 249.392 284.846 249.941 285.862C250.805 287.599 252.047 289.12 253.576 290.312C255.126 291.589 256.912 292.551 258.831 293.14L265.292 293.951L270.945 293.14L276.215 291.122C277.716 290.069 278.958 288.688 279.85 287.085C280.766 285.421 281.279 283.565 281.348 281.666C281.417 279.767 281.04 277.878 280.247 276.152C279.546 274.886 278.583 273.786 277.421 272.925L273.373 270.892L267.309 268.873L262.467 267.65L258.419 266.442L255.593 264.423C255.183 263.992 254.864 263.483 254.654 262.926C254.444 262.37 254.348 261.776 254.371 261.182C254.378 260.055 254.661 258.947 255.196 257.955L257.212 255.921L260.038 254.698H263.276C265.727 254.612 268.14 255.326 270.15 256.732C271.642 257.963 272.644 259.688 272.976 261.595L277.818 260.371C277.725 259.126 277.452 257.9 277.008 256.732Z" fill="#82888F"/>
<path d="M441.507 271.305V276.152H452.81C452.84 277.808 452.571 279.455 452.016 281.015C451.505 282.638 450.68 284.145 449.587 285.449C448.592 286.646 447.353 287.616 445.952 288.293L440.697 289.517C438.736 289.646 436.778 289.222 435.046 288.293C433.446 287.392 432.064 286.149 430.998 284.654C429.9 283.049 429.079 281.271 428.569 279.394C428.009 277.279 427.736 275.098 427.759 272.91C427.793 270.731 428.065 268.563 428.569 266.442C429.066 264.437 429.887 262.526 430.998 260.784C432.017 259.139 433.402 257.752 435.046 256.732C436.737 255.665 438.698 255.102 440.697 255.111H444.745L447.968 256.732C448.96 257.502 449.786 258.464 450.397 259.561C450.963 260.575 451.374 261.668 451.619 262.803L456.461 261.579C456.131 260.033 455.586 258.541 454.842 257.145C453.94 255.429 452.704 253.911 451.207 252.68C449.764 251.559 448.113 250.738 446.349 250.264L440.697 249.453C438.004 249.44 435.354 250.136 433.014 251.472C430.743 252.756 428.806 254.558 427.362 256.732C425.869 258.952 424.773 261.415 424.124 264.011C423.325 266.91 422.914 269.903 422.902 272.91C422.897 275.658 423.309 278.391 424.124 281.015C424.906 283.511 426.138 285.843 427.759 287.896C429.315 289.752 431.239 291.262 433.411 292.331C435.67 293.463 438.172 294.019 440.697 293.951H443.936L447.159 292.728L450 290.725L452.413 287.881L453.636 293.141H456.859V271.305H441.507Z" fill="#82888F"/>
<path d="M549.014 278.98L548.204 281.825C547.8 283.288 547.115 284.66 546.188 285.862L542.949 288.293L538.504 289.104C536.545 289.212 534.592 288.789 532.853 287.88C531.237 287.002 529.85 285.755 528.805 284.241C527.665 282.514 526.843 280.598 526.376 278.583C525.848 276.327 525.576 274.019 525.566 271.702C525.579 269.522 525.851 267.35 526.376 265.234C526.886 263.357 527.707 261.579 528.805 259.974C529.846 258.461 531.227 257.214 532.837 256.334C534.577 255.425 536.529 255.002 538.489 255.111C540.997 255.074 543.435 255.937 545.363 257.542C547.44 259.431 548.741 262.025 549.014 264.821L553.856 264.01C553.657 262.043 553.109 260.127 552.237 258.352C551.463 256.673 550.368 255.161 549.014 253.903L544.569 251.472L538.917 250.661C536.394 250.594 533.894 251.15 531.637 252.281C529.38 253.412 527.437 255.083 525.979 257.145C524.506 259.231 523.41 261.56 522.74 264.026C521.949 266.786 521.538 269.641 521.518 272.512C521.556 275.387 521.967 278.245 522.74 281.014C523.393 283.486 524.491 285.818 525.979 287.895C527.373 289.752 529.169 291.268 531.233 292.33C533.612 293.508 536.25 294.065 538.902 293.951C540.996 294.073 543.092 293.74 545.046 292.974C547 292.209 548.765 291.029 550.22 289.516C552.552 286.889 554.093 283.656 554.665 280.189L549.014 278.98Z" fill="#82888F"/>
<path d="M609.229 292.743H603.974L600.338 281.014H584.987L581.336 292.743H576.097L589.432 251.074H595.496L608.831 292.743H609.229ZM586.194 276.565H599.131L592.655 254.698L586.194 276.962V276.565Z" fill="#82888F"/>
<path d="M397.041 293.14L388.96 273.323C390.785 272.788 392.452 271.818 393.818 270.494C394.883 269.438 395.718 268.173 396.273 266.778C396.828 265.384 397.089 263.89 397.041 262.39C397.256 259.298 396.24 256.247 394.215 253.903C392.903 252.731 391.366 251.839 389.699 251.282C388.031 250.725 386.267 250.514 384.515 250.661H366.735V292.743H371.18V274.134H384.118L392.199 293.14H397.041ZM371.593 270.494V254.301H383.309C385.767 254.151 388.2 254.871 390.183 256.334C391.005 257.107 391.648 258.051 392.065 259.1C392.482 260.149 392.663 261.278 392.596 262.405C392.642 263.567 392.41 264.723 391.918 265.777C391.426 266.83 390.69 267.75 389.77 268.46C387.849 269.688 385.581 270.257 383.309 270.081L371.593 270.494Z" fill="#82888F"/>
<path d="M110.509 173.394H102.016V82.3644H110.509V173.394Z" fill="#82888F"/>
<path d="M205.475 173.394H198.204L177.583 111.892L175.979 105.821L174.756 100.164H174.36C174.899 106.097 175.307 112.03 175.582 117.963V173.394H167.898V82.3644H175.169L196.188 145.885C197.257 149.117 198.199 152.216 199.014 155.182C198.474 151.135 198.204 147.088 198.204 143.041V82.3644H205.475V173.394Z" fill="#82888F"/>
<path d="M293.582 90.0409H279.835V173.378H271.357V90.0409H258.022V82.3644H293.582V90.0409Z" fill="#82888F"/>
<path d="M386.15 144.661C386.15 148.709 386.012 152.618 385.737 156.39C385.497 159.745 384.669 163.032 383.293 166.1C382.15 168.81 380.169 171.083 377.641 172.584C374.297 174.006 370.68 174.671 367.049 174.531C363.418 174.391 359.863 173.449 356.638 171.773C354.163 170.216 352.198 167.968 350.986 165.305C349.654 162.221 348.829 158.942 348.542 155.595C348.278 152.088 348.145 148.311 348.145 144.264V82.3644H356.638V143.851C356.306 149.562 356.847 155.292 358.242 160.84C358.995 162.576 360.238 164.054 361.819 165.093C363.4 166.131 365.249 166.684 367.14 166.684C369.031 166.684 370.88 166.131 372.461 165.093C374.042 164.054 375.285 162.576 376.037 160.84C377.443 155.299 377.984 149.573 377.641 143.866V82.3644H386.134L386.15 144.661Z" fill="#82888F"/>
<path d="M458.478 173.394H450V82.3644H458.478V173.394Z" fill="#82888F"/>
<path d="M551.427 90.0409H538.092V173.378H529.614V90.0409H516.279V82.3644H551.839L551.427 90.0409Z" fill="#82888F"/>
<path d="M617.722 173.394H609.229V82.3644H617.722V173.394Z" fill="#82888F"/>
<path d="M700.971 173.394H693.7L675.523 82.3644H684L696.129 148.714C696.394 149.795 696.664 151.548 696.939 153.974L697.733 160.855H698.145C698.685 155.727 699.092 151.548 699.367 148.316L711.083 81.9519H719.561L700.971 173.394Z" fill="#82888F"/>
<path d="M797.968 88.8328H778.172V121.205H797.571V128.881H778.172V164.494H797.968V172.171H769.679V81.1414H797.968V88.8328Z" fill="#82888F"/>
<path d="M453.636 53.632C463.455 53.632 471.416 45.663 471.416 35.8329C471.416 26.0027 463.455 18.0337 453.636 18.0337C443.816 18.0337 435.855 26.0027 435.855 35.8329C435.855 45.663 443.816 53.632 453.636 53.632Z" fill="#F7A800"/>
<path d="M682.381 234.88C683.883 235.583 685.147 236.71 686.017 238.122C686.797 239.475 687.208 241.01 687.208 242.572C687.208 244.134 686.797 245.669 686.017 247.022C685.258 248.377 684.143 249.498 682.793 250.264C681.379 251.081 679.776 251.511 678.143 251.511C676.51 251.511 674.905 251.081 673.491 250.264C672.136 249.5 671.015 248.379 670.253 247.022C669.464 245.676 669.043 244.147 669.031 242.587C669.037 241.017 669.459 239.477 670.253 238.122C671.123 236.71 672.387 235.583 673.888 234.88C675.252 234.126 676.776 233.712 678.333 233.673L682.381 234.88ZM672.284 233.275C670.575 234.202 669.169 235.604 668.236 237.312C667.238 238.957 666.711 240.846 666.711 242.771C666.711 244.696 667.238 246.584 668.236 248.23C669.167 249.943 670.573 251.35 672.284 252.282C673.955 253.203 675.831 253.686 677.738 253.686C679.644 253.686 681.52 253.203 683.191 252.282C684.902 251.35 686.308 249.943 687.239 248.23C688.237 246.584 688.764 244.696 688.764 242.771C688.764 240.846 688.237 238.957 687.239 237.312C686.306 235.604 684.9 234.202 683.191 233.275C681.52 232.354 679.644 231.871 677.738 231.871C675.831 231.871 673.955 232.354 672.284 233.275ZM674.698 248.643V243.78H677.539L679.556 246.624L680.777 248.643H683.191L681.572 246.211L679.953 243.78L679.143 242.985L681.587 241.762C682.076 241.2 682.356 240.488 682.381 239.743C682.415 239.175 682.276 238.61 681.984 238.122L680.365 236.899H673.094V248.643H674.698ZM674.698 238.52H678.746L679.556 239.33V240.553C679.526 240.807 679.437 241.05 679.297 241.262C679.156 241.475 678.967 241.651 678.746 241.777H674.301L674.698 238.52Z" fill="#82888F"/>
</svg>
