<svg width="500" height="312" viewBox="0 0 500 312" fill="none" xmlns="http://www.w3.org/2000/svg">
<rect width="500" height="312" fill="white"/>
<g clip-path="url(#clip0_6_464)">
<path fill-rule="evenodd" clip-rule="evenodd" d="M131.218 110.356V151.376C131.218 152.655 129.767 153.36 128.735 152.59C115.615 142.788 98.3387 143.18 85.4405 153.895C74.0844 163.331 72.0196 179.409 75.0775 191.664C75.4565 193.191 73.5747 194.222 72.477 193.1L54.2862 174.359C54.1817 174.241 54.0772 174.111 54.0118 173.967C46.9681 160.133 48.8499 141.457 62.2578 130.716C75.0645 120.445 92.2489 120.575 104.716 130.651C105.722 131.46 107.212 130.729 107.212 129.45V89.54C107.212 88.1696 108.872 87.4779 109.839 88.4437L130.76 109.26C131.048 109.547 131.218 109.939 131.218 110.356ZM79.011 194.744C78.3707 193.713 79.2332 192.408 80.4354 192.565C84.5388 193.113 87.7405 192.748 92.2097 191.364C98.3517 189.472 101.998 187.123 105.905 182.437C106.415 181.837 107.303 181.733 107.918 182.229L129.637 199.678C130.29 200.2 130.355 201.166 129.793 201.779C123.39 208.774 116.582 211.672 106.794 211.672C94.6273 211.672 83.5195 202.079 79.011 194.744ZM131.218 200.121V157.784C131.218 156.936 132.185 156.479 132.851 157.014C146.063 167.481 163.81 167.311 176.982 156.361C188.953 146.403 190.599 129.085 186.796 116.634C186.496 115.629 187.737 114.898 188.469 115.655L208.189 135.963C208.267 136.041 208.319 136.119 208.372 136.211C215.455 150.045 213.586 168.773 200.165 179.527C187.058 190.033 169.377 189.655 156.857 178.887C156.217 178.326 155.211 178.809 155.211 179.657V222.021C155.211 222.909 154.139 223.365 153.499 222.726L131.492 200.839C131.304 200.652 131.197 200.4 131.192 200.135L131.218 200.121ZM182.458 114.415C183.412 115.825 182.327 117.73 180.628 117.574C177.048 117.234 174.042 117.652 169.978 118.892C164.019 120.719 160.399 122.99 156.622 127.414C155.916 128.236 154.688 128.354 153.852 127.675L133.256 111.27C132.355 110.552 132.237 109.234 132.995 108.373C139.124 101.573 145.841 98.6757 155.407 98.5844C166.972 98.48 177.57 107.224 182.471 114.402L182.458 114.415Z" fill="#EF7D17"/>
<path d="M265.401 172.218H251.509V200.383H231.973V112.458H264.303C298.685 112.458 301.586 130.455 301.586 142.54C301.586 154.626 299.796 172.218 265.414 172.218H265.401ZM265.126 128.667H251.509V156.688H265.126C279.566 156.688 281.631 148.857 281.631 142.814C281.631 136.772 279.566 128.667 265.126 128.667ZM344.083 201.479C315.19 201.479 304.33 189.524 304.187 168.917H323.723C324.142 178.118 329.094 185.126 343.535 185.126C355.779 185.126 360.04 181.276 360.588 175.781C362.509 156.818 306.944 170.705 306.121 139.238C305.703 123.851 314.654 111.348 342.019 111.348C369.383 111.348 378.335 124.817 378.609 142.397H359.216C358.119 133.47 355.087 127.832 341.339 127.832C328.546 127.832 324.965 132.086 325.514 138.273C326.755 152.29 379.707 140.739 379.707 174.124C379.707 187.031 371.448 201.466 344.083 201.466V201.479ZM407.908 128.667V150.371H446.694V166.163H407.908V200.37H388.515V112.458H450V128.667H407.908Z" fill="#5E3900"/>
</g>
<defs>
<clipPath id="clip0_6_464">
<rect width="400" height="135" fill="white" transform="translate(50 88)"/>
</clipPath>
</defs>
</svg>
