<svg width="500" height="500" viewBox="0 0 500 500" fill="none" xmlns="http://www.w3.org/2000/svg">
<rect width="500" height="500" fill="none"/>
<path fill-rule="evenodd" clip-rule="evenodd" d="M50 50H450V450H50V50Z" fill="none"/>
<path fill-rule="evenodd" clip-rule="evenodd" d="M177.222 327.447L168.975 319.199C175.429 312.029 180.449 302.35 180.449 289.802C180.449 280.841 177.94 272.236 170.411 259.687C163.242 247.855 160.013 237.101 160.013 225.271C160.013 205.911 173.636 190.136 189.771 177.587L205.546 193.004L196.583 201.966L189.773 196.947C187.264 200.533 184.753 206.268 184.753 210.929C184.753 219.892 187.621 227.061 195.508 239.969C204.112 254.31 207.698 266.498 207.698 276.896C207.696 301.634 191.563 316.335 177.222 327.447ZM266.489 298.408C266.489 303.425 261.472 308.804 257.888 308.804C247.848 308.804 243.903 290.161 243.903 265.786C243.903 224.196 256.809 198.385 266.487 195.158L266.489 298.408ZM299.835 322.426V309.877H293.379V113.774H259.683V125.964H266.491V182.25C249.643 186.552 215.942 205.195 215.942 261.123C215.942 305.934 235.304 323.505 256.813 323.505H260.04L268.288 314.901V322.428L299.835 322.426ZM322.417 327.447L313.813 319.199C320.626 312.029 325.644 302.35 325.644 289.802C325.644 280.841 323.135 272.236 315.608 259.687C308.435 247.855 304.851 237.101 304.851 225.271C304.851 205.911 318.833 190.136 334.965 177.587L350.741 193.004L341.78 201.966L334.968 196.947C332.459 200.533 329.95 206.268 329.95 210.929C329.95 219.892 332.816 227.061 340.703 239.969C349.311 254.31 352.895 266.498 352.895 276.896C352.893 301.634 336.763 316.335 322.417 327.447Z" fill="#333333"/>
<path fill-rule="evenodd" clip-rule="evenodd" d="M97.2759 232.442C97.2759 191.572 180.807 158.589 283.698 158.589C319.908 158.589 353.608 162.891 382.289 169.702C350.022 159.305 308.434 152.851 263.264 152.851C160.373 152.851 77.1987 185.834 77.1987 226.345C77.1987 252.874 112.333 275.819 164.673 289.084C123.446 275.462 97.2759 255.028 97.2759 232.442ZM86.5183 374.771C84.7274 374.771 83.2914 374.41 82.2165 373.692L82.9345 371.901C84.0115 372.619 85.0864 372.976 86.5204 372.976C87.9543 372.976 90.1062 371.901 90.1062 368.676C90.1062 364.734 88.3133 361.864 86.1634 358.637C83.2956 354.694 82.2185 352.185 82.2185 348.958C82.2185 344.659 85.0864 342.146 89.0313 342.146C90.8242 342.146 92.2582 342.864 92.9762 342.864V346.806H90.8242L90.4673 343.941H89.0334C87.5994 343.941 86.1655 345.015 86.1655 347.524C86.1655 350.394 87.9564 352.546 90.1083 355.773C92.6172 359.716 94.4101 362.943 94.4101 366.886C94.406 372.619 90.1042 374.771 86.5183 374.771ZM109.104 344.295L104.446 360.789V372.619H105.521V374.41H98.7078V372.619H100.144V361.505L95.124 344.295H94.049V342.143H99.4258L103.369 356.483L107.313 342.143H110.179V344.295H109.104ZM120.219 349.674C120.219 353.258 118.785 354.692 116.992 355.053V344.295C118.785 344.656 120.219 346.088 120.219 349.674ZM125.596 364.014C125.596 358.996 123.446 356.126 122.01 355.41C122.728 354.692 124.519 352.901 124.519 349.674C124.519 344.295 120.217 342.143 115.915 342.143H111.254V344.295H112.331V372.617H111.254V374.408H115.915C120.578 374.41 125.596 372.262 125.596 364.014ZM120.937 364.014C120.937 370.826 118.785 372.262 116.994 372.617V356.842C117.353 356.842 118.428 356.481 119.146 356.481C119.86 357.201 120.937 359.714 120.937 364.014ZM136.71 352.183C136.71 357.919 134.201 361.505 133.124 362.223V344.295C134.917 344.295 136.71 346.447 136.71 352.183ZM142.087 374.41V372.619H141.012C141.012 371.901 140.653 370.11 139.578 367.24C138.501 364.732 137.426 362.941 136.71 362.223C138.862 360.789 141.371 357.919 141.371 352.183C141.371 344.657 136.71 342.143 132.408 342.143H127.748V344.295H128.825V372.617H127.748V374.408H133.126V364.373C133.483 364.73 134.919 366.52 135.994 368.672C136.71 371.181 137.069 373.69 137.069 374.408H142.087V374.41ZM153.561 358.28C153.561 371.185 152.484 372.976 151.052 372.976C149.618 372.976 148.543 371.185 148.543 358.28C148.543 345.731 149.618 343.941 151.052 343.941C152.484 343.938 153.561 345.731 153.561 358.28ZM158.221 358.28C158.221 344.298 154.635 341.789 151.052 341.789C147.466 341.789 143.882 344.298 143.882 358.28C143.882 372.262 147.466 374.771 151.052 374.771C154.635 374.771 158.221 372.262 158.221 358.28ZM175.072 344.295V374.771H172.204L163.957 352.544V372.619H165.034V374.41H160.373V372.619H161.805V344.295H160.373V342.143H164.673L172.561 364.014V344.295H171.486V342.143H176.147V344.295H175.072ZM193.356 358.28C193.356 370.11 190.847 372.619 189.413 372.619V344.298C190.847 344.295 193.356 346.804 193.356 358.28ZM198.017 358.28C198.017 344.298 192.638 342.146 187.977 342.146H183.675V344.298H185.109V372.619H183.675V374.41H187.977C192.638 374.41 198.017 372.619 198.017 358.28ZM200.167 374.41V372.619H201.601V362.58H200.167V360.789H201.601V344.295H200.167V342.143H211.64V346.804H209.847L209.488 344.295H205.902V360.789H210.206V362.58H205.902V372.619H209.847L210.565 370.11H212.356V374.41H200.167ZM228.129 344.295V374.771H224.905L217.017 352.544V372.619H218.092V374.41H213.431V372.619H214.508V344.295H213.431V342.143H217.735L225.621 364.014V344.295H224.546V342.143H229.206V344.295H228.129ZM242.471 348.601L241.753 344.295H239.603V372.619H240.678V374.41H233.867V372.619H234.942V344.295H232.79L232.074 348.601H230.281V342.143H244.264V348.601H242.471ZM252.511 366.166H247.85L250 352.544L252.511 366.166ZM259.319 374.41V372.619H258.244L252.865 342.143H249.641L244.262 372.619H243.185V374.41H246.412L247.487 367.958H252.863L253.942 374.41H259.319ZM260.398 374.41V372.619H261.471V344.295H260.398V342.143H267.207V344.295H265.775V372.619H269.716L270.793 367.602H272.586V374.41H260.398ZM284.416 374.771C282.625 374.771 281.189 374.41 280.116 373.692L280.834 371.901C281.909 372.619 282.982 372.976 284.418 372.976C285.854 372.976 288.006 371.901 288.006 368.676C288.006 364.734 286.211 361.864 284.063 358.637C281.193 354.694 280.121 352.185 280.121 348.958C280.121 344.659 282.986 342.146 286.929 342.146C288.724 342.146 290.156 342.864 290.872 342.864V346.806H289.081L288.363 343.941H286.929C285.854 343.941 284.42 345.015 284.42 347.524C284.42 350.394 285.854 352.546 288.008 355.773C290.874 359.716 292.308 362.943 292.308 366.886C292.304 372.619 288.002 374.771 284.416 374.771ZM303.059 352.183C303.059 357.919 300.551 362.223 299.471 362.223V344.295C301.625 344.295 303.059 347.165 303.059 352.183ZM307.72 352.183C307.72 344.657 303.416 342.143 298.399 342.143H294.099V344.295H295.174V372.617H294.099V374.408H300.907V372.617H299.474V364.014C301.269 363.657 307.72 360.789 307.72 352.183ZM309.513 374.41V372.619H310.586V362.58H309.513V360.789H310.586V344.295H309.513V342.143H320.983V346.804H319.192L318.474 344.295H314.89V360.789H319.192V362.58H314.89V372.619H319.192L319.553 370.11H321.344V374.41H309.513ZM331.383 374.771C327.795 374.771 322.419 373.337 322.419 358.28C322.419 343.223 327.797 342.146 331.022 342.146C332.456 342.146 333.531 342.507 333.531 342.507V346.449H331.74L331.022 343.941H330.665C329.231 343.941 327.077 347.167 327.077 358.28C327.077 371.185 329.947 372.976 332.099 372.976C332.813 372.976 333.174 372.619 333.529 372.619V374.41C333.531 374.41 332.456 374.771 331.383 374.771ZM335.683 374.41V372.619H336.762V344.295H335.683V342.143H342.496V344.295H341.419V372.619H342.496V374.41H335.683ZM353.249 366.166H348.588L350.74 352.544L353.249 366.166ZM360.062 374.41V372.619H358.987L353.608 342.143H350.381L345.003 372.619H343.928V374.41H347.155L348.229 367.958H353.608L354.683 374.41H360.062ZM361.137 374.41V372.619H362.214V344.295H361.137V342.143H367.95V344.295H366.514V372.619H370.459L371.536 367.602H373.329V374.41H361.137ZM385.159 348.601L384.798 344.295H382.289V372.619H383.723V374.41H376.553V372.619H377.989V344.295H375.48L374.763 348.601H372.967V342.143H386.95V348.601H385.159ZM388.741 374.41V372.619H389.82V344.295H388.741V342.143H395.556V344.295H394.12V372.619H395.556V374.41H388.741ZM397.346 374.41V372.619H398.78V362.58H397.346V360.789H398.78V344.295H397.346V342.143H408.82V346.804H407.025L406.668 344.295H403.084V360.789H407.386V362.58H403.084V372.619H407.025L407.747 370.11H409.538V374.41H397.346ZM414.917 374.771C413.122 374.771 411.686 374.41 410.613 373.692L411.331 371.901C412.406 372.619 413.483 372.976 414.919 372.976C416.349 372.976 418.503 371.901 418.503 368.676C418.503 364.734 416.712 361.864 414.56 358.637C411.69 354.694 410.617 352.185 410.617 348.958C410.617 344.659 413.487 342.146 417.43 342.146C419.221 342.146 420.657 342.864 421.373 342.864V346.806H419.221L418.864 343.941H417.43C415.996 343.941 414.56 345.015 414.56 347.524C414.56 350.394 416.351 352.546 418.503 355.773C421.012 359.716 422.807 362.943 422.807 366.886C422.802 372.619 418.499 374.771 414.917 374.771Z" fill="#333333"/>
</svg>
