<svg xmlns="http://www.w3.org/2000/svg" width="500" height="500" fill="none"><path fill="#333" fill-rule="evenodd" d="m177.222 327.447-8.247-8.248c6.454-7.17 11.474-16.849 11.474-29.397 0-8.961-2.509-17.566-10.038-30.115-7.169-11.832-10.398-22.586-10.398-34.416 0-19.36 13.623-35.135 29.758-47.684l15.775 15.417-8.963 8.962-6.81-5.019c-2.509 3.586-5.02 9.321-5.02 13.982 0 8.963 2.868 16.132 10.755 29.04 8.604 14.341 12.19 26.529 12.19 36.927-.002 24.738-16.135 39.439-30.476 50.551m89.267-29.039c0 5.017-5.017 10.396-8.601 10.396-10.04 0-13.985-18.643-13.985-43.018 0-41.59 12.906-67.401 22.584-70.628zm33.346 24.018v-12.549h-6.456V113.774h-33.696v12.19h6.808v56.286c-16.848 4.302-50.549 22.945-50.549 78.873 0 44.811 19.362 62.382 40.871 62.382h3.227l8.248-8.604v7.527zm22.582 5.021-8.604-8.248c6.813-7.17 11.831-16.849 11.831-29.397 0-8.961-2.509-17.566-10.036-30.115-7.173-11.832-10.757-22.586-10.757-34.416 0-19.36 13.982-35.135 30.114-47.684l15.776 15.417-8.961 8.962-6.812-5.019c-2.509 3.586-5.018 9.321-5.018 13.982 0 8.963 2.866 16.132 10.753 29.04 8.608 14.341 12.192 26.529 12.192 36.927-.002 24.738-16.132 39.439-30.478 50.551" clip-rule="evenodd"/><path fill="#333" fill-rule="evenodd" d="M97.276 232.442c0-40.87 83.531-73.853 186.422-73.853 36.21 0 69.91 4.302 98.591 11.113-32.267-10.397-73.855-16.851-119.025-16.851-102.891 0-186.065 32.983-186.065 73.494 0 26.529 35.134 49.474 87.474 62.739-41.227-13.622-67.397-34.056-67.397-56.642M86.518 374.771c-1.79 0-3.227-.361-4.302-1.079l.719-1.791c1.076.718 2.151 1.075 3.585 1.075s3.586-1.075 3.586-4.3c0-3.942-1.793-6.812-3.943-10.039-2.867-3.943-3.944-6.452-3.944-9.679 0-4.299 2.867-6.812 6.812-6.812 1.793 0 3.227.718 3.945.718v3.942h-2.152l-.357-2.865h-1.434c-1.434 0-2.868 1.074-2.868 3.583 0 2.87 1.791 5.022 3.943 8.249 2.51 3.943 4.302 7.17 4.302 11.113-.004 5.733-4.306 7.885-7.892 7.885m22.586-30.476-4.658 16.494v11.83h1.075v1.791h-6.813v-1.791h1.436v-11.114l-5.02-17.21h-1.075v-2.152h5.377l3.943 14.34 3.944-14.34h2.866v2.152zm11.115 5.379c0 3.584-1.434 5.018-3.227 5.379v-10.758c1.793.361 3.227 1.793 3.227 5.379m5.377 14.34c0-5.018-2.15-7.888-3.586-8.604.718-.718 2.509-2.509 2.509-5.736 0-5.379-4.302-7.531-8.604-7.531h-4.661v2.152h1.077v28.322h-1.077v1.791h4.661c4.663.002 9.681-2.146 9.681-10.394m-4.659 0c0 6.812-2.152 8.248-3.943 8.603v-15.775c.359 0 1.434-.361 2.152-.361.714.72 1.791 3.233 1.791 7.533m15.773-11.831c0 5.736-2.509 9.322-3.586 10.04v-17.928c1.793 0 3.586 2.152 3.586 7.888m5.377 22.227v-1.791h-1.075c0-.718-.359-2.509-1.434-5.379-1.077-2.508-2.152-4.299-2.868-5.017 2.152-1.434 4.661-4.304 4.661-10.04 0-7.526-4.661-10.04-8.963-10.04h-4.66v2.152h1.077v28.322h-1.077v1.791h5.378v-10.035c.357.357 1.793 2.147 2.868 4.299.716 2.509 1.075 5.018 1.075 5.736h5.018zm11.474-16.13c0 12.905-1.077 14.696-2.509 14.696-1.434 0-2.509-1.791-2.509-14.696 0-12.549 1.075-14.339 2.509-14.339 1.432-.003 2.509 1.79 2.509 14.339m4.66 0c0-13.982-3.586-16.491-7.169-16.491-3.586 0-7.17 2.509-7.17 16.491s3.584 16.491 7.17 16.491c3.583 0 7.169-2.509 7.169-16.491m16.851-13.985v30.476h-2.868l-8.247-22.227v20.075h1.077v1.791h-4.661v-1.791h1.432v-28.324h-1.432v-2.152h4.3l7.888 21.871v-19.719h-1.075v-2.152h4.661v2.152zm18.284 13.985c0 11.83-2.509 14.339-3.943 14.339v-28.321c1.434-.003 3.943 2.506 3.943 13.982m4.661 0c0-13.982-5.379-16.134-10.04-16.134h-4.302v2.152h1.434v28.321h-1.434v1.791h4.302c4.661 0 10.04-1.791 10.04-16.13m2.15 16.13v-1.791h1.434V362.58h-1.434v-1.791h1.434v-16.494h-1.434v-2.152h11.473v4.661h-1.793l-.359-2.509h-3.586v16.494h4.304v1.791h-4.304v10.039h3.945l.718-2.509h1.791v4.3zm27.962-30.115v30.476h-3.224l-7.888-22.227v20.075h1.075v1.791h-4.661v-1.791h1.077v-28.324h-1.077v-2.152h4.304l7.886 21.871v-19.719h-1.075v-2.152h4.66v2.152zm14.342 4.306-.718-4.306h-2.15v28.324h1.075v1.791h-6.811v-1.791h1.075v-28.324h-2.152l-.716 4.306h-1.793v-6.458h13.983v6.458zm10.04 17.565h-4.661l2.15-13.622zm6.808 8.244v-1.791h-1.075l-5.379-30.476h-3.224l-5.379 30.476h-1.077v1.791h3.227l1.075-6.452h5.376l1.079 6.452zm1.079 0v-1.791h1.073v-28.324h-1.073v-2.152h6.809v2.152h-1.432v28.324h3.941l1.077-5.017h1.793v6.808zm24.018.361c-1.791 0-3.227-.361-4.3-1.079l.718-1.791c1.075.718 2.148 1.075 3.584 1.075s3.588-1.075 3.588-4.3c0-3.942-1.795-6.812-3.943-10.039-2.87-3.943-3.942-6.452-3.942-9.679 0-4.299 2.865-6.812 6.808-6.812 1.795 0 3.227.718 3.943.718v3.942h-1.791l-.718-2.865h-1.434c-1.075 0-2.509 1.074-2.509 3.583 0 2.87 1.434 5.022 3.588 8.249 2.866 3.943 4.3 7.17 4.3 11.113-.004 5.733-4.306 7.885-7.892 7.885m18.643-22.588c0 5.736-2.508 10.04-3.588 10.04v-17.928c2.154 0 3.588 2.87 3.588 7.888m4.661 0c0-7.526-4.304-10.04-9.321-10.04h-4.3v2.152h1.075v28.322h-1.075v1.791h6.808v-1.791h-1.433v-8.603c1.795-.357 8.246-3.225 8.246-11.831m1.793 22.227v-1.791h1.073V362.58h-1.073v-1.791h1.073v-16.494h-1.073v-2.152h11.47v4.661h-1.791l-.718-2.509h-3.584v16.494h4.302v1.791h-4.302v10.039h4.302l.361-2.509h1.791v4.3zm21.87.361c-3.588 0-8.964-1.434-8.964-16.491s5.378-16.134 8.603-16.134c1.434 0 2.509.361 2.509.361v3.942h-1.791l-.718-2.508h-.357c-1.434 0-3.588 3.226-3.588 14.339 0 12.905 2.87 14.696 5.022 14.696.714 0 1.075-.357 1.43-.357v1.791c.002 0-1.073.361-2.146.361m4.3-.361v-1.791h1.079v-28.324h-1.079v-2.152h6.813v2.152h-1.077v28.324h1.077v1.791zm17.566-8.244h-4.661l2.152-13.622zm6.813 8.244v-1.791h-1.075l-5.379-30.476h-3.227l-5.378 30.476h-1.075v1.791h3.227l1.074-6.452h5.379l1.075 6.452zm1.075 0v-1.791h1.077v-28.324h-1.077v-2.152h6.813v2.152h-1.436v28.324h3.945l1.077-5.017h1.793v6.808zm24.022-25.809-.361-4.306h-2.509v28.324h1.434v1.791h-7.17v-1.791h1.436v-28.324h-2.509l-.717 4.306h-1.796v-6.458h13.983v6.458zm3.582 25.809v-1.791h1.079v-28.324h-1.079v-2.152h6.815v2.152h-1.436v28.324h1.436v1.791zm8.605 0v-1.791h1.434V362.58h-1.434v-1.791h1.434v-16.494h-1.434v-2.152h11.474v4.661h-1.795l-.357-2.509h-3.584v16.494h4.302v1.791h-4.302v10.039h3.941l.722-2.509h1.791v4.3zm17.571.361q-2.693-.001-4.304-1.079l.718-1.791c1.075.718 2.152 1.075 3.588 1.075 1.43 0 3.584-1.075 3.584-4.3 0-3.942-1.791-6.812-3.943-10.039-2.87-3.943-3.943-6.452-3.943-9.679 0-4.299 2.87-6.812 6.813-6.812 1.791 0 3.227.718 3.943.718v3.942h-2.152l-.357-2.865h-1.434c-1.434 0-2.87 1.074-2.87 3.583 0 2.87 1.791 5.022 3.943 8.249 2.509 3.943 4.304 7.17 4.304 11.113-.005 5.733-4.308 7.885-7.89 7.885" clip-rule="evenodd"/></svg>