<svg xmlns="http://www.w3.org/2000/svg" width="500" height="312" fill="none"><g clip-path="url(#a)"><path fill="#ef7d17" fill-rule="evenodd" d="M131.218 110.356v41.02c0 1.279-1.451 1.984-2.483 1.214-13.12-9.802-30.396-9.41-43.295 1.305-11.356 9.436-13.42 25.514-10.362 37.769.379 1.527-1.503 2.558-2.601 1.436l-18.19-18.741a1.6 1.6 0 0 1-.275-.392c-7.044-13.834-5.162-32.51 8.246-43.251 12.806-10.271 29.99-10.141 42.458-.065 1.006.809 2.496.078 2.496-1.201V89.54c0-1.37 1.66-2.062 2.627-1.096l20.921 20.816c.288.287.458.679.458 1.096m-52.207 84.388c-.64-1.031.222-2.336 1.424-2.179 4.104.548 7.305.183 11.775-1.201 6.142-1.892 9.788-4.241 13.695-8.927.51-.6 1.398-.704 2.013-.208l21.719 17.449c.653.522.718 1.488.156 2.101-6.403 6.995-13.211 9.893-22.999 9.893-12.167 0-23.275-9.593-27.783-16.928m52.207 5.377v-42.337c0-.848.967-1.305 1.633-.77 13.212 10.467 30.959 10.297 44.131-.653 11.971-9.958 13.617-27.276 9.814-39.727-.3-1.005.941-1.736 1.673-.979l19.72 20.308c.078.078.13.156.183.248 7.083 13.834 5.214 32.562-8.207 43.316-13.107 10.506-30.788 10.128-43.308-.64-.64-.561-1.646-.078-1.646.77v42.364c0 .888-1.072 1.344-1.712.705l-22.007-21.887a1.02 1.02 0 0 1-.3-.704zm51.24-85.706c.954 1.41-.131 3.315-1.83 3.159-3.58-.34-6.586.078-10.65 1.318-5.959 1.827-9.579 4.098-13.356 8.522a1.995 1.995 0 0 1-2.77.261l-20.596-16.405a2.006 2.006 0 0 1-.261-2.897c6.129-6.8 12.846-9.697 22.412-9.789 11.565-.104 22.163 8.64 27.064 15.818z" clip-rule="evenodd"/><path fill="#5e3900" d="M265.401 172.218h-13.892v28.165h-19.536v-87.925h32.33c34.382 0 37.283 17.997 37.283 30.082s-1.79 29.678-36.172 29.678zm-.275-43.551h-13.617v28.021h13.617c14.44 0 16.505-7.831 16.505-13.874 0-6.042-2.065-14.147-16.505-14.147m78.957 72.812c-28.893 0-39.753-11.955-39.896-32.562h19.536c.419 9.201 5.371 16.209 19.812 16.209 12.244 0 16.505-3.85 17.053-9.345 1.921-18.963-53.644-5.076-54.467-36.543-.418-15.387 8.533-27.89 35.898-27.89 27.364 0 36.316 13.469 36.59 31.049h-19.393c-1.097-8.927-4.129-14.565-17.877-14.565-12.793 0-16.374 4.254-15.825 10.441 1.241 14.017 54.193 2.466 54.193 35.851 0 12.907-8.259 27.342-35.624 27.342zm63.825-72.812v21.704h38.786v15.792h-38.786v34.207h-19.393v-87.912H450v16.209z"/></g><defs><clipPath id="a"><path fill="#fff" d="M50 88h400v135H50z"/></clipPath></defs></svg>