<svg width="900" height="312" viewBox="0 0 900 312" fill="none" xmlns="http://www.w3.org/2000/svg">
<rect width="900" height="312" fill="white"/>
<g clip-path="url(#clip0_17_113)">
<path d="M134.059 155.925L174.552 113.931L228.231 113.23C210.549 79.2341 175.028 56.0001 134.059 56.0001C93.086 56.0001 57.563 79.2381 39.882 113.239L91.793 113.931L134.059 155.925Z" fill="#222222"/>
<path d="M39.647 113.7C32.1881 128.218 27.9513 144.664 27.9511 162.108C27.9514 203.181 51.303 238.778 85.4409 256.414L133.32 208.364L39.647 113.7Z" fill="#222222"/>
<path d="M240.167 162.108C240.167 144.483 235.845 127.877 228.241 113.25L133.32 208.364L181.532 257C216.292 239.574 240.167 203.639 240.167 162.108Z" fill="#222222"/>
<path d="M324.485 113.418L299.479 113.602L336.197 210H358.404L394.674 113.607L370.736 113.539L347.102 177.918L324.485 113.418Z" fill="#222222"/>
<path d="M413 113V210H483V190H435V170H474V151H435V134H483V113H413Z" fill="#222222"/>
<path d="M759.763 113.418L734.757 113.602L771.475 210H793.682L829.952 113.607L806.014 113.539L782.38 177.918L759.763 113.418Z" fill="#222222"/>
<path d="M649 113H625V210H649V113Z" fill="#222222"/>
<path d="M596 113H678V134H596V113Z" fill="#222222"/>
<path d="M717 113H695V210H717V113Z" fill="#222222"/>
<path d="M825 196H823V211H825V196Z" fill="#222222"/>
<path d="M834 195H832V211H834V195Z" fill="#222222"/>
<path d="M832.181 195L837.916 211H839.157L839.752 208.694L834.765 195H832.181Z" fill="#222222"/>
<path d="M845.387 195L839.652 211H838.473L837.816 208.694L842.803 195H845.387Z" fill="#222222"/>
<path d="M845 195H843V211H845V195Z" fill="#222222"/>
<path d="M818 195H831V197H818V195Z" fill="#222222"/>
<path d="M530 113H508V210H530V113Z" fill="#222222"/>
<path d="M530.054 112.914H548.564C550.866 112.914 554.442 113.251 554.961 113.34C559.983 114.197 583.546 119.476 583.546 145.982C583.546 173.227 556.034 177.108 551.826 177.542C551.511 177.575 551.198 177.591 550.881 177.591H530.054C524.951 177.591 524.951 159.112 530.054 159.112H549.299C550.729 159.112 552.138 158.785 553.417 158.145C556.392 156.655 561.015 153.182 561.015 145.982C561.015 137.735 554.316 134.965 551.325 134.139C550.547 133.924 549.742 133.824 548.935 133.824H530.054C524.951 133.824 524.951 112.914 530.054 112.914Z" fill="#222222"/>
<path d="M538.967 177.023L562.224 210L587.501 210L555.816 165.162L538.967 177.023Z" fill="#222222"/>
</g>
<defs>
<clipPath id="clip0_17_113">
<rect width="881" height="217" fill="white" transform="translate(10 48)"/>
</clipPath>
</defs>
</svg>
