<svg xmlns="http://www.w3.org/2000/svg" width="900" height="312" fill="none"><g clip-path="url(#a)"><path fill="#333" d="M57.668 219.384c4.517 7.865 11.389 11.519 20.05 12.488 31.065 3.541 123.665 1.604 123.813 1.604 21.955 0 39.616-10.029 44.396-30.794 1.232-5.294 2.165-23.188 1.083-42.203-1.158-19.72-10.156-32.768-37.04-34.594-35.695-2.424-86.177-1.268-106.601.82-10.902 1.118-17.25 8.574-17.1 18.714.335 24.194.597 27.886.858 29.227 10.828 1.567 10.716 1.641 11.053 1.045 1.904-3.505 5.45-5.854 9.446-6.3 4.592-.596 1.12-.41 96.967-1.865 3.735 0 5.974 1.677 6.648 5.369a55 55 0 0 1 .447 14.428c-.299 4.1-3.698 10.624-9.895 10.737-.149 0-68.627.334-101.337-1.194-9.893-.448-20.685-10.177-20.685-28.259 0-7.679 0-32.395.635-40.074a20.4 20.4 0 0 1 5.274-12.198 20.45 20.45 0 0 1 11.677-6.37c12.21-2.198 125.83-.857 133.037.784 20.499 4.659 22.217 29.227 22.292 29.712 1.904 14.092 2.09 29.974 1.94 44.327-.409 32.395-12.546 39.516-16.578 44.214-1.232 1.416.337 2.05 2.763 3.802 10.194-1.901 24.756-13.048 27.63-36.646 1.084-9.134 1.942-29.973.188-67.439-1.232-24.27-11.501-45.185-45.404-49.062-29.422-3.355-94.241-.67-123.328 0-50.817 1.156-49.846 30.122-49.846 41.904-.226 74.671-.15 84.326 7.616 97.823m351.053-96.892a6.85 6.85 0 0 1 4.333 1.305 8.3 8.3 0 0 1 2.612 3.466l25.391 62.296h-20.125c-.597-.113-.934-.709-1.196-1.715l-3.396-10.737c-.15-1.156-.785-1.416-2.203-1.416h-19.864c-1.42 0-2.092.26-2.203 1.417l-3.399 10.774c-.261 1.006-.56 1.602-1.195 1.715h-20.162l25.464-62.296a9 9 0 0 1 1.905-2.832 7.3 7.3 0 0 1 5.078-1.902l8.962-.075zm-11.424 39.032h13.777l-6.87-19.981zm-54.776 12.116c1.792 0 2.203-.521 2.128-2.198v-10.328c0-2.535-1.232-3.951-3.435-5.144-.597-.298-3.099-2.088-1.493-2.088h20.461c1.679 0 2.241.409 2.203 2.162v23.971c0 4.847-3.322 9.544-8.774 9.544h-34.763c-3.51 0-18.258-2.198-18.258-19.498v-27.96c0-17.335 14.748-19.609 18.258-19.572h41.409c1.792 0 2.203.559 2.166 2.237v10.625c0 1.677-.374 2.199-2.166 2.199h-30.805c-6.795 0-10.155 3.579-10.155 7.979V165.7c0 4.399 3.36 7.977 10.155 7.977.672-.037-.746-.073 13.069-.037m352.139 0c-6.797 0-10.157-3.579-10.157-7.978v-20.131c0-4.398 3.359-7.977 10.156-7.977h8.625c6.796 0 10.156 3.579 10.156 7.977v20.131c0 4.399-3.36 7.978-10.156 7.978zm19.264 15.919c3.511 0 18.259-2.198 18.259-19.498v-27.96c0-17.335-14.748-19.609-18.257-19.572h-29.835c-3.508 0-18.258 2.237-18.258 19.572v27.998c0 17.335 14.711 19.535 18.259 19.498zm-222.573-.485 23.3-39.516v37.914c0 1.043 0 2.125 1.942 2.125h15.084c1.419 0 1.942-.448 1.942-2.088 0-32.397.186-22.405 0-55.399 0-4.847-3.324-9.581-8.774-9.581h-7.17c-1.942-.223-3.845.672-4.966 2.274-22.478 34.522-20.984 32.695-22.216 32.956-1.232-.261.299 1.566-22.217-32.956-1.119-1.602-3.024-2.497-4.965-2.274h-7.244c-5.49 0-8.775 4.734-8.775 9.581v55.399c0 1.64.485 2.088 1.942 2.088h15.085c1.418 0 1.942-.448 1.942-2.088V149.52l23.299 39.517a.996.996 0 0 0 1.307.485.82.82 0 0 0 .485-.448zm165.858-14.054a2.36 2.36 0 0 0-1.718-.448h-21.32a2.08 2.08 0 0 1-1.447-.606 2.06 2.06 0 0 1-.606-1.444v-47.83c0-1.043 0-2.2-1.942-2.2h-15.122c-1.42 0-1.942.485-1.942 2.125v55.398c0 4.847 3.324 9.544 8.774 9.544h42.343a40.7 40.7 0 0 1-7.02-14.539m192.627-39.741c-3.397-11.034-14.375-12.787-17.361-12.75h-81.174c-5.451 0-8.736 4.734-8.774 9.581v55.399c0 1.64.485 2.088 1.942 2.088h14.112c1.42 0 1.942-.448 1.942-2.088v-22.294c0-1.118.935-2.05 2.054-2.05h16.205c1.793 0 2.165-.485 2.165-2.199v-9.732c0-1.714-.372-2.198-2.165-2.198h-16.243c-1.12 0-2.052-.896-2.052-2.015v-7.306c0-1.119.932-2.05 2.053-2.05h39.801v49.918c0 1.64.486 2.089 1.942 2.089h15.122c1.418 0 1.942-.449 1.942-2.089V137.59h26.36c1.755 0 2.688-.446 2.128-2.311zm-251.623 25.649c0 1.714-.373 2.237-2.165 2.199H564.61a2.07 2.07 0 0 0-2.053 2.05v7.308a2.07 2.07 0 0 0 2.053 2.05h35.285c1.793 0 2.167.56 2.167 2.2v10.662c0 1.677-.374 2.198-2.129 2.162h-46.561c-5.451 0-8.737-4.66-8.775-9.544V132.11c0-4.847 3.324-9.581 8.775-9.581h46.561c1.755 0 2.202.559 2.165 2.237v10.625c0 1.64-.372 2.199-2.128 2.199h-35.322a2.06 2.06 0 0 0-1.454.599 2.05 2.05 0 0 0-.599 1.452v7.307a2.07 2.07 0 0 0 2.053 2.05h31.44c1.792 0 2.165.485 2.165 2.198l-.037 9.732z"/></g><defs><clipPath id="a"><path fill="#fff" d="M50 78h800v156H50z"/></clipPath></defs></svg>