<svg xmlns="http://www.w3.org/2000/svg" width="900" height="312" fill="none"><g clip-path="url(#a)"><path fill="#005590" d="m280.955 141.965 16.796-62.679h24.653l-5.663 21.157h23.292l5.664-21.157h24.667l-16.797 62.679h-24.653l6.497-24.28h-23.293l-6.51 24.28zm86.272 0 12.215-45.618h21.738l-12.229 45.618zm45.932-45.618h19.753l-2.471 9.232h.209c4.941-7.135 11.105-10.536 19.642-10.536.943 0 1.832.18 2.776.263l-4.873 18.117a35 35 0 0 0-4.358-.528c-8.884 0-14.298 3.485-16.935 13.327l-4.165 15.757h-21.793zm56.663 31.43a3.71 3.71 0 0 0 1.18 4.165 8.2 8.2 0 0 0 4.942 1.388c3.345 0 7.135-.874 7.995-4.164 1.958-7.317-33.134-1.486-28.4-19.158 3.123-11.661 18.559-15.063 29.941-15.063 11.91 0 25.306 2.263 23.321 14.369h-19.739a3.456 3.456 0 0 0-1.208-3.304 6.5 6.5 0 0 0-4.081-1.139c-3.762 0-6.427.958-7.038 3.221-1.707 6.358 34.023 2.096 29.456 19.158-2.554 9.592-13.673 16.076-33.731 16.076-12.493 0-25.472-3.221-23.335-15.507zm57.677-48.491h21.738l-6.108 22.809c5.622-4.61 11.188-7.052 18.503-7.052 14.409 0 19.323 7.052 15.964 19.601l-7.329 27.293h-21.738l6.468-24.113c1.208-4.54.819-8.538-5.344-8.538-6.677 0-9.425 3.568-10.98 9.398l-6.219 23.253h-21.738zM255.317 220.859l16.796-62.693h24.653l-16.797 62.693zm49.93-45.604h19.85l-1.915 7.136c6.385-5.484 12.493-8.441 20.752-8.441 14.422 0 19.323 7.052 15.963 19.588l-7.315 27.335h-21.738l6.469-24.114c1.207-4.526.819-8.524-5.345-8.524-6.69 0-9.425 3.554-10.98 9.399l-6.232 23.239h-21.738zm97.585 45.604 1.624-6.094c-6.608 5.553-11.799 7.399-18.795 7.399-16.519 0-22.099-10.356-18.643-23.239 4.054-15.146 16.838-24.989 29.887-24.989 6.94 0 11.327 1.389 14.714 5.928l5.802-21.684h21.738l-16.796 62.679zm4.525-22.365c1.388-5.053.736-10.536-6.469-10.536-7.204 0-10.73 5.747-12.09 10.8-1.291 4.776-1.319 10.356 5.788 10.356 7.524 0 11.355-5.317 12.771-10.62m84.592 22.365H471.78l1.79-6.691c-7.107 6.261-12.895 7.996-21.89 7.996-11.91 0-18.046-6.081-14.506-19.144l7.44-27.765h21.738l-6.607 24.641c-1.68 6.261.402 8.33 5.621 8.33 6.261 0 9.301-3.929 11.189-10.967l5.927-22.004h21.738zM525 206.671a3.68 3.68 0 0 0 1.18 4.165 8.1 8.1 0 0 0 4.955 1.388c3.346 0 7.122-.861 7.996-4.081 1.957-7.316-33.148-1.486-28.415-19.158 3.124-11.675 18.559-15.063 29.942-15.063 11.924 0 25.305 2.263 23.32 14.369h-19.739a3.438 3.438 0 0 0-1.207-3.304 6.4 6.4 0 0 0-4.081-1.139c-3.762 0-6.427.958-7.038 3.221-1.694 6.358 34.023 2.082 29.456 19.158-2.541 9.495-13.673 15.937-33.732 15.937-12.493 0-25.458-3.235-23.32-15.507zm77.041 14.188c-28.873 1.305-31.927-.347-27.652-16.104l5.108-19.06h-7.731l2.776-10.454h8.051l3.803-14.188h21.433l-3.803 14.202h10.452l-2.776 10.454h-10.453l-4.428 16.547c-1.124 4.165-.777 5.637 5.275 5.637h3.456zm22.862-45.604h19.753l-2.471 9.232h.208c4.928-7.149 11.175-10.537 19.642-10.537.944 0 1.832.181 2.776.264l-4.858 18.117a35 35 0 0 0-4.345-.542c-8.884 0-14.311 3.485-16.949 13.341l-4.164 15.743h-21.808zm35.202 45.604 12.216-45.618h21.738l-12.229 45.618zm58.26-18.714c-1.388 5.401 2.623 8.968 8.328 8.968a12.03 12.03 0 0 0 9.259-3.928h20.822c-6.788 11.314-21.585 15.048-34.328 15.048-17.56 0-28.901-8.329-24.806-23.669 4.012-14.979 20.058-24.558 37.618-24.558 20.267 0 29.359 11.661 24.612 28.209zm22.21-9.231c1.124-4.165-2.374-7.913-7.496-7.913-6.469 0-10.939 3.04-12.243 7.913zm45.433 13.757a3.68 3.68 0 0 0 1.18 4.165 8.1 8.1 0 0 0 4.955 1.388c3.346 0 7.121-.861 7.996-4.081 1.957-7.316-33.148-1.486-28.415-19.158 3.123-11.675 18.559-15.063 29.956-15.063 11.91 0 25.291 2.263 23.306 14.369h-19.739a3.41 3.41 0 0 0-1.208-3.304 6.4 6.4 0 0 0-4.081-1.139c-3.761 0-6.427.958-7.023 3.221-1.708 6.358 34.008 2.082 29.441 19.158-2.54 9.495-13.672 15.937-33.731 15.937-12.493 0-25.472-3.235-23.32-15.507zM223.82 155.417c-12.146 45.34-58.856 82.226-104.109 82.226-20.905 0-38.492-7.927-49.528-22.309-11.646-15.174-14.797-35.692-8.884-57.751 12.133-45.326 58.884-82.281 104.109-82.281 13.34 0 25.333 3.248 35.133 9.329l2.249-8.33a75.1 75.1 0 0 0-37.382-9.329c-48.806 0-99.14 39.69-112.201 88.445-6.608 24.628-2.93 47.714 10.327 64.998 12.66 16.506 32.593 25.641 56.163 25.641 48.807 0 99.14-39.663 112.202-88.418a83.3 83.3 0 0 0 1.735-38.149h-8.565a74.34 74.34 0 0 1-1.249 35.984"/><path fill="#ed1c29" d="M242.574 79.064h-36.203l-2.165 8.107-7.524 28.084h36.189z"/><path fill="#005590" d="m66.283 221.067 28.65-106.908h35.037l-9.662 36.08h33.107l9.661-36.08h35.05l-28.637 106.908h-35.05l11.105-41.425h-33.106l-11.105 41.425zm773.889-48.588a8.422 8.422 0 0 1 8.373 10.01 8.43 8.43 0 0 1-11.477 6.21 8.421 8.421 0 0 1-5.224-7.794 8.2 8.2 0 0 1 8.328-8.426m0-1.389a9.816 9.816 0 1 0 3.773 18.882 9.815 9.815 0 0 0 6.055-9.067 9.711 9.711 0 0 0-9.828-9.815m-2.165 10.44h2.36l3.192 5.053h1.624l-3.373-5.053a3.04 3.04 0 0 0 2.776-3.165c0-2.027-1.124-3.138-3.678-3.138h-4.359v11.356h1.388zm0-1.18v-3.901h2.609c1.389 0 2.693.361 2.693 1.944 0 1.929-1.693 1.985-3.414 1.985z"/></g><defs><clipPath id="a"><path fill="#fff" d="M50 67h800v179H50z"/></clipPath></defs></svg>