<svg width="900" height="312" viewBox="0 0 900 312" fill="none" xmlns="http://www.w3.org/2000/svg">
<rect width="900" height="312" fill="none"/>
<g clip-path="url(#clip0_17_60)">
<path d="M813.671 292.436H818.024V260.088L843.597 292.436H847.165V252.99H842.812V284.599L817.863 252.99H813.671V292.436ZM772.194 288.996C763.14 288.996 756.579 281.675 756.579 272.711V272.597C756.579 263.637 763.035 256.43 772.084 256.43C781.138 256.43 787.708 263.751 787.708 272.711V272.82C787.708 281.78 781.252 288.996 772.194 288.996ZM772.084 293.109C784.135 293.109 792.338 283.59 792.338 272.711C792.4 272.659 792.4 272.659 792.338 272.597C792.338 261.723 784.254 252.317 772.194 252.317C760.147 252.317 751.945 261.836 751.945 272.711V272.82C751.945 283.699 760.033 293.109 772.084 293.109ZM725.749 292.436H730.217V252.99H725.749V292.436ZM687.269 292.436H691.799V257.103H705.096V252.99H673.981V257.103H687.269V292.436ZM638.056 288.996C629.002 288.996 622.441 281.675 622.441 272.711V272.597C622.441 263.637 628.888 256.43 637.942 256.43C647 256.43 653.552 263.751 653.552 272.711V272.82C653.552 281.78 647.114 288.996 638.056 288.996ZM637.942 293.109C649.998 293.109 658.2 283.59 658.2 272.711C658.262 272.659 658.262 272.659 658.2 272.597C658.2 261.723 650.107 252.317 638.056 252.317C626.005 252.317 617.798 261.836 617.798 272.711V272.82C617.798 283.699 625.895 293.109 637.942 293.109ZM560.829 292.436H565.182V260.543L579.612 281.614H579.836L594.261 260.481V292.436H598.729V252.99H594.209L579.779 274.511L565.354 252.99H560.829V292.436ZM494.117 293.109C500.792 293.109 506.339 290.351 510.017 287.082V271.356H493.665V275.364H505.716V285.168C503 287.366 498.808 289.105 494.288 289.105C484.668 289.105 478.612 282.121 478.612 272.711V272.597C478.612 263.812 484.897 256.43 493.665 256.43C499.27 256.43 502.662 258.283 505.716 260.941L508.609 257.553C504.641 254.232 500.511 252.317 493.832 252.317C481.952 252.317 473.973 261.898 473.973 272.711V272.82C473.973 284.097 481.676 293.109 494.117 293.109ZM419.155 292.436H423.508V260.088L449.081 292.436H452.64V252.99H448.286V284.599L423.337 252.99H419.155V292.436ZM391.204 292.436H395.671V252.99H391.204V292.436ZM355.274 293.109C362.458 293.109 366.987 290.351 371.117 286.177L368.172 283.305C364.385 286.907 360.816 288.996 355.388 288.996C346.672 288.996 340.054 281.837 340.054 272.711V272.597C340.054 263.528 346.62 256.43 355.388 256.43C360.764 256.43 364.494 258.681 367.839 261.836L370.884 258.567C366.93 254.852 362.624 252.317 355.44 252.317C343.789 252.317 335.415 261.552 335.415 272.711V272.82C335.415 284.149 343.846 293.109 355.274 293.109ZM280.593 292.436H284.946V260.088L310.518 292.436H314.087V252.99H309.729V284.599L284.779 252.99H280.593V292.436ZM231.646 278.003L240.699 257.889L249.701 278.003H231.646ZM220.613 292.436H225.204L229.895 282.012H251.452L256.091 292.436H260.905L242.855 252.706H238.668L220.613 292.436ZM188.993 292.711H192.956L209.984 252.99H205.174L191.029 286.968L176.942 252.99H171.965L188.993 292.711ZM126.244 288.323V257.103H135.517C145.541 257.103 151.931 263.973 151.931 272.711V272.82C151.931 281.562 145.541 288.323 135.517 288.323H126.244ZM121.777 292.436H135.517C147.968 292.436 156.569 283.812 156.569 272.711V272.597C156.569 261.5 147.968 252.99 135.517 252.99H121.777V292.436ZM72.8296 278.003L81.8835 257.889L90.8802 278.003H72.8296ZM61.8013 292.436H66.3829L71.0835 282.012H92.6311L97.2698 292.436H102.085L84.0339 252.706H79.8519L61.8013 292.436Z" fill="#4C4F54"/>
<path d="M307.549 147.351L288.966 147.896C271.215 148.446 263.294 154.43 263.294 165.304C263.294 175.904 270.673 183.257 284.332 183.257C295.798 183.257 303.182 178.903 307.549 175.103V147.351ZM314.924 206.375L310.28 194.956C301.812 202.571 290.07 209.095 272.861 209.095C249.097 209.095 230.523 193.056 230.523 167.749C230.523 141.101 251.561 126.678 284.608 125.588L307.549 124.778V121.513C307.549 106.005 296.621 99.7458 282.971 99.7458C268.765 99.7458 247.284 107.796 239.091 112.691L238.987 88.8715C256.195 77.4429 272.309 74.7326 289.513 74.7326C321.48 74.7326 340.867 87.7912 340.867 121.513V172.383C340.867 190.881 341.415 200.4 343.327 206.375H314.924Z" fill="#E72625"/>
<path d="M610.946 99.2104C595.103 99.2104 585.55 113.363 585.55 127.498H635.796C635.249 113.643 627.603 99.2104 610.946 99.2104ZM586.368 150.62C586.911 169.663 602.754 183.006 622.698 183.006C634.987 183.006 653 176.842 664.199 170.857L664.209 194.961C649.731 205.034 632.537 209.109 617.236 209.109C572.162 209.109 553.05 176.463 553.05 141.921C553.05 105.199 574.898 74.7373 611.77 74.7373C646.734 74.7373 669.242 101.12 669.242 141.106V150.62H586.368Z" fill="#E72625"/>
<path d="M451.564 77.0827C448.12 75.9029 444.466 75.1305 440.912 75.1305C428.628 75.1305 418.518 79.6177 405.134 91.3164L402.394 77.7176H374V206.375H406.771L406.519 116.884C415.254 108.995 423.875 104.053 431.378 102.551C438.129 101.181 445.065 100.423 451.564 102.352V77.0827Z" fill="#E72625"/>
<mask id="mask0_17_60" style="mask-type:luminance" maskUnits="userSpaceOnUse" x="49" y="25" width="801" height="269">
<path d="M49.9214 293.099H849.877V25.4831H49.9214V293.099Z" fill="none"/>
</mask>
<g mask="url(#mask0_17_60)">
<path d="M547.907 77.0827C544.463 75.9029 540.818 75.1305 537.255 75.1305C524.97 75.1305 514.86 79.6177 501.487 91.3164L498.746 77.7176H470.343V206.375H503.123L502.871 116.884C511.597 108.995 520.217 104.053 527.725 102.551C534.481 101.181 541.408 100.423 547.907 102.352V77.0827Z" fill="#E72625"/>
<path d="M849.924 103.048V78.5706H824.923V41.9771L792.152 41.4369V78.5706H739.713V41.9771L706.933 41.4369V78.5706H682.145V103.048H706.933V171.554C706.933 196.823 731.658 210.014 762.916 210.014V181.812C749.319 181.812 739.713 175.392 739.713 165.337V103.048H792.152V171.554C792.152 196.823 816.445 210.014 847.707 210.014V181.812C834.105 181.812 824.923 175.392 824.923 165.337V103.048H849.924Z" fill="#E72625"/>
<path d="M204.689 134.889V110.194H140.779L173.288 139.215V178.135C165.071 180.931 156.922 181.898 149.937 181.898C110.606 181.898 85.9798 153.601 85.9798 116.064C85.9798 81.5178 107.052 52.695 154.295 52.695C173.15 52.695 191.029 58.3098 204.679 65.3793V35.0214C191.576 30.3874 173.973 25.488 151.022 25.488C90.9326 25.488 49.9214 65.4693 49.9214 118.779C49.9214 169.649 85.4803 209.095 141.73 209.095C166.965 209.095 188.67 203.096 204.679 195.624V195.439H204.689V134.889Z" fill="#E72625"/>
</g>
</g>
<defs>
<clipPath id="clip0_17_60">
<rect width="800" height="273" fill="none" transform="translate(50 20)"/>
</clipPath>
</defs>
</svg>
